<?xml version="1.0" encoding="UTF-8"?>
<!DOCTYPE svg PUBLIC "-//W3C//DTD SVG 1.1//EN" "http://www.w3.org/Graphics/SVG/1.1/DTD/svg11.dtd">
<!-- Creator: CorelDRAW 2019 (64-Bit) -->
<svg xmlns="http://www.w3.org/2000/svg" xml:space="preserve" width="1.7798mm" height="1.7771mm" version="1.1" style="shape-rendering:geometricPrecision; text-rendering:geometricPrecision; image-rendering:optimizeQuality; fill-rule:evenodd; clip-rule:evenodd"
viewBox="0 0 3.48 3.47"
 xmlns:xlink="http://www.w3.org/1999/xlink"
 xmlns:xodm="http://www.corel.com/coreldraw/odm/2003">
 <defs>
  <style type="text/css">
   <![CDATA[
    .fil0 {fill:#FEFEFE}
   ]]>
  </style>
 </defs>
 <g id="Layer_x0020_1">
  <metadata id="CorelCorpID_0Corel-Layer"/>
  <g id="_1800099903840">
   <path class="fil0" d="M2.23 2.45l-0.1 0 0 0.34c0,0.13 -0.17,0.17 -0.24,0.07 -0.03,-0.04 -0.03,-0.06 -0.03,-0.12 0,-0.07 -0.01,-0.24 0.01,-0.29l-0.26 0 0 0.34c0,0.07 -0.06,0.12 -0.15,0.12 -0.05,0 -0.12,-0.06 -0.12,-0.12l0 -0.34c-0.06,0 -0.14,0.01 -0.19,-0.03 -0.03,-0.02 -0.05,-0.06 -0.05,-0.1l0 -1.01 1.25 0c0.02,0 0.02,0.01 0.02,0.02l0 0.93c0,0.1 -0.04,0.2 -0.15,0.2zm0.24 -0.41l0 -0.61c0,-0.06 0.05,-0.12 0.11,-0.12l0.05 0c0.06,0 0.11,0.06 0.11,0.12l0 0.61c0,0.06 -0.07,0.12 -0.13,0.12 -0.06,0 -0.13,-0.06 -0.13,-0.12zm-1.73 -0.02l0 -0.6c0,-0.05 0.06,-0.12 0.11,-0.12l0.05 0c0.05,0 0.11,0.06 0.11,0.11l0 0.62c0,0.15 -0.27,0.16 -0.27,-0.02zm0.58 -1.44c0,-0.08 0.07,0.04 0.08,0.05 0.02,0.04 0.05,0.07 0.07,0.11 0.19,-0.04 0.1,-0.05 0.32,-0.05 0.05,0 0.08,0.01 0.12,0.01 0.04,0.01 0.07,0.02 0.11,0.03l0.11 -0.16c0.02,-0.02 -0.01,-0.01 0.03,-0.02 0.02,0.04 -0.05,0.11 -0.1,0.2 0.18,0.09 0.32,0.23 0.32,0.45l-1.26 0c0,-0.22 0.19,-0.41 0.32,-0.44 -0.01,-0.04 -0.11,-0.15 -0.11,-0.18zm-1.32 1.15c0,0.1 0.01,0.19 0.03,0.29 0.03,0.21 0.11,0.43 0.22,0.6 0.04,0.07 0.15,0.22 0.21,0.28l0.3 0.26c0.51,0.37 1.3,0.4 1.84,0.08 0.07,-0.04 0.14,-0.08 0.2,-0.13 0.56,-0.43 0.82,-1.17 0.62,-1.85 -0.01,-0.05 -0.02,-0.08 -0.04,-0.12 -0.13,-0.32 -0.23,-0.46 -0.46,-0.68 -0.15,-0.15 -0.42,-0.3 -0.62,-0.37 -0.37,-0.12 -0.75,-0.12 -1.12,-0 -0.14,0.05 -0.32,0.14 -0.44,0.22 -0.04,0.03 -0.08,0.06 -0.12,0.1 -0.02,0.02 -0.04,0.03 -0.06,0.05 -0.14,0.14 -0.24,0.24 -0.34,0.42 -0.15,0.27 -0.23,0.55 -0.23,0.86z"/>
   <path class="fil0" d="M1.4 0.96c0,0.09 0.14,0.1 0.14,0 0,-0.09 -0.14,-0.09 -0.14,0z"/>
   <path class="fil0" d="M1.94 0.96c0,0.09 0.14,0.1 0.14,0 0,-0.1 -0.14,-0.08 -0.14,0z"/>
  </g>
 </g>
</svg>
