<?xml version="1.0" encoding="UTF-8"?>
<!DOCTYPE svg PUBLIC "-//W3C//DTD SVG 1.1//EN" "http://www.w3.org/Graphics/SVG/1.1/DTD/svg11.dtd">
<!-- Creator: CorelDRAW 2019 (64-Bit) -->
<svg xmlns="http://www.w3.org/2000/svg" xml:space="preserve" width="1.7795mm" height="1.7803mm" version="1.1" style="shape-rendering:geometricPrecision; text-rendering:geometricPrecision; image-rendering:optimizeQuality; fill-rule:evenodd; clip-rule:evenodd"
viewBox="0 0 3.31 3.31"
 xmlns:xlink="http://www.w3.org/1999/xlink"
 xmlns:xodm="http://www.corel.com/coreldraw/odm/2003">
 <defs>
  <style type="text/css">
   <![CDATA[
    .fil0 {fill:#FEFEFE}
   ]]>
  </style>
 </defs>
 <g id="Layer_x0020_1">
  <metadata id="CorelCorpID_0Corel-Layer"/>
  <path class="fil0" d="M2.21 1.61c0,0.16 0.09,0.32 0.22,0.4 0.02,0.01 0.04,0.02 0.06,0.03 -0.06,0.13 -0.04,0.15 -0.17,0.33 -0.07,0.09 -0.16,0.22 -0.29,0.22 -0.16,0 -0.14,-0.08 -0.38,-0.08 -0.21,0 -0.32,0.27 -0.62,-0.16 -0.02,-0.03 -0.05,-0.07 -0.07,-0.11 -0.07,-0.12 -0.16,-0.36 -0.16,-0.54 0,-0.12 -0,-0.23 0.05,-0.34 0.12,-0.26 0.35,-0.41 0.64,-0.3 0.24,0.09 0.17,0.05 0.39,-0.02 0.14,-0.04 0.3,-0.04 0.43,0.05 0.04,0.03 0.12,0.09 0.13,0.14 -0.07,0.02 -0.17,0.16 -0.2,0.25 -0.01,0.03 -0.02,0.1 -0.02,0.13zm-0.56 -0.62c0,-0.14 0.04,-0.25 0.13,-0.34 0.06,-0.06 0.18,-0.14 0.29,-0.14 0,0.14 -0.04,0.26 -0.12,0.34 -0.07,0.07 -0.16,0.13 -0.29,0.13zm-1.64 0.66c0,0.05 0.01,0.14 0.01,0.19 0.01,0.06 0.02,0.12 0.03,0.18 0.08,0.32 0.22,0.57 0.45,0.8l0.1 0.1c0.1,0.09 0.26,0.19 0.38,0.24l0.15 0.06c0.11,0.04 0.31,0.09 0.44,0.08 0.05,-0 0.06,0.01 0.1,0.01 0.04,0 0.05,-0.01 0.09,-0.01 0.22,0 0.54,-0.1 0.73,-0.21 0.08,-0.05 0.17,-0.11 0.25,-0.17 0.1,-0.09 0.12,-0.11 0.2,-0.2 0.14,-0.16 0.23,-0.34 0.3,-0.53 0.02,-0.05 0.03,-0.11 0.05,-0.16 0.04,-0.18 0.05,-0.38 0.03,-0.56 -0.01,-0.06 -0.02,-0.12 -0.03,-0.18 -0.05,-0.21 -0.13,-0.41 -0.25,-0.58l-0.29 -0.32c-0.04,-0.03 -0.07,-0.06 -0.12,-0.09 -0.36,-0.26 -0.86,-0.36 -1.31,-0.26 -0.21,0.05 -0.4,0.13 -0.58,0.25l-0.17 0.14c-0.26,0.27 -0.4,0.47 -0.5,0.85 -0.01,0.06 -0.02,0.11 -0.03,0.18 -0.01,0.05 -0.01,0.14 -0.01,0.19z"/>
 </g>
</svg>
