<?xml version="1.0" encoding="UTF-8"?>
<!DOCTYPE svg PUBLIC "-//W3C//DTD SVG 1.1//EN" "http://www.w3.org/Graphics/SVG/1.1/DTD/svg11.dtd">
<!-- Creator: CorelDRAW 2019 (64-Bit) -->
<svg xmlns="http://www.w3.org/2000/svg" xml:space="preserve" width="38.1176mm" height="2.9799mm" version="1.1" style="shape-rendering:geometricPrecision; text-rendering:geometricPrecision; image-rendering:optimizeQuality; fill-rule:evenodd; clip-rule:evenodd"
viewBox="0 0 1304.49 101.98"
 xmlns:xlink="http://www.w3.org/1999/xlink"
 xmlns:xodm="http://www.corel.com/coreldraw/odm/2003">
 <defs>
  <style type="text/css">
   <![CDATA[
    .fil17 {fill:#A8518A}
    .fil0 {fill:#5FA9F3}
    .fil8 {fill:#6F5DAD}
    .fil4 {fill:#ACC6F7}
    .fil3 {fill:#C7DAFA}
    .fil10 {fill:#D4D7E7}
    .fil2 {fill:#E7EBF8}
    .fil5 {fill:#EE3B3A}
    .fil7 {fill:#F1D5CD}
    .fil9 {fill:#F3EEF2}
    .fil15 {fill:#F8D190}
    .fil14 {fill:#F8E4B5}
    .fil12 {fill:#F9AD0C}
    .fil11 {fill:#FAF9F6}
    .fil1 {fill:#FAFAF8}
    .fil16 {fill:#FBF2D6}
    .fil6 {fill:#FCF2ED}
    .fil13 {fill:#FDF2E4}
   ]]>
  </style>
 </defs>
 <g id="Layer_x0020_1">
  <metadata id="CorelCorpID_0Corel-Layer"/>
  <g id="_1800017818880">
   <path class="fil0" d="M944.81 47.02c4.96,-13.68 5.09,-7.49 0.85,-22.58l17.21 0.23c-4.39,17.11 -1.89,7.05 0.43,21.86l-18.49 0.49zm-22.47 -22.92l0.05 7.27 -1.46 16.54c5.32,6.45 8.87,26.16 45.18,18.83 21.96,-4.44 20.39,-21.53 20.06,-44.74l-0.17 -3.45c-10.47,-12.02 -8.29,-16.28 -33.71,-15.82 -17.58,0.32 -25.03,6.97 -29.96,21.37z"/>
   <path class="fil1" d="M986 18.56l0.17 3.45 2.9 8.01c39.79,53.46 -52.24,66.7 -72.99,38.58 -6.04,-8.18 -10.79,-33.35 6.31,-37.21l-0.05 -7.27c-14.48,3.84 -18.7,11.14 -18.06,27.68 1.4,36.24 3.31,26.09 -5.15,30.58l8.73 7.79c14.21,10.9 81.77,9.2 96.74,-5.34l6.24 -7.68c-6.65,-4.92 -3.72,-12.36 -3.72,-12.38 1.13,-49.6 -6.61,-16.48 -10.47,-43.45 -4.72,0.81 -4.25,-0.3 -10.64,-2.75z"/>
   <path class="fil2" d="M920.93 47.91l1.46 -16.54c-17.1,3.87 -12.34,29.03 -6.31,37.21 20.76,28.12 112.78,14.88 72.99,-38.58 3.63,22.66 -0.2,37.97 -21.57,42.61 -10.11,2.2 -23.68,1.78 -31.91,-1.63 -10.25,-4.23 -13.56,-9.36 -14.66,-23.08z"/>
   <path class="fil3" d="M920.93 47.91c1.1,13.72 4.41,18.84 14.66,23.08 8.24,3.41 21.8,3.83 31.91,1.63 21.37,-4.64 25.21,-19.94 21.57,-42.61l-2.9 -8.01c0.33,23.21 1.9,40.3 -20.06,44.74 -36.31,7.33 -39.86,-12.37 -45.18,-18.83z"/>
   <path class="fil4" d="M944.81 47.02l18.49 -0.49c-2.32,-14.81 -4.82,-4.75 -0.43,-21.86l-17.21 -0.23c4.24,15.1 4.11,8.9 -0.85,22.58z"/>
  </g>
  <g id="_1800017823808">
   <path class="fil5" d="M1245.38 30.26c3.85,-1.94 5.56,-4.99 18.19,-0.75 1.75,9.34 -2.05,10.68 -9.36,14.07 -5.17,-5 -6.93,-4.35 -8.82,-13.32zm-21.99 -8.3c-0.45,26.23 -2.48,43.49 25.11,45.83 28.13,2.38 37.48,-5.08 38.18,-31.55l-0.5 -13.93c-3.2,-8.41 -2.45,-8.05 -11.73,-15.14 -0.54,-0.41 -1.23,-0.87 -1.76,-1.27l-5.53 -4.01c-9.11,2.64 -16.64,2.79 -25.34,0.13 -0.6,0.53 -1.58,0.41 -1.9,1.44 -0.95,3.03 -2.4,1.78 -3.72,2.78 -7.12,5.36 -9.14,5.56 -12.79,15.72z"/>
   <path class="fil6" d="M1286.67 36.24c25.98,19.64 -2.61,43.43 -32.51,43.54 -45.57,0.17 -36.55,-21.99 -34.65,-53.33 -22.96,10.2 -27.36,64.4 37.52,62.96 58.85,-1.3 55.93,-54.2 29.14,-67.1l0.5 13.93z"/>
   <path class="fil7" d="M1286.67 36.24c-0.7,26.47 -10.05,33.93 -38.18,31.55 -27.59,-2.33 -25.55,-19.6 -25.11,-45.83 -5.13,0 -3.5,-1.15 -3.88,4.49 -1.9,31.33 -10.92,53.5 34.65,53.33 29.9,-0.11 58.5,-23.9 32.51,-43.54z"/>
   <path class="fil1" d="M1245.38 30.26c1.89,8.97 3.65,8.32 8.82,13.32 7.31,-3.39 11.12,-4.73 9.36,-14.07 -12.62,-4.25 -14.33,-1.19 -18.19,0.75z"/>
  </g>
  <g id="_1800017810496">
   <path class="fil8" d="M49.18 41.06c-6.75,-6.18 -0.81,-0.82 -7.79,-4.24l-0.52 -14.7c8.22,3.9 5.88,3.54 12.53,8.26 -2.33,4.74 -2.05,5.68 -4.23,10.68zm-23.88 -38.67c-3.41,7.28 -5.75,8.57 -8.25,18.07l-0.28 18.58c4.08,19.63 13.41,25.34 36.03,24.26 22.78,-1.09 27.34,-12.62 27.55,-34.59l-0.04 -10.51c-1.44,-3.58 -1.57,-4.13 -3.91,-7.65l-8.24 -10.56c-16.12,1.03 -24.81,-0.42 -42.85,2.38z"/>
   <path class="fil9" d="M80.32 18.21l0.04 10.51c31.81,48.3 -57.38,57.69 -66.18,26.59 -1.97,-6.95 -1.11,-11.71 2.6,-16.27l0.28 -18.58c-17.61,9.8 -28.5,36.26 2.81,57.42 14.73,9.95 89.2,12.84 75.37,-39.18 -2.34,-8.8 -6.25,-13.65 -12.91,-19.04 -0.47,-0.38 -1.34,-0.97 -2.01,-1.44z"/>
   <path class="fil10" d="M16.78 39.04c-3.72,4.55 -4.57,9.32 -2.6,16.27 8.8,31.1 98,21.71 66.18,-26.59 -0.21,21.96 -4.77,33.5 -27.55,34.59 -22.62,1.08 -31.95,-4.63 -36.03,-24.26z"/>
   <path class="fil11" d="M49.18 41.06c2.18,-5 1.9,-5.94 4.23,-10.68 -6.66,-4.72 -4.32,-4.35 -12.53,-8.26l0.52 14.7c6.97,3.42 1.04,-1.94 7.79,4.24z"/>
  </g>
  <g id="_1800017811840">
   <path class="fil12" d="M374.35 31.67c0.61,0.83 1.37,1.67 1.87,2.45l5.98 11.39c-13.69,3.8 -7.04,2.26 -15.01,-2.72 -3.31,2.02 5.62,4.57 -7.18,1.46 -1.57,-13.61 -0.67,3.79 5.97,-15.54 10.91,2.31 3.94,-1.02 8.38,2.96zm-23.55 -25.94l-11.56 16.63c-1.63,28.57 -2.64,53.31 41.78,46.28 12.44,-1.97 14.1,-6.46 20.71,-12.18l-0.31 -32.1c-3.49,-11.24 -6.41,-11.88 -16.88,-19.67 -0.44,-0.33 -1.28,-0.89 -1.88,-1.39l-31.86 2.43z"/>
   <path class="fil13" d="M401.73 56.46c0.16,13.25 -3.12,15.79 -16.36,19.2 -9.46,2.44 -21.39,2.44 -31,-0.13 -20.68,-5.54 -23.11,-21.38 -19.05,-46.74 -23.2,7.44 -25.05,62.63 37.24,62.72 16.81,0.02 21.67,-0.68 31.5,-8.94l11.58 -13.04c9.97,-20.98 -0.62,-36.88 -14.23,-45.16l0.31 32.1z"/>
   <path class="fil14" d="M335.32 28.78c-4.06,25.37 -1.63,41.2 19.05,46.74 9.61,2.58 21.53,2.57 31,0.13 13.24,-3.42 16.52,-5.95 16.36,-19.2 -6.61,5.73 -8.27,10.22 -20.71,12.18 -44.42,7.03 -43.41,-17.71 -41.78,-46.28l-3.91 6.42z"/>
   <path class="fil15" d="M367.18 42.8c7.97,4.99 1.33,6.52 15.01,2.72l-5.98 -11.39c-0.5,-0.78 -1.26,-1.62 -1.87,-2.45l-7.19 1.68 0.02 9.44z"/>
   <path class="fil16" d="M367.18 42.8l-0.02 -9.44 7.19 -1.68c-4.44,-3.98 2.53,-0.65 -8.38,-2.96 -6.63,19.33 -7.54,1.93 -5.97,15.54 12.8,3.11 3.87,0.56 7.18,-1.46z"/>
  </g>
  <g id="_1800017815744">
   <path class="fil17" d="M670.65 51.8c4.96,-13.68 5.09,-7.48 0.85,-22.58l17.21 0.23c-4.39,17.11 -1.88,7.05 0.43,21.86l-18.49 0.49zm-22.47 -22.91l0.05 7.27 -1.46 16.54c5.32,6.45 8.87,26.16 45.18,18.82 21.96,-4.44 20.39,-21.52 20.06,-44.73l-0.17 -3.45c-10.47,-12.02 -8.29,-16.28 -33.71,-15.82 -17.58,0.31 -25.03,6.97 -29.96,21.37z"/>
   <path class="fil1" d="M711.84 23.34l0.17 3.45 2.9 8c39.79,53.47 -52.23,66.7 -72.99,38.58 -6.04,-8.18 -10.79,-33.35 6.31,-37.22l-0.05 -7.27c-14.48,3.84 -18.7,11.14 -18.06,27.68 1.4,36.24 3.31,26.1 -5.15,30.58l8.73 7.78c14.21,10.9 81.77,9.2 96.74,-5.34l6.23 -7.67c-6.65,-4.92 -3.72,-12.36 -3.72,-12.38 1.13,-49.6 -6.61,-16.48 -10.47,-43.46 -4.72,0.81 -4.25,-0.3 -10.64,-2.74z"/>
   <path class="fil2" d="M646.77 52.69l1.46 -16.54c-17.1,3.87 -12.34,29.03 -6.31,37.22 20.76,28.12 112.78,14.88 72.99,-38.58 3.63,22.67 -0.2,37.97 -21.57,42.61 -10.11,2.2 -23.68,1.77 -31.91,-1.63 -10.26,-4.23 -13.56,-9.36 -14.66,-23.08z"/>
   <path class="fil3" d="M646.77 52.69c1.1,13.72 4.4,18.84 14.66,23.08 8.24,3.4 21.8,3.83 31.91,1.63 21.37,-4.64 25.2,-19.94 21.57,-42.61l-2.9 -8c0.33,23.21 1.9,40.3 -20.06,44.73 -36.31,7.34 -39.86,-12.37 -45.18,-18.82z"/>
   <path class="fil4" d="M670.65 51.8l18.49 -0.49c-2.32,-14.81 -4.82,-4.75 -0.43,-21.86l-17.21 -0.23c4.24,15.1 4.11,8.9 -0.85,22.58z"/>
  </g>
 </g>
</svg>
