<?xml version="1.0" encoding="UTF-8"?>
<!DOCTYPE svg PUBLIC "-//W3C//DTD SVG 1.1//EN" "http://www.w3.org/Graphics/SVG/1.1/DTD/svg11.dtd">
<!-- Creator: CorelDRAW 2019 (64-Bit) -->
<svg xmlns="http://www.w3.org/2000/svg" xml:space="preserve" width="16.604mm" height="15.7392mm" version="1.1" style="shape-rendering:geometricPrecision; text-rendering:geometricPrecision; image-rendering:optimizeQuality; fill-rule:evenodd; clip-rule:evenodd"
viewBox="0 0 223.32 211.69"
 xmlns:xlink="http://www.w3.org/1999/xlink"
 xmlns:xodm="http://www.corel.com/coreldraw/odm/2003">
 <defs>
  <style type="text/css">
   <![CDATA[
    .str1 {stroke:#4D8494;stroke-width:2.69;stroke-miterlimit:22.9256}
    .str2 {stroke:#4E8B9F;stroke-width:2.69;stroke-miterlimit:22.9256}
    .str0 {stroke:#9A7259;stroke-width:1.02;stroke-miterlimit:22.9256}
    .fil17 {fill:#4D8494}
    .fil18 {fill:#4E8B9F}
    .fil12 {fill:#FEFEFE;fill-rule:nonzero}
    .fil6 {fill:#BDBFC1;fill-rule:nonzero}
    .fil5 {fill:#F8C1D1;fill-rule:nonzero}
    .fil7 {fill:#2F2E41;fill-rule:nonzero}
    .fil1 {fill:#3F3D56;fill-rule:nonzero}
    .fil2 {fill:#488090;fill-rule:nonzero}
    .fil4 {fill:#4D8494;fill-rule:nonzero}
    .fil3 {fill:#4E8B9F;fill-rule:nonzero}
    .fil16 {fill:#5F909F;fill-rule:nonzero}
    .fil11 {fill:#836053;fill-rule:nonzero}
    .fil13 {fill:#8CABBF;fill-rule:nonzero}
    .fil15 {fill:#976F50;fill-rule:nonzero}
    .fil8 {fill:#9A7259;fill-rule:nonzero}
    .fil14 {fill:#9BB2C6;fill-rule:nonzero}
    .fil9 {fill:#A37B61;fill-rule:nonzero}
    .fil10 {fill:#D0CDE1;fill-rule:nonzero}
    .fil0 {fill:#E6E8EC;fill-rule:nonzero}
   ]]>
  </style>
 </defs>
 <g id="Layer_x0020_1">
  <metadata id="CorelCorpID_0Corel-Layer"/>
  <g id="_1799985112656">
   <rect class="fil0" transform="matrix(0.0762469 -0.0146436 0.0146436 0.0762469 39.8027 28.8826)" width="1487.5" height="1912.98"/>
   <rect class="fil1" transform="matrix(0.0762469 -0.0146436 0.0146436 0.0762469 71.4887 50.1742)" width="759.42" height="8.53"/>
   <rect class="fil1" transform="matrix(0.0762469 -0.0146436 0.0146436 0.0762469 72.3633 54.7284)" width="759.42" height="8.53"/>
   <rect class="fil1" transform="matrix(0.0762469 -0.0146436 0.0146436 0.0762469 73.238 59.2826)" width="759.42" height="8.53"/>
   <rect class="fil2" transform="matrix(0.0762469 -0.0146436 0.0146436 0.0762469 78.0025 84.0908)" width="759.42" height="8.53"/>
   <rect class="fil3" transform="matrix(0.0762469 -0.0146436 0.0146436 0.0762469 78.8772 88.645)" width="759.42" height="8.53"/>
   <rect class="fil1" transform="matrix(0.0762469 -0.0146436 0.0146436 0.0762469 79.7518 93.1992)" width="759.42" height="8.53"/>
   <rect class="fil1" transform="matrix(0.0762469 -0.0146436 0.0146436 0.0762469 81.963 104.712)" width="759.42" height="8.53"/>
   <rect class="fil1" transform="matrix(0.0762469 -0.0146436 0.0146436 0.0762469 82.8376 109.266)" width="759.42" height="8.53"/>
   <rect class="fil1" transform="matrix(0.0762469 -0.0146436 0.0146436 0.0762469 83.7123 113.82)" width="759.42" height="8.53"/>
   <rect class="fil1" transform="matrix(0.0762469 -0.0146436 0.0146436 0.0762469 85.9234 125.333)" width="759.42" height="8.53"/>
   <rect class="fil3" transform="matrix(0.0762469 -0.0146436 0.0146436 0.0762469 86.7981 129.888)" width="759.42" height="8.53"/>
   <rect class="fil1" transform="matrix(0.0762469 -0.0146436 0.0146436 0.0762469 87.6727 134.442)" width="759.42" height="8.53"/>
   <rect class="fil1" transform="matrix(0.0762469 -0.0146436 0.0146436 0.0762469 89.8838 145.955)" width="759.42" height="8.53"/>
   <rect class="fil1" transform="matrix(0.0762469 -0.0146436 0.0146436 0.0762469 90.7585 150.509)" width="759.42" height="8.53"/>
   <rect class="fil1" transform="matrix(0.0762469 -0.0146436 0.0146436 0.0762469 91.6331 155.063)" width="759.42" height="8.53"/>
   <path class="fil1" d="M191.27 161.99l-121.83 23.4 -31.11 -161.99 121.83 -23.4 31.11 161.98zm-121.39 22.75l120.74 -23.19 -30.9 -160.9 -120.74 23.19 30.9 160.9z"/>
   <path class="fil4" d="M135.58 17.8c-0.24,-1.26 0.21,-2.55 1.18,-3.39 -0.6,-0.21 -1.24,-0.25 -1.86,-0.13 -1.95,0.37 -3.22,2.26 -2.85,4.2 0.38,1.95 2.26,3.22 4.21,2.85 0.62,-0.12 1.2,-0.4 1.68,-0.82 -1.21,-0.42 -2.11,-1.45 -2.35,-2.71l0 -0z"/>
   <path class="fil5" d="M140.19 16.92c-0.24,-1.26 0.21,-2.55 1.18,-3.39 -0.6,-0.21 -1.24,-0.26 -1.86,-0.14 -1.95,0.37 -3.22,2.26 -2.85,4.2 0.37,1.95 2.26,3.22 4.2,2.85 0.62,-0.12 1.2,-0.4 1.68,-0.82 -1.21,-0.42 -2.11,-1.45 -2.35,-2.71l0 0z"/>
   <circle class="fil4" transform="matrix(0.0762469 -0.0146436 0.0146436 0.0762469 144.807 16.0309)" r="46.26"/>
   <path class="fil1" d="M170.24 166.32l-0.31 -0.05c-0.07,-0.01 -6.91,-1.23 -10.95,-6.19 -4.05,-4.96 -3.86,-11.9 -3.86,-11.97l0.01 -0.32 0.31 0.05c0.07,0.01 6.91,1.23 10.95,6.19 4.05,4.96 3.87,11.9 3.86,11.97l-0.01 0.32zm-10.84 -6.59c3.42,4.19 8.91,5.62 10.29,5.93 -0.02,-1.41 -0.32,-7.09 -3.74,-11.28 -3.42,-4.19 -8.91,-5.62 -10.29,-5.93 0.02,1.41 0.32,7.09 3.74,11.28z"/>
   <path class="fil5" d="M160.88 157.7c5.98,2.2 9.28,8.21 9.28,8.21 0,0 -6.4,2.45 -12.38,0.25 -5.98,-2.2 -9.28,-8.21 -9.28,-8.21 0,0 6.4,-2.45 12.38,-0.25z"/>
   <path class="fil6" d="M69.62 62.54c2.07,10.79 -1.96,21.85 -10.48,28.79 -0.31,0.26 -0.63,0.51 -0.96,0.75 -3.61,2.69 -7.8,4.54 -12.23,5.39 -4.47,0.86 -9.08,0.68 -13.46,-0.51 -0.76,-0.2 -1.5,-0.44 -2.23,-0.7 -0.74,-0.26 -1.47,-0.56 -2.19,-0.88 -8.86,-3.99 -15.22,-12.04 -17.06,-21.58 -2.12,-11.05 2.16,-22.36 11.06,-29.24 1.61,-1.25 3.35,-2.33 5.18,-3.22 0.81,-0.4 1.64,-0.75 2.49,-1.08 1.6,-0.61 3.25,-1.07 4.93,-1.39 0.01,-0 0.02,-0 0.02,-0.01 0.35,-0.07 0.69,-0.13 1.04,-0.18 0.25,-0.04 0.51,-0.08 0.76,-0.11 2.66,-0.35 5.37,-0.33 8.03,0.04 0.23,0.03 0.46,0.07 0.68,0.1 0.79,0.13 1.57,0.29 2.34,0.49 11.26,2.81 19.88,11.91 22.07,23.32 0,0 0,0.01 0,0.01l0 0z"/>
   <path class="fil7" d="M46 36.01c-3.87,-5.78 -10.89,-5.66 -10.89,-5.66 0,0 -6.87,-0.49 -10.73,8.86 -3.6,8.72 -8.77,17.23 0.14,18.72l1.31 -5.04 1.28 5.26c1.25,0.02 2.52,-0.03 3.77,-0.15 9.41,-0.83 18.4,-0.95 17.93,-4.31 -0.64,-4.47 0.91,-12.12 -2.81,-17.68z"/>
   <path class="fil8" d="M32.15 91.83l0.12 1.78 0.22 3.36c-0.75,-0.2 -1.5,-0.44 -2.23,-0.7 -0.74,-0.26 -1.47,-0.56 -2.19,-0.88l-0.26 -1.7 -0.29 -1.89 3.13 0.03 1.5 0.01z"/>
   <path class="fil8" d="M62.81 87.79c-1.12,1.28 -2.35,2.47 -3.67,3.55l-2.37 -4.65 -0.31 -0.61 -0.78 -1.53 0.49 -0.17 4.98 -1.8 0.43 1.37 1.22 3.86z"/>
   <path class="fil9" d="M32.61 46.95c0,0 2.53,9.98 0.86,10.91 -1.67,0.94 9.2,-1.77 9.2,-1.77 0,0 -2.68,-5.95 -1.54,-8.01 1.14,-2.07 -8.53,-1.13 -8.53,-1.13z"/>
   <path class="fil10" d="M42.51 54.44c0,0 -7.83,0.89 -9.2,1.77 -1.37,0.88 -4.96,4.65 -4.96,4.65l5.67 18.3 17.61 0.31 1.93 -4.37 1.59 -6.15 -2.56 -6.9 -1.09 -4.1 -8.98 -3.51z"/>
   <path class="fil10" d="M27.09 62.32c0,0 -3.69,1.63 -3.41,4.66 0.27,3.02 1.7,10.45 2.22,11.58 0.52,1.13 0.34,1.78 0.1,2.13 -0.24,0.36 -0.95,-0.13 -0.18,0.65 0.76,0.78 0.76,0.78 0.64,1.72 -0.13,0.95 -1.24,-0.07 -0.37,1.3 0.88,1.37 1.23,1.61 0.99,1.96 -0.24,0.35 0.18,7.35 0.18,7.35l5.22 -0.08 1.68 -18.48 -7.08 -12.8z"/>
   <path class="fil10" d="M50.25 57.88c1.16,-0.16 2.31,0.33 3.01,1.27 1.23,1.61 5.83,12.73 5.7,13.68 -0.13,0.95 -0.95,-0.13 -0.01,1.54 0.93,1.67 0.29,1.48 0.81,2.61 0.52,1.13 -1.19,0.23 0.23,1.19 1.41,0.96 2.07,1.14 1.59,1.85 -0.48,0.71 -1.6,-0.31 -0.48,0.71 1.12,1.02 1.46,2.8 1.46,2.8l-6.84 2.85 -5.27 -16.23 -0.2 -12.27z"/>
   <path class="fil7" d="M56.77 86.68l1.41 5.4c-3.61,2.69 -7.8,4.54 -12.23,5.39 -4.47,0.86 -9.08,0.68 -13.46,-0.51 -0.76,-0.2 -1.5,-0.44 -2.23,-0.7 0.07,-0.88 0.14,-1.76 0.22,-2.63 0.06,-0.62 0.12,-1.22 0.18,-1.82 0.49,-4.62 1.22,-8.6 2.29,-10.3 0,0 -0.63,-3.26 -0.09,-3.68 0.24,-0.28 0.4,-0.62 0.46,-0.98 0.13,-0.53 0.22,-1.07 0.27,-1.62l-1.42 -2.1 -6.36 -9.39c-0.1,-0.14 -0.16,-0.3 -0.2,-0.47 -0.09,-0.47 0.09,-0.96 0.47,-1.25l1.32 -1.01c0.16,-0.12 0.34,-0.2 0.53,-0.24 0.48,-0.09 0.97,0.1 1.26,0.48l9.33 12.41 8.33 3.33 4.76 -3.31 0.13 -0.09c0,0 2.72,-6.68 0.96,-9.42 -0.75,-1.17 -1.63,-2.76 -2.41,-4.19 -0.45,-0.85 -0.86,-1.64 -1.19,-2.27 -0.02,-0.05 -0.04,-0.1 -0.05,-0.15 -0.06,-0.3 0.14,-0.58 0.43,-0.64 0.11,-0.02 0.22,-0.01 0.31,0.03l1.14 0.48c0.26,0.11 0.48,0.29 0.64,0.52 0.07,0.09 0.12,0.19 0.16,0.29l4.24 10.21 -1.77 6.8 1.14 5.94 0.82 3.15 0.43 1.65 0.17 0.67z"/>
   <ellipse class="fil11" transform="matrix(0.0762469 -0.0146436 0.0146436 0.0762469 29.3375 44.348)" rx="11.68" ry="20.44"/>
   <path class="fil3" d="M221.02 83.85c2.5,13.01 -4.17,25.7 -15.57,31.71 -1.68,0.89 -3.45,1.62 -5.27,2.18 -1.1,0.35 -2.23,0.63 -3.37,0.85 0,0 -0.01,0 -0.01,0 -0.43,0.08 -0.85,0.15 -1.27,0.21l-0.01 0c-4.29,0.66 -8.68,0.39 -12.85,-0.78 -2.93,-0.81 -5.74,-2.07 -8.3,-3.72 -6.74,-4.29 -11.42,-11.17 -12.93,-19.01 -2.36,-12.3 3.47,-24.31 13.75,-30.67 1.23,-0.76 2.52,-1.44 3.84,-2.01 2.12,-0.93 4.35,-1.62 6.62,-2.06 2.93,-0.56 5.94,-0.7 8.92,-0.41 0.4,0.03 0.8,0.08 1.2,0.14 0,0 0.01,0 0.01,0 0.95,0.13 1.9,0.31 2.84,0.53 0.32,0.07 0.64,0.15 0.96,0.24 0.63,0.17 1.26,0.36 1.88,0.57 0.24,0.08 0.47,0.16 0.71,0.25 3.81,1.4 7.31,3.57 10.27,6.35 2.69,2.53 4.88,5.57 6.43,8.91 0.99,2.13 1.71,4.37 2.16,6.68 0,0.01 0,0.02 0.01,0.03l0 0z"/>
   <path class="fil7" d="M214.33 36.32l3.84 -2.02 -0.32 -3.57c0,0 -10.62,-1.74 -12.55,5.32 -0.68,2.49 -1.83,4.13 -3.03,5.21 -0.99,0.86 -2.2,1.44 -3.48,1.69 -0.88,0.17 -1.78,0.18 -2.65,0.03 -7.34,-1.13 -7.63,6.14 -7.63,6.14 0,0 0.78,0.88 5.07,0.31 2.13,-0.29 4.15,0.93 5.65,2.22 3.2,2.77 8.3,0.81 8.85,-3.35 0.01,-0.07 0.02,-0.13 0.03,-0.2 0.78,-6.86 11,-3.48 11,-3.48l-0.54 -5.97 -4.23 -2.33z"/>
   <ellipse class="fil7" transform="matrix(0.0762469 -0.0146436 0.0146436 0.0762469 188.647 52.6262)" rx="65.51" ry="63.8"/>
   <ellipse class="fil7" transform="matrix(0.0762469 -0.0146436 0.0146436 0.0762469 188.641 66.079)" rx="174.69" ry="170.15"/>
   <ellipse class="fil8" transform="matrix(0.0762469 -0.0146436 0.0146436 0.0762469 189.133 70.8888)" rx="120.1" ry="116.98"/>
   <path class="fil9 str0" d="M186.82 78.34l3.32 8.33 8.12 -2.68c0,0 -2.68,-6.49 -2.22,-8.54l-9.23 2.89z"/>
   <path class="fil8" d="M199.56 56.28c0,0 -7.6,-3.59 -10.01,-1.16 -2.41,2.43 9.05,6.67 10.06,5.92 1.01,-0.75 -0.05,-4.75 -0.05,-4.75z"/>
   <path class="fil12" d="M213 91.8c0,0.01 0,0.01 0.01,0.02 0.01,0.04 0.01,0.08 0.02,0.11l0 0c0.57,3.9 -4.46,17.12 -7.58,23.61 -1.68,0.89 -3.45,1.62 -5.27,2.18 -1.1,0.35 -2.23,0.63 -3.37,0.85 0,0 -0.01,0 -0.01,0 -0.43,0.08 -0.85,0.15 -1.27,0.21l-0.01 0c-4.11,-0.47 -9.03,-1.19 -12.63,-1.81 -1.7,-0.3 -3.11,-0.56 -4,-0.78 -0.33,-0.07 -0.65,-0.16 -0.96,-0.29 -1.6,-0.82 1.3,-2.21 2.64,-2.75 1.34,-0.54 -1.18,-3.14 -1.18,-3.14 -5.98,-4.18 -0.71,-9.67 -0.71,-9.67 0,0 1.51,-5.62 1.25,-6.97 -0.01,-0.1 0.01,-0.2 0.06,-0.29 0.77,-1.64 8.55,-5.84 8.55,-5.84l-0.83 -4.33 0.83 -0.3 8.18 -2.99 0.67 -0.25 1.8 1.9 6.26 -0.36c0,0 6.62,6.02 7.55,10.88z"/>
   <path class="fil13" d="M186.64 96.87c0,0 -1.76,10.58 -3.56,19.22 -0.06,0.3 -0.13,0.6 -0.19,0.9 -0.08,0.35 -0.15,0.69 -0.22,1.03 -2.93,-0.82 -5.74,-2.07 -8.3,-3.72 0.59,-5.04 1.52,-13.05 1.85,-16.27 0.37,-3.55 2.59,-4.61 3.77,-4.93 0.11,-0.03 0.22,-0.06 0.33,-0.08 0.13,-0.03 0.26,-0.04 0.39,-0.06l5.93 3.9z"/>
   <path class="fil14" d="M204.77 81.9l0.68 -0.97c0,0 8.42,-13.11 7.62,-15.76 0,0 -6.85,-5.69 -13.42,-2.47 0,0 -4.45,-6.71 0.31,-7.35 4.77,-0.63 22.04,-5.07 23.27,2.82 1.23,7.89 -10.8,35.14 -10.8,35.14l-7.66 -11.42z"/>
   <path class="fil7" d="M200.18 117.73c-1.11,0.34 -2.24,0.63 -3.37,0.85 0,0 -0.01,0 -0.01,0 -0.43,0.08 -0.85,0.15 -1.27,0.21l-0.01 0c-4.29,0.66 -8.68,0.39 -12.85,-0.78 -1.33,-0.36 -2.64,-0.83 -3.9,-1.38l0.13 -0.44 0 -0 0.15 -0.5 4.04 0.39 17.1 1.64z"/>
   <ellipse class="fil7" transform="matrix(0.00930029 -0.0770814 0.0770814 0.00930029 188.225 63.9168)" rx="74.63" ry="119.79"/>
   <path class="fil8" d="M60.23 189.01c0,0 6.86,-10.49 10.18,-5.51 3.32,4.98 -6.97,9.92 -6.97,9.92l-3.21 -4.41z"/>
   <circle class="fil15" transform="matrix(0.0762469 -0.0146436 0.0146436 0.0762469 30.1324 158.54)" r="107.52"/>
   <path class="fil8" d="M25.23 162.3l-4.79 7.43 0.15 10.03 15.61 -0.34 -2.84 -8.62c0,0 -0.54,-4.33 0.44,-5.41 0.98,-1.07 -8.58,-3.09 -8.58,-3.09z"/>
   <path class="fil16" d="M16.31 211.35c0.47,-0.26 0.95,-0.49 1.44,-0.7 1.24,-0.53 2.53,-0.95 3.83,-1.25 0.33,-0.08 0.67,-0.16 1.01,-0.22 2.79,-0.54 5.67,-0.46 8.43,0.23 4.54,1.2 9.58,0.79 12.99,0.24 0.25,-0.04 0.49,-0.08 0.72,-0.12 0.3,-0.2 0.59,-0.41 0.88,-0.62 0.74,-0.53 1.45,-1.1 2.13,-1.7l-0.2 -1 -3.99 -19.83 0 -0 -1.91 -9.48 -6.62 -5.23 -1.69 -1.3 -0.55 0.72 -3.26 4.3 -6.76 -4.21 -2.31 -1.44 -3.33 33.53 -0.43 4.33 -0.25 2.55 -0.04 0.39 0 0 -0.08 0.82z"/>
   <path class="fil10" d="M45.17 184.5l3.56 10.85 11.51 -7.83 5.58 7.51 -19.06 11.65c0,0 -7.49,-18.97 -1.6,-22.17z"/>
   <path class="fil7" d="M38.61 158.47c0,0 0.88,-1.42 0.48,-2.9 -0.07,-0.24 -0.13,-0.49 -0.17,-0.74 -0.12,-0.61 -0.17,-1.23 -0.15,-1.86 0.01,-0.62 -0.82,-2.4 -1.61,-3.73 -0.79,-1.33 -0.45,-1.91 -2.81,-2.27 -2.36,-0.36 -1.5,-3.45 -7.59,0.06 -0.27,0.4 -0.69,0.68 -1.17,0.77 -0.23,0.04 -0.47,0.04 -0.7,-0 -1.29,-0.21 -1.7,1.58 -1.7,1.58 0,0 -0.87,-0.47 -1.17,0.25 -0.3,0.72 -2.62,-0.35 -2.47,4.46 0.15,4.81 3.51,8.47 3.51,8.47 0,0 -1.07,-7.53 3.14,-8.48 4.21,-0.95 8.7,-3.48 9.89,-0.45 0.65,1.7 1.49,3.32 2.52,4.82l0 -0z"/>
   <path class="fil10" d="M-0 194.8c2.45,6.82 7.3,12.52 13.63,16.04 0.17,0.1 0.35,0.19 0.53,0.29 0.37,0.2 0.74,0.38 1.12,0.56l1.11 -1.16 0 -0 0.51 -0.54 2.02 -2.12 0.16 -0.17 1.55 -1.62 -0.63 -0.5 -2.88 -2.31 -6.77 -5.44 -1.61 -1.29 2.46 -4.52 0 -0 2.57 -4.72 -6.36 -17.71c-0.48,-0.14 -0.98,-0.17 -1.47,-0.08 -0.12,0.02 -0.23,0.05 -0.35,0.09l-0 0c-0.62,0.24 -1.2,0.81 -1.33,2.07 -0.23,2.29 -2.95,16.43 -4.25,23.15z"/>
   <circle class="fil8" transform="matrix(0.0762469 -0.0146436 0.0146436 0.0762469 37.5013 42.7801)" r="105.12"/>
   <polygon class="fil7" points="44.05,34.01 36.57,31.76 27.45,35.02 27.16,43.97 31.96,42.86 32.71,39.45 33.3,42.55 35.52,42.03 35.85,36.76 37.68,41.95 45.59,40.27 "/>
   <polygon class="fil17 str1" points="7.4,169.57 20.44,169.73 17.11,203.26 12.16,182.84 "/>
   <polygon class="fil18 str2" points="41.64,176.9 45.17,184.5 43.55,186.38 "/>
  </g>
 </g>
</svg>
