<?xml version="1.0" encoding="UTF-8"?>
<!DOCTYPE svg PUBLIC "-//W3C//DTD SVG 1.1//EN" "http://www.w3.org/Graphics/SVG/1.1/DTD/svg11.dtd">
<!-- Creator: CorelDRAW 2019 (64-Bit) -->
<svg xmlns="http://www.w3.org/2000/svg" xml:space="preserve" width="17.7538mm" height="20.0561mm" version="1.1" style="shape-rendering:geometricPrecision; text-rendering:geometricPrecision; image-rendering:optimizeQuality; fill-rule:evenodd; clip-rule:evenodd"
viewBox="0 0 267.07 301.71"
 xmlns:xlink="http://www.w3.org/1999/xlink"
 xmlns:xodm="http://www.corel.com/coreldraw/odm/2003">
 <defs>
  <style type="text/css">
   <![CDATA[
    .fil17 {fill:#2D293D;fill-rule:nonzero}
    .fil14 {fill:#3F3D56;fill-rule:nonzero}
    .fil18 {fill:#4E8B9F;fill-rule:nonzero}
    .fil11 {fill:#6C63FF;fill-rule:nonzero}
    .fil15 {fill:#A0616A;fill-rule:nonzero}
    .fil16 {fill:#A3BDC6;fill-rule:nonzero}
    .fil8 {fill:#D6D8E0;fill-rule:nonzero}
    .fil7 {fill:#ECECF3;fill-rule:nonzero}
    .fil20 {fill:#F86D70;fill-rule:nonzero}
    .fil10 {fill:white;fill-rule:nonzero}
    .fil1 {fill:#BDBFC1;fill-rule:nonzero;fill-opacity:0.019608}
    .fil2 {fill:#BDBFC1;fill-rule:nonzero;fill-opacity:0.039216}
    .fil19 {fill:black;fill-rule:nonzero;fill-opacity:0.101961}
    .fil0 {fill:#BDBFC1;fill-rule:nonzero;fill-opacity:0.200000}
    .fil12 {fill:#5F909F;fill-rule:nonzero;fill-opacity:0.501961}
    .fil5 {fill:#E5E7EB;fill-rule:nonzero;fill-opacity:0.811765}
    .fil4 {fill:#E5E7EB;fill-rule:nonzero;fill-opacity:0.901961}
    .fil6 {fill:white;fill-rule:nonzero;fill-opacity:0.901961}
    .fil3 {fill:url(#id0);fill-rule:nonzero}
    .fil13 {fill:url(#id1);fill-rule:nonzero}
    .fil9 {fill:url(#id2);fill-rule:nonzero}
   ]]>
  </style>
  <linearGradient id="id0" gradientUnits="userSpaceOnUse" x1="120.47" y1="291.07" x2="120.47" y2="-0.39">
   <stop offset="0" style="stop-opacity:0.25098; stop-color:gray"/>
   <stop offset="0.541176" style="stop-opacity:0.121569; stop-color:gray"/>
   <stop offset="1" style="stop-opacity:0.101961; stop-color:gray"/>
  </linearGradient>
  <linearGradient id="id1" gradientUnits="userSpaceOnUse" xlink:href="#id0" x1="25778.62" y1="-107263.08" x2="35402.84" y2="-107263.08">
  </linearGradient>
  <linearGradient id="id2" gradientUnits="userSpaceOnUse" xlink:href="#id0" x1="63792.92" y1="14520.98" x2="63792.92" y2="9917.57">
  </linearGradient>
 </defs>
 <g id="Layer_x0020_1">
  <metadata id="CorelCorpID_0Corel-Layer"/>
  <g id="_1800034742288">
   <path class="fil0" d="M68.7 275.36c0.24,0.45 0.52,0.88 0.83,1.28 2.75,-1.94 5.55,-3.84 8.4,-5.7l-0.18 -0.37c-0.66,-1.27 -1.65,-2.35 -2.86,-3.11 -1.57,-0.97 -3.34,-1.18 -4.8,-0.39 -1.46,0.79 -2.27,2.36 -2.36,4.19 -0,0.08 -0,0.17 -0,0.25 0,1.34 0.34,2.67 0.97,3.85l0 0z"/>
   <path class="fil0" d="M66.25 259.86c2.5,-1.32 5.92,0.26 7.65,3.52 1.73,3.27 1.11,6.99 -1.38,8.31 -2.5,1.32 -5.92,-0.26 -7.66,-3.52 -1.73,-3.27 -1.11,-6.99 1.39,-8.31z"/>
   <path class="fil0" d="M62.41 252.62c2.5,-1.32 5.92,0.26 7.66,3.52 1.73,3.27 1.11,6.99 -1.39,8.31 -2.5,1.32 -5.92,-0.26 -7.65,-3.52 -1.73,-3.27 -1.11,-6.99 1.38,-8.31z"/>
   <path class="fil0" d="M58.58 245.39c2.5,-1.32 5.92,0.26 7.65,3.52 1.73,3.27 1.11,6.99 -1.38,8.31 -2.5,1.32 -5.92,-0.26 -7.65,-3.52 -1.73,-3.27 -1.11,-6.99 1.38,-8.31z"/>
   <path class="fil0" d="M54.75 238.16c2.5,-1.32 5.92,0.26 7.66,3.52 1.73,3.27 1.11,6.99 -1.39,8.31 -2.5,1.32 -5.92,-0.26 -7.65,-3.52 -1.73,-3.27 -1.11,-6.99 1.38,-8.31z"/>
   <path class="fil0" d="M48.61 185.6c0.21,-1.11 0.34,-2.24 0.39,-3.37l-12.93 4.35 12.89 -6.71c-0.38,-6.74 -3.52,-13.03 -8.67,-17.37l-12.49 18.07 9.7 -20.1c-3.89,-2.44 -8.4,-3.73 -13,-3.73 -13.53,0 -24.5,10.97 -24.5,24.5 0,9.69 5.71,18.48 14.57,22.4 -0.27,1.46 -0.4,2.95 -0.4,4.44 0,0.27 0.01,0.55 0.02,0.81l19.64 -0.16 -19.36 3.19c1.32,8.17 6.69,15.12 14.25,18.47 -0.26,1.44 -0.39,2.9 -0.39,4.37 0,13.53 10.97,24.5 24.5,24.5 13.53,0 24.5,-10.97 24.5,-24.5 0,-9.69 -5.71,-18.47 -14.57,-22.4 0.26,-1.44 0.39,-2.9 0.39,-4.37 0,-9.69 -5.71,-18.48 -14.57,-22.4l0.03 0z"/>
   <path class="fil1" d="M17.03 219.47c2.56,4.85 6.7,8.71 11.72,10.93 -0.26,1.44 -0.39,2.91 -0.39,4.37 0,13.53 10.97,24.5 24.5,24.5 13.53,0 24.5,-10.97 24.5,-24.5 0,-9.69 -5.71,-18.47 -14.57,-22.4 0.95,-5.22 -47.05,4.66 -45.76,7.1z"/>
   <path class="fil0" d="M181.87 244.2c-0.23,0.95 -0.55,1.88 -0.94,2.77 -6.05,-2.32 -12.17,-4.54 -18.36,-6.68 0.05,-0.25 0.11,-0.51 0.17,-0.79 0.63,-2.69 1.96,-5.16 3.86,-7.16 2.47,-2.55 5.68,-3.79 8.76,-3.03 3.08,0.75 5.35,3.33 6.38,6.71 0.41,1.4 0.61,2.86 0.61,4.32 0,1.3 -0.16,2.59 -0.48,3.85l0 -0z"/>
   <path class="fil2" d="M166.46 224.2c1.69,-6.91 7.34,-11.47 12.62,-10.18 5.28,1.29 8.2,7.94 6.51,14.86 -1.69,6.91 -7.34,11.47 -12.62,10.18 -5.28,-1.29 -8.2,-7.94 -6.51,-14.86z"/>
   <path class="fil2" d="M170.2 208.89c1.69,-6.92 7.34,-11.47 12.62,-10.18 5.28,1.29 8.2,7.94 6.51,14.86 -1.69,6.92 -7.34,11.47 -12.62,10.19 -5.28,-1.29 -8.2,-7.94 -6.51,-14.86z"/>
   <path class="fil2" d="M173.94 193.59c1.69,-6.92 7.34,-11.47 12.62,-10.19 5.28,1.29 8.2,7.94 6.51,14.86 -1.69,6.92 -7.34,11.47 -12.62,10.19 -5.28,-1.29 -8.2,-7.94 -6.51,-14.86z"/>
   <path class="fil0" d="M177.67 178.29c1.69,-6.91 7.34,-11.47 12.62,-10.18 5.28,1.29 8.2,7.94 6.51,14.86 -1.69,6.91 -7.34,11.47 -12.62,10.18 -5.28,-1.29 -8.2,-7.94 -6.51,-14.86z"/>
   <path class="fil0" d="M177.01 67.17c-0.9,-1.98 -1.67,-4.03 -2.28,-6.11l26.14 2.01 -27.25 -6.45c-0.57,-2.96 -0.86,-5.98 -0.86,-9 0,-9.87 3.1,-19.51 8.85,-27.53l31.86 27.83 -27.6 -32.93c8.89,-9.27 21.19,-14.51 34.03,-14.51 26.04,0 47.17,21.12 47.17,47.16 0,14.47 -6.65,28.16 -18.03,37.09 1.4,3.07 2.48,6.32 3.18,9.63l-36.76 8.99 37.63 -3.19c0.12,1.36 0.18,2.74 0.18,4.11 0,14.49 -6.67,28.19 -18.07,37.13 2.78,6.13 4.24,12.8 4.24,19.54 0,26.04 -21.12,47.16 -47.16,47.16 -26.04,0 -47.17,-21.12 -47.17,-47.16 0,-14.49 6.67,-28.18 18.06,-37.12 -2.79,-6.13 -4.24,-12.8 -4.24,-19.54 0,-14.49 6.67,-28.18 18.07,-37.12l-0 -0z"/>
   <path class="fil1" d="M251.92 115.46c-2.49,10.27 -8.39,19.42 -16.72,25.92 2.79,6.13 4.24,12.8 4.24,19.54 0,26.04 -21.12,47.17 -47.16,47.17 -26.04,0 -47.17,-21.12 -47.17,-47.17 0,-14.49 6.67,-28.18 18.06,-37.12 -4.24,-9.29 90.01,-13.49 88.75,-8.35z"/>
   <path class="fil3" d="M47.13 66.09l0.88 0 0 -47.24c0,-10.42 8.57,-18.85 19.15,-18.85l107.29 0c10.58,0 19.15,8.45 19.15,18.85l0 19.58 0.07 0 0.19 0c0,0 0,0 0.01,0 0.61,0 1.11,0.49 1.12,1.11l0 9.43c-0.01,0.61 -0.51,1.11 -1.12,1.11 -0,0 -0,0 -0.01,0l-0.21 0 -0.07 0 0 9.63 0.35 0c0,0 0,0 0.01,0 0.61,0 1.11,0.49 1.12,1.11l0 18.03c-0,0.62 -0.51,1.11 -1.12,1.11 -0,0 -0,0 -0,0l-0.35 0 0 7.07 0.3 0c0,0 0.01,0 0.01,0 0.61,0 1.11,0.49 1.12,1.11l0 18.2c-0,0.61 -0.5,1.11 -1.12,1.11 -0,0 -0.01,0 -0.01,0l-0.3 0 0 165.13c0,10.42 -8.57,18.85 -19.15,18.85l-107.27 0c-10.58,0 -19.15,-8.45 -19.15,-18.85l0 -171.15 -0.88 0c-0,0 -0,0 -0.01,0 -0.61,0 -1.11,-0.49 -1.12,-1.11l0 -33.11c0.01,-0.61 0.51,-1.11 1.12,-1.11 0,0 0.01,0 0.01,0z"/>
   <path class="fil4" d="M51.27 67.25l-2.43 0c-0.5,0 -0.9,0.4 -0.9,0.9l0 33.09c0,0.5 0.4,0.9 0.9,0.9l2.43 0c0.5,0 0.9,-0.4 0.9,-0.9l0 -33.09c0,-0.5 -0.4,-0.9 -0.9,-0.9z"/>
   <path class="fil5" d="M191.95 39.92l-0.58 0c-0.5,0 -0.9,0.4 -0.9,0.9l0 9.69c0,0.5 0.4,0.9 0.9,0.9l0.58 0c0.5,0 0.9,-0.4 0.9,-0.9l0 -9.69c0,-0.5 -0.4,-0.9 -0.9,-0.9z"/>
   <path class="fil4" d="M192.04 60.95l-0.88 0c-0.5,0 -0.9,0.4 -0.9,0.9l0 18.19c0,0.5 0.4,0.9 0.9,0.9l0.88 0c0.5,0 0.9,-0.4 0.9,-0.9l0 -18.19c0,-0.5 -0.4,-0.9 -0.9,-0.9z"/>
   <path class="fil4" d="M191.99 87.93l-0.75 0c-0.5,0 -0.9,0.4 -0.9,0.9l0 18.36c0,0.5 0.4,0.9 0.9,0.9l0.75 0c0.5,0 0.9,-0.4 0.9,-0.9l0 -18.36c0,-0.5 -0.4,-0.9 -0.9,-0.9z"/>
   <path class="fil6" d="M176.19 1.96l-110.99 0c-8.46,0 -15.32,6.86 -15.32,15.32l0 257.19c0,8.46 6.86,15.32 15.32,15.32l110.99 0c8.46,0 15.32,-6.86 15.32,-15.32l0 -257.19c0,-8.46 -6.86,-15.32 -15.32,-15.32z"/>
   <path class="fil4" d="M132.83 10.56l-16.74 0c-0.84,0 -1.52,0.68 -1.52,1.52l0 0.97c0,0.84 0.68,1.52 1.52,1.52l16.74 0c0.84,0 1.52,-0.68 1.52,-1.52l0 -0.97c0,-0.84 -0.68,-1.52 -1.52,-1.52z"/>
   <path class="fil4" d="M107.03 12.57c0,-1.26 1.02,-2.28 2.28,-2.28 1.26,0 2.28,1.02 2.28,2.28 0,1.26 -1.02,2.28 -2.28,2.28 -1.26,0 -2.28,-1.02 -2.28,-2.28z"/>
   <path class="fil7" d="M69.88 9.46l16.21 0 0 1.96c0,5.11 4.15,9.26 9.26,9.26 0,0 0,0 0,0l51.69 0c0,0 0,0 0,0 5.11,0 9.26,-4.15 9.26,-9.26l0 -1.96 15.21 0c6.21,0 11.25,5.04 11.25,11.25l0 250.33c0,6.21 -5.04,11.25 -11.25,11.25l-101.63 0c-6.21,0 -11.25,-5.04 -11.25,-11.25l0 -250.33c0,-6.21 5.03,-11.25 11.25,-11.25l0 0z"/>
   <rect class="fil8" x="153.17" y="30.25" width="20.07" height="20.07"/>
   <rect class="fil8" x="96.31" y="31.68" width="42.05" height="3.82"/>
   <rect class="fil8" x="69.08" y="38.37" width="69.28" height="3.82"/>
   <rect class="fil8" x="69.08" y="45.06" width="69.28" height="3.82"/>
   <rect class="fil8" x="153.01" y="67.04" width="20.07" height="20.07"/>
   <rect class="fil8" x="96.16" y="68.47" width="42.05" height="3.82"/>
   <rect class="fil8" x="68.92" y="75.16" width="69.28" height="3.82"/>
   <rect class="fil8" x="68.92" y="81.85" width="69.28" height="3.82"/>
   <rect class="fil8" x="152.86" y="103.83" width="20.07" height="20.07"/>
   <rect class="fil8" x="96" y="105.26" width="42.05" height="3.82"/>
   <rect class="fil8" x="68.77" y="111.95" width="69.28" height="3.82"/>
   <rect class="fil8" x="68.77" y="118.64" width="69.28" height="3.82"/>
   <rect class="fil8" x="152.71" y="140.62" width="20.07" height="20.07"/>
   <rect class="fil8" x="95.85" y="142.05" width="42.05" height="3.82"/>
   <rect class="fil8" x="68.61" y="148.74" width="69.28" height="3.82"/>
   <rect class="fil8" x="68.61" y="155.43" width="69.28" height="3.82"/>
   <rect class="fil8" x="152.55" y="177.41" width="20.07" height="20.07"/>
   <rect class="fil8" x="95.69" y="178.84" width="42.05" height="3.82"/>
   <rect class="fil8" x="68.46" y="185.53" width="69.28" height="3.82"/>
   <rect class="fil8" x="68.46" y="192.22" width="69.28" height="3.82"/>
   <rect class="fil8" x="152.4" y="214.2" width="20.07" height="20.07"/>
   <rect class="fil8" x="95.54" y="215.63" width="42.05" height="3.82"/>
   <rect class="fil8" x="68.31" y="222.32" width="69.28" height="3.82"/>
   <rect class="fil8" x="68.31" y="229.01" width="69.28" height="3.82"/>
   <rect class="fil8" x="152.24" y="250.99" width="20.07" height="20.07"/>
   <rect class="fil8" x="95.39" y="252.42" width="42.05" height="3.82"/>
   <rect class="fil8" x="68.15" y="259.11" width="69.28" height="3.82"/>
   <rect class="fil8" x="68.15" y="265.8" width="69.28" height="3.82"/>
   <rect class="fil9" x="35.17" y="90.76" width="171.05" height="42.52"/>
   <rect class="fil10" x="35.65" y="91.72" width="169.62" height="40.61"/>
   <rect class="fil11" x="152.47" y="101.99" width="20.07" height="20.07"/>
   <polygon class="fil12" points="137.65,107.25 95.61,107.25 95.61,103.42 137.65,103.42 "/>
   <polygon class="fil12" points="137.65,113.93 68.37,113.93 68.37,110.11 137.65,110.11 "/>
   <polygon class="fil12" points="137.65,120.62 68.37,120.62 68.37,116.8 137.65,116.8 "/>
   <path class="fil13" d="M145.27 127.88c1.07,-1.06 2.84,-1.41 4.13,-0.63 1,0.6 1.55,1.72 2.05,2.78 0.73,1.57 1.81,3.04 2.14,4.74 0.91,4.68 4.63,8.31 6.12,12.83 0.53,1.61 0.79,3.35 1.63,4.82 0.4,0.64 0.85,1.26 1.34,1.84 1.93,2.43 3.64,5.05 5.1,7.79 0.85,0.17 1.6,0.88 2.33,1.45 0.93,0.72 2,1.23 3.14,1.49 0.46,0.05 0.9,0.22 1.29,0.47 0.54,0.45 0.62,1.27 1.06,1.81 0.32,0.36 0.73,0.63 1.18,0.79 0,-0.14 0.02,-0.27 0.02,-0.42 0.02,-0.73 0.03,-1.46 0.03,-2.19 -1.26,-1.49 -1.96,-3.37 -1.96,-5.32 0,-1.96 0.7,-3.86 1.98,-5.35 -0.03,-1.13 -0.19,-2.27 -0.45,-3.37 -0.14,-0.54 -0.12,-1.2 0.32,-1.55 0.22,-0.17 0.49,-0.23 0.73,-0.39 0.33,-0.28 0.59,-0.62 0.79,-1 0.79,-1.13 2.09,-1.8 3.47,-1.8 0.65,0 1.29,0.15 1.87,0.43 1.42,0.75 2.28,2.24 3.54,3.25 0.64,0.52 1.39,0.91 2.03,1.43 1.29,1.12 2.21,2.62 2.63,4.27 0.41,1.65 0.66,3.35 0.72,5.05 0.02,0.19 0.04,0.39 0.04,0.59 0,0.32 -0.03,0.63 -0.1,0.94 -0.13,0.42 -0.32,0.82 -0.58,1.18 -1.2,1.95 -2.88,3.55 -4.88,4.65 -0,0.05 -0.01,0.1 -0.01,0.15 0,0.05 0,0.1 0.01,0.15 0,0.16 0.05,0.31 0.09,0.47l0.23 -0.06c0.84,-0.19 1.75,-0.17 2.5,-0.59 1.29,-0.72 1.68,-2.49 2.91,-3.3 0.1,-0.07 0.22,-0.13 0.33,-0.18 0.09,-2.23 0.52,-4.45 1.26,-6.55 0.36,-1.01 0.81,-2.03 0.75,-3.1 -0.05,-0.99 -0.52,-1.91 -0.95,-2.81 -1.48,-3.1 -2.52,-6.39 -3.54,-9.68 -0.65,-2.06 -1.31,-4.12 -1.96,-6.19 -0.64,-0.47 -1.22,-1.03 -1.72,-1.64 -1.05,-1.22 -1.74,-2.71 -2,-4.29 -0.05,-0.31 -0.07,-0.63 -0.07,-0.94 0,-1.29 0.41,-2.55 1.18,-3.6 0.42,-0.62 1.1,-1.04 1.85,-1.13 0.66,0.01 1.28,0.3 1.72,0.79 0.65,0.74 1.15,1.61 1.48,2.54 0.64,1.52 1.3,3.1 1.23,4.75 -0.05,1.37 -0.56,2.9 0.24,4.01 2.61,3.64 4.58,7.83 6.65,11.81 0.52,0.95 0.97,1.95 1.34,2.96 0.47,1.55 0.71,3.16 0.71,4.78 0,0.11 -0,0.22 -0,0.33 0.02,3.24 -0.42,6.47 -0.86,9.68 -0.2,1.45 -0.46,2.99 -1.14,4.24 0.45,1.55 0.69,3.16 0.7,4.78 0,0.04 0,0.09 0,0.13 0,0.33 -0.06,0.66 -0.18,0.96 -0.23,0.41 -0.53,0.78 -0.87,1.09 -0.79,0.89 -1.22,2.04 -1.22,3.23 0,0.21 0.02,0.42 0.04,0.63 0.03,0.32 0.04,0.64 0.04,0.97 0,0.98 -0.13,1.96 -0.39,2.91 -0.79,3.49 -1.57,6.97 -2.2,10.49 -0.11,0.49 -0.17,0.99 -0.17,1.49 0,0.17 0.01,0.34 0.02,0.5 0.12,0.95 0.65,1.85 0.54,2.81 -0.11,0.44 -0.2,0.89 -0.25,1.34 0.02,0.35 0.11,0.69 0.23,1.01 0.9,2.6 3.3,8.57 3.28,11.33l-0.63 -0.15c0.63,3.58 2.11,7 2.89,10.57 0.49,2.36 0.74,4.77 0.74,7.19 0,0.24 -0,0.48 -0.01,0.72 -0.02,0.42 -0.03,0.85 -0.03,1.27 0,0.77 0.03,1.54 0.09,2.3 0.12,1.06 0.39,2.09 0.54,3.14 0.13,1.12 0.2,2.25 0.2,3.38 0,0.29 -0.01,0.58 -0.01,0.87 0,0.26 0.01,0.53 0.01,0.8 0,1.96 -0.13,3.94 -0.4,5.88 -0.6,3.77 0.45,7.52 0.74,11.32 0.14,2.65 0.45,5.33 0.9,7.94 0.22,1.11 0.49,2.21 0.64,3.33 0.44,3.32 -0.2,6.75 0.49,10.03 0.32,1.54 0.91,3.26 0.05,4.57 -0.27,0.41 -0.66,0.74 -0.96,1.13 -0.22,0.26 -0.35,0.59 -0.35,0.94 0,0.15 0.02,0.31 0.07,0.45 0.17,0.36 0.56,0.6 0.66,0.98 0.16,0.61 -0.48,1.1 -1.04,1.36l-0.16 0.06c0.02,0.08 0.02,0.17 0.02,0.26 0,0.34 -0.12,0.66 -0.33,0.92 -0.34,0.32 -0.76,0.54 -1.21,0.63l-7.42 2.25c-1.65,0.5 -3.45,1 -5.11,0.59 -0.04,0.24 -0.14,0.46 -0.29,0.64 -0.34,0.32 -0.75,0.54 -1.2,0.63l-7.36 2.23c-1.89,0.57 -3.97,1.14 -5.79,0.36 -0.52,-0.21 -0.98,-0.56 -1.33,-1 -0.39,-0.58 -0.61,-1.27 -0.61,-1.97 0,-0.32 0.05,-0.65 0.14,-0.96 0.09,-0.5 0.34,-0.96 0.71,-1.31 0.5,-0.35 1.1,-0.55 1.71,-0.56 0.52,-0.02 1.04,-0.15 1.5,-0.39 0.14,-0.09 0.26,-0.21 0.34,-0.36 -0.42,-0.42 -0.84,-0.85 -1.23,-1.3 0.32,-0.11 0.44,-0.57 0.47,-0.91 0.47,-5 -1.42,-9.9 -2.13,-14.87 -0.22,-1.5 -0.33,-3.03 -0.33,-4.56 0,-0.99 0.05,-1.99 0.14,-2.98 0.09,-0.95 0.22,-1.89 0.26,-2.84 0.19,-4.95 -2.18,-9.71 -2.1,-14.66 0.04,-2.32 -1.18,-4.6 -1.77,-6.85 -0.52,-1.99 -0.53,-4.07 -0.55,-6.13l-0.09 -16.21c0,-2.19 0,-4.44 0.7,-6.51 0.24,-0.78 0.36,-1.6 0.36,-2.42 0,-0.38 -0.03,-0.76 -0.08,-1.14 -2,-0.88 -3.89,-2.19 -6.03,-1.96 -0.57,-1.51 0.11,-6.55 0.64,-8.08 1.29,-3.68 1.95,-7.56 1.95,-11.46 0,-2.44 -0.26,-4.88 -0.76,-7.26 -0.48,-2.23 0.18,-4.61 -0.36,-6.84 -0.1,-0.52 -0.3,-1.02 -0.59,-1.47 -0.29,-0.44 -0.79,-0.71 -1.31,-0.71 -0.01,0 -0.02,0 -0.03,0 0,-1.36 0.03,-2.75 0.12,-4.13 -0.87,-0.71 -1.61,-1.56 -2.19,-2.52 -1.18,-1.96 -1.85,-4.18 -2.66,-6.31 -1.44,-3.77 -3.41,-7.31 -5.06,-11 -1.65,-3.69 -1.81,-7.72 -3.14,-11.54 -0.73,-2.1 -2.24,-3.84 -4.22,-4.86 -0.79,-0.39 -1.62,-0.68 -2.19,-1.32 -0.43,-0.54 -0.7,-1.19 -0.76,-1.87 -0.04,-0.26 -0.06,-0.53 -0.06,-0.8 0,-1.25 0.48,-2.46 1.33,-3.38l0 0zm44.69 166.46c-0.16,-0.18 -0.32,-0.35 -0.47,-0.55 0.49,-0.08 1.1,-0.44 1.11,-0.94 -0.03,-0.5 -0.14,-1 -0.32,-1.47 -0.14,-0.5 -0.21,-1.03 -0.21,-1.55 0,-0.36 0.03,-0.72 0.1,-1.07 0.11,-0.61 0.31,-1.18 0.44,-1.8 0.12,-0.67 0.2,-1.35 0.24,-2.03 0.21,-2.45 0.69,-4.87 1.43,-7.21 0.71,-2.27 -0.26,-4.58 -0.52,-6.95 -0.12,-1.12 -0.07,-2.28 -0.46,-3.34 -0.23,-0.63 -0.61,-1.18 -0.85,-1.82 -0.54,-1.46 -0.22,-3.08 0.11,-4.6 -2.33,-4.22 -3.1,-9.24 -3.97,-13.99 -0.49,-2.66 -0.98,-5.33 -1.48,-7.99 -0.22,-1.18 -0.46,-2.42 -1.18,-3.37 -0.62,2.88 -0.94,5.83 -0.94,8.78 0,0.65 0.02,1.31 0.05,1.96 0.04,0.46 0.06,0.92 0.06,1.37 0,0.59 -0.03,1.18 -0.1,1.77 -0.18,1.14 -0.66,2.22 -0.93,3.35 -0.61,2.48 -0.25,5.08 -0.39,7.63 -0.05,1.03 -0.18,2.06 -0.23,3.09 -0.19,4.55 1.33,8.98 2.84,13.28 0.92,2.64 1.13,5.63 1.57,8.39 0.42,2.64 0.83,5.29 1.04,7.96 0.06,0.81 0.11,1.65 0.21,2.48 0.25,-0.06 0.51,-0.1 0.77,-0.12 0.52,-0.02 1.04,-0.15 1.5,-0.39 0.29,0.11 0.61,0.16 0.92,0.16 1.49,0 2.69,-1.2 2.69,-2.69 0,-1.13 -0.71,-2.14 -1.77,-2.53l-1.27 4.18z"/>
   <path class="fil14" d="M175.13 295.55c-0.61,0.02 -1.21,0.21 -1.71,0.56 -0.37,0.35 -0.62,0.8 -0.71,1.3 -0.09,0.31 -0.14,0.63 -0.14,0.96 0,0.7 0.21,1.38 0.61,1.96 0.35,0.44 0.81,0.78 1.33,0.99 1.82,0.79 3.9,0.22 5.79,-0.35l7.42 -2.24c0.45,-0.09 0.87,-0.31 1.21,-0.62 0.21,-0.28 0.32,-0.62 0.32,-0.97 0,-0.33 -0.1,-0.66 -0.29,-0.93 -0.4,-0.55 -0.94,-0.99 -1.57,-1.25 -2.31,-1.12 -4.91,-1.38 -7.46,-1.43 -0.94,-0.02 -1.87,-0.22 -2.51,0.5 -0.34,0.39 -0.28,0.81 -0.79,1.14 -0.46,0.24 -0.97,0.37 -1.48,0.39l0 0z"/>
   <path class="fil14" d="M189.14 291.47c-0.61,0.01 -1.21,0.21 -1.71,0.55 -0.37,0.35 -0.62,0.81 -0.72,1.3 -0.09,0.31 -0.14,0.63 -0.14,0.96 0,0.7 0.21,1.38 0.61,1.96 0.35,0.44 0.81,0.78 1.33,0.99 1.82,0.79 3.9,0.21 5.79,-0.36l7.42 -2.23c0.45,-0.09 0.87,-0.31 1.21,-0.62 0.21,-0.28 0.32,-0.62 0.32,-0.97 0,-0.33 -0.1,-0.66 -0.29,-0.93 -0.4,-0.55 -0.94,-0.99 -1.57,-1.25 -2.31,-1.12 -4.91,-1.38 -7.44,-1.43 -0.94,0 -1.87,-0.22 -2.51,0.5 -0.34,0.39 -0.28,0.81 -0.79,1.14 -0.46,0.24 -0.98,0.37 -1.5,0.39l0 0z"/>
   <path class="fil14" d="M182.7 210.98c3.02,-0.3 6.09,-0.46 9.13,-0.46 1.34,0 2.69,0.03 4.01,0.09 0.02,0 0.03,-0 0.04,-0 0.28,0 0.56,0.05 0.82,0.14 0.97,0.39 1.11,1.66 1.21,2.69 0.37,4.19 2.22,8.1 3.14,12.21 0.49,2.35 0.74,4.74 0.74,7.14 0,0.24 -0,0.49 -0.01,0.72 -0.02,0.41 -0.03,0.84 -0.03,1.26 0,0.76 0.03,1.53 0.09,2.28 0.12,1.05 0.39,2.08 0.54,3.14 0.13,1.11 0.2,2.24 0.2,3.36 0,0.28 -0.01,0.58 -0.01,0.86 0,0.25 0.01,0.53 0.01,0.78 0,1.95 -0.14,3.91 -0.4,5.84 -0.6,3.75 0.45,7.46 0.74,11.25 0.14,2.64 0.45,5.28 0.9,7.89 0.22,1.1 0.49,2.19 0.64,3.3 0.44,3.3 -0.2,6.71 0.49,9.97 0.33,1.52 0.91,3.24 0.05,4.54 -0.27,0.41 -0.66,0.73 -0.95,1.12 -0.22,0.26 -0.34,0.59 -0.34,0.93 0,0.15 0.02,0.3 0.07,0.45 0.17,0.36 0.56,0.59 0.66,0.97 0.16,0.6 -0.48,1.1 -1.04,1.35 -4.26,1.92 -9.76,0.57 -12.63,-3.12 0.49,-0.08 1.1,-0.44 1.11,-0.93 -0.04,-0.5 -0.14,-1 -0.32,-1.47 -0.14,-0.5 -0.21,-1.02 -0.21,-1.54 0,-0.36 0.03,-0.71 0.1,-1.06 0.11,-0.6 0.31,-1.18 0.44,-1.79 0.12,-0.66 0.2,-1.34 0.24,-2.02 0.21,-2.42 0.69,-4.84 1.43,-7.16 0.71,-2.26 -0.26,-4.54 -0.51,-6.9 -0.12,-1.11 -0.07,-2.27 -0.46,-3.32 -0.23,-0.62 -0.61,-1.18 -0.85,-1.8 -0.54,-1.45 -0.22,-3.06 0.11,-4.57 -2.32,-4.19 -3.09,-9.18 -3.97,-13.9 -0.49,-2.64 -0.98,-5.29 -1.48,-7.94 -0.22,-1.18 -0.46,-2.4 -1.18,-3.35 -0.62,2.86 -0.94,5.8 -0.94,8.73 0,0.65 0.02,1.3 0.05,1.95 0.04,0.45 0.06,0.9 0.06,1.35 0,0.58 -0.03,1.17 -0.1,1.75 -0.18,1.14 -0.66,2.21 -0.93,3.33 -0.61,2.46 -0.26,5.05 -0.39,7.58 -0.05,1.02 -0.19,2.04 -0.23,3.07 -0.19,4.52 1.33,8.92 2.84,13.19 0.92,2.62 1.13,5.6 1.57,8.34 0.42,2.63 0.83,5.26 1.04,7.91 0.19,2.44 0.28,5.07 1.79,6.98 -1.38,0.9 -2.82,1.81 -4.43,2.12 -0.42,0.07 -0.84,0.1 -1.27,0.1 -1.48,0 -2.93,-0.4 -4.2,-1.16 -1.63,-0.98 -3.09,-2.22 -4.32,-3.68 0.32,-0.11 0.43,-0.57 0.47,-0.91 0.47,-4.97 -1.42,-9.82 -2.13,-14.77 -0.21,-1.5 -0.33,-3.01 -0.33,-4.53 0,-0.99 0.05,-1.98 0.14,-2.96 0.09,-0.94 0.22,-1.87 0.26,-2.82 0.19,-4.92 -2.18,-9.65 -2.1,-14.57 0.04,-2.3 -1.18,-4.58 -1.77,-6.8 -0.52,-1.96 -0.53,-4.04 -0.55,-6.08l-0.09 -16.11c0,-2.18 0,-4.41 0.7,-6.47 0.86,-2.47 -0.12,-5.31 -0.27,-7.93 3.18,1 6.51,1.52 9.85,1.52 0.93,0 1.87,-0.05 2.79,-0.12l0 0z"/>
   <path class="fil15" d="M168.69 164.71c-1.65,-3.37 -3.68,-6.57 -6.02,-9.5 -0.49,-0.57 -0.94,-1.18 -1.33,-1.82 -0.85,-1.46 -1.1,-3.19 -1.63,-4.79 -1.49,-4.49 -5.22,-8.1 -6.12,-12.75 -0.33,-1.69 -1.41,-3.14 -2.14,-4.71 -0.5,-1.05 -1.05,-2.16 -2.05,-2.75 -1.28,-0.79 -3.06,-0.42 -4.13,0.63 -0.85,0.91 -1.32,2.1 -1.32,3.35 0,0.27 0.02,0.53 0.06,0.8 0.06,0.68 0.33,1.33 0.76,1.86 0.57,0.64 1.42,0.93 2.19,1.32 1.98,1 3.49,2.73 4.22,4.83 1.31,3.79 1.48,7.81 3.14,11.47 1.67,3.66 3.62,7.17 5.06,10.92 0.81,2.13 1.47,4.32 2.66,6.28 1.19,1.96 3.07,3.61 5.33,3.9 0,-0.01 0,-0.02 0,-0.03 0,-1.41 0.22,-2.81 0.66,-4.15 0.48,-1.56 1.37,-3.4 0.65,-4.85z"/>
   <path class="fil15" d="M193.01 167.64c-0.01,-0.26 -0.02,-0.53 -0.02,-0.79 0,-2.51 0.44,-5.01 1.29,-7.38 0.36,-1 0.8,-2.02 0.75,-3.08 -0.05,-0.99 -0.52,-1.9 -0.95,-2.79 -1.48,-3.08 -2.52,-6.36 -3.54,-9.62l-1.96 -6.14c-0.64,-0.47 -1.22,-1.02 -1.73,-1.63 -1.05,-1.21 -1.74,-2.69 -2,-4.27 -0.05,-0.31 -0.07,-0.62 -0.07,-0.94 0,-1.29 0.41,-2.54 1.18,-3.58 0.42,-0.62 1.1,-1.03 1.85,-1.12 0.66,0.01 1.28,0.3 1.72,0.79 0.65,0.74 1.15,1.59 1.48,2.52 0.64,1.51 1.3,3.08 1.23,4.71 -0.05,1.36 -0.56,2.87 0.24,3.98 2.61,3.62 4.58,7.78 6.65,11.73 0.52,0.94 0.97,1.93 1.34,2.94 0.47,1.54 0.71,3.14 0.71,4.75 0,0.11 -0,0.23 -0,0.34 0.02,3.22 -0.42,6.42 -0.86,9.62 -0.28,1.99 -0.64,4.17 -2.16,5.5 -1.57,-2 -3.15,-3.97 -5.15,-5.55z"/>
   <circle class="fil15" cx="183.02" cy="161.03" r="8.15"/>
   <path class="fil15" d="M186.97 169.61c0.2,1.48 0.99,2.79 1.76,4.07 0.47,0.79 1.06,1.62 1.96,1.71 -2.36,1.24 -4.84,2.24 -7.4,2.98 -0.86,0.29 -1.77,0.44 -2.67,0.44 -0.01,0 -0.02,0 -0.03,0 -0.78,-0.06 -1.54,-0.25 -2.25,-0.58 -3.15,-1.38 -5.49,-4.13 -6.34,-7.46 0.13,0 0.26,0 0.39,0 0.88,0 1.76,-0.08 2.63,-0.24 0.56,-0.1 1.16,-0.27 1.48,-0.73 0.2,-0.36 0.31,-0.76 0.31,-1.18 0,-0.05 -0,-0.09 -0,-0.14 0.04,-1.36 0.04,-2.72 0,-4.08 0.34,-0.02 0.69,-0.03 1.03,-0.03 1.66,0 3.31,0.26 4.89,0.76 0.79,0.26 1.57,0.57 2.38,0.77 0.49,0.12 1.86,0 2.22,0.29 0.56,0.43 -0.51,2.42 -0.36,3.42z"/>
   <path class="fil16" d="M183.38 174.57c0.19,-2.19 1.76,-4.03 3.9,-4.55 0.84,-0.19 1.75,-0.16 2.5,-0.58 1.29,-0.72 1.68,-2.47 2.91,-3.28 1.23,-0.8 2.99,-0.36 4.07,0.66 1.08,1.02 1.62,2.47 2.06,3.88 0.65,1.91 1.02,3.93 1.06,5.95 0,0.04 0,0.09 0,0.13 0,0.33 -0.06,0.65 -0.18,0.96 -0.23,0.4 -0.53,0.77 -0.87,1.09 -0.78,0.88 -1.22,2.02 -1.22,3.21 0,0.21 0.01,0.42 0.04,0.63 0.03,0.32 0.04,0.64 0.04,0.96 0,0.98 -0.13,1.95 -0.39,2.89 -0.79,3.46 -1.57,6.93 -2.2,10.42 -0.11,0.48 -0.17,0.98 -0.17,1.48 0,0.16 0.01,0.32 0.02,0.48 0.12,0.94 0.65,1.84 0.53,2.79 -0.11,0.44 -0.2,0.89 -0.25,1.34 0.03,0.34 0.11,0.68 0.24,0.99 0.9,2.59 3.3,8.52 3.27,11.26 -4.18,-1.07 -10.35,-1.31 -14.67,-1.33 -0.14,0 -0.29,-0 -0.43,-0 -1.05,0 -2.1,0.06 -3.14,0.16 -2.84,0.3 -5.75,1.13 -8.5,0.37 -2.55,-0.71 -4.82,-2.75 -7.46,-2.49 -0.57,-1.5 0.11,-6.51 0.64,-8.03 1.28,-3.65 1.94,-7.51 1.94,-11.39 0,-2.42 -0.26,-4.84 -0.77,-7.21 -0.48,-2.22 0.18,-4.58 -0.36,-6.79 -0.1,-0.52 -0.3,-1.02 -0.58,-1.46 -0.29,-0.44 -0.78,-0.71 -1.31,-0.71 -0.01,0 -0.02,0 -0.03,0 0,-0.22 -0,-0.46 -0,-0.69 0,-3.32 0.34,-6.64 0.99,-9.89 0.26,-1.24 0.81,-2.7 2.05,-2.91 1.12,-0.19 2.07,0.76 2.97,1.46 0.92,0.71 2,1.22 3.14,1.48 0.46,0.05 0.9,0.21 1.29,0.47 0.54,0.45 0.62,1.26 1.06,1.8 0.79,0.98 2.54,0.89 3.1,2.02 0.12,0.33 0.23,0.68 0.3,1.03 0.26,0.67 0.71,1.25 1.29,1.67 0.88,0.82 1.95,1.41 3.11,1.72l0 0z"/>
   <path class="fil17" d="M176.39 152.36c-0.14,-0.54 -0.12,-1.18 0.32,-1.54 0.22,-0.17 0.49,-0.23 0.73,-0.39 0.33,-0.28 0.59,-0.61 0.79,-0.99 0.8,-1.12 2.09,-1.78 3.47,-1.78 0.65,0 1.29,0.15 1.88,0.43 1.42,0.74 2.28,2.23 3.54,3.23 0.64,0.52 1.39,0.9 2.03,1.42 1.28,1.12 2.2,2.6 2.63,4.25 0.41,1.64 0.65,3.33 0.71,5.02 0.02,0.2 0.04,0.39 0.04,0.59 0,0.31 -0.03,0.63 -0.1,0.93 -0.13,0.41 -0.32,0.81 -0.58,1.16 -1.29,1.96 -3.01,3.75 -5.15,4.76 -2.14,1.01 -4.74,1.18 -6.86,0.12 -0.21,-0.09 -0.39,-0.24 -0.53,-0.42 -0.08,-0.18 -0.12,-0.38 -0.12,-0.57 0,-0.11 0.01,-0.22 0.04,-0.33 0.02,-0.19 0.03,-0.39 0.03,-0.58 0,-1.01 -0.25,-2 -0.71,-2.89 -0.39,-0.79 -0.98,-1.46 -1.3,-2.28 -0.25,-0.79 -0.38,-1.62 -0.38,-2.44 0,-0.12 0,-0.25 0.01,-0.38 -0.03,-2.46 0.14,-4.93 -0.48,-7.31z"/>
   <rect class="fil18" x="152.55" y="102.23" width="20.07" height="20.07"/>
   <path class="fil15" d="M159.87 119.32c0.29,0.56 0.77,1 1.36,1.23 0.35,0.13 0.71,0.2 1.08,0.2 0.07,0 0.15,0.01 0.22,0.01 0.32,0 0.65,-0.05 0.96,-0.15 0.5,-0.2 0.94,-0.54 1.24,-0.99 0.3,-0.45 0.55,-0.94 0.72,-1.45 0.1,-0.21 0.15,-0.45 0.15,-0.68 0,-0.05 -0,-0.09 -0.01,-0.14 -0.31,-0.04 -0.59,-0.2 -0.79,-0.44 -0.06,-0.13 -0.09,-0.27 -0.09,-0.42 0,-0.13 0.02,-0.25 0.07,-0.37 0.02,-0.08 0.05,-0.15 0.08,-0.22 0.06,-0.17 0.26,-0.5 0.12,-0.64 -0.14,-0.15 -0.47,-0.14 -0.6,-0.2 -0.38,-0.23 -0.8,-0.41 -1.22,-0.55 -0.13,-0.02 -0.26,-0.03 -0.39,-0.03 -0.26,0 -0.52,0.03 -0.77,0.1 -0.05,0.01 -0.1,0.03 -0.15,0.05 -0.05,0.04 -0.09,0.1 -0.11,0.16 -0.11,0.27 -0.17,0.56 -0.26,0.84 -0.08,0.29 -0.22,0.55 -0.43,0.77 -0.18,0.15 -0.38,0.27 -0.6,0.36l-0.53 0.24c-0.09,0.04 -0.18,0.09 -0.25,0.16 -0.07,0.1 -0.11,0.21 -0.12,0.32 -0.02,0.15 -0.04,0.31 -0.04,0.46 0,0.48 0.11,0.95 0.33,1.37l0 0z"/>
   <path class="fil19" d="M161.51 115.65c0.51,0.54 1.22,0.84 1.97,0.84 0.46,0 0.92,-0.12 1.33,-0.35 0.02,-0.08 0.05,-0.15 0.07,-0.22 0.06,-0.17 0.26,-0.5 0.12,-0.64 -0.14,-0.15 -0.47,-0.14 -0.6,-0.2 -0.38,-0.23 -0.8,-0.41 -1.22,-0.55 -0.13,-0.02 -0.26,-0.03 -0.39,-0.03 -0.26,0 -0.52,0.03 -0.77,0.1 -0.05,0.01 -0.1,0.03 -0.14,0.06 -0.05,0.04 -0.09,0.1 -0.11,0.16 -0.11,0.28 -0.17,0.56 -0.26,0.84z"/>
   <circle class="fil15" cx="163.47" cy="113.64" r="2.73"/>
   <path class="fil20" d="M155.2 122.29l12.83 0c0.39,-0.88 0.75,-1.76 1.14,-2.63l0 0c-0.04,-0.21 -0.12,-0.41 -0.23,-0.59 -0.12,-0.18 -0.31,-0.29 -0.53,-0.29 -0.11,0 -0.24,0.04 -0.33,-0.04 -0.08,-0.08 -0.05,-0.15 -0.11,-0.2 -0.06,-0.05 -0.2,-0.05 -0.31,-0.05 -0.01,0 -0.02,0 -0.02,0 -0.23,0 -0.45,-0.11 -0.58,-0.3 -0.04,-0.07 -0.09,-0.14 -0.15,-0.2 -0.1,-0.05 -0.22,-0.08 -0.33,-0.09 -0.32,-0.07 -0.51,-0.39 -0.75,-0.59 -0.09,-0.1 -0.21,-0.15 -0.34,-0.15 -0.05,0 -0.09,0.01 -0.14,0.02 -0.04,0.02 -0.07,0.05 -0.1,0.08 -0.06,0.1 -0.11,0.21 -0.13,0.32 -0.14,0.65 -0.5,1.24 -1.02,1.65 -0.4,0.3 -0.9,0.47 -1.4,0.47 -0.9,0 -1.73,-0.53 -2.11,-1.35 -0.19,-0.47 -0.3,-0.98 -0.32,-1.49 0,-0.03 0,-0.04 0,-0.07 -0.09,-0.02 -0.18,-0.03 -0.27,-0.03 -0.24,0 -0.47,0.08 -0.66,0.22 -0.26,0.2 -0.54,0.37 -0.83,0.52 -0.35,0.14 -0.79,0.14 -1.02,0.39 -0.1,0.1 -0.17,0.24 -0.3,0.31 -0.08,0.03 -0.17,0.05 -0.25,0.06 -0.44,0.12 -0.81,0.44 -0.99,0.86 -0.28,0.63 -0.47,1.3 -0.55,1.99l-0.19 1.17z"/>
   <path class="fil14" d="M165.35 109.22c0.19,0.15 0.35,0.34 0.48,0.55 0.23,0.39 0.56,0.71 0.95,0.94 0.16,0.06 0.31,0.15 0.44,0.27 0.06,0.09 0.1,0.2 0.11,0.31 0.08,0.38 0.12,0.77 0.12,1.16 0,0.03 0,0.06 0,0.09 0,0.17 -0.03,0.33 -0.1,0.48 -0.08,0.17 -0.23,0.31 -0.26,0.49 0,0.02 0,0.04 0,0.06 0,0.12 0.02,0.25 0.05,0.37 0.01,0.03 0.01,0.06 0.01,0.09 0,0.12 -0.06,0.23 -0.16,0.3 -0.07,0.03 -0.15,0.04 -0.22,0.05 -0.39,0.09 -0.53,0.55 -0.59,0.93 -0.13,0 -0.19,-0.16 -0.22,-0.29l-0.39 -1.83c-0.05,-0.2 -0.12,-0.43 -0.32,-0.49 -0.07,-0.01 -0.14,-0.02 -0.21,-0.02 -0.07,0 -0.14,0.01 -0.21,0.02 -0.54,0.05 -1,-0.37 -1.53,-0.49 -0.13,-0.02 -0.26,-0.04 -0.39,-0.04 -0.04,0 -0.09,0 -0.13,0 -0.42,0 -0.9,0.19 -0.99,0.58 0,0.06 -0.02,0.14 -0.08,0.17 -0.03,0.01 -0.06,0.01 -0.09,0.01 -0.03,0 -0.06,-0 -0.09,-0.01 -0.26,-0.03 -0.42,0.27 -0.5,0.51l-0.28 0.89c-0.04,0.13 -0.11,0.29 -0.26,0.31 -0.14,0 -0.25,-0.1 -0.27,-0.24 -0,-0.02 -0,-0.03 -0,-0.05 0,-0.12 0.02,-0.23 0.06,-0.34 0.13,-0.58 -0.07,-1.18 -0.19,-1.76 -0.12,-0.59 -0.14,-1.26 0.27,-1.71 0.15,-0.16 0.35,-0.28 0.48,-0.46 0.14,-0.17 0.2,-0.36 0.33,-0.52 0.53,-0.47 1.2,-0.76 1.91,-0.83 0.11,-0.01 0.23,-0.02 0.34,-0.02 0.67,0 1.34,0.18 1.92,0.51l0 0z"/>
   <path class="fil19" d="M160.49 114.22c0.14,0 0.22,-0.18 0.26,-0.31l0.28 -0.89c0.08,-0.24 0.23,-0.54 0.5,-0.52 0.03,0.01 0.06,0.01 0.09,0.01 0.03,0 0.06,-0 0.09,-0.01 0.06,-0.03 0.07,-0.11 0.08,-0.17 0.09,-0.39 0.58,-0.56 0.99,-0.58 0.04,-0 0.09,-0 0.13,-0 0.13,0 0.26,0.01 0.39,0.04 0.53,0.11 0.99,0.53 1.53,0.49 0.07,-0.01 0.14,-0.02 0.21,-0.02 0.07,0 0.14,0.01 0.21,0.02 0.2,0.07 0.27,0.3 0.32,0.5 0.14,0.61 0.27,1.22 0.39,1.82 0.03,0.12 0.09,0.28 0.22,0.29 0.06,-0.39 0.19,-0.84 0.59,-0.93 0.08,-0.01 0.15,-0.02 0.22,-0.05 0.05,-0.03 0.09,-0.08 0.11,-0.13 0,0.05 0.02,0.11 0.03,0.17 0.01,0.03 0.01,0.06 0.01,0.09 0,0.12 -0.06,0.23 -0.16,0.3 -0.07,0.03 -0.15,0.04 -0.22,0.05 -0.39,0.09 -0.53,0.55 -0.59,0.93 -0.13,0 -0.19,-0.16 -0.22,-0.29 -0.14,-0.61 -0.27,-1.22 -0.39,-1.83 -0.05,-0.2 -0.12,-0.43 -0.32,-0.49 -0.07,-0.02 -0.14,-0.02 -0.21,-0.02 -0.07,0 -0.14,0.01 -0.21,0.02 -0.54,0.05 -1,-0.37 -1.53,-0.49 -0.13,-0.02 -0.26,-0.04 -0.38,-0.04 -0.05,0 -0.09,0 -0.13,0 -0.42,0 -0.9,0.19 -0.99,0.58 0,0.06 -0.02,0.14 -0.08,0.17 -0.03,0.01 -0.06,0.01 -0.09,0.01 -0.03,0 -0.06,-0 -0.09,-0.01 -0.26,-0.03 -0.42,0.27 -0.5,0.51l-0.28 0.89c-0.04,0.13 -0.11,0.29 -0.26,0.31 -0.14,0 -0.25,-0.1 -0.27,-0.24 -0,-0.02 -0,-0.04 -0,-0.06 0,-0.09 0.01,-0.17 0.04,-0.25 0.04,0.08 0.12,0.13 0.21,0.13 0.01,0 0.01,0 0.02,-0l0 0z"/>
   <path class="fil19" d="M167.1 113.09c0.03,-0.18 0.18,-0.32 0.26,-0.49 0.05,-0.11 0.08,-0.23 0.09,-0.35 0,0.07 0,0.13 0,0.2 0,0.03 0,0.06 0,0.09 0,0.17 -0.03,0.33 -0.1,0.48 -0.06,0.13 -0.17,0.25 -0.23,0.39 -0.02,-0.07 -0.03,-0.15 -0.03,-0.22 0,-0.03 0,-0.07 0,-0.1l0 0z"/>
   <path class="fil19" d="M160.08 111.83c0.15,0.48 0.22,0.99 0.22,1.5 0,0.03 0,0.05 0,0.08 -0.05,-0.39 -0.13,-0.77 -0.22,-1.15 -0.05,-0.22 -0.07,-0.44 -0.07,-0.66 0,-0.07 0,-0.14 0.01,-0.22 0.01,0.15 0.03,0.31 0.07,0.46l0 0z"/>
   <path class="fil20" d="M167.01 122.29l3.06 0c-0.13,-0.82 -0.38,-1.63 -0.72,-2.39 -0.03,-0.08 -0.07,-0.15 -0.13,-0.21 -0.01,-0.01 -0.03,-0.03 -0.04,-0.03 -0.09,-0.07 -0.22,-0.1 -0.31,-0.17 -0.1,-0.07 -0.11,-0.14 -0.2,-0.17 -0.02,0 -0.04,0 -0.06,0 -0.32,0 -0.63,0.06 -0.93,0.17 -0.09,0.01 -0.18,0.03 -0.26,0.07 -0.2,0.11 -0.35,0.29 -0.42,0.51 -0.26,0.7 -0.06,1.47 0.02,2.22z"/>
  </g>
 </g>
</svg>
