<?xml version="1.0" encoding="UTF-8"?>
<!DOCTYPE svg PUBLIC "-//W3C//DTD SVG 1.1//EN" "http://www.w3.org/Graphics/SVG/1.1/DTD/svg11.dtd">
<!-- Creator: CorelDRAW 2019 (64-Bit) -->
<svg xmlns="http://www.w3.org/2000/svg" xml:space="preserve" width="24.6056mm" height="21.17mm" version="1.1" style="shape-rendering:geometricPrecision; text-rendering:geometricPrecision; image-rendering:optimizeQuality; fill-rule:evenodd; clip-rule:evenodd"
viewBox="0 0 837.38 720.46"
 xmlns:xlink="http://www.w3.org/1999/xlink"
 xmlns:xodm="http://www.corel.com/coreldraw/odm/2003">
 <defs>
  <style type="text/css">
   <![CDATA[
    .fil2 {fill:#4B4B4D}
    .fil10 {fill:#373435}
    .fil6 {fill:#F6C9AA}
    .fil13 {fill:#494848}
    .fil12 {fill:#525254}
    .fil4 {fill:#3E4095}
    .fil7 {fill:#132327}
    .fil5 {fill:#22343D}
    .fil15 {fill:#283044}
    .fil16 {fill:#3C3E42}
    .fil17 {fill:#4B4F54}
    .fil14 {fill:#775298}
    .fil8 {fill:#A3896F}
    .fil11 {fill:#A9C5CD}
    .fil9 {fill:#BD9F7E}
    .fil0 {fill:#CCE3EB}
    .fil1 {fill:#ED1B24}
    .fil3 {fill:#FEFDFE}
    .fil25 {fill:#FEFEFE;fill-rule:nonzero}
    .fil24 {fill:#D6D7D9;fill-rule:nonzero}
    .fil20 {fill:#9D9FA2;fill-rule:nonzero}
    .fil26 {fill:#5F909F;fill-rule:nonzero}
    .fil22 {fill:#5F909F;fill-rule:nonzero}
    .fil19 {fill:#C6D5DA;fill-rule:nonzero}
    .fil18 {fill:#F2F2F2;fill-rule:nonzero}
    .fil23 {fill:#F3F3F3;fill-rule:nonzero}
    .fil21 {fill:white;fill-rule:nonzero}
   ]]>
  </style>
 </defs>
 <g id="Layer_x0020_1">
  <metadata id="CorelCorpID_0Corel-Layer"/>
  <g id="_1800091691536">
   <path class="fil0" d="M500.16 480.11c11.55,-8.26 27.27,-20.53 40.01,-24.54 8.01,8.02 32.48,51.85 36.89,63.84 -7.29,7.82 -34.99,25.15 -46.54,28.11 -4.71,-16.64 -30.2,-54.84 -30.37,-67.42zm-210.84 -400.41l0.06 2.81c0.03,0.21 0.12,1.16 0.17,1.39 0.05,0.21 0.23,1.1 0.31,1.3 3.09,7.94 2.26,2.5 5.1,3.56l2.04 0.8c0.13,0.06 0.8,0.43 0.92,0.49 6.93,3.18 1.45,2.57 3.26,1.37 -18.54,11.26 -27.1,43.19 -36.76,61.77 -6.45,12.4 -12.3,20.51 -19.61,28.75 -18.85,21.24 -14.21,19.23 -25.98,19.77 10.67,16.1 6.56,15.89 -8.05,27.49 9.14,26.69 40.05,78.55 41.68,111.2l-9.74 3.88c4.31,28.93 5.42,76.8 1.17,105.5 -2.9,19.55 -6.04,29.9 -27.2,31.64 -14.68,1.2 -33.72,-1.95 -45.72,-7.18 -11.02,3.57 -19.35,7.58 -35.47,4.46 8.27,21 33.45,41.87 44.66,61.88 5.74,0.61 39.14,36.51 61.42,53.5l68.66 45.69c9.08,-3.26 66.51,-33.52 72.08,-38.25 7.45,-51.81 -37.12,-107.21 12.34,-134.28l-9.69 -49.99 -4.78 5.26c-7.33,4.54 -8.1,1.45 -13.78,10.97 -2.31,3.86 -5.47,12.38 -7.49,16.81 -23.35,51.12 -57.81,47.93 -62.55,82.95 -11.18,-1.57 2.4,0.84 -6.2,-0.55 -3.83,-0.62 -0.89,0.66 -5.24,-1.42l-10.39 -9.02c7.41,-9.92 13.67,-8.47 7.66,-21.01 21.01,1.03 19.29,-0.84 28.39,-14.74 12.91,-19.7 41.95,-59.33 44.34,-78.76 8.65,-21.08 15.69,-28.76 42.95,-30.27 4.37,-4.24 3.81,-2.92 5.66,-9.59 -5.15,-3.55 -0.3,-1.77 -9.17,-1.82 -43.23,-21.31 24.37,-20.49 28.28,-18.73l-7.09 17.92c3.76,4.59 -4.42,4.91 6.94,2.71l11.35 -14.31c16.33,-15.51 19.97,-30.13 25.7,-57.14 2.44,-11.51 5.33,-24.12 7.39,-35 4.99,-26.31 -0.21,-12.74 -8.56,-29.5l-14.45 -12.05 38.72 -60.76c15.56,2.59 44.97,23.52 60.79,31.49l-37.31 67.98 -25.9 -16.52c2.39,69 3.72,65.62 -20.88,123.94 -0.74,15.08 -3.77,15.6 -6.27,27.46 -2.89,13.68 1.14,15.78 1.4,29.33 0.37,19.68 -5.66,38.9 -9.09,56.97 45.22,91.67 74.9,115.42 27.83,160.16 -8.09,7.68 -10.2,12.59 -19.56,19.71 -8.02,6.1 -16.17,12.75 -23.6,18.8 90.67,2.43 150.31,10.06 220.52,-72.88 8.37,-9.89 14.22,-16.55 20.29,-28.07l18.18 -30.93c17.39,-59.59 34.45,-97.23 30.62,-173.46l-53.72 27.08c-25.27,13.92 -22.14,10.28 -39.28,17.98 -15.3,6.87 -6.89,-1.77 -12.17,10.5 6.61,4.25 11.24,13.77 13.86,21.87l2.66 4.88 7.18 2.39 -0.15 7.08c3.87,8.29 6.74,20.75 1.93,32.61 -8.58,-2.75 -5.37,-0.29 -8.28,-8.44 -3.41,-3.5 -1.69,-0.75 -4.37,-5.91 -0.03,-0.06 -2.04,-5.86 -2.32,-6.55 -2.28,-5.6 -3.72,-7.79 -5.91,-11.58l-4.63 -3.74c-10.35,-9.2 -14.04,-11.56 -24.46,-21.88 -8.63,-8.54 -14.17,-13.5 -22.81,-22.69 -25.21,-26.86 -16.46,-30.82 -8.96,-64.51l-8 -5.13c6.94,-15.2 32.91,-58 35.75,-70.01 3.36,-14.17 -1.49,-37.78 -0.85,-54.04 1.07,-26.72 -0.98,-21.02 -9.83,-42.28 0.72,-15.85 -9.08,-30.98 -14.27,-44.97 -9.59,-25.85 0.45,-33.15 -1.88,-56.68l-4.09 22.58c-40.42,-16.13 -66.59,-28.16 -117.7,-28.59 -56.46,-0.48 -84.62,13.61 -132.71,21.39l-9.4 -20.18 -5.97 5.39z"/>
   <path class="fil1" d="M575.34 180.76c8.85,21.26 10.89,15.56 9.83,42.28 -0.64,16.26 4.2,39.87 0.85,54.04 -2.85,12.02 -28.82,54.82 -35.75,70.01l8 5.13c6.39,2.17 11.86,4.24 18.9,6.24l16.62 6.02c0.62,0.3 1.63,0.82 2.4,1.32l52.27 0.3c21.5,-4.97 36.27,-11.32 47.34,-28.08 -9.67,-25.14 -39.74,-60.35 -59.27,-68.38 2.82,-13.04 7.19,-23.35 11.06,-35.92 8.8,-28.64 -0.96,-19.34 21.72,-30.96l2.77 -2.21 -10.65 -25.17 -28.2 7.15c0.49,12.28 -4.96,13.61 -11.49,23.68l-13.97 -2.45c-3.63,-16.95 4.47,-8.97 3.75,-25.15 -10.06,-4.98 -8.85,-3.86 -9.07,-13.92 -15.32,2.8 -17.85,8.81 -27.09,16.05z"/>
   <path class="fil2" d="M702.66 101.27c-21.6,17.95 -32.52,4.85 -83.82,2.78 -8.57,9.91 -13.6,8.44 -17.11,26.06 0.02,9.51 2.78,16.78 4.35,24.28 15.43,-7 2.98,-15.66 24.85,-21.24 8.92,5.56 13.64,16.97 21,26.46 -12.3,5.73 -8.06,10.39 -12.83,13.33l9.43 1.52c0.4,2.25 31.55,2.65 12.97,1.04 22.02,2.37 36.19,-9.55 53.8,-19.19 7.66,-4.19 14.5,-8.29 23.12,-13.17 12.54,-7.1 12.83,-5.31 13,-23.32 15.93,8.12 1.53,-1.6 18.42,-0.96 15.02,0.57 4.06,3.16 13.4,5.62 -5.43,13.01 -3.12,7.23 -20.52,15.61 -24.63,11.87 -23.89,33.59 -62.79,45.96 5.56,6.46 1.71,1.76 7.17,6.42l6.05 4.97c16.84,-2.26 27.84,1.68 41.69,-7.68 10.84,-7.32 12.55,-15.81 25.91,-22.59 13.3,-6.76 54.97,-10.46 56.58,-43.81 1.69,-35.15 -31.52,-29.84 -61.01,-36.16 -62.4,-13.36 -38.97,7.09 -73.65,14.09z"/>
   <path class="fil3" d="M173.55 211.59c6.3,1.96 9.49,-3.11 8.06,10.39 -1.4,13.26 -22.95,24.65 -33.47,9.15l-8.64 -6.26c-9.51,14.27 -31.53,23.16 -33.07,40.64l9.68 12.15c3.87,3.04 4.96,3.62 9.64,6.35 9.94,-4.13 10.7,-8.03 14.7,-15.57 16.6,17.21 21.05,53.88 16.39,81.68l8.64 2.33 71.56 -5.65 5.71 -2.53 9.74 -3.88c-1.64,-32.65 -32.54,-84.52 -41.68,-111.2 14.61,-11.61 18.72,-11.4 8.05,-27.49l-8.27 -7.93c-9,-3.96 -8.97,-2.22 -19.04,4.19 -8.7,5.54 -13.53,5.68 -18,13.63z"/>
   <path class="fil0" d="M116.1 277.66c-2.33,9.77 -1.18,5.3 -8.96,11.44 -3.74,2.95 -8.06,6.41 -11.96,9.31 -8.06,6 -16.02,9.33 -24.24,15.44 -0.76,24.3 1.89,42.73 9.74,63.2 3.87,10.1 20.62,41.68 18.69,47.34 8.98,9 30.2,13.37 45.76,14.54l20.34 -86.48 -8.64 -2.33c4.65,-27.8 0.21,-64.47 -16.39,-81.68 -4,7.54 -4.76,11.45 -14.7,15.57 -4.69,-2.73 -5.78,-3.31 -9.64,-6.35z"/>
   <path class="fil4" d="M310.29 639.75l-9.02 6.89c1.66,9.38 0.6,12.9 10.25,14.7 13.99,-1.65 23.04,-5.68 35.93,-4.66 14.28,-12.5 45.9,-13.18 61.52,-26.55 18.38,-15.73 7.4,-47.87 19.66,-64.91 -2.99,-10.37 -1.74,-27.48 -1.61,-42.83 0.25,-28.24 3.74,-22.99 9.45,-43.32 -22.24,-0.23 -24.69,-5.18 -41.76,-11.86 -49.46,27.08 -4.89,82.47 -12.34,134.28 -5.57,4.73 -63.01,34.99 -72.08,38.25z"/>
   <path class="fil5" d="M203.45 442.81l-17.27 -0.35 9.92 -30.95c4.2,-9.08 3.35,-5.52 6.19,-8.82l1.16 40.11zm-37.97 -90.36l-20.34 86.48c-15.56,-1.16 -36.78,-5.54 -45.76,-14.54l-13.4 -0.54c-10.07,6.98 -11.84,9.78 -8.96,23.51l14.48 9.24c3.13,2.07 7.19,3.97 9.68,5.7 8.35,5.79 3.56,2.59 6.7,6.38l27.65 10c16.11,3.12 24.45,-0.89 35.47,-4.46l11.75 -27.49 20.69 -3.92 4.11 -13.91c2.38,-22.41 -5.6,-31.3 1.1,-44.29 2.76,-5.35 22.38,-31.07 28.38,-37.81l-71.56 5.65z"/>
   <path class="fil4" d="M428.63 565.22c5.61,12.51 21.27,23.17 28.52,38.84 -3.94,8.38 -18.1,25.73 -24.48,34.66 -8.29,11.59 -16.4,27.16 -26.69,35.13l1.91 2.44c4.27,2.28 1.15,-0.04 5.34,3.27 1.28,1.01 5.3,4.92 6.33,5.8 7.5,-3.39 3.99,-1.14 10.54,-6.88 7.44,-6.05 15.59,-12.7 23.6,-18.8 9.36,-7.13 11.48,-12.03 19.56,-19.71 47.07,-44.74 17.39,-68.49 -27.83,-160.16l-8.96 -0.74c-5.72,20.33 -9.21,15.08 -9.45,43.32 -0.14,15.36 -1.38,32.46 1.61,42.83z"/>
   <path class="fil6" d="M422.54 367.94c-0.81,14.83 14.03,26.6 -4.19,29.69 -9.92,1.68 -9.05,-1.06 -12.17,-7.01 -6.94,-13.22 6.03,-7.59 -8.27,-13.18 -27.26,1.51 -34.29,9.19 -42.95,30.27 7.89,7.45 9.58,13.56 25.26,14.76l4.78 -5.26 9.69 49.99c17.07,6.68 19.52,11.63 41.76,11.86l8.96 0.74c3.43,-18.07 9.46,-37.29 9.09,-56.97 -0.26,-13.55 -4.29,-15.64 -1.4,-29.33 2.5,-11.86 5.54,-12.38 6.27,-27.46 -9.21,-5.7 -10.94,-10.54 -25.5,-12.43l-11.35 14.31z"/>
   <path class="fil0" d="M648.44 366.1l-4 19.26c27.83,-5.98 36.84,-9.72 59.19,-23.1l15.43 -2.46c-1.99,-27.41 -7.77,-56.66 -16.45,-81.36 -9.36,-26.64 -25.86,-53.1 -33.33,-75.67 -22.68,11.62 -12.92,2.32 -21.72,30.96 -3.86,12.57 -8.24,22.88 -11.06,35.92 19.53,8.03 49.6,43.23 59.27,68.38 -11.06,16.76 -25.83,23.11 -47.34,28.08z"/>
   <path class="fil7" d="M237.04 346.8c-5.99,6.74 -25.62,32.46 -28.38,37.81 -6.7,12.99 1.28,21.89 -1.1,44.29l-4.11 13.91 -20.69 3.92 -11.75 27.49c12,5.23 31.03,8.38 45.72,7.18 21.15,-1.74 24.3,-12.09 27.2,-31.64 4.25,-28.7 3.14,-76.57 -1.17,-105.5l-5.71 2.53z"/>
   <path class="fil0" d="M458.43 231.99l21.85 10.14 25.9 16.52 37.31 -67.98c-15.82,-7.97 -45.23,-28.9 -60.79,-31.49l-38.72 60.76 14.45 12.05z"/>
   <path class="fil8" d="M606.08 154.39l3.73 5.59c1.19,2.06 2.12,3.04 3.09,5.98 4.68,14.26 -0.64,12.07 -1.4,12.67 0.72,16.18 -7.39,8.2 -3.75,25.15l13.97 2.45c22.82,-18.45 7.5,-20.33 22.52,-26.27 3.51,-1.38 10.04,-0.14 17.54,-2.63l10.27 23.23c6.94,-2.45 22.01,-9.3 27.87,-14.51 38.9,-12.37 38.16,-34.09 62.79,-45.96 17.39,-8.39 15.09,-2.6 20.52,-15.61 -9.33,-2.46 1.62,-5.05 -13.4,-5.62 -16.89,-0.64 -2.49,9.07 -18.42,0.96 -0.17,18.01 -0.46,16.22 -13,23.32 -8.62,4.88 -15.46,8.98 -23.12,13.17 -17.61,9.63 -31.78,21.56 -53.8,19.19 1.1,0.1 4,0.56 6.11,-0.05 -24.94,9.03 -40.39,2.59 -28.5,-2.5 4.77,-2.93 0.53,-7.6 12.83,-13.33 -7.36,-9.48 -12.08,-20.89 -21,-26.46 -21.86,5.58 -9.42,14.24 -24.85,21.24z"/>
   <path class="fil8" d="M648.44 366.1l-52.27 -0.3c-5.13,8.34 -11.38,43.22 2.23,52.8l9.82 5.06c0.68,0.45 1.47,1.05 2.1,1.5 0.66,0.47 1.58,1.3 2.11,1.71 0.55,0.42 1.44,1.18 2.09,1.84 5.28,-12.27 -3.12,-3.63 12.17,-10.5 17.14,-7.7 14.01,-4.06 39.28,-17.98l53.72 -27.08 5.35 -4.69c-9.92,-5.9 -18.23,-1.95 -19.55,-5.05 -0.35,-0.83 -1.26,-0.74 -1.86,-1.15 -22.35,13.39 -31.35,17.12 -59.19,23.1l4 -19.26z"/>
   <path class="fil0" d="M500.16 480.11c0.17,12.58 25.66,50.78 30.37,67.42 11.55,-2.96 39.25,-20.29 46.54,-28.11 -4.41,-12 -28.88,-55.83 -36.89,-63.84 -12.75,4.01 -28.46,16.28 -40.01,24.54z"/>
   <path class="fil0" d="M153.91 172.08c18.93,22.6 -6.72,33.29 19.64,39.51 4.47,-7.95 9.3,-8.1 18,-13.63 10.07,-6.42 10.04,-8.15 19.04,-4.19 0.34,-11.37 -2.16,-6.2 6.85,-15.08 20.07,-19.78 6.06,-2.35 23.44,-30.97 15.97,-26.3 16.86,-23.21 22.87,-31.85 2.14,-3.08 5.19,-9.67 2.05,-13.61 0.76,13.69 1.36,7.65 -11.45,13.86 -4.92,2.39 -9.32,3.56 -14.76,6.23l-55.51 32.14c-11.11,7.59 -17.06,14.92 -30.16,17.6z"/>
   <path class="fil0" d="M347.45 656.68c8.72,0.75 49.55,11.88 58.52,17.17 10.3,-7.97 18.4,-23.55 26.69,-35.13 6.38,-8.92 20.54,-26.28 24.48,-34.66 -7.25,-15.67 -22.91,-26.32 -28.52,-38.84 -12.26,17.05 -1.28,49.19 -19.66,64.91 -15.62,13.36 -47.24,14.05 -61.52,26.55z"/>
   <path class="fil8" d="M614.49 461.31c4.53,-3.97 8.64,-7.33 13.9,-10.74 -2.62,-8.1 -7.25,-17.62 -13.86,-21.87 -0.65,-0.66 -1.54,-1.42 -2.09,-1.84 -0.53,-0.4 -1.45,-1.24 -2.11,-1.71 -0.62,-0.45 -1.41,-1.04 -2.1,-1.5l-9.82 -5.06c-13.61,-9.57 -7.36,-44.46 -2.23,-52.8 -0.77,-0.5 -1.78,-1.02 -2.4,-1.32l-16.62 -6.02c-7.03,-2 -12.51,-4.07 -18.9,-6.24 -7.5,33.69 -16.25,37.66 8.96,64.51 8.63,9.19 14.18,14.15 22.81,22.69 10.42,10.32 14.11,12.68 24.46,21.88z"/>
   <path class="fil9" d="M265.79 102.25c3.14,3.94 0.09,10.53 -2.05,13.61 -6.01,8.64 -6.91,5.55 -22.87,31.85 -17.38,28.62 -3.37,11.19 -23.44,30.97 -9.01,8.88 -6.51,3.71 -6.85,15.08l8.27 7.93c11.77,-0.53 7.13,1.47 25.98,-19.77 7.31,-8.24 13.16,-16.34 19.61,-28.75 9.79,-18.85 45.04,-67.2 28.57,-74.31l0 7.35c-2.84,-1.06 -0.05,6.92 -3.14,-1.03 -0.08,-0.2 -0.26,-1.09 -0.31,-1.3 -0.05,-0.22 -0.14,-1.17 -0.17,-1.39l-0.06 -2.81c-5.85,3.75 -1.63,1.67 -4.68,0.99l-3.88 -2.13c-0.11,-0.06 -0.64,-0.6 -1.01,-0.53 -15.9,25.02 -6.47,10.62 -17.69,18.14l3.73 6.08z"/>
   <path class="fil9" d="M380.24 422.49c-15.68,-1.21 -17.38,-7.31 -25.26,-14.76 -2.4,19.44 -31.44,59.06 -44.34,78.76 -9.11,13.9 -7.38,15.77 -28.39,14.74 6.01,12.55 -0.26,11.1 -7.66,21.01l10.39 9.02c4.35,2.08 1.41,0.8 5.24,1.42 8.6,1.39 -4.98,-1.02 6.2,0.55 4.74,-35.03 39.2,-31.83 62.55,-82.95 2.02,-4.43 5.19,-12.95 7.49,-16.81 5.68,-9.52 6.45,-6.43 13.78,-10.97z"/>
   <path class="fil9" d="M76.64 284.25c-21.46,15.37 -13.09,5.7 -41.65,29.81l-16.48 -1.41c-4.41,8.99 -7.6,5.75 -12.76,11.25 -0.26,0.28 -0.87,0.98 -1.05,1.27 -0.16,0.24 -0.46,1.04 -0.55,1.29 -0.09,0.23 -0.09,1.07 -0.14,1.3l-4.03 12.07 16.85 10.5c7.96,-18.94 34.78,-29.99 54.11,-36.48 8.22,-6.11 16.18,-9.44 24.24,-15.44 3.89,-2.9 8.22,-6.36 11.96,-9.31 7.78,-6.14 6.63,-1.67 8.96,-11.44l-9.68 -12.15c-11.81,7.08 -14.03,11.65 -29.79,18.74z"/>
   <path class="fil9" d="M559.19 79.1c2.33,23.54 -7.72,30.83 1.88,56.68 5.19,13.99 14.99,29.12 14.27,44.97 9.24,-7.24 11.76,-13.25 27.09,-16.05 -16.07,-14.83 -17.17,-14.56 -24.2,-47.12 -1.46,-9.08 -3.6,-19.66 -5.73,-29.6 -3.66,-17.09 -7.62,-21.57 4.03,-30.83l-2.83 -3.62c-0.26,-0.42 -0.98,-1.37 -1.28,-1.89 -8.04,-13.79 -1.12,-12.03 -7,-12.91l-19.02 3.21c7.44,14.58 10.24,14.32 12.79,37.14z"/>
   <path class="fil8" d="M433.89 353.63c14.56,1.9 16.29,6.73 25.5,12.43 24.6,-58.31 23.27,-54.93 20.88,-123.94l-21.85 -10.14c8.35,16.75 13.55,3.19 8.56,29.5 -2.07,10.89 -4.95,23.49 -7.39,35 -5.73,27.02 -9.37,41.64 -25.7,57.14z"/>
   <path class="fil9" d="M117.11 191.36c3.42,9.08 -2.95,4.35 7.71,8.39 21.84,6.38 22.86,5.17 23.33,31.38 10.52,15.5 32.07,4.11 33.47,-9.15 1.43,-13.5 -1.76,-8.42 -8.06,-10.39 -26.36,-6.22 -0.7,-16.91 -19.64,-39.51l-6.99 -13.51c-13.78,12.95 -2.64,-0.06 -3.02,9.79 -10.62,-3.04 -9.68,-3.55 -23.9,-2.47 3.93,14.58 -2.5,14.72 4.65,28.82 -6,-4.62 -0.58,-0.09 -7.54,-3.35z"/>
   <path class="fil0" d="M76.64 284.25c15.75,-7.1 17.98,-11.67 29.79,-18.74 1.54,-17.48 23.56,-26.38 33.07,-40.64l8.64 6.26c-0.46,-26.21 -1.49,-25 -23.33,-31.38 -2.97,11.53 -18.23,25.67 -26.44,38.34 -11.24,17.35 -15.18,25.8 -21.73,46.17z"/>
   <path class="fil10" d="M77.03 447.36c-2.88,-13.73 -1.12,-16.53 8.96,-23.51 -10.38,-14.45 -24.49,3.34 -32.91,13.77 -6.19,7.67 -15.08,18.98 -14.55,32.71 17.19,-5.84 17.39,-21.12 38.5,-22.96z"/>
   <path class="fil2" d="M117.11 191.36c6.96,3.26 1.54,-1.28 7.54,3.35 -7.15,-14.1 -0.71,-14.24 -4.65,-28.82 14.23,-1.07 13.28,-0.56 23.9,2.47 0.38,-9.86 -10.75,3.15 3.02,-9.79 -2.73,-11.18 -6.15,-11.96 -15.12,-17.97l-16.53 11.68c-2.92,3.78 -7.63,13.31 -9.57,16.44 9.21,11.85 0.63,11.5 11.4,22.63z"/>
   <path class="fil11" d="M602.43 164.71c0.22,10.05 -0.99,8.93 9.07,13.92 0.76,-0.6 6.08,1.59 1.4,-12.67 -0.97,-2.93 -1.9,-3.92 -3.09,-5.98l-3.73 -5.59c-1.57,-7.5 -4.33,-14.77 -4.35,-24.28 -10.85,-4.98 -13.12,-8.42 -23.5,-12.52 7.03,32.56 8.13,32.28 24.2,47.12z"/>
   <path class="fil12" d="M618.84 104.3c52.81,2.13 64.07,15.62 86.3,-2.86 -15.57,-2.27 -63.72,-9 -77.31,-3.63 -9.91,3.91 -5.6,3.32 -8.99,6.5z"/>
   <path class="fil13" d="M107.89 468.68c-3.14,-3.78 1.66,-0.59 -6.7,-6.38 -2.49,-1.73 -6.55,-3.63 -9.68,-5.7 -3.17,15.87 -14.01,11.56 -18.27,33.52 20,-2.73 14.99,-12.43 34.65,-21.44z"/>
   <path class="fil8" d="M285.55 655.61c3.64,2.71 -4.16,8.88 -2.28,24.01 10.22,-8.59 17.51,-10.48 28.25,-18.28 -9.64,-1.8 -8.59,-5.32 -10.25,-14.7l-15.72 8.96z"/>
   <path class="fil11" d="M203.45 442.81l-1.16 -40.11c-2.85,3.3 -1.99,-0.26 -6.19,8.82l-9.92 30.95 17.27 0.35z"/>
   <path class="fil8" d="M619.12 465.05c2.19,3.79 3.63,5.98 5.91,11.58 0.28,0.69 2.29,6.49 2.32,6.55 2.68,5.16 0.97,2.41 4.37,5.91 7.02,-9.38 2.69,-11.31 6.35,-24.17l0.15 -7.08 -7.18 -2.39 -11.92 9.6z"/>
   <path class="fil8" d="M400.2 685.58c1.25,12.02 -0.61,17.16 6.03,23.57l13.33 -23.79c-1.04,-0.88 -5.05,-4.79 -6.33,-5.8 -4.19,-3.31 -1.07,-0.99 -5.34,-3.27 -6.96,5.52 -4.66,3.58 -7.68,9.29z"/>
   <path class="fil14" d="M283.26 679.62c-1.87,-15.13 5.93,-21.3 2.28,-24.01 -6.91,7 -13.66,16.43 -14.37,29.24l12.08 -5.23z"/>
   <path class="fil0" d="M304.08 314.29l127.87 -7.21c-1.74,-3.2 -6.02,-37.82 -7.95,-40.91 -4.45,-7.11 -86.87,-86.65 -89.95,-94.68 -52.31,18.93 -60.14,138.9 -29.98,142.8z"/>
   <path class="fil15" d="M631.72 489.09c2.91,8.15 -0.3,5.68 8.28,8.44 4.81,-11.86 1.95,-24.32 -1.93,-32.61 -3.67,12.86 0.67,14.79 -6.35,24.17z"/>
   <path class="fil14" d="M406.23 709.15c-6.64,-6.41 -4.78,-11.55 -6.03,-23.57 -5.76,8.79 -6.44,24.77 -1.22,34.87l7.25 -11.3z"/>
   <path class="fil16" d="M703.64 362.25c0.6,0.41 1.51,0.33 1.86,1.15 1.32,3.1 9.62,-0.86 19.55,5.05 11.16,-5.67 5.45,-1.43 9.86,-9.02l-15.84 0.36 -15.43 2.46z"/>
   <path class="fil17" d="M614.49 461.31l4.63 3.74 11.92 -9.6 -2.66 -4.88c-5.25,3.41 -9.36,6.77 -13.9,10.74z"/>
   <circle class="fil2" cx="395.6" cy="339.55" r="26.04"/>
   <path class="fil8" d="M394.41 366.04c8.87,0.04 4.02,-1.74 9.17,1.82 -1.85,6.67 -1.29,5.35 -5.66,9.59 14.3,5.58 1.32,-0.04 8.27,13.18 3.12,5.95 2.25,8.69 12.17,7.01 18.22,-3.09 3.37,-14.86 4.19,-29.69 -11.36,2.2 -3.18,1.88 -6.94,-2.71l7.09 -17.92c-0.54,-0.58 -1.12,-1.48 -1.41,-1.92l-3.63 -5.96c-3.5,-6.66 -4.95,-17.53 -19.48,-16.72 -17.64,0.97 -13.13,17.61 -17.1,27.4 5.48,4.81 10.35,8.06 13.35,15.93z"/>
   <circle class="fil2" cx="370.74" cy="357.3" r="10.65"/>
   <path class="fil18" d="M290.31 53.02l0 44.16c0,1.1 -0.89,1.98 -1.98,1.98 0,0 0,0 0,0l-17.93 0c0,0 0,0 0,0 -1.1,0 -1.98,-0.89 -1.98,-1.98l0 -44.16c0,0 0,0 0,0 0,-1.1 0.89,-1.98 1.98,-1.98 0,0 0,0 0,0l2.69 0 0 0.34c0,0.9 0.73,1.63 1.63,1.63l9.12 0c0.9,0 1.63,-0.73 1.63,-1.63l0 -0.34 2.86 0c0,0 0,0 0,0 1.1,0 1.98,0.89 1.98,1.98 0,0 0,0 0,0l0 0z"/>
   <path class="fil18" d="M278.15 50.14l3.12 0c0.1,0 0.18,0.08 0.18,0.18l0 0.34c0,0.1 -0.08,0.18 -0.18,0.18l-3.12 0c-0.1,0 -0.18,-0.08 -0.18,-0.18l0 -0.34c0,-0.1 0.08,-0.18 0.18,-0.18z"/>
   <circle class="fil18" cx="282.38" cy="50.49" r="0.4"/>
   <path class="fil19" d="M291.47 51.71l0 44.16c-0,1.1 -0.89,1.98 -1.98,1.98 0,0 0,0 0,0l-17.93 0c0,0 0,0 0,0 -1.1,0 -1.98,-0.89 -1.98,-1.98l0 -44.16c0,0 0,0 0,0 0,-1.1 0.89,-1.98 1.98,-1.98 0,0 0,0 0,0l2.68 0 0 0.34c0,0.9 0.73,1.63 1.63,1.63l9.12 0c0.9,0 1.63,-0.73 1.63,-1.63l0 -0.34 2.86 0c0,0 0,0 0,0 1.09,0 1.98,0.89 1.98,1.98 0,0 0,0 0,0l0 0z"/>
   <path class="fil20" d="M289.49 94.64l-18.79 0c-0.61,0 -1.11,-1.62 -1.11,-3.62l0 -30.83c0,-2 0.5,-3.62 1.11,-3.62l18.79 -0c0.61,0 1.11,1.62 1.11,3.62l0 30.83c0,2 -0.5,3.62 -1.11,3.62z"/>
   <path class="fil18" d="M478.76 200.42l0 44.16c0,1.1 -0.89,1.98 -1.98,1.98 0,0 0,0 0,0l-17.93 0c0,0 0,0 0,0 -1.1,0 -1.98,-0.89 -1.98,-1.98l0 -44.16c0,0 0,0 0,0 0,-1.1 0.89,-1.98 1.98,-1.98 0,0 0,0 0,0l2.69 0 0 0.34c0,0.9 0.73,1.63 1.63,1.63l9.12 0c0.9,0 1.63,-0.73 1.63,-1.63l0 -0.34 2.86 0c0,0 0,0 0,0 1.1,0 1.98,0.89 1.98,1.98 0,0 0,0 0,0l0 0z"/>
   <path class="fil18" d="M466.6 197.55l3.12 0c0.1,0 0.18,0.08 0.18,0.18l0 0.34c0,0.1 -0.08,0.18 -0.18,0.18l-3.12 0c-0.1,0 -0.18,-0.08 -0.18,-0.18l0 -0.34c0,-0.1 0.08,-0.18 0.18,-0.18z"/>
   <circle class="fil18" cx="470.84" cy="197.9" r="0.4"/>
   <path class="fil21" d="M479.92 199.12l0 44.16c0,1.1 -0.89,1.98 -1.98,1.98 0,0 -0,0 -0,0l-17.92 0c0,0 -0,0 -0,0 -1.09,0 -1.98,-0.89 -1.98,-1.98l0 -44.16c0,0 0,0 0,0 0,-1.1 0.89,-1.98 1.98,-1.98 0,0 0,0 0,0l2.68 0 0 0.34c0,0.9 0.73,1.63 1.63,1.63l9.12 0c0.9,0 1.63,-0.73 1.63,-1.63l0 -0.34 2.86 0c0,0 0,0 0,0 1.1,0 1.98,0.89 1.98,1.98 0,0 0,0 0,0l0 0z"/>
   <path class="fil22" d="M477.95 209.02l-18.79 0c-0.61,0 -1.11,-0.21 -1.11,-0.48l0 -4.09c0,-0.27 0.5,-0.48 1.11,-0.48l18.79 0c0.61,0 1.11,0.21 1.11,0.48l0 4.08c0,0.27 -0.5,0.48 -1.11,0.48z"/>
   <path class="fil23" d="M564.16 4.61l0 44.16c0,1.1 -0.89,1.98 -1.98,1.98 0,0 0,0 0,0l-17.93 0c0,0 0,0 0,0 -1.1,0 -1.98,-0.89 -1.98,-1.98l0 -44.16c0,0 0,0 0,0 0,-1.1 0.89,-1.98 1.98,-1.98 0,0 0,0 0,0l2.69 0 0 0.34c0,0.9 0.73,1.63 1.63,1.63l9.12 0c0.9,0 1.63,-0.73 1.63,-1.63l0 -0.34 2.86 0c0,0 0,0 0,0 1.1,0 1.98,0.89 1.98,1.98 0,0 0,0 0,0l0 0z"/>
   <path class="fil24" d="M544.46 0l19.82 0c1.43,0 2.58,1.16 2.58,2.59l0 45.6c0,1.43 -1.16,2.58 -2.58,2.58l-19.82 0c-1.43,0 -2.58,-1.16 -2.58,-2.58l0 -45.6c0,-1.43 1.16,-2.59 2.58,-2.59z"/>
   <path class="fil23" d="M552 1.74l3.12 0c0.1,0 0.18,0.08 0.18,0.18l0 0.34c0,0.1 -0.08,0.18 -0.18,0.18l-3.12 0c-0.1,0 -0.18,-0.08 -0.18,-0.18l0 -0.34c0,-0.1 0.08,-0.18 0.18,-0.18z"/>
   <circle class="fil23" cx="556.23" cy="2.09" r="0.4"/>
   <path class="fil25" d="M565.32 3.31l0 44.16c0,1.1 -0.89,1.98 -1.98,1.98 0,0 -0,0 -0,0l-17.92 0c0,0 -0,0 -0,0 -1.09,0 -1.98,-0.89 -1.98,-1.98l0 -44.16c0,0 0,0 0,0 0,-1.1 0.89,-1.98 1.98,-1.98 0,0 0,0 0,0l2.68 0 0 0.34c0,0.9 0.73,1.63 1.63,1.63l9.12 0c0.9,0 1.63,-0.73 1.63,-1.63l0 -0.34 2.86 0c0,0 0,0 0,0 1.09,0 1.98,0.89 1.98,1.98 0,0 0,0 0,0l0 0z"/>
   <path class="fil26" d="M563.73 17.64l-18.79 0c-0.61,0 -1.11,-0.5 -1.11,-1.13l0 -9.58c0,-0.62 0.49,-1.13 1.11,-1.13l18.79 0c0.61,0 1.11,0.5 1.11,1.13l0 9.58c0,0.62 -0.5,1.13 -1.11,1.13z"/>
   <path class="fil26" d="M563.73 31.3l-18.79 0c-0.61,0 -1.11,-0.5 -1.11,-1.12l0 -9.58c0,-0.62 0.49,-1.13 1.11,-1.13l18.79 0c0.61,0 1.11,0.5 1.11,1.13l0 9.58c0,0.62 -0.5,1.12 -1.11,1.12z"/>
   <path class="fil26" d="M563.73 44.85l-18.79 0c-0.61,0 -1.11,-0.5 -1.11,-1.13l0 -9.58c0,-0.62 0.49,-1.13 1.11,-1.13l18.79 0c0.61,0 1.11,0.51 1.11,1.13l0 9.58c0,0.62 -0.5,1.13 -1.11,1.13z"/>
   <path class="fil22" d="M477.95 223.72l-18.79 0c-0.61,0 -1.11,-0.21 -1.11,-0.48l0 -4.09c0,-0.27 0.5,-0.48 1.11,-0.48l18.79 0c0.61,0 1.11,0.21 1.11,0.48l0 4.08c0,0.27 -0.5,0.48 -1.11,0.48z"/>
   <path class="fil22" d="M477.95 238.41l-18.79 0c-0.61,0 -1.11,-0.21 -1.11,-0.48l0 -4.09c0,-0.27 0.5,-0.48 1.11,-0.48l18.79 0c0.61,0 1.11,0.21 1.11,0.48l0 4.08c0,0.27 -0.5,0.48 -1.11,0.48z"/>
  </g>
 </g>
</svg>
