<?xml version="1.0" encoding="UTF-8"?>
<!DOCTYPE svg PUBLIC "-//W3C//DTD SVG 1.1//EN" "http://www.w3.org/Graphics/SVG/1.1/DTD/svg11.dtd">
<!-- Creator: CorelDRAW 2019 (64-Bit) -->
<svg xmlns="http://www.w3.org/2000/svg" xml:space="preserve" width="23.5274mm" height="18.7096mm" version="1.1" style="shape-rendering:geometricPrecision; text-rendering:geometricPrecision; image-rendering:optimizeQuality; fill-rule:evenodd; clip-rule:evenodd"
viewBox="0 0 778.32 618.94"
 xmlns:xlink="http://www.w3.org/1999/xlink"
 xmlns:xodm="http://www.corel.com/coreldraw/odm/2003">
 <defs>
  <style type="text/css">
   <![CDATA[
    .str1 {stroke:#4D8494;stroke-width:6.62;stroke-miterlimit:22.9256}
    .str0 {stroke:#AF9171;stroke-width:2.52;stroke-miterlimit:22.9256}
    .fil31 {fill:#BDBFC1}
    .fil32 {fill:#848688}
    .fil38 {fill:#CEC3C6}
    .fil28 {fill:#FBDBE5}
    .fil39 {fill:#F6C9AA}
    .fil41 {fill:#747C83}
    .fil26 {fill:#2E3F53}
    .fil27 {fill:#397688}
    .fil23 {fill:#446B78}
    .fil24 {fill:#4C899D}
    .fil33 {fill:#4D8494}
    .fil37 {fill:#5F909F}
    .fil35 {fill:#707487}
    .fil36 {fill:#856950}
    .fil40 {fill:#8B6F54}
    .fil43 {fill:#969FA9}
    .fil46 {fill:#A3BDC6}
    .fil42 {fill:#A97F6D}
    .fil25 {fill:#A9C5CD}
    .fil29 {fill:#AF9171}
    .fil34 {fill:#CBCED4}
    .fil30 {fill:#FEFEFE}
    .fil47 {fill:white}
    .fil13 {fill:#4B4B4D;fill-rule:nonzero}
    .fil7 {fill:#F8C1D1;fill-rule:nonzero}
    .fil19 {fill:#464353;fill-rule:nonzero}
    .fil17 {fill:#4D8494;fill-rule:nonzero}
    .fil18 {fill:#5E5A6B;fill-rule:nonzero}
    .fil1 {fill:#6C63FF;fill-rule:nonzero}
    .fil11 {fill:#8D7866;fill-rule:nonzero}
    .fil22 {fill:#9F9EFF;fill-rule:nonzero}
    .fil12 {fill:#A3896F;fill-rule:nonzero}
    .fil15 {fill:#A68D70;fill-rule:nonzero}
    .fil16 {fill:#C17174;fill-rule:nonzero}
    .fil20 {fill:#CCE3EB;fill-rule:nonzero}
    .fil4 {fill:#F6F7F9;fill-rule:nonzero}
    .fil21 {fill:black;fill-rule:nonzero;fill-opacity:0.011765}
    .fil44 {fill:#23292B;fill-rule:nonzero;fill-opacity:0.011765}
    .fil6 {fill:#6C63FF;fill-rule:nonzero;fill-opacity:0.039216}
    .fil8 {fill:#4E8B9F;fill-rule:nonzero;fill-opacity:0.050980}
    .fil9 {fill:black;fill-rule:nonzero;fill-opacity:0.101961}
    .fil45 {fill:#23292B;fill-rule:nonzero;fill-opacity:0.101961}
    .fil0 {fill:#33648C;fill-rule:nonzero;fill-opacity:0.101961}
    .fil5 {fill:#397688;fill-rule:nonzero;fill-opacity:0.200000}
    .fil2 {fill:black;fill-rule:nonzero;fill-opacity:0.250980}
    .fil14 {fill:white;fill-rule:nonzero;fill-opacity:0.250980}
    .fil3 {fill:url(#id0);fill-rule:nonzero}
    .fil10 {fill:url(#id1);fill-rule:nonzero}
   ]]>
  </style>
  <linearGradient id="id0" gradientUnits="userSpaceOnUse" x1="350.77" y1="556.91" x2="350.77" y2="0">
   <stop offset="0" style="stop-opacity:0.25098; stop-color:gray"/>
   <stop offset="0.541176" style="stop-opacity:0.121569; stop-color:gray"/>
   <stop offset="1" style="stop-opacity:0.101961; stop-color:gray"/>
  </linearGradient>
  <linearGradient id="id1" gradientUnits="userSpaceOnUse" xlink:href="#id0" x1="39824.29" y1="-129762.68" x2="39824.29" y2="-296282.76">
  </linearGradient>
 </defs>
 <g id="Layer_x0020_1">
  <metadata id="CorelCorpID_0Corel-Layer"/>
  <g id="_1800020949328">
   <path class="fil0" d="M299 99.79c33.4,21.12 76.72,19.75 114.67,8.77 37.96,-10.98 72.83,-30.56 109.8,-44.47 31.01,-11.66 63.54,-19.29 96.49,-22.7 47.13,-4.87 99.77,1.06 132.61,35.21 36.57,38.04 33.77,106.64 -5.79,141.54 -20.12,17.75 -46.47,26.47 -69.45,40.33 -22.98,13.86 -44.24,36.89 -42.28,63.65 1.81,24.77 22.87,43.79 44.66,55.72 16.85,9.22 37.6,19.28 39.63,38.37 1.96,18.48 -15.48,32.96 -32.14,41.19 -54.35,26.86 -121.3,26.6 -175.44,-0.68 -19.31,-9.73 -37.07,-22.67 -57.32,-30.25 -53.19,-19.92 -111.79,0.13 -168.1,7.46 -15.75,2 -31.73,3.05 -47.61,3.05 -32.18,0 -64.27,-4.25 -95.37,-12.49 -27.88,-7.44 -55.88,-18.82 -75.47,-40.01 -14.12,-15.28 -22.91,-34.62 -31.19,-53.71 -8.82,-20.36 -17.29,-40.87 -25.41,-61.52 -4.88,-12.4 -9.69,-25.04 -10.94,-38.31 -2.28,-24.04 7.33,-47.8 20.44,-68.09 31.12,-48.18 83.5,-82.05 140.22,-90.65 56.71,-8.6 116.74,8.22 160.74,44.97m-22.74 -17.36l0 0 0 0z"/>
   <path class="fil0" d="M123.7 554.19c0,-11.58 100.63,-20.96 224.77,-20.96 124.14,0 224.77,9.39 224.77,20.96 0,11.58 -100.63,20.96 -224.77,20.96 -124.13,0 -224.77,-9.39 -224.77,-20.96z"/>
   <path class="fil1" d="M194.56 351.68c-1.01,7.47 -17.44,27.31 -17.44,27.31 0,0 -10.61,-23.47 -9.6,-30.94 0.91,-6.77 6.69,-11.83 13.52,-11.83 7.53,0 13.64,6.11 13.64,13.65 0,0.61 -0.04,1.22 -0.12,1.82l0 0z"/>
   <path class="fil2" d="M194.56 351.68c-1.01,7.47 -17.44,27.31 -17.44,27.31 0,0 -10.61,-23.47 -9.6,-30.94 0.91,-6.77 6.69,-11.83 13.52,-11.83 7.53,0 13.64,6.11 13.64,13.65 0,0.61 -0.04,1.22 -0.12,1.82l0 0z"/>
   <path class="fil1" d="M185.72 297.97c-4.98,5.66 -29.65,13.07 -29.65,13.07 0,0 4.17,-25.42 9.14,-31.08 2.59,-2.96 6.34,-4.65 10.27,-4.65 7.54,0 13.66,6.12 13.66,13.66 0,3.31 -1.2,6.52 -3.39,9l-0.03 0z"/>
   <path class="fil1" d="M214.44 354.59c-3.95,6.42 -27.01,17.9 -27.01,17.9 0,0 -0.19,-25.76 3.75,-32.18 2.48,-4.04 6.88,-6.5 11.63,-6.5 7.54,0 13.65,6.11 13.65,13.65 0,2.52 -0.7,5 -2.02,7.14l0 0z"/>
   <polygon class="fil3" points="551.61,0 551.61,21.63 551.61,557.27 150.79,557.27 150.79,21.63 150.79,0 "/>
   <rect class="fil4" x="154.31" y="4.89" width="393.78" height="21.24"/>
   <polygon class="fil5" points="548.09,26.13 154.31,26.13 154.31,4.89 548.09,4.89 "/>
   <rect class="fil4" x="154.31" y="26.13" width="393.78" height="526.25"/>
   <circle class="fil4" cx="537.73" cy="15.51" r="3.6"/>
   <circle class="fil4" cx="527.97" cy="15.51" r="3.6"/>
   <circle class="fil4" cx="518.21" cy="15.51" r="3.6"/>
   <polygon class="fil6" points="477.81,68.49 224.6,68.49 224.6,58.57 477.81,58.57 "/>
   <rect class="fil7" x="224.6" y="58.58" width="33.64" height="9.91"/>
   <polygon class="fil6" points="514.1,375.31 354.75,375.31 354.75,261.17 514.1,261.17 "/>
   <polygon class="fil6" points="514.1,227.25 354.75,227.25 354.75,113.11 514.1,113.11 "/>
   <polygon class="fil6" points="514.1,521.44 354.75,521.44 354.75,407.3 514.1,407.3 "/>
   <polygon class="fil6" points="347.64,375.31 188.3,375.31 188.3,261.17 347.64,261.17 "/>
   <polygon class="fil6" points="347.64,227.25 188.3,227.25 188.3,113.11 347.64,113.11 "/>
   <polygon class="fil6" points="347.64,521.44 188.3,521.44 188.3,407.3 347.64,407.3 "/>
   <path class="fil8" d="M408.18 159.2c0,0 -4.37,3.21 -3.35,5.69 1.02,2.48 3.35,-5.69 3.35,-5.69z"/>
   <path class="fil8" d="M401.76 162.29c0.21,0.7 0.31,1.44 0.31,2.18 0,0.73 -0.1,1.47 -0.31,2.17m0 -4.35l0 0 0 0z"/>
   <path class="fil8" d="M398.85 170.29c0,0 -0.58,3.95 1.16,4.37m-1.16 -4.37l0 0 0 0z"/>
   <path class="fil8" d="M458.32 158.19c0,0 8.16,7.11 5.39,9.91m-5.39 -9.91l0 0 0 0z"/>
   <path class="fil8" d="M463.42 175.39c0,0 0.14,7.43 -2.12,8.02m2.12 -8.02l0 0 0 0z"/>
   <path class="fil8" d="M439.96 200.31c0,0 -5.53,-3.78 -7,-3.64m7 3.64l0 0 0 0z"/>
   <path class="fil8" d="M262.06 288.23c0,-1.01 0.82,-1.82 1.83,-1.82 1.01,0 1.82,0.82 1.82,1.82 0,1.01 -0.81,1.83 -1.82,1.83 -1.01,0 -1.83,-0.82 -1.83,-1.83z"/>
   <path class="fil8" d="M310.54 320.2c0,0 -3.22,9.56 -5.47,9.39 -2.26,-0.17 5.47,-9.39 5.47,-9.39z"/>
   <path class="fil8" d="M312.63 329.59c0,0 -2,5.74 -4.09,6.69m4.09 -6.69l0 0 0 0z"/>
   <path class="fil8" d="M312.63 335.58c0,0 -3.16,4 -5.03,4.96m5.03 -4.96l0 0 0 0z"/>
   <path class="fil8" d="M227.78 299.44c0,0 -2.95,4.43 0,5.39m0 -5.39l0 0 0 0z"/>
   <path class="fil8" d="M226.44 306.65c3.43,-4.07 1.31,5.53 1.31,5.53 0,0 -2.19,-4.49 -1.31,-5.53z"/>
   <path class="fil8" d="M224.71 311.6c0,0 5.21,7.73 4.17,8.6m-4.17 -8.6l0 0 0 0z"/>
   <path class="fil8" d="M293.67 299.61c6.39,0 13.06,-2.89 13.43,-3.06l-0.28 -0.64c-0.13,0.06 -12.89,5.6 -19.79,1.45 -2.61,-1.58 -4.07,-4.36 -4.35,-8.29l-0.69 0.06c0.3,4.17 1.88,7.11 4.69,8.83 1.99,1.1 4.22,1.68 6.5,1.68 0.17,0 0.33,-0.01 0.5,-0.01l0 0z"/>
   <path class="fil8" d="M241.21 300.13c0.05,0 0.11,0 0.16,0 1.58,0 3.15,-0.35 4.59,-1.02 5.18,-2.5 6.02,-8.61 6.06,-8.87l-0.69 -0.09c0,0.06 -0.83,6.01 -5.67,8.33 -4.31,2.08 -10.43,0.79 -18.17,-3.95l-0.35 0.59c5.5,3.33 10.22,5 14.09,5z"/>
   <path class="fil9" d="M449.88 425.44c0,0 0.95,0.55 0,3.16m0 -3.16l0 0 0 0z"/>
   <path class="fil9" d="M447.16 425.44c0,0 2.58,1.63 0,4.35m0 -4.35l0 0 0 0z"/>
   <path class="fil9" d="M422.97 425.44c0,0 -3.53,3.4 -2.72,4.35m2.72 -4.35l0 0 0 0z"/>
   <path class="fil9" d="M420.13 424.62c0,0 -0.55,4.08 -2.59,5.17m2.59 -5.17l0 0 0 0z"/>
   <path class="fil8" d="M281.87 429.3c0,0 1.7,0.91 1.7,1.92m-1.7 -1.92l0 0 0 0z"/>
   <path class="fil8" d="M280.85 431.22c0,0 2.26,2.37 1.86,3.06m-1.86 -3.06l0 0 0 0z"/>
   <path class="fil8" d="M280.85 434.29c0,0 1.7,1.81 1.02,2.83m-1.02 -2.83l0 0 0 0z"/>
   <path class="fil8" d="M269.53 434.19l7.11 6.86c0.26,-7.63 3.95,-13.74 5.77,-16.31l-5.88 -5.28c-1.44,9.96 -6.22,14.11 -7,14.72z"/>
   <path class="fil8" d="M256.42 496.01c0,0 1.21,10.27 1.91,10.85m-1.91 -10.85l0 0 0 0z"/>
   <path class="fil8" d="M246.48 497.82c0,0 -1.36,7.35 -0.79,9.04m0.79 -9.04l0 0 0 0z"/>
   <path class="fil8" d="M275.42 498.27c0,0 1.24,6.9 0,7.69m0 -7.69l0 0 0 0z"/>
   <path class="fil8" d="M282.76 497.25c0,0 1.03,8.14 0.79,9.61m-0.79 -9.61l0 0 0 0z"/>
   <path class="fil8" d="M244.78 457.57c0,0 3.16,2.49 2.94,3.16m-2.94 -3.16l0 0 0 0z"/>
   <path class="fil8" d="M242.52 459.15c0,0 6.05,5.08 3.02,4.52 -3.02,-0.57 -3.02,-4.52 -3.02,-4.52z"/>
   <path class="fil0" d="M559.79 597.98c0,-11.58 48,-20.97 107.22,-20.97 59.22,0 107.23,9.39 107.23,20.97 0,11.58 -48.01,20.96 -107.23,20.96 -59.22,0 -107.22,-9.39 -107.22,-20.96z"/>
   <path class="fil10" d="M577.72 313.42l-0.04 -0.05 0.07 -0.06 0 0 0.43 -0.28 -0.09 0.06c0.22,-0.12 0.46,-0.19 0.71,-0.19 0.46,0 0.89,0.22 1.16,0.6l0.17 0.24 0 0 9.6 13.81 1.67 2.46c5.06,-1.53 13.29,4.89 17.45,8.57 0.26,0.23 0.5,0.44 0.72,0.65 0.33,-0.74 0.53,-1.22 0.53,-1.22 0.21,2.26 8.18,5.65 10.05,6.88 0.84,0.51 1.8,0.83 2.78,0.93 -0.27,-8.58 6.37,-17.62 6.37,-17.62l16.23 -20.66c0.15,-0.95 0.23,-1.92 0.23,-2.88 0,-2.8 -0.65,-5.57 -1.89,-8.08 -0.14,-0.27 -0.27,-0.54 -0.42,-0.79l-0.08 0c0.61,1.73 0.96,3.56 1.02,5.4 -0.04,1.4 -1.34,8.18 -3.16,7.9 -0.03,0 -0.07,0.01 -0.1,0.01 -0.33,0 -0.65,-0.17 -0.83,-0.45 -1.45,-1.69 -1.58,-4.57 -1.51,-7.23 0.02,0.78 0.11,1.56 0.26,2.33 -0.12,-2.21 0.13,-4.55 0.13,-6.22 0,-0.66 0,-1.32 -0.05,-1.98l-0.2 0c0,0.25 0,0.52 0,0.79 0,-0.28 0,-0.55 0,-0.79l-0.21 0c-3.64,-0.66 -7.05,-2.25 -9.91,-4.6 -1.43,-0.06 -2.77,-0.69 -3.72,-1.75 -0.1,0.34 -0.16,0.69 -0.16,1.04 0,0.86 0.3,1.69 0.86,2.34 -2.17,-0.1 -4.01,-1.79 -4.85,-3.78 -0.5,-1.41 -0.76,-2.9 -0.76,-4.4 0,-0.64 0.05,-1.28 0.14,-1.92 0.3,-2.11 0.47,-4.25 0.47,-6.38 0,-0.01 0,-0.03 0,-0.04 -0.13,-1 -0.2,-2.01 -0.2,-3.02 0,-0.16 0,-0.32 0.01,-0.47 0.03,-0.36 0.1,-0.71 0.19,-1.06l-0.06 0c-0.01,0 -0.02,0 -0.03,0 -0.41,0 -0.8,-0.16 -1.1,-0.44 -0.9,-0.69 -1.19,-2.05 -1.42,-3.1 -0.56,-2.16 -0.85,-4.4 -0.85,-6.63 0,-0.24 0,-0.49 0.01,-0.72 0.05,0.75 0.14,1.51 0.25,2.26 -0.2,-2.85 0.2,-5.61 2.08,-7.67 1.3,-1.41 3.11,-2.24 4.84,-3.07 0.62,-0.22 1.17,-0.61 1.58,-1.13 0.31,-0.61 0.47,-1.28 0.49,-1.96 0.61,-4.16 4.52,-7.05 8.41,-8.69 5.01,-2.18 11.06,-3.11 15.84,-0.52 2.37,1.25 4.18,3.22 6.32,4.83 2.67,2.03 5.75,3.45 8.6,5.22 2.85,1.77 5.53,4.01 6.93,7.06 2.09,4.74 0.52,10.11 0.26,15.25 -0.42,8.1 2.91,16.59 9.52,21.33 0.79,0.49 1.5,1.09 2.09,1.81 0.32,0.4 0.5,0.9 0.5,1.42 0,0.41 -0.11,0.81 -0.32,1.16 -0.34,0.44 -0.88,0.7 -1.25,1.11 -0.75,0.85 -0.6,2.16 -0.31,3.25 0.96,3.57 2.87,6.8 5.53,9.37 -0.12,0.84 -1.15,1.17 -2,1.29 -2.21,0.32 -4.46,0.49 -6.7,0.49 -0.02,0 -0.04,0 -0.06,0l-0.97 0c0.1,0.26 0.21,0.54 0.32,0.83 1.22,3.22 2.81,8.18 2.28,11.22 -0.79,4.79 -3.32,26.68 -2.07,30.51 1.25,3.84 -2,31.68 -2,31.68 0,0 -0.44,2.15 -1.19,5.36 1.95,4.6 4.18,9.7 5.29,11.75 2.24,4.1 1.14,25.03 -6.6,34.34 0,0 -3.16,4.52 -2.37,6.15 0.79,1.64 -0.14,4.52 -0.14,4.52l-1.22 27.09c0.02,2.76 0.22,5.54 0.57,8.27 3.3,4.09 8.39,10.04 10.78,11.01 3.71,1.51 31.33,35.03 31.33,35.03 0,0 -0.22,0.4 -0.66,1.06l0.79 0.9 5.3 6.15 0.42 0.48c1,-0.19 7.62,-1.39 12.88,-1.77l0.52 0 0 -0.1c0.74,-0.08 1.49,-0.13 2.23,-0.13 1.1,0 2.21,0.1 3.29,0.28 0.35,0.07 0.66,0.23 0.92,0.48 1.8,2.19 2.76,36.67 2.76,36.67 0,0 -1.91,17.26 -7.9,18.22 -0.3,0.11 -0.63,0.17 -0.95,0.17l-0.26 0c-4.27,-0.31 -6.23,-2.76 -7.11,-4.43 -0.26,-0.5 -0.46,-1.03 -0.6,-1.58 -0.13,-0.55 0.7,-3.07 -1.17,-7.31 -1.87,-4.24 -5.35,-11.71 -5.35,-11.71 0,0 -6.32,-6.64 -5.19,-9.86 -0.18,-0.26 -0.38,-0.55 -0.6,-0.87 -2.37,-3.38 -7.17,-10.05 -11.06,-14.51 -0.25,-0.3 -0.5,-0.58 -0.79,-0.85 -1.41,0.59 -2.89,1.03 -4.41,1.27 -1.51,0.24 -5.94,-2.32 -8.14,-7.52 -0.94,-2.21 -4.63,-6.13 -8.55,-9.9l0.13 1 0.14 32.97c-1.28,0.87 -2.64,1.63 -4.06,2.24l0 0.79c-0,0.21 -0,0.42 -0,0.63 0,4.49 0.28,8.98 0.85,13.43l0.12 0.73c0.49,-0.35 0.92,-0.47 1.18,-0.2 1.22,1.23 1.97,9.1 2.04,12.73 0,0.12 0,0.24 0,0.36 0.2,3.62 2.26,8.88 -3.95,9.15 -4.64,0.2 -24.67,0.5 -35.38,0.66 -0.14,0 -0.3,0 -0.45,0 -5.61,0 -11.06,-1.99 -15.35,-5.6 -3.41,-2.91 -5.47,-6.38 -0.83,-8.94 0.28,-0.16 0.59,-0.31 0.92,-0.46l10.27 -1.58 17.54 -8.96c0,0 0.11,-5.42 2.21,-4.52 0.63,0.14 1.23,0.38 1.78,0.7 0.1,-0.2 0.21,-0.41 0.31,-0.63 1.42,-2.82 2.17,-5.93 2.17,-9.09 0,-0.01 0,-0.03 0,-0.04 0,-0.28 0,-0.58 -0.04,-0.87 -0.51,-0.47 -1,-0.97 -1.46,-1.49 -0.45,-0.53 0.14,-12.32 -1.25,-14.64 -1.38,-2.32 -5.66,-25.86 -5.66,-25.86 0,0 -0.14,-4.38 -2.9,-6.97 -2.76,-2.6 -1.79,-10.13 -1.79,-10.13 0,0 -3.87,-2.05 -5.11,-8.75 -1.24,-6.7 -5.25,-21.33 -5.25,-21.33 0,0 -8.28,-21.62 -7.74,-35.29 0.55,-13.67 -0.79,-20.8 -0.79,-20.8l-1.72 -31.79 0 -0.49c-0.69,0.52 -1.15,0.95 -1.15,0.95 0,0 0,-0.13 0,-0.35 -0.25,0.21 -0.39,0.35 -0.39,0.35 0,0 -0.88,-14.42 -0.59,-20.14 -4.83,-1.64 -12.2,-4.34 -12.64,-5.72 -0.62,-2.04 -8.91,-8.52 -8.91,-8.52 0.18,-0.03 0.35,-0.09 0.51,-0.19 -0.26,-0.12 -0.53,-0.26 -0.79,-0.41 -5.43,-2.91 -15.53,-11.41 -13.83,-16.59l-11.06 -15.87c-0.3,-0.45 -0.47,-0.98 -0.47,-1.52 0,-0.69 0.27,-1.36 0.74,-1.86l0 0z"/>
   <path class="fil11" d="M603.45 351.75c0.81,0.51 1.71,0.85 2.65,1 3.45,0.11 6.32,-9.24 6.32,-9.24 0,0 -0.98,-1 -2.54,-2.37 -4.63,-4.12 -14.34,-11.71 -18.89,-7.46 -5.13,4.75 6.49,14.86 12.47,18.07z"/>
   <path class="fil12" d="M655.93 574.62l12.74 13.75c0,0 11.79,0.14 9.48,-6.36 -0.46,-1.41 -0.79,-2.86 -0.98,-4.33 -0.54,-4.39 -0.83,-8.85 -0.83,-13.27 0,-0.21 0,-0.44 0,-0.65 0,-3.05 0.05,-5.19 0.05,-5.19 0,0 -18.56,-8.13 -16.66,0.34 0.23,1.06 0.36,2.14 0.38,3.23 0,0.02 0,0.03 0,0.05 0,3.12 -0.73,6.21 -2.12,9 -0.57,1.21 -1.26,2.37 -2.06,3.44l0 0z"/>
   <path class="fil9" d="M655.93 574.62l12.74 13.75c0,0 11.79,0.14 9.48,-6.36 -0.46,-1.41 -0.79,-2.86 -0.98,-4.33 -1.68,1.3 -4.1,5.14 -4.1,5.14 0,0 -8.13,2.37 -10.36,-4.74 -1.25,-3.95 -3.22,-5.95 -4.74,-6.9 -0.57,1.21 -1.25,2.37 -2.04,3.44l0 0z"/>
   <path class="fil13" d="M626.36 595.33c4.19,3.57 9.52,5.53 15.03,5.53 0.16,0 0.32,-0 0.48,-0.01 10.51,-0.15 30.14,-0.46 34.7,-0.65 6.1,-0.27 4.08,-5.47 3.88,-9.06 0,-0.13 0,-0.23 0,-0.35 -0.07,-3.6 -0.79,-11.38 -2.01,-12.6 -1.21,-1.21 -5.38,5.42 -5.38,5.42 0,0 -8.13,2.37 -10.36,-4.74 -2.24,-7.11 -6.78,-7.8 -6.78,-7.8 -2.06,-0.89 -2.17,4.47 -2.17,4.47l-17.2 8.87 -10.1 1.58c-0.32,0.15 -0.62,0.3 -0.89,0.45 -4.57,2.56 -2.54,5.99 0.8,8.88z"/>
   <path class="fil14" d="M657.41 580.91c0,-0.41 0.33,-0.74 0.74,-0.74 0.41,0 0.74,0.33 0.74,0.74 0,0.41 -0.33,0.74 -0.74,0.74 -0.41,0 -0.74,-0.33 -0.74,-0.74z"/>
   <path class="fil14" d="M650.43 584.37c0,-0.41 0.33,-0.74 0.74,-0.74 0.41,0 0.74,0.33 0.74,0.74 0,0.41 -0.33,0.74 -0.74,0.74 -0.41,0 -0.74,-0.33 -0.74,-0.74z"/>
   <path class="fil15" d="M697.64 540.07c1.41,1.15 2.7,2.44 3.84,3.85 3.8,4.41 8.5,11.06 10.83,14.36 0.9,1.3 1.45,2.11 1.45,2.11l5.09 -0.75c0,0 5.48,-8.4 5.41,-8.59 -0.07,-0.2 -4.35,-9.22 -4.35,-9.22l-1.65 -1.94 -5.2 -6.08 -2.37 -2.75c0,0 -17.63,5.69 -13.04,9z"/>
   <path class="fil9" d="M712.31 558.31c0.9,1.3 1.45,2.11 1.45,2.11l5.09 -0.75c0,0 5.48,-8.4 5.41,-8.59 -0.07,-0.2 -4.35,-9.24 -4.35,-9.24l-1.65 -1.94 -0.54 0.1 -1.3 0c4.54,4.74 -0.33,15.17 -0.33,15.17 0,0 -2.1,0.2 -3.78,3.14z"/>
   <path class="fil13" d="M717.99 568.92c0,0 3.39,7.31 5.22,11.52 1.83,4.2 1.15,7.24 1.15,7.24 0.13,0.55 0.32,1.08 0.58,1.58 1.32,2.63 3.99,4.32 6.94,4.39l0.33 0c6.18,-0.16 8.14,-18.09 8.14,-18.09 0,0 -0.95,-34.13 -2.71,-36.34 -0.24,-0.24 -0.56,-0.41 -0.89,-0.47 -1.07,-0.19 -2.16,-0.28 -3.24,-0.28 -0.74,0 -1.48,0.05 -2.2,0.13 -5.58,0.4 -12.77,1.78 -12.77,1.78l-1.29 0c4.54,4.74 -0.33,15.17 -0.33,15.17 0,0 -2.17,0.2 -3.86,3.25 -1.69,3.05 4.94,10.12 4.94,10.12z"/>
   <path class="fil14" d="M724.71 558.77c0,-0.41 0.33,-0.74 0.74,-0.74 0.41,0 0.74,0.33 0.74,0.74 0,0.41 -0.33,0.74 -0.74,0.74 -0.41,0 -0.74,-0.33 -0.74,-0.74z"/>
   <path class="fil14" d="M725.08 564.68c0,-0.41 0.33,-0.74 0.74,-0.74 0.41,0 0.74,0.33 0.74,0.74 0,0.41 -0.33,0.74 -0.74,0.74 -0.41,0 -0.74,-0.33 -0.74,-0.74z"/>
   <path class="fil16" d="M725.44 589.11c1.32,2.63 3.99,4.32 6.93,4.39l0.32 0c6.18,-0.16 8.14,-18.09 8.14,-18.09 0,0 -0.95,-34.13 -2.71,-36.34 -0.24,-0.24 -0.55,-0.41 -0.89,-0.47 -1.07,-0.19 -2.15,-0.28 -3.24,-0.28 -0.73,0 -1.47,0.05 -2.2,0.13 0.1,6.14 0.4,25.53 0,27.46 -0.39,1.93 -3.89,18.06 -6.36,23.2z"/>
   <path class="fil14" d="M725.44 589.11c1.32,2.63 3.99,4.32 6.93,4.39l0.32 0c6.18,-0.16 8.14,-18.09 8.14,-18.09 0,0 -0.95,-34.13 -2.71,-36.34 -0.24,-0.24 -0.55,-0.41 -0.89,-0.47 -1.07,-0.19 -2.15,-0.28 -3.24,-0.28 -0.73,0 -1.47,0.05 -2.2,0.13 0.1,6.14 0.4,25.53 0,27.46 -0.39,1.93 -3.89,18.06 -6.36,23.2z"/>
   <path class="fil16" d="M732.71 593.52c6.18,-0.16 8.14,-18.09 8.14,-18.09 0,0 -0.95,-34.13 -2.71,-36.34 -0.24,-0.24 -0.56,-0.41 -0.89,-0.48 -1.3,1.93 -2.43,6.19 -1.41,15.58 1.93,17.78 -0.4,18.9 -0.4,18.9 0,0 -2.9,15.11 -2.74,20.42z"/>
   <path class="fil9" d="M732.71 593.52c6.18,-0.16 8.14,-18.09 8.14,-18.09 0,0 -0.95,-34.13 -2.71,-36.34 -0.24,-0.24 -0.56,-0.41 -0.89,-0.48 -1.3,1.93 -2.43,6.19 -1.41,15.58 1.93,17.78 -0.4,18.9 -0.4,18.9 0,0 -2.9,15.11 -2.74,20.42z"/>
   <path class="fil9" d="M603.45 351.75c0.81,0.51 1.71,0.85 2.65,1 3.45,0.11 6.32,-9.24 6.32,-9.24 0,0 -0.98,-1 -2.54,-2.37 -1.13,2.53 -4.24,9.35 -6.42,10.61z"/>
   <path class="fil17" d="M625.6 348.39c0,0 -2.85,0.21 -4.67,-1.01 -1.83,-1.21 -9.65,-4.57 -9.86,-6.81 0,0 -4.67,11.38 -7.32,11.79 0,0 8.13,6.4 8.74,8.43 0.61,2.03 16.46,7.01 16.46,7.01l-3.36 -19.41z"/>
   <path class="fil9" d="M697.64 540.07c1.41,1.15 2.7,2.44 3.84,3.85 6.13,-2.57 10.08,-7.81 11.58,-10.11l-2.37 -2.75c0,0 -17.64,5.69 -13.05,9z"/>
   <path class="fil18" d="M668.65 482.47c0,0 9.94,13.28 13.57,14.77 3.63,1.49 30.72,34.68 30.72,34.68 0,0 -5.82,10.7 -16.52,12.46 0,0 -5.82,-2.3 -8,-7.45 -2.17,-5.15 -19.23,-19.7 -19.23,-19.7l-0.54 -34.76z"/>
   <path class="fil9" d="M668.65 482.47c0,0 9.94,13.28 13.57,14.77 3.63,1.49 30.72,34.68 30.72,34.68 0,0 -5.82,10.7 -16.52,12.46 0,0 -5.82,-2.3 -8,-7.45 -2.17,-5.15 -19.23,-19.7 -19.23,-19.7l-0.54 -34.76z"/>
   <path class="fil9" d="M698.76 526.9c-1.5,0.15 -3.02,0.24 -4.52,0.24 -1.51,0 -3.03,-0.09 -4.52,-0.24 -5.35,-0.51 -1.32,2.74 9.04,0z"/>
   <path class="fil9" d="M701.2 530.36c0,0 -7.11,4.06 -9.86,2.03 -2.75,-2.03 2.65,1.96 9.86,-2.03z"/>
   <path class="fil9" d="M659.71 558.91c0.23,1.06 0.36,2.14 0.38,3.22 5.49,4.98 12.1,3.44 16.23,1.62 0,-3.05 0.05,-5.19 0.05,-5.19 0,0 -18.56,-8.16 -16.66,0.34z"/>
   <path class="fil18" d="M626.79 382.19l0.2 3.74 1.69 31.48c0,0 1.36,7.05 0.79,20.59 -0.57,13.54 7.62,34.99 7.62,34.99 0,0 3.95,14.5 5.15,21.13 1.2,6.64 5.01,8.69 5.01,8.69 0,0 -0.95,7.45 1.76,10.03 2.71,2.57 2.85,6.9 2.85,6.9 0,0 4.2,23.3 5.53,25.61 1.33,2.31 1.22,14.5 1.22,14.5 8.8,10.43 21.67,0.95 21.67,0.95l-0.13 -32.65c0,0 -3.66,-30.07 -6.37,-34.28 -2.71,-4.2 -2.71,-15.71 -2.71,-15.71l1.21 -26.86c0,0 0.97,-2.84 0.14,-4.47 -0.83,-1.63 2.32,-6.09 2.32,-6.09 7.59,-9.22 8.69,-29.95 6.47,-33.97 -2.22,-4.02 -8.78,-20.32 -8.78,-20.32l-9.06 -5.28 -16.38 0.48 -20.18 0.54z"/>
   <path class="fil9" d="M665.32 541.83c0,0 -2.14,7.42 -3.86,8.23 -1.72,0.81 3.86,-8.23 3.86,-8.23z"/>
   <path class="fil9" d="M662.38 517.15c0,0 -5.53,4.38 -7.9,4.37 -2.37,-0.01 7.9,-4.37 7.9,-4.37z"/>
   <path class="fil11" d="M628.96 333.76l0 8.94 5.9 -2.54 5.89 -2.54 12.81 -12.6c0,0 10.14,-6.58 15.55,-12.58 3.1,-3.42 4.65,-6.65 1.93,-8.36 -1.32,-0.86 -2.52,-1.91 -3.55,-3.11 -2.72,-3.2 -5.09,-6.71 -7.06,-10.42 -0.09,-0.15 -0.17,-0.3 -0.25,-0.45 -2.64,-4.84 -4.38,-8.97 -4.38,-8.97 0,0 -7.43,2.37 -12.2,5.75 -0.39,0.27 -0.75,0.55 -1.1,0.83 -2.66,2.18 -3.99,4.74 -1.53,7.23 0.63,0.65 1.21,1.35 1.74,2.08l0 0c0.39,0.55 0.76,1.12 1.09,1.7 0.14,0.27 0.28,0.53 0.41,0.79 1.22,2.49 1.85,5.23 1.85,8 0,0.95 -0.08,1.91 -0.22,2.85l-16.88 23.38z"/>
   <path class="fil19" d="M630.04 269.98c-0.31,0.54 -0.73,1 -1.02,1.54 -0.35,0.87 -0.53,1.8 -0.53,2.74 0,0.35 0.02,0.7 0.07,1.05 0.04,0.54 0.06,1.09 0.06,1.63 0,1.48 -0.16,2.96 -0.46,4.42 -0.42,1.79 -1.2,3.51 -1.26,5.34 -0.09,2.58 1.25,4.98 2.55,7.21 -1.42,-0.04 -2.77,-0.67 -3.71,-1.73 -0.1,0.33 -0.15,0.68 -0.15,1.04 0,0.84 0.29,1.66 0.83,2.31 -2.12,-0.1 -3.95,-1.78 -4.74,-3.74 -0.5,-1.4 -0.76,-2.88 -0.76,-4.37 0,-0.65 0.05,-1.31 0.15,-1.95 0.3,-2.07 0.46,-4.17 0.46,-6.27 0,-0.03 0,-0.06 0,-0.09 -0.12,-0.98 -0.19,-1.96 -0.19,-2.94 0,-0.18 0,-0.35 0,-0.52 0.2,-2.3 1.58,-4.3 2.97,-6.16l2.75 -3.77c0.19,-0.31 0.47,-0.56 0.79,-0.72 2.6,-1.1 2.9,3.68 2.17,4.99z"/>
   <path class="fil9" d="M640.92 294.95c0.63,0.65 1.21,1.35 1.75,2.08l0 0c0.39,0.55 0.76,1.12 1.09,1.7 0.14,0.27 0.28,0.53 0.41,0.79 6.34,-0.35 12.19,-3.52 15.97,-8.63 0.09,-0.12 0.17,-0.23 0.25,-0.36 -0.09,-0.15 -0.17,-0.3 -0.25,-0.45 -2.64,-4.84 -4.39,-8.97 -4.39,-8.97 0,0 -7.42,2.37 -12.19,5.75 -0.39,0.27 -0.75,0.55 -1.1,0.83 -2.63,2.2 -3.96,4.72 -1.53,7.25z"/>
   <path class="fil12" d="M621.66 277.43c0,0 0,0.01 0,0.01 0,10.29 7.35,19.11 17.47,20.98 1.27,0.23 2.56,0.35 3.86,0.35 0,0 0.01,0 0.01,0l0.1 0c0.23,0 0.46,0 0.69,0 11.46,-0.42 20.54,-9.85 20.54,-21.31 0,-11.78 -9.55,-21.33 -21.33,-21.33 -11.77,0 -21.32,9.54 -21.33,21.31l-0.01 0z"/>
   <path class="fil9" d="M640.2 330.17c0,0 -10.74,6.06 -8,0.95l14.02 -20.73 -0 0 -15.92 20.45c0,0 -10.16,13.96 -4.6,23.57 0,0 0.79,8 -0.14,9.89 -0.92,1.9 0.27,22.12 0.27,22.12 0,0 3.8,-3.52 5.83,-2.85 2.03,0.67 16.36,1.87 16.36,1.87l-7.83 -55.27z"/>
   <path class="fil9" d="M626.79 382.19l0.2 3.74c1.29,-0.93 3.08,-1.97 4.27,-1.58 2.03,0.68 16.38,1.9 16.38,1.9l-0.66 -4.67 -20.2 0.6z"/>
   <path class="fil19" d="M639.8 330.17c0,0 -10.75,6.06 -8,0.95l14.02 -20.73 0 0 -15.92 20.45c0,0 -10.16,13.96 -4.6,23.57 0,0 0.79,8 -0.14,9.89 -0.92,1.9 0.27,22.12 0.27,22.12 0,0 3.79,-3.52 5.82,-2.85 2.03,0.67 16.39,1.9 16.39,1.9l-7.85 -55.3z"/>
   <path class="fil9" d="M634.05 340.56c0.62,6.52 3.3,14.26 3.3,14.26 0,0 1.9,19.24 4.35,24.95 2.45,5.72 1.36,13.55 2.71,28.04 0.49,5.22 2.17,8.81 4.44,11.22 3.73,3.95 9.05,4.81 13.25,4.57l1 -0.08c6.78,-0.67 13.28,-33.32 13.28,-33.32 0,0 3.11,-27.78 1.9,-31.6 -1.21,-3.82 1.2,-25.44 2.01,-30.18 0.52,-3.01 -1.04,-7.9 -2.24,-11.11 -0.7,-1.85 -1.28,-3.16 -1.28,-3.16 0,0 -2.31,-7.31 -6.1,-11.11 -1.05,-1.08 -2.5,-1.69 -4.01,-1.69 -0,0 -0.01,0 -0.01,0 -1.78,0.07 -3.52,0.62 -5.02,1.58 -0.06,0.04 -0.12,0.08 -0.17,0.12 -0.06,0.04 -24.66,25.2 -26.96,31.02 -0.64,1.63 -0.7,3.96 -0.46,6.47z"/>
   <path class="fil17" d="M634.86 340.16c0.63,6.51 3.31,14.26 3.31,14.26 0,0 1.9,19.24 4.34,24.93 2.44,5.69 1.35,13.55 2.71,28.04 0.49,5.21 2.17,8.8 4.44,11.22 3.73,3.95 9.05,4.8 13.26,4.57l1 -0.08c6.78,-0.68 13.28,-33.33 13.28,-33.33 0,0 3.11,-27.77 1.9,-31.56 -1.22,-3.79 1.21,-25.47 2.03,-30.22 0.52,-3 -1.03,-7.9 -2.23,-11.11 -0.7,-1.85 -1.28,-3.12 -1.28,-3.12 0,0 -2.31,-7.31 -6.1,-11.11 -1.04,-1.08 -2.47,-1.68 -3.97,-1.68 -0.01,0 -0.03,0 -0.05,0 -1.78,0.07 -3.52,0.62 -5.02,1.58l-0.17 0.11c0,0 -24.66,25.2 -26.96,31.02 -0.64,1.62 -0.72,3.95 -0.47,6.46z"/>
   <path class="fil9" d="M662.48 439.33c0,0 5.59,4.98 7.52,4.74 1.93,-0.24 -7.52,-4.74 -7.52,-4.74z"/>
   <path class="fil9" d="M661 444.11c0,0 5.89,2.73 7.66,3.16 1.76,0.43 -5.38,-3.86 -7.66,-3.16z"/>
   <path class="fil9" d="M638.2 369.32c0,0 -8.74,0.1 -10.05,2.85 -1.32,2.74 7.24,-3.97 10.05,-2.85z"/>
   <path class="fil9" d="M639.42 374.09c0,0 -6.71,1.42 -8.74,3.05 -2.03,1.63 8.74,-3.05 8.74,-3.05z"/>
   <path class="fil9" d="M650.7 357.53c0,0 0.79,27.53 3.81,31.09 3.02,3.56 -3.81,-31.09 -3.81,-31.09z"/>
   <path class="fil9" d="M658.22 435.36c0,0 5.61,24.29 -5.64,25.78 -11.25,1.5 -7.77,-27.65 -7.77,-27.65l13.41 1.86z"/>
   <path class="fil12" d="M658.63 434.96c0,0 5.58,24.28 -5.65,25.8 -11.22,1.52 -7.76,-27.65 -7.76,-27.65l13.41 1.85z"/>
   <path class="fil9" d="M621.79 275.08c0.31,-0.46 0.58,-0.96 0.79,-1.48 1.5,-3.11 5.33,-1.58 8.14,-0.1l1.5 1.94c0.68,0.8 1.26,1.7 1.71,2.65 0.28,0.77 0.53,1.57 0.72,2.37 0.39,1.37 0.96,2.69 1.47,4.03 1.7,4.46 2.72,9.17 3,13.93 1.27,0.23 2.56,0.35 3.86,0.35 0,0 0.01,0 0.01,0l0.1 0 0 -0.1c-0.14,-0.54 -0.26,-1.08 -0.37,-1.63l0 0c-0.33,-1.74 -0.5,-3.52 -0.5,-5.3 0,-1.35 0.1,-2.7 0.29,-4.03 0,-0.07 0,-0.14 0,-0.21 0.1,-0.69 0.23,-1.38 0.29,-2.07 0.26,0.48 0.51,0.96 0.79,1.45 1.7,3.16 3.48,6.32 6.69,7.7 1.3,0.51 2.68,0.82 4.07,0.92 1.72,0.09 3.43,0.38 5.09,0.84 0.57,0.16 1.08,0.47 1.48,0.89 0.45,0.66 0.7,1.43 0.74,2.23 0.17,1.05 0.44,2.08 0.79,3.09 1.45,3.74 3.72,7.13 6.63,9.89l0.73 0.71c1.25,1.29 2.75,2.33 4.39,3.04 1.38,0.46 2.83,0.7 4.28,0.7 0.12,0 0.25,-0 0.37,-0.01 -0.7,-1.85 -1.28,-3.12 -1.28,-3.12 0,0 -2.31,-7.31 -6.1,-11.11 -1.04,-1.08 -2.47,-1.68 -3.97,-1.68 -0.02,0 -0.03,0 -0.05,0 -2.83,-3.33 -5.29,-7 -7.31,-10.87 2.7,-3.67 4.16,-8.1 4.16,-12.66 0,-11.78 -9.55,-21.33 -21.33,-21.33 -10.87,0 -20,8.17 -21.2,18.97l0.02 -0.02z"/>
   <path class="fil13" d="M620.43 258.44c1.26,-1.41 3.04,-2.23 4.74,-3.04 0.6,-0.23 1.13,-0.62 1.54,-1.12 0.29,-0.6 0.46,-1.26 0.47,-1.94 0.6,-4.12 4.43,-6.97 8.25,-8.65 4.92,-2.16 10.81,-3.08 15.53,-0.52 2.29,1.25 4.1,3.2 6.17,4.79 2.62,2.01 5.64,3.41 8.44,5.17 2.8,1.75 5.47,3.95 6.79,7 2.05,4.66 0.51,10.01 0.25,15.1 -0.4,8.03 2.86,16.41 9.34,21.15 0.78,0.48 1.48,1.09 2.05,1.79 0.31,0.4 0.49,0.89 0.49,1.4 0,0.41 -0.11,0.81 -0.32,1.15 -0.32,0.44 -0.86,0.69 -1.22,1.11 -0.74,0.84 -0.59,2.13 -0.3,3.22 0.93,3.52 2.81,6.73 5.42,9.27 -0.11,0.84 -1.12,1.16 -1.95,1.29 -2.15,0.32 -4.34,0.48 -6.52,0.48 -0.03,0 -0.08,0 -0.11,0 -0.3,0.02 -0.61,0.04 -0.91,0.04 -3.2,0 -6.24,-1.38 -8.36,-3.77 -3.95,-3.71 -7.29,-8.35 -8.18,-13.69 -0.05,-0.79 -0.3,-1.56 -0.74,-2.23 -0.41,-0.42 -0.92,-0.73 -1.48,-0.89 -2.94,-1.01 -6.32,-0.51 -9.15,-1.76 -3.7,-1.58 -5.53,-5.53 -7.47,-9.15 -0.06,0.69 -0.19,1.38 -0.3,2.08 -0.21,1.39 -0.32,2.81 -0.32,4.21 0,2.34 0.29,4.68 0.87,6.94 0.53,2.06 1.29,4.12 1.24,6.24 -0.04,1.58 -1.64,9.84 -3.75,7.36 -2.11,-2.47 -1.33,-7.94 -1.33,-11 0,-5.74 -1.07,-11.43 -3.11,-16.79 -0.51,-1.34 -1.09,-2.65 -1.47,-4.03 -0.19,-0.8 -0.43,-1.59 -0.71,-2.37 -0.46,-0.95 -1.04,-1.84 -1.72,-2.65l-1.51 -1.94c-2.81,-1.49 -6.65,-3.01 -8.14,0.1 -0.57,1.19 -0.88,2.51 -2.37,1.35 -0.88,-0.69 -1.16,-2.04 -1.39,-3.07 -0.94,-4.3 -1.71,-9.37 1.24,-12.64z"/>
   <path class="fil9" d="M649.02 333.01c0.58,-14.59 21,-17.61 25.76,-3.81 0.04,0.09 0.07,0.19 0.09,0.28 3.12,9.35 1.76,33.01 1.76,33.01 0,0 -0.4,15.9 -1.9,21.18 -1.49,5.29 -5.69,20.45 -5.69,22.91 0,2.45 -3.89,11.78 -5.53,12.47 -1.64,0.68 -2.46,5.95 -2.87,6.9 -0.4,0.95 -1.58,13.28 -1.58,13.28 0,0 -15.31,-0.95 -15.58,-3.39 -0.27,-2.44 3.39,-14.36 3.39,-14.36 0,0 2.69,-4.87 3.04,-8.8 0.35,-3.93 2.46,-5.71 2.05,-8.42 -0.42,-2.71 1.22,-4.06 1.22,-5.82 0,-1.76 1.22,-6.5 1.22,-6.5 0,0 2.57,-2.04 2.16,-4.47 -0.41,-2.43 3.66,-7.31 2.57,-9.07 -1.08,-1.76 -1.35,-6.1 -1.35,-6.1 0,0 -1.36,-19.5 -2.31,-24.79 -0.95,-5.28 -6.5,-13.81 -6.5,-13.81 0,0 0.01,-0.24 0.02,-0.68z"/>
   <path class="fil9" d="M649.65 418.61c3.73,3.95 9.05,4.8 13.26,4.57 0.49,-1.85 1.2,-4.12 2.23,-4.55 1.64,-0.68 5.53,-10.02 5.53,-12.46 0,-2.43 4.19,-17.62 5.69,-22.91 1.49,-5.29 1.9,-21.17 1.9,-21.17 0,0 1.36,-23.7 -1.76,-33.02 0,-0.09 -0.06,-0.18 -0.1,-0.28 -4.74,-13.81 -25.18,-10.78 -25.76,3.81 0,0.44 0,0.67 0,0.67 0,0 5.53,8.53 6.5,13.82 0.97,5.28 2.29,24.79 2.29,24.79 0,0 0.28,4.34 1.36,6.1 1.08,1.76 -2.98,6.64 -2.58,9.08 0.4,2.43 -2.16,4.47 -2.16,4.47 0,0 -1.22,4.74 -1.22,6.51 0,1.77 -1.63,3.11 -1.22,5.82 0.4,2.71 -1.76,4.47 -2.11,8.4 -0.29,2.2 -0.92,4.35 -1.85,6.36l0 0z"/>
   <path class="fil20" d="M649.84 332.61c0.58,-14.59 21,-17.61 25.76,-3.81l0.09 0.27c3.12,9.35 1.76,33.02 1.76,33.02 0,0 -0.4,15.89 -1.9,21.17 -1.5,5.28 -5.69,20.46 -5.69,22.91 0,2.45 -3.89,11.78 -5.53,12.47 -1.63,0.68 -2.46,5.96 -2.87,6.91 -0.4,0.95 -1.58,13.27 -1.58,13.27 0,0 -15.31,-0.95 -15.58,-3.38 -0.27,-2.43 3.38,-14.36 3.38,-14.36 0,0 2.7,-4.88 3.05,-8.81 0.35,-3.93 2.51,-5.69 2.1,-8.4 -0.41,-2.71 1.22,-4.07 1.22,-5.83 0,-1.76 1.21,-6.5 1.21,-6.5 0,0 2.58,-2.03 2.17,-4.47 -0.41,-2.44 3.66,-7.31 2.57,-9.08 -1.08,-1.76 -1.35,-6.09 -1.35,-6.09 0,0 -1.36,-19.51 -2.31,-24.79 -0.95,-5.29 -6.5,-13.82 -6.5,-13.82 0,0 -0.05,-0.25 -0.03,-0.68z"/>
   <path class="fil9" d="M674.98 370.14c-0.4,-0.41 -8.13,-8.94 -10.56,-5.89 -2.43,3.05 10.56,5.89 10.56,5.89z"/>
   <path class="fil9" d="M674.27 376.74c-0.3,-0.31 -7.72,-0.61 -9.55,-4.74 -1.83,-4.13 9.55,4.74 9.55,4.74z"/>
   <path class="fil21" d="M682.72 301.82c-0.18,0.22 -0.32,0.46 -0.4,0.73 -0.1,-0.31 -0.15,-0.65 -0.15,-0.98 0,-0.64 0.2,-1.26 0.56,-1.79 0.36,-0.42 0.89,-0.66 1.22,-1.1 0,0 0.04,-0.07 0.06,-0.11 0.18,0.31 0.26,0.66 0.26,1.02 0,0.4 -0.11,0.79 -0.33,1.12 -0.37,0.44 -0.86,0.7 -1.22,1.11z"/>
   <path class="fil21" d="M672.38 275.51c0,-0.79 0,-1.58 0,-2.31 0.14,-2.76 0.66,-5.6 0.79,-8.37 0.17,3.4 -0.59,6.96 -0.79,10.4 0,0.08 0.01,0.17 0,0.28z"/>
   <path class="fil21" d="M640.72 309.43c1.88,2.2 3.36,-4.14 3.68,-6.64 0.05,0.4 0.07,0.81 0.07,1.22 0,0.03 0,0.06 0,0.09 -0.05,1.58 -1.64,9.84 -3.75,7.36 -1.43,-1.67 -1.58,-4.53 -1.49,-7.16 0.1,2.01 0.42,3.88 1.49,5.12z"/>
   <path class="fil21" d="M642.68 286.7c-0.16,1.06 -0.26,2.14 -0.29,3.21 -0.02,-0.36 -0.02,-0.73 -0.02,-1.09 0,-1.39 0.11,-2.79 0.32,-4.16 0.1,-0.69 0.23,-1.38 0.3,-2.08 1.95,3.65 3.76,7.55 7.46,9.15 2.86,1.24 6.21,0.75 9.15,1.76 0.57,0.16 1.08,0.47 1.48,0.89 0.44,0.66 0.7,1.43 0.74,2.23 0.9,5.34 4.25,9.98 8.19,13.69 2.11,2.4 5.16,3.77 8.36,3.77 0.3,0 0.61,-0.01 0.91,-0.04 0,0 0.03,0 0.03,0 2.2,0 4.42,-0.17 6.59,-0.48 0.34,-0.05 0.67,-0.14 1,-0.26 0.31,0.35 0.63,0.68 0.96,1 -0.11,0.84 -1.13,1.16 -1.96,1.29 -2.15,0.32 -4.34,0.48 -6.51,0.48 -0.03,0 -0.08,0 -0.11,0 -0.3,0.02 -0.61,0.04 -0.91,0.04 -3.2,0 -6.24,-1.38 -8.36,-3.77 -3.95,-3.71 -7.29,-8.35 -8.19,-13.69 -0.04,-0.79 -0.3,-1.56 -0.74,-2.23 -0.4,-0.43 -0.91,-0.73 -1.48,-0.89 -2.95,-1.01 -6.32,-0.51 -9.16,-1.76 -3.7,-1.58 -5.53,-5.53 -7.46,-9.15 -0.06,0.69 -0.2,1.38 -0.3,2.08z"/>
   <path class="fil21" d="M618.96 269.04c0.23,1.03 0.52,2.37 1.4,3.07 1.49,1.15 1.78,-0.16 2.37,-1.35 1.49,-3.11 5.33,-1.58 8.14,-0.1l1.51 1.94c0.68,0.8 1.26,1.69 1.71,2.65 0.29,0.77 0.53,1.57 0.71,2.37 0.4,1.38 0.97,2.69 1.48,4.02 2.04,5.36 3.09,11.06 3.09,16.79 0,0.26 0,0.55 0,0.84 -0.14,-5.33 -1.18,-10.61 -3.09,-15.58 -0.51,-1.34 -1.08,-2.66 -1.48,-4.03 -0.18,-0.8 -0.42,-1.6 -0.71,-2.37 -0.45,-0.95 -1.03,-1.85 -1.71,-2.65l-1.51 -1.94c-2.81,-1.49 -6.65,-3.01 -8.14,0.1 -0.58,1.19 -0.88,2.51 -2.37,1.35 -0.88,-0.68 -1.17,-2.04 -1.4,-3.06 -0.53,-2.12 -0.8,-4.31 -0.8,-6.5 0,-0.26 0,-0.53 0.01,-0.78 0.13,1.76 0.39,3.53 0.78,5.25l0 0z"/>
   <path class="fil19" d="M600.49 345.96l-0.42 0.28c0.47,-0.31 0.75,-0.84 0.75,-1.4 0,-0.35 -0.11,-0.69 -0.31,-0.98l-18.83 -27.28c-0.31,-0.46 -0.83,-0.73 -1.38,-0.73 -0.34,0 -0.67,0.11 -0.96,0.3l0.42 -0.29c-0.73,0.5 -1.16,1.33 -1.16,2.22 0,0.55 0.17,1.08 0.47,1.53l17.67 25.65c0.5,0.73 1.33,1.16 2.22,1.16 0.55,0 1.08,-0.17 1.53,-0.47l0 0z"/>
   <path class="fil22" d="M579.56 315.97l-0.32 0.22 20.73 30.09 0.32 -0.22c0.63,-0.43 0.78,-1.29 0.35,-1.91l-19.16 -27.82c-0.43,-0.63 -1.29,-0.78 -1.91,-0.35l-0 -0z"/>
   <path class="fil19" d="M581.95 320.04l-0.06 0.04c-0.06,0.04 -0.08,0.13 -0.04,0.19l1.54 2.23c0.04,0.06 0.13,0.08 0.19,0.03l0.06 -0.04c0.06,-0.04 0.08,-0.13 0.04,-0.19l-1.54 -2.23c-0.04,-0.06 -0.13,-0.08 -0.19,-0.04z"/>
   <path class="fil23" d="M311.43 142.85l-91.43 0 0 56.26 91.43 0 0 -56.26zm-52.65 21.43c-0.25,-0.08 -0.34,-0.05 -0.14,-0.45 0.24,0.1 0.46,0.15 0.14,0.45zm-0.1 3c-0.16,-0.28 -0.09,-0.91 -0.09,-1.25 0,-0.39 -0.08,-1 0.09,-1.28 0.27,0.12 0.18,-0.01 0.19,0.47l-0 1.42c0,0.53 0.13,0.5 -0.19,0.64zm-17.93 -3.36c0.16,0.15 0.22,0.18 0.51,0.14 0.12,-0.02 0.36,-0.14 0.45,-0.18l0.06 -0.71c-1.07,-0.77 -1.4,-0.04 -1.28,0.58l0.27 0.17c0.23,-0.78 0.03,-0.44 0.08,-0.69 0.04,-0.22 0.27,-0.22 0.56,-0.23l-0.22 0.54c-0.27,0.2 -0.15,0.19 -0.41,0.38zm0.73 -1.14c0.93,0.49 0.28,1.79 -0.74,1.37 -0.97,-0.4 -0.26,-1.89 0.74,-1.37zm13.57 4.51c-0.22,-0.44 0.01,-1.14 -0.1,-1.65 -0.11,-0.57 -0.46,-0.63 -0.72,-0.67 -0.03,-0 -0.15,-0.01 -0.19,-0.02 -0.24,-0.06 -0.09,-0.01 -0.24,-0.12 0,0 0.07,-0.31 0.72,-0.08 0.18,0.06 0.3,0.21 0.43,0.33 0.22,-0.42 -0.11,-0.21 0.29,-0.33 0.04,0.46 0.02,0.92 0.02,1.39 0,1.19 0.12,1.06 -0.22,1.15zm-11.4 -2.47l0 0.14 -0.32 0.03c-0.1,0.72 0.4,2.87 -1.15,2.26 0.16,-0.17 -0.04,-0.08 0.28,-0.15 0.05,-0.01 0.34,-0.03 0.43,-0.05 0.16,-0.39 0.22,-1.31 0.14,-1.81 -0.05,-0.32 -0.09,-0.22 -0.36,-0.26 -0.37,-0.06 -0.17,0.06 -0.43,-0.15l0.73 -0.1 0.09 -0.59c0.21,0.2 0.14,0.17 0.24,0.55l0.35 0.12zm12.43 2.22c0.95,0.17 1.52,-0.19 1.48,-1.1 -0.05,-1.06 -0.81,-1.02 -1.59,-0.91l-0.15 -0.19 0.23 -0.12c1.09,-0.07 1.84,0.19 1.79,1.41 -0.02,0.46 -0.25,0.86 -0.56,1.04 -0.41,0.24 -0.93,0.14 -1.35,0.07 -0.07,-0.11 -0.13,0.17 -0.06,-0.29l0.2 0.08zm-10.91 -2.27c-0.24,0.29 -0.24,0.14 -0.49,0.26 -0,2.19 0.18,2.24 -0.25,2.24l0.01 -2.14c-0.1,-0.3 -0.22,-0.19 -0.62,-0.19l0.06 -0.22 0.57 0.01c-0,-0.35 -0.05,-0.57 -0.16,-0.8l-0.8 -0.07c0.08,-0.15 -0.06,-0.21 0.38,-0.22 0.75,-0.04 0.83,0.46 0.86,1.04l0.44 0.09zm3.64 1.87c0.28,0.7 1.04,0.45 1.69,0.28 -0.13,0.77 -1.86,0.44 -1.96,-0.21 -0.15,-0.98 1.47,-0.59 1.59,-1.48 -0.21,-0.25 -0.28,-0.3 -0.72,-0.28 -0.45,0.02 -0.51,0.19 -0.79,-0.02 0.44,-0.44 1.92,-0.32 1.79,0.49 -0.12,0.77 -1.24,0.45 -1.6,1.22zm-1.14 -0.2c0.5,-1.69 -1.46,-1.95 -1.74,-0.87 -0.14,0.54 -0.01,1.2 0.41,1.42 0.66,0.34 1.2,-0.11 1.33,-0.55zm-0.42 -1.68c1.33,0.45 0.91,3.06 -0.89,2.5 -1.34,-0.42 -0.94,-3.12 0.89,-2.5zm5.85 1.58c0.27,-1.65 -1.5,-1.84 -1.79,-0.7 -0.42,1.69 1.58,1.91 1.79,0.7zm-0.4 -1.53c0.74,0.29 0.83,1.08 0.65,1.74 -0.17,0.61 -0.87,0.97 -1.64,0.71 -1.26,-0.43 -0.9,-3.2 0.99,-2.45zm2.14 5.7c0.16,-0.21 0.09,-0.13 0.48,-0.11l0.01 2.54 -0.59 0.03c-0.09,-1.07 0.25,-1.86 -0.63,-2.07 -0.56,-0.14 -0.44,0.19 -0.49,-0.55 0.52,-0.01 0.73,-0.01 1,0.32 0.17,-0.08 0.13,0.02 0.23,-0.16zm-12.13 -0.15c-0.36,0.49 -0.42,0.2 -0.94,-0.12l-0 2.72 -0.58 -0.01 -0.01 -3.38c0.53,-0.02 0.48,-0.03 0.83,0.23l0.7 0.55zm18.74 -3.59l0.25 -0.34c0.06,-0.11 0.12,-0.29 0.18,-0.42 0.12,-0.27 0.22,-0.5 0.34,-0.77 0.7,-1.59 0.39,-1.31 0.88,-1.37 0.01,0.02 0.03,0.03 0.04,0.08 0,0.05 0.03,0.06 0.04,0.08 0.1,0.37 0.05,0.47 0.05,1.49 0,0.3 -0,0.61 0,0.91 0,0.34 0.04,0.58 -0.13,0.85 -0.23,-0.35 -0.14,-1.04 -0.13,-1.46 0,-0.5 0,-1.01 0,-1.51 -0.49,0.55 -0.96,2.58 -1.48,2.96l-1.37 -2.96 -0.02 2.43c-0.01,0.46 0.09,0.45 -0.22,0.53 -0.14,-0.18 -0.11,-3 -0.03,-3.39 0.44,-0.01 0.39,0.05 0.55,0.42l1.05 2.47zm-3.74 5.71c0.23,-0.4 0.42,-0.65 0.25,-1.2 -0.11,-0.35 -0.48,-0.6 -0.9,-0.44 -0.55,0.22 -0.92,1.86 0.65,1.64zm0.13 -2.04c0.74,0.3 0.96,0.94 0.72,1.72 -0.2,0.66 -1.01,1.09 -1.84,0.74 -1.37,-0.57 -0.74,-3.21 1.12,-2.46zm-9.11 -0.36c-0.66,0.5 -0.29,-0.27 -1.54,-0.02 -0.75,1.34 1.61,1.58 1.58,2.94 -0.72,-0.13 -1.89,0.17 -2.48,-0.13l0.31 -0.41 1.33 0c-0.39,-0.69 -1.59,-1.03 -1.52,-2.09 0.07,-1.05 1.97,-1.16 2.32,-0.29zm-9.71 1.27c-1.02,-0.53 -1.15,0.79 -0.72,1.08 0.38,0.25 0.83,0.04 0.98,-0.25 0.36,-0.72 -0.25,-0.82 -0.25,-0.82zm0.36 -0.26c-0.09,-0.69 -0.22,-1 -0.87,-1.08 -0.52,-0.06 -0.76,0.15 -0.76,-0.25 -0,-0.65 2.8,-0.27 2.17,2.27 -0.31,1.27 -2,1.24 -2.35,0.31 -0.3,-0.78 0.14,-2.15 1.81,-1.25zm4.9 1.37c0.94,0.19 0.98,-0.4 0.97,-1.3 -0.02,-0.82 -0.16,-1.26 -0.99,-1.12 -0.37,0.68 -0.46,1.76 0.02,2.42zm0.87 -2.81c0.2,0.1 0.21,-0 0.43,0.32 0.07,0.1 0.17,0.37 0.2,0.5 0.3,1.25 -0.2,3.1 -1.72,2.42 -1.27,-0.56 -0.87,-4.25 1.09,-3.24zm7.33 1.26c-0.3,-0.15 -0.67,-0.1 -0.99,0.01 -0.7,2.2 1.69,2.26 0.99,-0.01zm-1.13 -0.29c0.86,-0.55 1.88,-0.27 1.93,0.94 0.05,1.26 -1.14,1.97 -1.86,1.12 -0.46,0.33 0.08,0.17 -0.67,0.33l-0.01 -3.65 0.55 -0.02 0.07 1.29zm11.16 1.25l0.57 -2.32 0.61 0.01 -0.92 3.37 -0.67 0.03 -0.76 -2.5 -0.81 2.49 -0.7 0.01 -0.9 -3.36 0.56 -0.05 0.75 2.6 0.77 -2.59 0.61 -0.01c0.19,0.55 0.61,1.79 0.65,2.37l0.24 -0.05zm30.49 -5.96l1.4 6.8 0.2 0.3 0.66 -0.03 1.5 -0.08c0.28,-0.83 2.02,-9.67 2.06,-10.49l-2.03 -0.03 -1.24 7.41 -1.68 -7.67 -2.34 -0.09c0.09,1.06 -1.39,6.26 -1.44,7.63l-0.09 0.28 -0.15 -0.38 -1.26 -7.43 -0.31 -0.09 -0.13 -0.29 -1.99 -0.07c0.38,1.92 0.86,3.87 1.29,5.82l1.36 5.77c0.96,0.2 1.47,0.01 2.45,0l1.51 -7.36 0.01 -0.24 0.07 -0.19 0.12 0.18 0.02 0.24zm-11.57 14.61l-0.01 -3.12 -10.34 -0.03 0.01 -1.57 10.33 -0.01 -0.03 -1.97 -10.31 -0.03 0.03 -1.56 10.31 0.02 -0 -1.94c-0.99,-0.27 -8.3,0.09 -10.33,-0.09l-0 -1.55c0.87,-0.11 9.73,-0.12 10.31,0.02 0.05,-0.6 0.11,-1.46 -0.04,-2.02l-10.28 -0.03 0.03 -1.57 10.31 -0.02 0.01 -1.97 -10.34 -0.01 -0.01 -1.54c0.68,-0.11 9.78,-0.11 10.33,0.03l-0.01 -2.04 -10.33 -0.03 0.01 -1.57 10.33 0.04 -0.06 -2.82 -13.03 0 -0.02 25.43 13.11 -0.02zm-0.05 1.24c-2.33,-0.03 -4.68,-0 -7.02,0 -1.26,0 -6.01,0.22 -6.78,-0.3 -0.83,-0.56 -0.49,-5.27 -0.49,-6.58l0.01 -17.62c0.02,-3.94 -0.34,-3.36 7.26,-3.36 2.34,0 4.68,0.04 7.04,0.01l0.02 -3.16c2.11,-0.11 3.56,0.2 5.47,0.53l10.12 1.76c1.12,0.2 4.15,0.57 5.06,0.91l0 27.82c-3.28,0.43 -6.9,1.19 -10.22,1.76 -3.25,0.56 -7.22,1.48 -10.44,1.4l-0.04 -3.17z"/>
   <g>
    <path class="fil23" d="M444.69 187.4c-0.04,-0.09 -0.23,0.15 -0.07,0.05 0.03,-0.02 0.1,0.02 0.07,-0.05zm8.18 -4.94c-0.1,-0.06 -0.1,0.03 -0.07,0.03 0.21,0.03 0.09,-0.02 0.07,-0.03zm17.7 -2.83c-0.01,-0.07 -0.15,0.07 -0.11,0.07 0,0 0.13,0.01 0.11,-0.07zm0.59 -0.45c-0.06,-0.05 -0.19,0.14 -0.07,0.05 0.01,-0 0.09,-0.03 0.07,-0.05zm-11.33 -10.02c-0.07,-0.05 -0.2,0.04 -0.09,0.05 0,0 0.11,-0.03 0.09,-0.05zm0.25 -0.11c0,-0.13 -0.1,-0.06 -0.08,0.01 0.03,0.1 0.08,0.13 0.08,-0.01zm17.67 -6.11c-0.17,0.3 -0.16,1.15 -0.02,1.45l0.02 -1.45zm-51.15 1.13l-0.08 0.3c-0.5,-0.13 -0.18,-1.32 -2.5,-2.4l-0.67 -0.23c-0.89,-0.13 -1.89,-0.26 -2.78,-0.07 -1.03,0.22 -1.1,0.19 -2.1,0.68l-0.21 0.1c-0.61,0.32 -1.14,0.83 -1.58,1.36l-0.11 0.12c-0.14,0.16 -0.2,0.24 -0.32,0.43 -0.21,0.31 -0.44,0.67 -0.59,1 -0.08,0.18 -0.12,0.35 -0.2,0.55 -0.17,0.42 -0.34,0.77 -0.4,1.18 -0.05,0.34 -0,0.45 -0.3,0.53 -0.11,-0.22 -0.06,-0.41 -0.16,-0.67 -0.06,-0.18 -0.16,-0.38 -0.24,-0.59 -0.34,-0.86 -0.81,-1.57 -1.4,-2.3 -0.1,-0.12 -0.14,-0.13 -0.23,-0.22l-0.22 -0.23c-0.48,-0.41 -1.04,-0.82 -1.61,-1.11 -0.51,-0.25 -1.08,-0.5 -1.64,-0.62 -1.28,-0.27 -2.68,-0.43 -4,-0.21 -0.19,0.03 -0.59,0.06 -0.79,0.11 -1.8,0.49 -3.33,1.35 -4.48,2.85 -1.21,1.58 -2.03,4.81 -1.02,5.73 0.33,0.3 0.76,0.36 1.38,0.36l9.66 0c0.33,-0 0.68,-0.1 0.68,0.22 0,0.95 -0.41,2.36 -1.16,2.91 -1.15,0.85 -1.54,1.09 -3.22,1.09 -0.59,0 -1.02,-0.09 -1.5,-0.24 -0.52,-0.16 -1.01,-0.4 -1.43,-0.76l-0.71 -0.65c-0.69,-0.67 -1.94,-0.75 -2.64,-0.04 -0.93,0.93 -0.45,2.32 0.38,3.13 0.23,0.22 0.46,0.35 0.74,0.54 0.67,0.45 1.45,0.71 2.21,0.96 1.13,0.37 2.42,0.44 3.63,0.44 1.26,0 2.68,-0.29 3.81,-0.87l1.36 -0.82c0.39,-0.26 0.61,-0.49 0.92,-0.82 0.18,-0.18 0.2,-0.27 0.35,-0.48l1.22 -2.25c0.12,-0.47 -0.15,-0.38 0.26,-0.65 0.25,0.38 0.08,0.13 0.17,0.59 0.2,1.03 1.11,2.7 1.85,3.43 1.41,1.4 3.03,1.87 5,1.87 0.62,0 1.47,-0.17 1.99,-0.42 1.48,-0.74 1.93,-1.76 2.24,-1.84l0 6.19c0,0.71 0.26,1.32 0.81,1.67 1.32,0.84 3.56,0.43 3.56,-1.9l0 -16.07c0,-0.28 -0.06,-0.18 -0.05,-0.31 0.02,-0.28 0.09,-0.18 0.2,-0.22l1.84 5.25c0.08,0.31 0.1,0.37 0.21,0.63l0.71 2c0.76,1.95 1.36,3.89 2.07,5.86l0.24 0.67c0.49,1.4 1.15,2.91 2.4,3.78 1.06,0.74 3.28,1.01 4.44,0.28 0.1,-0.06 0.16,-0.08 0.24,-0.14 0.16,-0.1 0.28,-0.22 0.38,-0.38 0.07,-0.11 0.2,-0.31 0.24,-0.44 0.15,-0.4 0.14,-0.75 0.03,-1.19 -0.24,-1.04 -1.48,-1.24 -2.39,-1.23 -0.21,0 -0.46,0.03 -0.65,-0.03 -0.08,-0.02 -0.4,-0.24 -0.46,-0.29 -0.8,-0.71 -0.35,-1.69 -0.04,-2.49 0.06,-0.14 0.04,-0.11 0.08,-0.22 0.03,-0.08 0,-0.03 0.03,-0.12l2.26 -6.42c0.05,-0.15 0.09,-0.29 0.14,-0.46l0.8 -2.22c0.12,-0.35 0.18,-0.57 0.31,-0.9l0.79 -2.23c0.06,-0.19 0.05,-0.35 0.14,-0.54 0.3,0.07 1.25,1.09 1.49,1.38 0.12,0.14 0.08,0.13 0.19,0.26l1.67 1.72c0.87,0.64 0.07,1.02 -0.52,1.89l-3.32 4.45c-0.67,1 -0.8,1.08 -0.8,2.37 0,0.18 0.15,0.37 0.25,0.58 0.18,0.36 0.49,0.68 0.88,0.85 1.27,0.58 2.37,0.05 3.1,-1.06 0.12,-0.18 0.21,-0.29 0.34,-0.48l1.34 -1.91c0.58,-0.76 2.01,-3.04 2.47,-3.34l1.19 1.07c0.47,0.31 0.39,0.6 0.39,1.27 0,1.07 -0.21,2.95 0.28,3.72 0.3,0.47 0.58,0.72 1.16,0.87 0.76,0.21 1.78,0.1 2.36,-0.48 0.36,-0.36 0.53,-0.96 0.57,-1.46 0.03,-0.4 -0.19,-2.46 0.26,-1.48l0.33 0.73c0.64,1.14 2.25,2.1 3.51,2.44 0.18,0.05 0.28,0.02 0.47,0.06 1.28,0.29 2.6,0.37 3.91,0.16 1.07,-0.18 1.9,-0.3 2.92,-0.77 0.02,-0.01 0.08,-0.04 0.1,-0.05l1.03 -0.55c0.27,-0.21 0.52,-0.34 0.76,-0.58l0.58 -0.8c0.12,-0.26 0.09,-0.16 0.19,-0.49 0.59,-1.98 -1.52,-3.28 -3.03,-1.83 -1.82,1.74 -1.99,2.17 -4.62,2.17 -0.73,0 -2.11,-0.61 -2.11,-1.51 0,-0.52 -0.01,-0.71 0.39,-1.11 0.45,-0.45 1.22,-0.58 1.82,-0.74 2.35,-0.65 6.36,-1.03 7.31,-3.55 0.05,-0.14 0.09,-0.28 0.13,-0.4 0.08,-0.22 0.05,-0.15 0.09,-0.44 0.19,-1.13 0.18,-2.26 -0.46,-3.28 -0.86,-1.38 -2.07,-2.02 -3.68,-2.43 -1.01,-0.25 -2.07,-0.27 -3.13,-0.27 -0.95,0 -2.41,0.27 -3.3,0.63 -0.23,0.09 -0.36,0.14 -0.6,0.23 -2.92,1.18 -2.5,3.59 -1.34,4.15 0.79,0.38 1.58,0.23 2.26,-0.28 0.52,-0.39 0.9,-0.86 1.5,-1.14 0.88,-0.41 1.97,-0.5 2.95,-0.31 0.44,0.09 0.39,0.07 0.73,0.24 0.51,0.25 0.81,0.51 0.81,1.16 0,0.32 -0.09,0.51 -0.22,0.68 -0.08,0.1 -0.37,0.32 -0.5,0.4 -0.41,0.23 -0.91,0.32 -1.43,0.45l-2.27 0.53c-1.18,0.36 -2.34,0.63 -3.42,1.26 -0.58,0.34 -1.67,1.23 -1.74,2.03l-0.3 0c0.04,-0.17 0.08,-0.17 0.08,-0.38 0,-1.86 0.13,-13.42 -0.09,-14.32 -0.45,-1.79 -3.28,-1.94 -4.1,-0.28 -0.13,0.27 -0.19,0.55 -0.19,0.94l0 10.26c-0.31,-0.03 -0.54,-0.41 -0.85,-0.74l-3.06 -3.35c-0.15,-0.19 -0.15,-0.23 -0.34,-0.42 -0.19,-0.19 -0.22,-0.22 -0.39,-0.44 -0.14,-0.19 -0.64,-0.67 -0.78,-0.8 -0.45,-0.41 -1.26,-0.66 -1.86,-0.46l-0.71 0.35c-0.27,0.21 -0.44,0.48 -0.7,0.66 -0.15,-0.11 -0.18,-0.21 -0.32,-0.36 -0.72,-0.77 -1.77,-0.85 -2.73,-0.49 -0.45,0.17 -0.86,0.66 -1.02,1.09 -0.05,0.12 -0.1,0.27 -0.13,0.4l-0.61 2.11c-0.04,0.19 -0.02,0.27 -0.07,0.45l-0.38 1.28c-0.31,1.27 -0.79,2.52 -1.03,3.8 -0.02,0.12 -0.09,0.28 -0.13,0.4 -0.07,0.2 -0.05,0.22 -0.1,0.43 -0.04,0.15 -0.08,0.2 -0.14,0.39l-0.33 1.25c-0.07,0.31 -0.01,0.26 -0.27,0.33l-0.32 -1.19c-0.04,-0.17 -0.08,-0.18 -0.13,-0.4l-1.32 -4.94c-0.08,-0.28 -0.14,-0.47 -0.21,-0.77l-0.57 -2.07c-0.11,-0.45 -0.15,-0.81 -0.33,-1.26 -0.16,-0.4 -0.37,-0.81 -0.71,-1.1 -0.45,-0.4 -1.05,-0.42 -1.62,-0.42 -0.26,0 -0.27,0.08 -0.47,0.13 -0.29,0.08 -0.27,0.04 -0.48,0.2 -0.28,0.21 -0.43,0.46 -0.71,0.65 -0.27,-0.4 -0.5,-0.7 -0.96,-0.85 -0.44,-0.14 -0.66,-0.14 -1.15,-0.14 -0.53,0 -1.15,0.25 -1.38,0.73l-0.28 1.76zm-30.21 -0.64c-0.01,0.02 -0.08,0.14 -0.08,0.15 -0.03,0.18 -0.01,0.1 0.03,0.2l0.05 -0.35zm-4.18 -1.34l-0.01 1.47c0.16,-0.3 0.17,-1.16 0.01,-1.47zm24.55 1.37c0.06,-0.2 -0.07,-0.01 -0.07,0.02 0,0.01 0.04,0.09 0.07,-0.02zm-17.75 -1.08l-0.04 0.24c0.35,-0.13 0.39,-0.07 0.76,-0.1l-0.6 -0.03 -0.12 -0.11zm0 0c0.12,-0.17 -0.2,-0.1 0.27,-0.14 0.06,-0 0.29,0.01 0.38,0.01l0 -0.38 -2.19 0c0,0.82 0.19,0.15 0.83,0.45 0.21,0.42 0.08,1.67 0.08,2.26l0.45 0 -0 -1.81c-0.01,-0.53 -0.06,-0.39 0.18,-0.39zm31.45 -0.17c-0.07,-0.08 -0.1,0.1 -0.03,0.04 0.15,-0.14 0.05,-0.02 0.03,-0.04zm-36.15 2.38c0.45,0 0.16,-0.05 0.27,-1.09 0.04,-0.41 -0.22,-0.57 0.11,-0.8 0.25,0.19 0.16,0.43 0.37,0.98 0.23,0.6 0.16,0.9 0.68,0.9l0.54 -1.5c0.1,-0.31 0,-0.3 0.29,-0.38l0 1.89c0.65,0 0.45,0.13 0.45,-2.72l-0.75 0 -0.34 0.95c-0.19,0.56 -0.19,0.77 -0.42,0.94l-0.5 -1.38c-0.07,-0.21 -0.1,-0.34 -0.18,-0.5l-0.75 0 0 2.11c-0,0.32 -0.09,0.6 0.23,0.6zm72.63 -7.05l-0.2 0.03c0.06,0.03 -0.12,0.19 0.2,-0.03zm4.63 -0.16c-0.23,-0.01 -0.41,0.06 -0.59,0.09l1.13 -0.04c-0.12,0.08 -0.3,-0.04 -0.54,-0.06zm-35.86 -1.96c0,-0.01 -0.01,-0.01 -0.02,-0.01 -0.06,-0.07 -0,-0.02 0.03,0.01l-0.01 0zm25.68 1.47l0.06 0.02c0.38,0 0.56,-0.1 0.99,-0.1l1.51 0c1.11,0 2.95,0.46 3.95,0.88 0.77,0.33 0.39,0.27 1.19,-0.04 0.28,-0.11 0.45,-0.2 0.79,-0.27 1.7,-0.38 3.55,-0.16 5.03,0.77l0.84 0.66c0.15,0.11 0.16,0.09 0.29,0.23l1.17 1.62c0.07,0.14 0.02,0.02 0.1,0.21 0.45,1.02 0.59,1.78 0.59,2.95 0,1.27 -0.38,2.63 -1.22,3.6 -0.37,0.42 -0.26,0.56 -0.81,0.85 0,1.08 0.02,2.18 -0.08,3.16 -0.04,0.43 -0.21,0.89 -0.29,1.29 -0.25,1.2 -0.83,2.4 -1.47,3.43l-0.67 0.99c-0.56,0.65 -1.05,1.24 -1.67,1.8l-0.77 0.66c-1.13,0.86 -2.35,1.47 -3.67,1.99 -0.76,0.3 -2.73,0.63 -3.52,0.63l-2.99 -0.25c-0.93,-0.26 -1.49,-0.24 -2.6,-0.8 -0.81,-0.41 -1.43,-0.7 -2.19,-1.21 -0.32,0.21 -0.52,0.54 -0.75,0.83l-0.81 0.77c-0.18,0.17 -0.24,0.19 -0.42,0.34 -0.44,0.38 -0.94,0.66 -1.45,0.97 -0.19,0.11 -0.33,0.18 -0.51,0.25l-0.86 0.35c-0.2,0.08 -0.02,0.03 -0.26,0.11 -1.1,0.38 -2.17,0.53 -3.47,0.53 -0.08,0.34 -0.23,0.67 -0.41,0.95 -0.19,0.31 -0.32,0.63 -0.55,0.88 -0.38,0.42 -0.95,1.17 -1.43,1.44l-1.8 1c-1.48,0.69 -3.52,0.61 -4.96,0.05l-1.41 -0.7 -1.2 -0.99c-0.5,-0.5 -0.86,-1.02 -1.24,-1.63 -0.2,-0.31 -0.35,-0.61 -0.44,-1 -0.12,0.09 -1,1.34 -1.53,1.79 -2.17,1.84 -5.6,2.04 -7.89,0.31l-1.12 -0.99c-0.29,-0.29 -0.52,-0.66 -0.73,-1.01 -0.34,-0.56 -0.57,-1.19 -0.72,-1.84 -1.37,0 -1.71,0.19 -3.28,-0.12 -0.71,-0.14 -1.12,-0.32 -1.73,-0.53 -0.23,-0.08 -0.61,-0.23 -0.79,-0.34 -0.45,-0.27 -1.01,-0.52 -1.39,-0.87l-0.66 -0.55c-0.66,0.44 -1.39,0.8 -2.11,1.13 -2.51,1.14 -5.01,1.16 -7.65,0.63l-1.18 -0.33c-0.21,-0.08 -0.33,-0.09 -0.56,-0.2l-1.96 -0.98c-1.09,-0.6 -2.4,-1.85 -3.16,-2.81 -0.67,-0.85 -1.26,-1.82 -1.7,-2.83 -0.4,-0.93 -0.67,-1.91 -0.87,-2.9 -0.22,-1.07 -0.16,-2.49 -0.06,-3.57 0.04,-0.42 0.13,-0.56 0.16,-0.9 -0.37,-0.03 -0.12,-0 -0.34,-0.11 -0.02,-0.01 -0.08,-0.04 -0.1,-0.05 -1.43,-0.75 -2.58,-2.23 -2.58,-3.91 0,-1.15 0.13,-2.3 0.85,-3.15 0.19,-0.22 0.32,-0.4 0.53,-0.61 1.45,-1.45 3.99,-1.88 5.79,-0.7l0.66 0.47c0.55,0.54 0.31,0.17 1.75,-0.54 0.57,-0.28 0.99,-0.47 1.65,-0.69 0.82,-0.27 1.93,-0.6 2.87,-0.6l2.19 0c0.99,0.01 2.3,0.36 3.27,0.73 0.94,0.37 1.85,0.9 2.69,1.46 0.91,-0.61 1.09,-0.93 2.32,-1.22 0.79,-0.19 1.85,-0.12 2.58,0.09 0.23,0.06 0.39,0.14 0.59,0.24 0.23,0.11 0.38,0.21 0.69,0.21 0.14,-0.51 0.89,-1.36 1.26,-1.75 0.13,-0.13 0.1,-0.13 0.2,-0.25l0.9 -0.84c0.13,-0.11 0.12,-0.08 0.26,-0.19l1.86 -1.23c0.23,-0.11 0.42,-0.15 0.65,-0.26 1.12,-0.56 2.23,-0.78 3.63,-0.83 0.3,-0.01 0.41,-0.12 0.74,-0.08 0.3,0.04 0.44,0.06 0.84,0.07l1.16 0.2c0.93,0.19 0.91,0.24 1.71,0.48 0.75,0.22 1.7,0.74 2.33,1.22 1.04,0.79 1.44,1.25 2.3,2.16 0.16,0.17 0.24,0.34 0.43,0.47 0.44,-0.29 0.81,-0.69 1.27,-1 2.58,-1.7 5.73,-2.16 8.63,-0.9 0.32,0.14 0.64,0.37 0.97,0.46 0.04,-1.69 0.94,-3.41 2.28,-4.41l0.09 -0.06c0.02,-0.01 0.07,-0.05 0.09,-0.07 0.49,-0.38 1.01,-0.63 1.59,-0.84 0.95,-0.34 1.55,-0.28 2.59,-0.28 0.26,0 0.34,0.05 0.56,0.12 0.88,0.3 1.45,0.53 2.18,1.07 0.03,0.02 0.07,0.03 0.14,0.09l0.38 0.29c0.15,0.13 0.17,0.24 0.34,0.41 0.91,0.91 1.37,2.18 1.45,3.45 0.02,0.23 0.03,0.17 0.05,0.32l0.03 0.21z"/>
    <path class="fil23" d="M423.87 174.56c0.01,-0.17 -0.17,0.02 -0.1,0.03 0,0 0.02,0 0.02,0 0.06,-0.01 0.07,0.08 0.08,-0.03zm-2.12 0l-0.17 -0.04c0.11,0.09 0.03,0.12 0.17,0.04zm2.41 -0.15c0,-0.06 -0.1,-0.05 -0.08,0.02 0.02,0.06 0.07,0.18 0.08,-0.02zm2.21 -4.83c0,2.13 -0.11,2.35 -0.91,3.92 -0.83,1.63 -4.4,2.34 -5.75,-0.44 -0.91,-1.87 -0.82,-4.27 -0.02,-6.17 0.26,-0.62 1.12,-1.5 1.93,-1.76 0.94,-0.3 2.44,-0.26 3.2,0.56 0.01,0.01 0.03,0.03 0.04,0.04l0.13 0.1c0.31,0.21 0.3,0.22 0.5,0.56 0.59,1.03 0.88,1.87 0.88,3.2z"/>
    <path class="fil23" d="M410.45 168.3c-1.27,0 -6.98,0.11 -7.77,-0.08 0,-0.48 0.22,-1.02 0.38,-1.36 0.31,-0.67 0.61,-0.95 1.11,-1.45 0.24,-0.24 0.27,-0.2 0.55,-0.36l0.62 -0.28c1.24,-0.37 2.99,-0.11 3.74,0.61 0.71,0.68 1.48,1.63 1.58,2.66 0.02,0.19 0.01,0.27 -0.21,0.27z"/>
    <path class="fil23" d="M392.21 162.1c0.15,0.3 0.15,1.16 -0.01,1.47l0.01 -1.47z"/>
    <path class="fil23" d="M477.73 164.39c-0.14,-0.3 -0.15,-1.15 0.02,-1.45l-0.02 1.45z"/>
    <path class="fil23" d="M472.1 157.45l-1.13 0.04c0.18,-0.03 0.35,-0.1 0.59,-0.09 0.24,0.01 0.42,0.13 0.54,0.06z"/>
    <path class="fil23" d="M399.01 162.39l0.12 0.11 0.6 0.03c-0.37,0.03 -0.41,-0.04 -0.76,0.1l0.04 -0.24z"/>
    <path class="fil23" d="M396.31 163.58c0,-0.01 0.07,-0.13 0.08,-0.15l-0.05 0.35c-0.04,-0.1 -0.06,-0.02 -0.03,-0.2z"/>
    <path class="fil23" d="M460.08 169.05c-0,0.14 -0.06,0.11 -0.08,0.01 -0.02,-0.07 0.09,-0.14 0.08,-0.01z"/>
    <path class="fil23" d="M423.87 174.56c-0.01,0.11 -0.01,0.02 -0.08,0.03 0,0 -0.02,0 -0.02,0 -0.07,-0.01 0.11,-0.2 0.1,-0.03z"/>
    <path class="fil23" d="M424.16 174.41c-0.01,0.2 -0.07,0.07 -0.08,0.02 -0.02,-0.07 0.09,-0.08 0.08,-0.02z"/>
    <path class="fil23" d="M466.93 157.55c-0.32,0.22 -0.15,0.06 -0.2,0.03l0.2 -0.03z"/>
    <path class="fil23" d="M444.69 187.4c0.03,0.07 -0.05,0.04 -0.07,0.05 -0.16,0.1 0.04,-0.15 0.07,-0.05z"/>
    <path class="fil23" d="M416.76 163.47c-0.03,0.1 -0.07,0.02 -0.07,0.02 0,-0.02 0.13,-0.21 0.07,-0.02z"/>
    <path class="fil23" d="M470.58 179.63c0.02,0.08 -0.11,0.07 -0.11,0.07 -0.04,-0 0.1,-0.14 0.11,-0.07z"/>
    <path class="fil23" d="M421.75 174.56c-0.14,0.09 -0.06,0.05 -0.17,-0.04l0.17 0.04z"/>
    <path class="fil23" d="M459.83 169.16c0.02,0.01 -0.09,0.05 -0.09,0.05 -0.11,-0.01 0.03,-0.09 0.09,-0.05z"/>
    <path class="fil23" d="M452.88 182.46c0.02,0.01 0.15,0.06 -0.07,0.03 -0.04,-0.01 -0.03,-0.09 0.07,-0.03z"/>
    <path class="fil23" d="M471.17 179.18c0.02,0.02 -0.06,0.05 -0.07,0.05 -0.13,0.09 0.01,-0.1 0.07,-0.05z"/>
    <path class="fil23" d="M430.46 162.22c0.02,0.02 0.12,-0.11 -0.03,0.04 -0.07,0.07 -0.04,-0.12 0.03,-0.04z"/>
    <path class="fil23" d="M435.68 155.42c0.01,0.01 0.02,0.01 0.02,0.01l0.01 0c-0.03,-0.04 -0.09,-0.09 -0.03,-0.01z"/>
   </g>
   <path class="fil24" d="M487.13 454.22l-96.42 0 0 38.57 96.42 0 0 -38.57zm-81.61 23.71l-0.16 -0.29c-0.21,-0.67 0.06,-0.43 -0.45,-1.08l0.77 0.23c-0.01,0.03 -0.06,0.08 -0.07,0.11l-0.09 1.03zm-1.66 -0.58c0.38,-0.16 0.11,0.05 0.37,-0.31 0.18,-0.23 0.01,-0.12 0.29,-0.45 0.27,0.42 0.29,0.49 0.12,1.33l-0.21 -0.77c-0.17,0.45 -0.05,0.36 -0.42,0.72l-0.16 -0.52c-0.33,0.1 -0.27,0.18 -0.27,-0.15 -0.02,1.02 -0.07,0.46 -0.24,0.71l0.01 -1.33c0.48,0.13 0.45,-0.18 0.51,0.76zm64.35 -10.74c-0.92,-2 2.25,-3.13 2.98,-1.24 0.82,2.14 -2.11,3.14 -2.98,1.24zm2.84 11.32l-2.74 -0.03 0.05 -9.04 2.75 -0.01 -0.06 9.08zm9.61 -0.11l-8.2 0.04 0.02 -2.58 5.23 -0.07c0.43,-1.5 0,-8.32 0.13,-10.54l2.78 0.03 0.05 13.12zm-13.97 -9.02c0.19,0.9 0.19,8.16 0.02,9.11l-2.69 -0.02c-0.18,-1.93 0.91,-6.71 -1.62,-6.77 -2.47,-0.06 -1.08,3.88 -1.57,6.79l-2.1 0 -0.59 -0.02c-0.17,-1.73 -0.18,-6.45 0.44,-7.75 0.86,-1.82 3.69,-2.2 5.49,-0.21l0.09 -1.09 2.53 -0.05zm-21.53 3.51c-0.38,-2.16 -3.32,-2.41 -3.63,-0l3.63 0zm-6.41 1.89c-0.59,-7.23 7.39,-6.86 8.93,-2.57 2.1,5.85 -5.93,8.64 -8.48,4.7 0.58,-0.46 1.27,-1.09 2.04,-1.39 1.1,1.52 3.3,1.54 3.9,-0.67l-6.39 -0.06zm12.5 3.46c-0.91,0.51 -2.6,0.24 -3.76,0.25 0.46,-0.87 2.75,-3.76 3.47,-4.81 -0.47,-0.83 -3.02,-3.4 -3.53,-4.23 2.52,-0.18 3.2,-0.25 4.04,0.79 0.47,0.59 1.83,2.34 2.43,2.69 -0.01,-1.67 0.21,-6.48 -0.11,-7.79l2.91 0 -0.06 13.36 -2.74 -0.03 -0.03 -4.28c-0.51,0.51 -0.96,1.28 -1.4,1.97 -0.22,0.34 -0.43,0.66 -0.67,1 -0.33,0.48 -0.46,0.61 -0.56,1.08zm-17.45 -6.42c-3.22,-1.18 -4.1,3.44 -1.72,4.26 3.17,1.1 4.18,-3.36 1.72,-4.26zm1.19 6.72c-0.58,0.09 -0.35,-0 -0.68,0.25 -1.52,-0.25 -2.6,-0.19 -3.37,-1.23l-0.33 0.95 -2.46 -0.04 0 -13.32 2.8 -0.02 0 5.13c0.04,-0.02 0.08,-0.06 0.1,-0.08l0.29 -0.24c1.01,-0.84 2.46,-0.98 3.65,-0.62 1.26,0.38 2.07,1.27 2.53,2.48 0.52,1.36 0.56,3 0.02,4.34 -0.54,1.36 -1.26,1.71 -2.56,2.39zm-12.4 -9.07l-2.76 0 0 0.73 0 6.19 0 0.83 0 1.26 2.76 -0 0 -9.01zm-7.81 0.49c-1.23,-1.09 -3.99,-1.11 -4.89,0.77 -0.58,1.21 -0.67,6.18 -0.43,7.75l2.64 -0.01c0.29,-1.86 -0.94,-6.82 1.6,-6.78 2.54,0.04 1.44,4.89 1.63,6.78l2.72 0.01 0.01 -9.03 -2.65 0.06 -0.01 1.07 -0.62 -0.62zm7.07 -4.8c-1.9,-0.95 -3.11,1.88 -1.43,2.84 1.8,1.02 3.54,-1.78 1.43,-2.84zm2.56 16.11c-1.98,0.07 -16.7,0.34 -17.41,-0.36 -0.72,-0.7 -0.38,-7.17 -0.38,-8.54 0,-2.97 -0.09,-6.08 0.03,-9.03 0.26,-0.62 0.52,-0.92 1.37,-1l12.54 -0.01c6.25,0 4.82,-1.71 4.82,15.23 0,1.82 0.39,2.93 -0.97,3.72z"/>
   <path class="fil25" d="M281.93 357.15c0.09,-0.96 0.08,-4.62 -0.41,-5.15 -0.69,-0.75 -9.43,-0.47 -10.83,-0.35 -2.47,0.22 -2.59,-0.34 -2.82,2.88 -0.07,1.06 -0.09,4.47 0.46,5.1 0.46,0.52 4.37,0.46 5.21,0.47 1.89,0.03 3.74,0.01 5.63,-0.05 3,-0.1 2.51,-0.12 2.76,-2.89zm0.98 -66.1l-8.14 0 -1.6 0c-0.26,0.03 -0.48,0.08 -0.65,0.18 -1.84,1.13 -2.7,1.69 -4.38,3.07l-1.36 1.09 -0 5.49c2.63,-0.09 5.17,-0.26 7.84,-0.23 3.58,0.03 3.6,-0.03 3.56,4.48 -0,0.78 -0.05,3.19 -0.34,3.68 -0.62,1.02 -10.2,0.75 -11.06,0.53l0.04 2.22 13.89 0c0.59,0 1.5,-0.15 1.43,0.56 -0.06,0.6 -0.88,0.44 -1.51,0.44l-13.85 0 0.04 37.03 8.64 0c0.64,0 2.34,-0.27 2.25,0.55 -0.08,0.71 -1.7,0.45 -2.4,0.45 -2.84,0 -5.69,0 -8.53,0l0 11.13 9.92 0c0.33,-0.21 5.72,-0.07 6.59,-0.07 0.55,-0.83 2,-2.2 2.72,-2.91 0.18,-0.18 0.23,-0.2 0.41,-0.35l1.14 -0.91c0.53,-0.39 1.14,-0.77 1.74,-1.08 0.3,-0.16 0.68,-0.31 0.99,-0.45 0.32,-0.15 0.66,-0.25 1,-0.37 0.7,-0.25 1.38,-0.47 2.15,-0.66 0.63,-0.16 3.97,-0.93 4.45,-1.17l-0.26 -1.55c-1.04,-0.38 -1.33,-0.61 -1.59,-1.75 -0.2,-0.84 -0.54,-1.92 -0.64,-2.72l-5.49 -0.1c-0.52,2.38 -1.25,2.29 -2.92,1.75 -0.68,-0.22 -1.32,-0.43 -2.01,-0.65 -1.22,-0.39 -1.03,-0.82 -1.3,-1.27 -1.54,-0.14 -3.13,-0.09 -4.64,-0.32 -0.99,-0.15 -1.05,-0.32 -1.06,-1.37l-0.01 -12.25c0,-2.11 -0.03,-17.06 0.59,-18.93 5.44,-0.05 10.91,-0.25 16.37,-0.29 1.21,-0.01 7.4,-0.12 7.91,0.44 0.49,0.54 0.45,6.6 0.45,7.83l1.81 -3.22c2.23,-4.42 2.6,-9.22 -0.68,-13.26 -0.73,-0.9 -1.55,-1.85 -2.53,-2.49 -2.09,-1.38 -6.58,-2.16 -8.96,-3.36 -3.58,-1.8 -2.59,-2.77 -4.56,-5.41 -0.7,-0.94 -1.62,-1.71 -2.56,-2.38 -0.5,-0.36 -1.81,-1.18 -2.39,-1.34 -0.05,-0.01 -0.22,-0.03 -0.49,-0.03zm-2.41 9.92c-0.22,1.62 -0.25,3.62 -0.29,5.29 -0.07,3.02 0.12,2.68 2.77,2.82 1.79,0.1 3.67,0.07 5.48,0.06 0.9,-0.01 1.78,-0.03 2.66,-0.07 0.71,-0.03 2.01,0.1 2.35,-0.4 0.59,-0.87 0.19,-7.24 -0.1,-7.64 -0.59,-0.8 -6.74,-0.44 -7.72,-0.38 -1.63,0.09 -3.56,0.1 -5.15,0.31z"/>
   <g>
    <path class="fil25" d="M289.73 336.98c-0.22,-0.11 -4.74,-0.06 -5.61,-0.06 -1.01,0 -0.82,0.79 -0.4,0.93l5.66 0.03c0.79,-0.02 0.89,-0.64 0.36,-0.9zm8.83 -3.51c-0.32,-0.11 -11.99,-0.02 -14.29,-0.03 -1.33,-0.01 -0.86,0.84 -0.57,0.93 0.39,0.12 11.98,0.01 14.34,0.03 1.32,0.01 0.91,-0.79 0.52,-0.92zm0 -3.8c-0.32,-0.11 -11.99,-0.02 -14.29,-0.03 -1.33,-0.01 -0.86,0.84 -0.57,0.93 0.39,0.12 11.98,0.01 14.34,0.03 1.32,0.01 0.91,-0.79 0.52,-0.92zm-7.85 -9.2c-1.59,-0.22 -2.71,1.2 -2.76,2.68 -0.05,1.5 1.23,2.8 2.71,2.83 1.54,0.04 2.97,-1.17 2.86,-2.74 -0.11,-1.49 -1.36,-2.57 -2.81,-2.77zm-6.72 2.3c0,0 0,0 0,0l0 0zm10.59 2.7c0.23,0.91 0.65,0.81 1.51,1.08 0.96,0.3 1.45,0 1.84,-0.54 0.33,-0.45 0.94,-1.5 -0.22,-1.4 -0.96,1.13 -0.18,1.4 -2.14,0.79 -0.74,-2.34 1.21,-5.51 -0.18,-5.36 -0.39,0.04 -0.42,0.41 -0.5,0.81 -0.14,0.72 -0.26,1.49 -0.34,2.24 -0.08,0.73 -0.15,1.68 0.03,2.39zm-3.11 -9.47c-1.27,-0.64 -2.04,1.43 -0.79,1.89 1.22,0.44 2.09,-1.23 0.79,-1.89zm10.59 -0.59c0.21,0.89 0.19,2.66 0.21,3.64 0.11,5.01 0.04,10.39 -0.08,15.36 -0.07,2.9 -0.09,6.11 -0.35,8.97 -1.02,-0.31 -3.17,0.41 -4.27,0.68 -1.45,0.35 -2.75,0.43 -2.42,2.67l-4.91 -0.08c0.1,-0.44 0.37,-1 0.39,-1.43 0.05,-1.45 -1.81,-1.59 -3.4,-2.12 -0.67,-0.22 -1.92,-0.75 -2.4,0.62 -0.23,0.68 -0.62,2.26 -0.94,2.73 -1.48,0.02 -3.49,-0.13 -4.94,-0.33 -0.07,-5.32 -0.13,-29.03 0.41,-30.61 5.8,-0.11 11.93,-0.31 17.69,-0.26 1.65,0 3.39,0 5.01,0.17z"/>
   </g>
   <path class="fil26" d="M257.69 349.33c0.25,0.61 1.44,2.6 1.82,3.21 1.4,2.25 2.52,3.89 4.07,5.97 0.39,0.52 0.7,0.93 1.09,1.42 0.33,0.42 0.76,1.07 1.12,1.39 0.09,-1.33 0.01,-2.9 0.01,-4.26l0 -14.75c0,-0.82 0.12,-1.54 -0.19,-1.96l-3.49 -4.95c-0.57,-0.82 -1.13,-1.68 -1.73,-2.46 -0.32,-0.58 -2.51,-3.52 -3.05,-4.38 -0.82,0.39 -1.32,0.71 -2.52,0.61 -1.04,-0.09 -1.62,-0.3 -2.2,-0.94 -0.09,0.06 -0.04,0.02 -0.13,0.12 -0.01,0.02 -0.06,0.07 -0.07,0.09 -1.41,1.75 -2.87,5.75 -3.31,8.02 -0.26,1.33 -1.55,9.81 -1.3,10.44 0.5,0.57 1.3,1.04 1.76,1.6 -0.13,0.24 -0.39,0.54 -0.61,0.67 -0.69,-0.54 -1.36,-1.17 -2.05,-1.75 -0.73,-0.61 -1.12,-1.22 -1.71,-2.02 -0.31,-0.43 -2.83,-4.29 -3.03,-4.45 -0.36,0.98 -1.42,1.84 -2.31,2.33 -0.72,0.4 -2.43,1.21 -3.26,1.4l0.53 0.88c0.74,1.3 5.46,7.3 6.63,8.42l1.42 1.32c2.2,1.88 3.05,2.52 5.28,0.78 0.78,-0.61 1.69,-2.01 2.24,-3.24 0.91,-2.04 1.47,-4.21 1.74,-6.48 0.22,-1.83 0.09,-1.32 -0.18,-2.45 1.15,0 0.98,-0.05 1.33,0.9 0.34,0.92 1.6,3.82 2.08,4.53zm-19.64 -58.29l-1.64 0c-0.38,0.03 -0.69,0.07 -0.83,0.15 -0.69,0.36 -1.46,1.03 -1.99,1.58 -1.08,1.11 -0.92,2.54 -1.9,3.5 -1.49,1.46 -2.89,0.89 -4.26,1.21 -1.11,0.27 -2.63,1.24 -3.24,2.16 -0.52,0.78 -0.54,1.76 -0.55,3.03 -0.01,2.1 1.12,5.24 1.84,7.22l1.59 3.81c-0.36,0.24 -0.57,0.61 -0.89,0.93 -0.81,0.8 -1.8,2.07 -2.28,3.12 -0.5,1.09 0.14,1.98 1.3,1.84 1.6,-0.2 1.98,-0.61 2.78,-0.8 0,0.54 0.19,1.45 0.3,1.9 0.52,1.96 1.97,3.84 3.73,4.86 2.35,1.36 2.75,0.49 2.74,1.52 -0,0.71 -0.01,1.42 -0.01,2.14 -0.46,0.04 -1.39,0.26 -1.82,0.39 -0.62,0.18 -1.06,0.19 -1.41,0.71 -0.3,0.45 -0.46,0.95 -0.42,1.71 0.04,0.71 0.32,1.08 0.61,1.52 -0.15,0.29 -0.28,0.48 -0.37,0.84 -0.23,0.96 -0.01,2.1 0.83,2.66 -0.41,0.85 -0.21,2.13 0.32,2.72 0.42,0.47 0.6,0.05 0.87,0.88 0.7,2.17 1.92,3.78 3.13,5.62l3.72 5.02c0.28,0.34 0.51,0.63 0.8,0.96l2.47 2.77c1.29,1.29 3.68,3.44 5.52,2.98 1.69,-0.43 2.87,-1.88 3.77,-3.22 1.14,-1.7 2.58,-6.19 2.58,-7.91 0.07,0.08 0.01,-0.01 0.1,0.13 0.05,0.08 0.03,0.05 0.08,0.15l0.38 0.84c0.2,0.4 0.36,0.71 0.56,1.11 1.89,3.79 5.2,8.73 7.76,11.86 0.14,0.18 0.22,0.3 0.35,0.48 0.15,0.2 0.18,0.24 0.38,0.25l1.79 0 0 -11.13c2.84,0 5.69,0 8.53,0 0.7,0 2.32,0.26 2.4,-0.45 0.09,-0.82 -1.61,-0.55 -2.25,-0.55l-8.64 0 -0.04 -37.03 13.85 0c0.63,0 1.45,0.16 1.51,-0.44 0.07,-0.7 -0.85,-0.56 -1.43,-0.56l-13.89 0 -0.04 -2.22c0.87,0.22 10.44,0.49 11.06,-0.53 0.29,-0.49 0.34,-2.9 0.34,-3.68 0.04,-4.51 0.02,-4.44 -3.56,-4.48 -2.67,-0.02 -5.21,0.15 -7.84,0.23l0 -5.49c0.01,-0.44 0.06,-0.81 -0.21,-1.01 -0.33,-0.24 -0.54,0.02 -0.77,0.17l0 26.17 -3.4 0.32c-1.39,0.24 -1.88,0.5 -2.91,0.74l1.58 -3.6c0.44,-1.01 0.23,-1.12 -0.97,-1.12 -0.86,0 -1.72,0 -2.59,0 0.03,-0.3 0.13,-0.59 0.19,-0.96 0.3,-1.84 0.37,-3.24 0.06,-5.14 -0.11,-0.67 -0.25,-1.21 -0.39,-1.81 0.22,-0.32 0.5,-0.48 0.75,-0.85 1.32,-1.95 0.63,-4.24 -1.39,-5.05 -0.75,-0.3 -1.89,-0.38 -2.63,-0.03 -0.18,-0.26 -1.61,-1.73 -1.98,-1.83 0.15,-0.55 3.73,-3.62 2.11,-4.93 -1.1,-0.89 -4.69,0.94 -5.76,1.5 -0.24,-0.36 -0.61,-0.56 -0.93,-0.89l-1.93 -1.72c-0.35,-0.27 -0.62,-0.51 -0.96,-0.79 -1.49,-1.22 -3.81,-2.76 -5.66,-3.39 -0.16,-0.06 -0.5,-0.1 -0.92,-0.12zm-2 52.82c0.65,-0.15 1.86,-0.69 2.48,-0.98 1.15,-0.52 2.19,-1.16 2.77,-2.25 0.31,-0.58 0.36,-0.64 0.04,-1.1l-1.41 -1.97c0.11,1.3 -0.26,1.85 -1.23,2.23 -1.18,0.45 -3.09,0.38 -4.48,0.38 0.27,1.02 1.26,3.05 1.82,3.69zm-2.92 -6.8c-0.01,0.59 -0.4,0.94 -0.08,1.78 0.21,0.56 1.19,0.37 1.78,0.38 1.08,0.01 2.93,0.05 3.78,-0.44 0.52,-0.29 0.54,-1.06 0.15,-1.47 -0.33,-0.35 -1.24,-0.27 -1.8,-0.33 -2.82,-0.27 -1.31,-0.27 -3.84,0.08zm5.29 -3.51l-0.05 -0.2 -0.12 0.25c-0.09,0.08 -0.06,0.08 -0.4,0.01l-1.63 -0.19c-0.82,-0.01 -3.42,0.19 -3.8,0.9 -0.32,0.58 -0.17,1.5 0.21,1.85 0.08,0.02 2.19,-0.33 2.67,-0.36 0.93,-0.05 1.93,-0.03 2.84,0.09 0.57,0.08 0.84,0.22 1.35,-0.06 0.9,-0.49 0.63,-1.73 0.06,-2.04 -0.61,-0.34 -1.12,0.12 -1.12,-0.24zm-1.22 -3.38c-1.27,-0.18 -3.48,0.09 -4.6,0.54 -0.62,0.25 -0.65,1.4 -0.31,1.97 0.24,0.4 0.47,0.29 0.93,0.16 0.31,-0.08 0.73,-0.16 1.06,-0.22 2.73,-0.46 3.91,0.39 4.72,-0.08 0.62,-0.36 1.46,-1.91 -1.8,-2.37zm12.85 0.34l0 0zm0 0c-0.43,0.04 -2.63,1.13 -2.97,1.13 -0.67,-0.01 -0.44,-1.01 -0.39,-1.52 0.07,-0.64 0.09,-1.3 0.09,-1.97 -0.74,0.36 -3.3,0.61 -4.26,0.61 -1.63,0 -2.95,-0.3 -4.26,-0.61l0 1.22c0.29,0.14 0.67,0.18 1.02,0.35 0.24,0.12 0.23,0.12 0.41,0.27 0.03,0.03 0.14,0.13 0.16,0.15l0.19 0.2c0.61,0.69 0.52,1.36 0.35,2.08 1.64,0.38 1.85,2.49 1.2,3.49 -0.34,0.53 -0.63,0.57 -1.05,0.77 1.11,1.67 2.04,2.83 3.16,4.67 0.51,0.83 1.01,1.54 1.54,2.34 0.27,0.41 1.4,2.07 1.69,2.27 0,-2.46 1.14,-10.12 1.84,-12.08 0.09,-0.25 0.24,-0.53 0.34,-0.81l0.6 -1.68c0.12,-0.28 0.28,-0.58 0.35,-0.87zm1.93 -3.12c-0.22,-0.33 -0.7,-0.96 -0.94,-1.19 -0.43,0.19 -1,0.6 -1.53,0.88 -0.43,0.22 -1.39,0.55 -1.69,0.77l-0.18 2.52c0.68,-0.15 1.94,-0.76 2.66,-1.06 0.8,-0.33 0.55,-0.21 0.97,-0.86 0.23,-0.38 0.48,-0.68 0.71,-1.06zm-0.13 -1.75c0.16,0.27 0.31,0.42 0.51,0.66l1.01 1.27c0.53,0.68 1.87,0.76 2.66,0.54 1.69,-0.46 2.62,-2.65 1.62,-4.29l-1.9 -2.59c-1.21,2.33 -3.72,4.17 -3.89,4.41zm8.78 5.86c0.14,0.3 4.81,7.07 5.18,7.39l-0.02 -17.19c-0.79,0 -2.93,0.12 -3.54,0.35 -1.07,0.15 -3.05,0.78 -3.81,1.25 0.37,0.66 0.63,1.55 0.54,2.47 -0.1,1.08 -0.51,1.48 -0.92,2.13 0.24,0.38 2.41,3.49 2.57,3.6zm-23.8 -20.09c-4.16,-0.4 -7.41,2.69 -7.81,6.38 -0.46,4.18 2.69,7.46 6.34,7.88 4.17,0.48 7.54,-2.68 7.92,-6.34 0.45,-4.25 -2.69,-7.56 -6.44,-7.92zm20.34 6.59c-0.1,0.52 -0.48,1.38 -0.72,1.89 -0.14,0.29 -0.21,0.3 -0.07,0.55 0.05,0.09 1.4,1.94 1.42,1.96 0.09,0.05 0.06,0.16 0.3,-0.02 0.2,-0.15 1.91,-4.24 1.94,-4.34l-2.86 -0.03zm-29.1 -0.32c0.17,-2.51 1.53,-3.74 1.88,-4.45 -0.47,0.13 -1.58,0.56 -1.85,0.81l-1.31 1.35c-0.62,0.75 -1.65,1.82 -1.99,2.74 -0.51,1.37 3.01,-0.37 3.28,-0.45zm48.91 -9.52c0.32,-0.78 0.26,-5.87 0.06,-6.25 -0.1,-0.18 -0.02,-0.13 -0.35,-0.19l-1.48 -0.11c-2.81,-0.1 -5.66,0.08 -8.47,0.23l0.01 6.38c0.05,0.16 0.32,0.17 0.5,0.19 0.22,0.03 0.44,0.04 0.66,0.05 0.43,0.02 0.86,0.03 1.29,0.04 1.5,0.03 6.92,0.07 7.78,-0.35zm-36.72 3.29c0.09,0.14 0.73,0.6 0.86,0.67 0.2,0.13 0.55,0.45 0.7,0.59 1.69,1.59 2.49,3.95 2.43,6.39 1.47,0.2 0.85,-0.34 1.26,-1.19l0.58 -0.02c0.48,0.37 0.15,0.89 0.08,1.42 -0.28,0.26 -0.3,0.48 -0.72,0.66 -0.42,0.18 -0.79,0.14 -1.26,0.08 -0.05,0.09 0.01,-0.06 -0.08,0.17 -0,0.01 -0.05,0.15 -0.06,0.18 -0.43,1.54 -0.9,2.55 -2.01,3.76 -0.66,0.71 -1.79,1.47 -2.77,1.87 -0.76,0.31 -1.04,0.22 -1.03,0.53l-0.01 0.44c0.45,0.64 4.37,0.79 5.34,0.73 3.48,-0.24 7,-1.89 9.27,-4.25 0.44,-0.46 1.74,-2.01 1.93,-2.54l0.21 -0.27c0.35,-0.56 0.77,-1.5 1.02,-2.1 0.33,-0.84 0.59,-1.78 0.76,-2.74 0.27,-1.55 0.32,-4.85 -0.31,-6.23l-1.09 0.11 0.05 -0.93c1.18,-0.12 1.72,-0.6 2.13,-1.46 1.64,-3.47 -4.23,-4.81 -4.59,-1.36l-0.44 0.04c0.12,0.16 0.19,0.19 0.29,0.38 -0.45,0.18 -0.8,0.43 -1.38,0.61 -2.62,0.77 -4.09,-0.5 -4.8,-0.68 -0.42,0.48 -2.62,2.15 -3.18,2.59 -0.57,0.46 -1.09,0.84 -1.64,1.25 -0.44,0.33 -1.21,0.97 -1.65,1.18 -0.01,0.26 -0.03,0.08 0.12,0.11zm12.92 -7.7c-0.16,-0.37 -1.38,-1.48 -1.78,-1.74 -0.31,0.26 -0.63,0.62 -0.95,0.92l-2.96 2.71c0.58,0.68 2.63,0.74 3.62,0.46 1.08,-0.32 0.74,-0.22 1.09,-1.12 0.2,-0.51 0.65,-1.06 0.99,-1.22zm-11.63 -3.24l-1.7 1.4c-2.63,2.31 -5.92,4.58 -8.99,6.37 -0.84,0.49 -3.28,1.8 -4.1,2.08 0.14,0.81 0.88,1.86 1.07,2.62 1.06,-0.2 3.76,-1.53 4.74,-2.01 2.94,-1.47 5.64,-3.24 8.15,-5.23 0.55,-0.44 3.2,-2.71 3.48,-3.13 0.55,-0.35 3.3,-3.53 3.58,-3.89 -0.18,-0.32 -0.83,-0.89 -1.09,-1.12l-1.09 -1.01c-0.38,0.18 -0.71,0.68 -1.02,0.99 -0.42,0.43 -2.92,2.72 -3.02,2.94zm3.99 2.18l-2.3 2.15c-0.31,0.32 -0.83,0.69 -1.19,1.02 -1.98,1.78 -4.21,3.11 -6.43,4.54 1.09,0.14 1.66,0.01 2.79,0.34 0.88,0.25 0.45,0.39 1.92,-0.67l5.14 -3.99c0.98,-0.82 4.35,-3.67 4.76,-4.34 0.51,-0.31 1.59,-1.6 1.96,-2.02 0.37,-0.42 1.49,-1.74 1.45,-2.51 -1.17,-0.12 -4.4,1.19 -4.91,1.86l-3.18 3.64zm-11.72 -8.55c-0.57,1.11 -0.59,2.77 -2.83,3.77 -1.96,0.87 -2.94,-0.21 -5.12,1.42 -0.73,0.55 -1.11,0.9 -1.24,2.11 -0.22,2.1 1.09,7.06 1.77,8.03 5.24,-2.41 7.73,-4.33 11.94,-7.56 0.3,-0.23 0.52,-0.45 0.83,-0.69 0.25,-0.2 1.48,-1.18 1.54,-1.37 0.71,-0.52 3.51,-3.27 4.06,-3.89 -0.27,-0.33 -0.81,-0.7 -1.19,-0.99 -1.59,-1.26 -5.49,-4.01 -7.53,-2.95 -0.83,0.43 -1.86,1.34 -2.24,2.12z"/>
   <path class="fil27" d="M258.61 333.18c-1.28,-0.44 -1.88,1.48 -0.68,1.94 1.29,0.5 2.1,-1.46 0.68,-1.94zm1.79 -0.23c0.05,0.44 -2.42,15.54 -2.7,16.39 -0.48,-0.7 -1.74,-3.61 -2.08,-4.53 -0.35,-0.95 -0.18,-0.9 -1.33,-0.9 0.27,1.13 0.4,0.62 0.18,2.45 -0.27,2.27 -0.83,4.44 -1.74,6.48 -0.55,1.22 -1.46,2.63 -2.24,3.24 -2.23,1.74 -3.08,1.09 -5.28,-0.78l-1.42 -1.32c-1.18,-1.12 -5.89,-7.12 -6.63,-8.42l-0.53 -0.88c0.83,-0.19 2.54,-1 3.26,-1.4 0.89,-0.5 1.95,-1.35 2.31,-2.33 0.2,0.17 2.71,4.02 3.03,4.45 0.58,0.8 0.98,1.41 1.71,2.02 0.68,0.58 1.35,1.2 2.05,1.75 0.21,-0.14 0.48,-0.44 0.61,-0.67 -0.46,-0.56 -1.26,-1.03 -1.76,-1.6 -0.25,-0.63 1.04,-9.11 1.3,-10.44 0.44,-2.27 1.91,-6.26 3.31,-8.02 0.01,-0.02 0.06,-0.07 0.07,-0.09 0.09,-0.1 0.04,-0.05 0.13,-0.12 0.58,0.64 1.16,0.85 2.2,0.94 1.2,0.11 1.69,-0.21 2.52,-0.61 0.54,0.86 2.73,3.8 3.05,4.38z"/>
   <path class="fil26" d="M301.45 344.28c-0.41,-0.2 -2.3,0.36 -2.85,0.5 -3.05,0.77 -2.91,0.19 -2.02,3.79 0.19,0.77 0.28,2.29 0.95,2.55 0.42,0.17 2.26,-0.39 2.8,-0.52 3.24,-0.77 3.04,-0.05 1.74,-5.17 -0.16,-0.63 -0.12,-0.91 -0.62,-1.16zm-12.98 4.42c0.19,-0.24 1.3,-3.48 1.15,-3.74 -0.12,-0.21 -3.43,-1.3 -3.7,-1.17 -0.25,0.13 -1.31,3.47 -1.18,3.69 0.14,0.25 3.29,1.27 3.74,1.22zm15.4 0.13c0.31,1.62 -0.69,2.08 -1.9,2.36 -1.13,0.26 -2.23,0.55 -3.4,0.82l0.52 2.89c2.18,-0.09 4.77,-0.57 6.91,-0.89 2.19,-0.33 4.49,-0.8 6.65,-1.06 -0.07,-1.64 -2.57,-19.64 -2.81,-20.1 -1.11,-0.03 -3.72,0.38 -4.8,0.58l-1.88 0.3 -0.39 10.11c-0.03,0.62 0.92,4.45 1.1,4.98zm-1.81 -33.43c-1.62,-0.16 -3.36,-0.17 -5.01,-0.17 -5.76,-0.04 -11.89,0.16 -17.69,0.26 -0.54,1.58 -0.49,25.3 -0.41,30.61 1.45,0.2 3.46,0.35 4.94,0.33 0.32,-0.48 0.7,-2.05 0.94,-2.73 0.48,-1.37 1.72,-0.84 2.4,-0.62 1.59,0.52 3.45,0.67 3.4,2.12 -0.02,0.43 -0.29,0.99 -0.39,1.43l4.91 0.08c-0.33,-2.24 0.98,-2.32 2.42,-2.67 1.1,-0.27 3.26,-0.99 4.27,-0.68 0.27,-2.86 0.28,-6.07 0.35,-8.97 0.12,-4.97 0.2,-10.35 0.08,-15.36 -0.02,-0.98 -0,-2.75 -0.21,-3.64zm1.22 7.13c0.1,3.44 -0.07,6.84 -0.07,10.2 0.26,-0.02 0.61,-0.11 0.85,-0.14 1.19,-0.17 6.01,-0.97 6.5,-0.6 0.31,0.24 0.61,2.81 0.7,3.41l1.51 10.96c0.17,1.27 0.34,2.45 0.49,3.7 0.06,0.59 0.16,1.18 0.23,1.82 0.07,0.6 0.22,1.22 0.22,1.92l-13.04 1.95c-2.14,0.29 -2.33,0.23 -2.58,-0.93 -0.08,-0.33 -0.19,-0.77 -0.21,-1.09l-0.26 -1.55c-1.04,-0.38 -1.33,-0.61 -1.59,-1.75 -0.2,-0.84 -0.54,-1.92 -0.64,-2.72l-5.49 -0.1c-0.52,2.38 -1.25,2.29 -2.92,1.75 -0.68,-0.22 -1.32,-0.43 -2.01,-0.65 -1.22,-0.39 -1.03,-0.82 -1.3,-1.27 -1.54,-0.14 -3.13,-0.09 -4.64,-0.32 -0.99,-0.15 -1.05,-0.32 -1.06,-1.37l-0.01 -12.25c0,-2.11 -0.03,-17.06 0.59,-18.93 5.44,-0.05 10.91,-0.25 16.37,-0.29 1.21,-0.01 7.4,-0.12 7.91,0.44 0.49,0.54 0.45,6.6 0.45,7.83z"/>
   <path class="fil28" d="M303.87 348.83c0.64,-0.43 0.57,-2.66 0.62,-3.55 0.11,-1.86 0.6,-10.64 0.55,-11.84 1.08,-0.21 3.68,-0.61 4.8,-0.58 0.24,0.46 2.74,18.46 2.81,20.1 -2.16,0.25 -4.46,0.72 -6.65,1.06 -2.14,0.32 -4.73,0.8 -6.91,0.89l-0.52 -2.89c1.17,-0.27 2.27,-0.56 3.4,-0.82 1.2,-0.28 2.21,-0.74 1.9,-2.36z"/>
   <path class="fil29" d="M248.42 320.43c0.9,0.26 0.75,-0.24 0.83,-0.9 0.1,-0.9 0.79,-1.61 1.49,-2.01 0.34,-0.2 0.89,-0.57 0.43,-0.96 -0.75,-0.63 -3.61,2.02 -2.74,3.87zm-0.49 -9.56c-1.38,-0.48 -1.88,1.54 -0.71,1.94 1.33,0.45 1.97,-1.5 0.71,-1.94zm6.83 10.1c-0.19,0.52 -1.48,2.07 -1.93,2.54 -2.27,2.36 -5.79,4.01 -9.27,4.25 -0.97,0.07 -4.89,-0.09 -5.34,-0.73l0.01 -0.44c2.62,0 4.15,-0.86 5.55,-2.1 0.58,-0.51 1.18,-1.33 1.6,-2.2 0.51,-1.04 0.61,-1.71 0.79,-2.96 0.07,-0.53 0.4,-1.05 -0.08,-1.42 -0.2,-1.45 -0.83,-2.79 -1.53,-3.66 -0.62,-0.76 -1.22,-1.32 -2.05,-1.83 -0.24,-0.15 -0.49,-0.24 -0.72,-0.43 4.13,-0.65 6.3,-2.07 9.11,-3.88 0.32,0.33 1.24,2.15 1.51,2.7 1.68,3.42 2.57,6.16 2.36,10.15z"/>
   <path class="fil30" d="M235.27 320.47l-0.19 0.03c-0.07,0.29 -0.03,0.06 0.05,0.15 0.99,1.35 3.25,0.72 3.23,-1.09 -0.01,-0.84 -0.59,-1.47 -1.25,-1.67 -1,-0.3 -1.64,0.24 -2.02,0.7 0.46,0.29 0.77,0.22 0.87,0.84 0.09,0.55 -0.26,0.94 -0.68,1.03zm1.1 -6.12c-1.88,-0.14 -3.09,0.58 -3.83,1.56 -0.39,0.52 -0.67,1.11 -0.89,1.85 -0.48,1.61 0.6,1.42 0.78,0.78 0.24,-0.84 0.35,-1.32 0.79,-1.95 1.33,-1.93 3.67,-1.12 4.12,-1.19 0.42,-0.06 0.56,-0.6 0.22,-0.84 -0.22,-0.16 -0.88,-0.19 -1.18,-0.21zm0.46 -2.93c3.75,0.36 6.89,3.66 6.44,7.92 -0.38,3.66 -3.75,6.82 -7.92,6.34 -3.65,-0.42 -6.79,-3.7 -6.34,-7.88 0.4,-3.69 3.65,-6.78 7.81,-6.38z"/>
   <path class="fil27" d="M263.47 340.17c-1.33,-0.3 -1.72,1.7 -0.45,2.01 1.34,0.32 1.85,-1.7 0.45,-2.01zm-5.78 9.16c0.28,-0.85 2.75,-15.95 2.7,-16.39 0.6,0.78 1.16,1.65 1.73,2.46l3.49 4.95c0.31,0.42 0.19,1.13 0.19,1.96l0 14.75c0,1.36 0.07,2.93 -0.01,4.26 -0.36,-0.33 -0.78,-0.97 -1.12,-1.39 -0.39,-0.49 -0.7,-0.9 -1.09,-1.42 -1.54,-2.08 -2.67,-3.72 -4.07,-5.97 -0.38,-0.62 -1.56,-2.6 -1.82,-3.21z"/>
   <path class="fil30" d="M240.71 299.88c-0.06,0.18 -1.29,1.16 -1.54,1.37 -0.31,0.24 -0.53,0.46 -0.83,0.69 -4.21,3.23 -6.7,5.15 -11.94,7.56 -0.68,-0.97 -1.99,-5.93 -1.77,-8.03 0.13,-1.21 0.51,-1.56 1.24,-2.11 2.18,-1.63 3.17,-0.56 5.12,-1.42 2.24,-1 2.26,-2.66 2.83,-3.77 0.28,0.1 0.69,0.46 0.95,0.67 1.66,1.37 3.65,2.87 5.23,4.28 0.41,0.36 0.72,0.48 0.71,0.77z"/>
   <path class="fil29" d="M247.63 308.04c-2.6,-0.24 -4.03,3.05 -2.84,3.08 0.35,0.01 0.42,-0.18 0.52,-0.46 1.17,-3.22 3.68,-0.56 3.66,-1.97 -0.01,-0.54 -0.8,-0.61 -1.34,-0.66zm6.94 -0.07c0.55,0.2 0.7,0.1 0.97,-0.31 0.51,-0.77 0.62,-1.61 0.34,-2.51 -0.17,-0.55 -0.44,-0.58 -0.91,-0.35 -0.2,0.67 0.26,0.98 0.04,1.8 -0.21,0.75 -0.7,0.54 -0.43,1.38zm0.19 13c0.22,-3.99 -0.67,-6.73 -2.36,-10.15 -0.27,-0.55 -1.19,-2.38 -1.51,-2.7 -2.81,1.81 -4.98,3.24 -9.11,3.88 0.24,0.19 0.48,0.28 0.72,0.43 0.83,0.51 1.43,1.07 2.05,1.83 0.71,0.87 1.33,2.21 1.53,3.66l-0.58 0.02c-0.41,0.85 0.21,1.39 -1.26,1.19 0.07,-2.45 -0.74,-4.8 -2.43,-6.39 -0.15,-0.14 -0.51,-0.46 -0.7,-0.59 0.12,-0.1 -0.15,-0.03 0.24,-0.11 0.03,-0.01 0.22,-0.01 0.27,-0.02 -0.4,-0.28 -0.87,-0.34 -1.38,-0.54 -0.16,-0.03 -0.13,0.15 -0.12,-0.11 0.44,-0.21 1.21,-0.85 1.65,-1.18 0.55,-0.41 1.07,-0.79 1.64,-1.25 0.55,-0.44 2.75,-2.12 3.18,-2.59 0.71,0.18 2.18,1.46 4.8,0.68 0.57,-0.17 0.92,-0.42 1.38,-0.61 -0.1,-0.2 -0.17,-0.22 -0.29,-0.38l0.44 -0.04c0.36,-3.45 6.24,-2.11 4.59,1.36 -0.4,0.85 -0.95,1.34 -2.13,1.46l-0.05 0.93 1.09 -0.11c0.63,1.38 0.59,4.67 0.31,6.23 -0.17,0.96 -0.43,1.91 -0.76,2.74 -0.24,0.61 -0.66,1.54 -1.02,2.1l-0.21 0.27z"/>
   <path class="fil31" d="M280.8 352.74c0.28,1.17 0.26,4.98 0.01,6.19 -1.22,0.4 -10.01,0.19 -11.71,0 -0.38,-0.75 -0.38,-5.29 -0.05,-6.09 0.15,-0.22 1.09,-0.21 1.43,-0.22 1.91,-0.11 9.52,-0.37 10.32,0.11z"/>
   <path class="fil28" d="M292.66 308.02c-1.11,0.17 -10.13,0.26 -11.19,0.03 -0.41,-0.09 -0.29,-1.34 -0.28,-1.95 0.02,-1.27 0.04,-3.01 0.22,-4.24 1.68,-0.15 9.95,-0.6 11.05,-0.19l0.14 0.35c0.18,1.15 0.32,5.41 0.06,5.99z"/>
   <path class="fil32" d="M276.99 308.18c-0.85,0.41 -6.28,0.37 -7.78,0.35 -0.43,-0.01 -0.86,-0.02 -1.29,-0.04 -0.22,-0.01 -0.44,-0.02 -0.66,-0.05 -0.18,-0.02 -0.45,-0.03 -0.5,-0.19l-0.01 -6.38c2.81,-0.15 5.66,-0.33 8.47,-0.23l1.48 0.11c0.33,0.06 0.25,0.01 0.35,0.19 0.2,0.38 0.26,5.47 -0.06,6.25z"/>
   <path class="fil33" d="M244.19 302.62c-0.28,0.42 -2.93,2.7 -3.48,3.13 -2.51,1.99 -5.21,3.76 -8.15,5.23 -0.97,0.49 -3.68,1.81 -4.74,2.01 -0.19,-0.77 -0.93,-1.82 -1.07,-2.62 0.82,-0.28 3.26,-1.59 4.1,-2.08 3.08,-1.79 6.36,-4.06 8.99,-6.37l1.7 -1.4c0.26,-0.02 0.14,-0.03 0.36,0.17l1.64 1.4c0.24,0.19 0.41,0.37 0.63,0.52z"/>
   <path class="fil27" d="M260.63 331.52c0.2,-0.14 0.38,-1.84 0.44,-2.22 0.14,-0.81 0.27,-1.6 0.4,-2.41 0.23,-1.4 0.7,-3.46 0.78,-4.82 0.61,-0.23 2.75,-0.35 3.54,-0.35l0.02 17.19c-0.36,-0.32 -5.03,-7.09 -5.18,-7.39z"/>
   <path class="fil34" d="M240.71 299.88c0.02,-0.29 -0.3,-0.41 -0.71,-0.77 -1.58,-1.4 -3.57,-2.91 -5.23,-4.28 -0.26,-0.22 -0.67,-0.58 -0.95,-0.67 0.37,-0.78 1.41,-1.69 2.24,-2.12 2.04,-1.06 5.93,1.69 7.53,2.95 0.37,0.29 0.92,0.66 1.19,0.99 -0.55,0.62 -3.35,3.37 -4.06,3.89z"/>
   <path class="fil26" d="M280.8 352.74c-0.8,-0.49 -8.42,-0.22 -10.32,-0.11 -0.33,0.02 -1.27,0.01 -1.43,0.22 -0.33,0.8 -0.33,5.34 0.05,6.09 1.7,0.18 10.48,0.4 11.71,-0 0.25,-1.21 0.27,-5.03 -0.01,-6.19zm1.13 4.41c-0.25,2.78 0.24,2.8 -2.76,2.89 -1.89,0.06 -3.74,0.08 -5.63,0.05 -0.84,-0.01 -4.75,0.05 -5.21,-0.47 -0.55,-0.63 -0.54,-4.04 -0.46,-5.1 0.23,-3.22 0.34,-2.66 2.82,-2.88 1.4,-0.13 10.14,-0.4 10.83,0.35 0.49,0.53 0.5,4.19 0.41,5.15z"/>
   <path class="fil26" d="M292.66 308.02c0.26,-0.58 0.12,-4.84 -0.06,-5.99l-0.14 -0.35c-1.1,-0.41 -9.37,0.04 -11.05,0.19 -0.18,1.22 -0.21,2.97 -0.22,4.24 -0.01,0.61 -0.12,1.86 0.28,1.95 1.06,0.23 10.08,0.14 11.19,-0.03zm-12.15 -7.06c1.59,-0.21 3.51,-0.22 5.15,-0.31 0.98,-0.05 7.13,-0.42 7.72,0.38 0.29,0.39 0.68,6.77 0.1,7.64 -0.34,0.5 -1.63,0.37 -2.35,0.4 -0.88,0.03 -1.76,0.06 -2.66,0.07 -1.81,0.01 -3.69,0.04 -5.48,-0.06 -2.64,-0.14 -2.84,0.2 -2.77,-2.82 0.04,-1.67 0.07,-3.67 0.29,-5.29z"/>
   <path class="fil35" d="M301.45 344.28c0.5,0.25 0.47,0.53 0.62,1.16 1.29,5.12 1.5,4.4 -1.74,5.17 -0.54,0.13 -2.38,0.68 -2.8,0.52 -0.66,-0.26 -0.76,-1.78 -0.95,-2.55 -0.89,-3.6 -1.03,-3.02 2.02,-3.79 0.55,-0.14 2.44,-0.7 2.85,-0.5z"/>
   <path class="fil30" d="M245.54 302.71c0.73,-0.08 4.39,-1.11 4.68,-0.96 -0.4,0.67 -3.78,3.52 -4.76,4.34l-5.14 3.99c-1.47,1.06 -1.04,0.92 -1.92,0.67 -1.12,-0.32 -1.69,-0.2 -2.79,-0.34 2.22,-1.43 4.45,-2.76 6.43,-4.54 0.36,-0.33 0.88,-0.7 1.19,-1.02l2.3 -2.15z"/>
   <path class="fil36" d="M251.84 325.66c0.17,-0.23 2.68,-2.08 3.89,-4.41l1.9 2.59c1,1.64 0.06,3.83 -1.62,4.29 -0.78,0.22 -2.12,0.14 -2.66,-0.54l-1.01 -1.27c-0.19,-0.24 -0.35,-0.39 -0.51,-0.66z"/>
   <path class="fil34" d="M303.87 348.83c-0.18,-0.54 -1.13,-4.36 -1.1,-4.98l0.39 -10.11 1.88 -0.3c0.05,1.21 -0.44,9.98 -0.55,11.84 -0.05,0.89 0.02,3.12 -0.62,3.55z"/>
   <path class="fil27" d="M260.63 331.52c-0.16,-0.1 -2.33,-3.21 -2.57,-3.6 0.4,-0.66 0.81,-1.05 0.92,-2.13 0.09,-0.92 -0.17,-1.82 -0.54,-2.47 0.76,-0.46 2.74,-1.1 3.81,-1.25 -0.08,1.36 -0.55,3.42 -0.78,4.82 -0.14,0.81 -0.27,1.6 -0.4,2.41 -0.06,0.38 -0.24,2.08 -0.44,2.22z"/>
   <path class="fil29" d="M236.05 343.87c-0.56,-0.64 -1.55,-2.67 -1.82,-3.69 1.38,0.01 3.3,0.08 4.48,-0.38 0.97,-0.38 1.34,-0.93 1.23,-2.23l1.41 1.97c0.32,0.46 0.27,0.52 -0.04,1.1 -0.58,1.09 -1.62,1.73 -2.77,2.25 -0.62,0.28 -1.83,0.83 -2.48,0.98z"/>
   <path class="fil37" d="M244.19 302.62c-0.22,-0.16 -0.39,-0.33 -0.63,-0.52l-1.64 -1.4c-0.22,-0.2 -0.1,-0.19 -0.36,-0.17 0.1,-0.22 2.59,-2.5 3.02,-2.94 0.3,-0.31 0.64,-0.81 1.02,-0.99l1.09 1.01c0.27,0.23 0.92,0.8 1.09,1.12 -0.28,0.36 -3.04,3.54 -3.58,3.89z"/>
   <path class="fil34" d="M250.22 301.75c-0.28,-0.15 -3.95,0.89 -4.68,0.96l3.18 -3.64c0.52,-0.67 3.74,-1.98 4.91,-1.86 0.04,0.77 -1.08,2.08 -1.45,2.51 -0.37,0.42 -1.45,1.71 -1.96,2.02z"/>
   <path class="fil36" d="M238.23 333.62l0.18 -0.05c0,0.37 0.51,-0.09 1.12,0.24 0.57,0.31 0.84,1.55 -0.06,2.04 -0.51,0.28 -0.78,0.14 -1.35,0.06 -0.91,-0.12 -1.91,-0.14 -2.84,-0.09 -0.48,0.03 -2.59,0.38 -2.67,0.36 -0.38,-0.34 -0.53,-1.27 -0.21,-1.85 0.38,-0.71 2.99,-0.91 3.8,-0.9l1.63 0.19c0.34,0.07 0.31,0.07 0.4,-0.01z"/>
   <path class="fil35" d="M288.47 348.7c-0.45,0.05 -3.6,-0.96 -3.74,-1.22 -0.12,-0.22 0.94,-3.56 1.18,-3.69 0.27,-0.14 3.58,0.96 3.7,1.17 0.15,0.26 -0.96,3.5 -1.15,3.74z"/>
   <path class="fil38" d="M298.42 361.71l-8.44 0c0.31,-1.15 2.86,-2.82 4.33,-2.82 1.44,0 2.75,0.7 3.5,1.75 0.26,0.36 0.39,0.66 0.61,1.07z"/>
   <path class="fil36" d="M237.19 330.19c3.26,0.46 2.42,2.01 1.8,2.37 -0.81,0.47 -1.99,-0.38 -4.72,0.08 -0.33,0.06 -0.75,0.14 -1.06,0.22 -0.46,0.13 -0.68,0.24 -0.93,-0.16 -0.34,-0.57 -0.31,-1.72 0.31,-1.97 1.12,-0.45 3.33,-0.71 4.6,-0.54z"/>
   <path class="fil26" d="M298.56 333.47c0.39,0.13 0.81,0.93 -0.52,0.92 -2.36,-0.02 -13.95,0.09 -14.34,-0.03 -0.29,-0.09 -0.77,-0.94 0.57,-0.93 2.3,0.01 13.97,-0.08 14.29,0.03z"/>
   <path class="fil26" d="M298.56 329.67c0.39,0.13 0.81,0.93 -0.52,0.92 -2.36,-0.02 -13.95,0.09 -14.34,-0.03 -0.29,-0.09 -0.77,-0.93 0.57,-0.93 2.3,0.02 13.97,-0.08 14.29,0.03z"/>
   <path class="fil39 str0" d="M238.23 326.59c-0.01,-0.31 0.27,-0.22 1.03,-0.53 0.98,-0.4 2.11,-1.15 2.77,-1.87 1.11,-1.21 1.58,-2.22 2.01,-3.76 0.01,-0.03 0.05,-0.17 0.06,-0.18 0.09,-0.23 0.03,-0.08 0.08,-0.17 0.47,0.06 0.85,0.09 1.26,-0.08 0.42,-0.18 0.44,-0.4 0.72,-0.66 -0.18,1.24 -0.27,1.92 -0.79,2.96 -0.43,0.87 -1.03,1.69 -1.6,2.2 -1.4,1.24 -2.92,2.1 -5.55,2.1z"/>
   <path class="fil40" d="M233.12 337.07c2.53,-0.34 1.02,-0.34 3.84,-0.08 0.56,0.06 1.47,-0.02 1.8,0.33 0.39,0.41 0.37,1.17 -0.15,1.47 -0.85,0.48 -2.7,0.45 -3.78,0.44 -0.6,-0.01 -1.57,0.19 -1.78,-0.38 -0.32,-0.85 0.07,-1.19 0.08,-1.78z"/>
   <path class="fil41" d="M253.19 303.77c-0.34,0.17 -0.79,0.71 -0.99,1.22 -0.35,0.89 -0.01,0.8 -1.09,1.12 -0.99,0.29 -3.04,0.22 -3.62,-0.46l2.96 -2.71c0.32,-0.3 0.64,-0.66 0.95,-0.92 0.4,0.26 1.62,1.37 1.78,1.74z"/>
   <path class="fil30" d="M228.08 317.7c-0.27,0.08 -3.79,1.81 -3.28,0.45 0.34,-0.91 1.37,-1.98 1.99,-2.74l1.31 -1.35c0.27,-0.26 1.39,-0.68 1.85,-0.81 -0.34,0.71 -1.71,1.94 -1.88,4.45z"/>
   <path class="fil30" d="M251.97 327.41c-0.23,0.38 -0.48,0.68 -0.71,1.06 -0.41,0.66 -0.17,0.53 -0.97,0.86 -0.72,0.29 -1.97,0.9 -2.66,1.06l0.18 -2.52c0.3,-0.23 1.27,-0.56 1.69,-0.77 0.53,-0.27 1.1,-0.69 1.53,-0.88 0.24,0.23 0.71,0.86 0.94,1.19z"/>
   <path class="fil30" d="M257.17 318.02l2.86 0.03c-0.03,0.1 -1.74,4.19 -1.94,4.34 -0.23,0.18 -0.21,0.07 -0.3,0.02 -0.02,-0.01 -1.37,-1.87 -1.42,-1.96 -0.14,-0.25 -0.06,-0.26 0.07,-0.55 0.24,-0.51 0.62,-1.37 0.72,-1.89z"/>
   <path class="fil32" d="M295.57 325.39c1.97,0.61 1.18,0.34 2.14,-0.79 1.16,-0.1 0.55,0.95 0.22,1.4 -0.39,0.54 -0.88,0.84 -1.84,0.54 -0.86,-0.27 -1.28,-0.17 -1.51,-1.08 -0.18,-0.71 -0.11,-1.65 -0.03,-2.39 0.08,-0.75 0.21,-1.52 0.34,-2.24 0.07,-0.39 0.11,-0.76 0.5,-0.81 1.39,-0.16 -0.56,3.02 0.18,5.36z"/>
   <path class="fil26" d="M235.13 320.66c0.01,-0.02 0.03,-0.04 0.04,-0.05 0.01,-0.01 0.03,-0.04 0.03,-0.05 0.01,-0.01 0.05,-0.06 0.07,-0.08 0.42,-0.09 0.77,-0.48 0.68,-1.03 -0.1,-0.62 -0.41,-0.55 -0.87,-0.84 0.38,-0.46 1.02,-1 2.02,-0.7 0.66,0.2 1.23,0.83 1.25,1.67 0.03,1.81 -2.23,2.44 -3.23,1.09z"/>
   <path class="fil26" d="M236.37 314.36c0.3,0.02 0.97,0.06 1.18,0.21 0.34,0.24 0.2,0.78 -0.22,0.84 -0.45,0.07 -2.78,-0.74 -4.12,1.19 -0.44,0.63 -0.55,1.11 -0.79,1.95 -0.18,0.64 -1.26,0.83 -0.78,-0.78 0.22,-0.74 0.5,-1.33 0.89,-1.85 0.74,-0.98 1.95,-1.7 3.83,-1.56z"/>
   <path class="fil26" d="M289.73 336.98c0.54,0.27 0.43,0.89 -0.36,0.9l-5.66 -0.03c-0.41,-0.14 -0.61,-0.92 0.4,-0.93 0.87,-0 5.39,-0.06 5.61,0.06z"/>
   <path class="fil32" d="M285.89 321.3c-0.57,-0.06 -0.97,-0.14 -1.52,0.04 0.01,0.68 0.73,1.03 1.19,1.39 0.1,0.86 -0.33,0.65 -1.02,0.83 -0.47,0.13 -0.91,0.33 -1,0.76 -0.22,1.02 1.46,1.09 2.34,1.09l0 -4.12zm-1.9 1.47c0,0 0,0 0,0z"/>
   <path class="fil32" d="M285.89 321.3l-0 4.12c-0.88,-0.01 -2.55,-0.08 -2.34,-1.09 0.09,-0.42 0.53,-0.63 1,-0.76 0.68,-0.19 1.11,0.03 1.02,-0.83 -0.46,-0.36 -1.18,-0.7 -1.19,-1.39 0.55,-0.18 0.95,-0.1 1.52,-0.04z"/>
   <path class="fil26" d="M247.63 308.04c0.55,0.05 1.33,0.12 1.34,0.66 0.02,1.4 -2.48,-1.25 -3.66,1.97 -0.1,0.28 -0.17,0.47 -0.52,0.46 -1.19,-0.03 0.23,-3.32 2.84,-3.08z"/>
   <path class="fil26" d="M248.42 320.43c-0.87,-1.84 1.99,-4.49 2.74,-3.87 0.46,0.39 -0.09,0.76 -0.43,0.96 -0.7,0.4 -1.39,1.11 -1.49,2.01 -0.07,0.66 0.07,1.16 -0.83,0.9z"/>
   <path class="fil26" d="M258.61 333.18c1.41,0.49 0.61,2.44 -0.68,1.94 -1.19,-0.46 -0.6,-2.38 0.68,-1.94z"/>
   <path class="fil26" d="M263.47 340.17c1.4,0.31 0.89,2.34 -0.45,2.01 -1.28,-0.31 -0.88,-2.31 0.45,-2.01z"/>
   <path class="fil26" d="M247.93 310.87c1.26,0.44 0.62,2.4 -0.71,1.94 -1.17,-0.4 -0.67,-2.42 0.71,-1.94z"/>
   <path class="fil30" d="M291.47 315.99c1.3,0.66 0.43,2.33 -0.79,1.89 -1.25,-0.46 -0.48,-2.52 0.79,-1.89z"/>
   <path class="fil26" d="M254.58 307.97c-0.26,-0.84 0.22,-0.63 0.43,-1.38 0.23,-0.82 -0.23,-1.13 -0.04,-1.8 0.46,-0.23 0.73,-0.2 0.91,0.35 0.28,0.9 0.17,1.74 -0.34,2.51 -0.27,0.41 -0.42,0.51 -0.97,0.31z"/>
   <path class="fil26" d="M276.69 361.71c0.33,-0.21 5.72,-0.07 6.59,-0.07l3.04 -0 0 0.08 0.15 0 -9.79 0z"/>
   <path class="fil42" d="M241.13 312.14c-0.13,-0.07 -0.77,-0.53 -0.86,-0.67 0.51,0.2 0.98,0.26 1.38,0.54 -0.06,0 -0.24,0.01 -0.27,0.02 -0.39,0.08 -0.13,0.02 -0.24,0.11z"/>
   <path class="fil43" d="M235.13 320.66c-0.09,-0.1 -0.12,0.14 -0.05,-0.15l0.19 -0.03c-0.02,0.02 -0.06,0.07 -0.07,0.08 -0.01,0.01 -0.03,0.04 -0.03,0.05 -0.01,0.01 -0.02,0.04 -0.04,0.05z"/>
   <polygon class="fil42" points="238.41,333.56 238.23,333.62 238.36,333.37 "/>
   <path class="fil21" d="M302.41 275.65c-6.45,-3.36 -6.31,-1.12 -6.31,-1.12 0,0 -5.05,24.69 -16.54,24.54 -11.49,-0.15 -14.22,-24.54 -14.22,-24.54 0,0 -5.33,1.54 -5.89,1.11 -0.56,-0.43 -2.42,0.91 -3.46,1.57 -0.19,-0.48 -0.39,-0.96 -0.62,-1.41 0,0 3.51,-2.41 4.08,-1.98 0.57,0.43 5.89,-1.11 5.89,-1.11 0,0 2.74,24.4 14.18,24.54 11.44,0.14 16.54,-24.54 16.54,-24.54 0,0 -0.14,-2.24 6.31,1.12 0,0 2.85,-0.33 2.06,2.82 -0.46,-1.18 -2.01,-1 -2.01,-1z"/>
   <path class="fil44" d="M406.43 291.44c0,-2.46 0.45,-6.84 0.5,-11.71 0.06,5.6 -0.5,10.77 -0.5,13.54 0,5.21 -5.22,7.07 -5.47,7.15 0,-1.14 0,-1.82 0,-1.82 0,0 5.47,-1.81 5.47,-7.15z"/>
   <path class="fil45" d="M453.55 307.15c0,0 -6.03,4.07 -6.03,7.01m6.03 -7.01l0 0 0 0z"/>
   <path class="fil45" d="M449.48 319.91c0,0 1.68,-5.89 2.8,-7.15m-2.8 7.15l0 0 0 0z"/>
   <path class="fil45" d="M452.28 322.16c0,0 -2.52,5.05 -2.8,6.45m2.8 -6.45l0 0 0 0z"/>
   <path class="fil44" d="M456.62 343.52c0,-5.01 -0.28,-11.91 -0.83,-13.67 -0.45,-1.42 -0.54,-7.24 -0.53,-12.38 0,4.61 0.14,9.3 0.53,10.56 0.62,1.98 0.86,10.54 0.83,15.5z"/>
   <path class="fil44" d="M449.34 288.22c-0.32,-0.87 -0.49,-1.8 -0.49,-2.74 0,-0.34 0.02,-0.67 0.06,-1.01 0.01,0.66 0.16,1.32 0.43,1.92 1.69,2.94 0.85,10.94 8.14,12.49l-0.44 1.72c-6.82,-1.77 -6.05,-9.49 -7.7,-12.38z"/>
   <path class="fil46" d="M437.16 322.9c0.1,0.09 0.36,0.57 0.56,0.77 0.92,0.96 1.88,0.81 3.24,0.81l16.25 0c-0.17,0.35 -1.66,1.59 -2.03,1.93l-1.5 1.17c-1.73,1.3 -3.98,2.51 -5.96,3.32 -2.13,0.88 -5.02,1.64 -7.41,1.87 -0.43,0.04 -0.8,0.1 -1.26,0.11l-1.26 0.05 -0.03 0 -1.78 0c-0.34,-0 -0.63,-0.01 -0.78,-0.04 -0.42,-0.06 -0.85,-0.02 -1.28,-0.08 -1.98,-0.28 -2.35,-0.28 -4.47,-0.83 -1.31,-0.34 -2.25,-0.71 -3.45,-1.18 -1.18,-0.47 -2.87,-1.35 -3.96,-2.04 -0.28,-0.18 -0.53,-0.34 -0.8,-0.52 -0.27,-0.18 -0.5,-0.34 -0.78,-0.53 -0.27,-0.19 -0.49,-0.37 -0.75,-0.56 -0.75,-0.56 -2.13,-1.78 -2.83,-2.47l-1.28 -1.4c-0.98,-1.25 -1.32,-1.61 -2.29,-3.05 -2,-2.99 -3.51,-6.88 -4.1,-10.48 -0.29,-1.8 -0.39,-3.05 -0.39,-4.96l26.75 0 0 14.78c0,0.86 -0.07,1.44 0.31,2.15 0.37,0.68 0.74,0.83 1.27,1.18z"/>
   <path class="fil23" d="M436.98 288.21c-0.45,0.19 -0.89,0.66 -1.11,1.1 -0.33,0.64 -0.29,1.18 -0.29,1.97l0 13.52 -26.75 -0c0,-2.51 0.17,-3.98 0.66,-6.35 0.37,-1.77 1.59,-5.35 2.61,-7.03l0.98 -1.69c0.22,-0.38 0.46,-0.7 0.7,-1.07 0.24,-0.36 0.49,-0.68 0.75,-1.02l1.17 -1.45c0.09,-0.1 0.13,-0.12 0.22,-0.23 0.1,-0.12 0.1,-0.14 0.21,-0.24 0.31,-0.31 0.55,-0.6 0.86,-0.91 0.3,-0.3 0.58,-0.53 0.88,-0.83 0.35,-0.35 1.59,-1.35 1.93,-1.6 1.42,-1.07 2.72,-1.93 4.33,-2.73 0.66,-0.33 1.72,-0.84 2.4,-1.08 0.43,-0.16 0.83,-0.31 1.3,-0.47 0.89,-0.3 1.81,-0.58 2.76,-0.78 1.82,-0.38 2.09,-0.39 3.81,-0.58 0.61,-0.06 0.98,-0.09 1.37,-0.09l1.21 0 0 11.56z"/>
   <path class="fil33 str1" d="M450.09 296.83c-0.15,0.19 -1.94,0.62 -2.65,3.05 -0.47,1.61 -0.08,3.61 0.69,4.76 0.72,1.07 1.73,1.9 3.4,2.36 1.59,0.44 3.75,0.29 5.52,0.29l0.02 6c0.03,0.08 -0.11,0.1 0.34,0.09 0.65,-0.01 2.68,0.04 3.01,-0.03l0.02 -10.57c0.18,0.04 4.32,2.47 4.46,2.55l3.36 1.94c0.18,0.11 0.35,0.2 0.54,0.32 0.14,0.09 0.41,0.26 0.57,0.29 0,1.76 0,3.53 0,5.3l0 4.56c-0.02,0.29 -0.05,0.52 -0.08,0.66 -0.19,0.68 -0.61,1.18 -1.12,1.51 -0.72,0.45 -1.19,0.39 -2.28,0.39 -1.7,0 -3.63,0.08 -5.3,-0.01l-18.16 -0c-1,0 -1.9,0.11 -2.69,-0.32 -0.54,-0.3 -1.19,-0.96 -1.28,-1.81 -0.12,-0.94 -0.06,-8.39 -0.06,-9.97 0,-1.06 -0.07,-2.37 0.01,-3.4 0.06,-0.57 0.01,-10.21 0.01,-11.23 -0,-0.61 -0.02,-1.26 0.01,-1.86 0.02,-0.36 0.23,-1.17 0.53,-1.33l6.3 3.63c0.58,0.35 4.77,2.69 4.84,2.84z"/>
   <path class="fil33" d="M469.36 307.87c-0.16,-0.03 -0.42,-0.21 -0.57,-0.29 -0.19,-0.12 -0.36,-0.21 -0.54,-0.32l-3.36 -1.94c-0.14,-0.08 -4.28,-2.51 -4.46,-2.55 -0.03,-1.08 -0,-2.2 -0,-3.28 0,-0.6 0.08,-2.89 -0.03,-3.3 -0.31,-0.06 -3.33,-0.02 -3.91,-0.02 -0.6,0 -3.68,-0.08 -3.95,0.04 -0.39,-0.01 -1.01,0.14 -1.29,0.22 -0.41,0.12 -0.8,0.31 -1.16,0.4 -0.07,-0.15 -4.25,-2.49 -4.84,-2.84l-6.3 -3.63c0.24,-0.54 0.88,-0.8 1.4,-0.96l0.28 -0.11 19.95 0.01c1.21,0.04 6.1,-0.09 6.76,0.06 0.88,0.2 1.53,0.79 1.85,1.58 0.09,0.22 0.14,0.5 0.17,0.81l0 2.44c0,4.56 0,9.11 0,13.67z"/>
   <path class="fil37" d="M459.63 287.9c-5.61,0.08 -11.54,0 -17.2,0 -0.96,0 -1.92,0 -2.88,0 -0.87,0 -1.91,-0.1 -2.56,0.3l0 -11.56c1.48,0 2.74,0.06 3.99,0.24 2.7,0.39 5.8,1.22 8.17,2.42 0.46,0.23 0.98,0.46 1.41,0.71 1.1,0.67 1.36,0.73 2.61,1.62 0.95,0.67 2.11,1.54 2.94,2.36l0.56 0.5c0.19,0.19 0.34,0.34 0.53,0.53 0.57,0.58 2.1,2.32 2.43,2.87z"/>
   <path class="fil47" d="M457.07 300.76l-0.01 -1.91c-0.53,0 -3.25,-0.09 -3.48,0.06 -0.43,-0.08 -1.21,0.2 -1.51,0.34 -0.44,0.23 -0.73,0.53 -0.94,0.92 -0.46,0.84 -0.46,2.19 0,3.03 1.01,1.86 3.55,1.46 5.94,1.46l0 -3.9zm-0 12.52l-0.02 -6c-1.76,0 -3.92,0.15 -5.52,-0.29 -1.66,-0.46 -2.68,-1.29 -3.4,-2.36 -0.77,-1.15 -1.16,-3.15 -0.69,-4.76 0.71,-2.43 2.51,-2.86 2.65,-3.05 0.36,-0.09 0.75,-0.28 1.16,-0.4 0.28,-0.08 0.9,-0.22 1.29,-0.22 2.61,-0.03 5.23,0.01 7.84,0.01l-0 17.11c-0.55,0 -2.98,0.07 -3.32,-0.04z"/>
   <path class="fil31" d="M440.7 321.68l18.93 -0.02c-0.15,0.3 -0.93,1.2 -1.16,1.5 -0.1,0.13 -0.21,0.21 -0.31,0.34l-0.62 0.69c-0.09,0.12 -0.2,0.25 -0.33,0.29l-16.25 0c-1.36,0 -2.32,0.14 -3.24,-0.81 -0.2,-0.2 -0.45,-0.68 -0.56,-0.77 -0.15,-0.7 -0.18,-0.87 -0.18,-1.66 0,-0.62 -0,-1.23 -0,-1.84 0.19,0.39 0.14,0.67 0.43,1.11 0.18,0.27 0.47,0.57 0.72,0.74 0.75,0.51 1.54,0.44 2.57,0.44z"/>
   <path class="fil31" d="M460.58 289.3l-19.95 -0.01c-1.1,0.12 -1.54,-0.18 -2.51,0.46 -0.31,0.21 -0.53,0.43 -0.73,0.74 -0.29,0.45 -0.24,0.63 -0.42,1.07l0 -3.35c0.66,-0.4 1.69,-0.3 2.56,-0.3 0.96,0 1.92,0 2.88,0 5.67,0 11.6,0.08 17.2,-0l0.04 0.05c0.21,0.25 0.86,1.17 0.91,1.35z"/>
   <path class="fil46" d="M460.58 320.27c-0.05,0.19 -0.32,0.54 -0.44,0.72 -0.09,0.14 -0.16,0.21 -0.25,0.35l-0.26 0.32 -18.93 0.02c-0.51,-0.22 -1.2,-0.19 -1.84,-1.11 -0.2,-0.3 -0.35,-0.63 -0.42,-1.04l-0.05 -1.02c0,-0.05 0,-0.16 0.01,-0.2l0.06 -0.17c0.09,0.85 0.74,1.51 1.28,1.81 0.8,0.44 1.69,0.32 2.69,0.32l18.16 0z"/>
   <path class="fil33" d="M457.07 300.76l0 3.9c-2.4,0 -4.93,0.4 -5.94,-1.46 -0.46,-0.84 -0.46,-2.19 -0,-3.03 0.22,-0.39 0.5,-0.69 0.94,-0.92 0.3,-0.15 1.08,-0.42 1.51,-0.34 0.31,0.09 0.25,0.02 0.51,0.18 0.4,0.25 2.76,1.63 2.98,1.67z"/>
   <path class="fil31" d="M436.98 319.4c0,0.61 0,1.23 0,1.84 0,0.8 0.03,0.96 0.18,1.66 -0.54,-0.35 -0.91,-0.5 -1.27,-1.18 -0.38,-0.7 -0.31,-1.29 -0.31,-2.15l0 -14.78 1.41 0.01 0 14.6z"/>
   <path class="fil46" d="M438.45 318.14l-0.06 0.17c-0.01,0.04 -0.01,0.15 -0.01,0.2l0.05 1.02c0.07,0.41 0.22,0.74 0.42,1.04 0.64,0.93 1.33,0.89 1.84,1.11 -1.03,0 -1.81,0.07 -2.57,-0.44 -0.25,-0.17 -0.55,-0.47 -0.72,-0.74 -0.29,-0.44 -0.24,-0.72 -0.43,-1.11l0 -14.6 1.42 -0.03c-0.08,1.03 -0.01,2.34 -0.01,3.4 0,1.57 -0.07,9.03 0.06,9.97z"/>
   <path class="fil31" d="M436.98 291.56l-0 13.25 -1.41 -0.01 0 -13.52c0,-0.78 -0.04,-1.33 0.29,-1.97 0.23,-0.44 0.66,-0.91 1.11,-1.1l0 3.35z"/>
   <path class="fil46" d="M438.95 290.36c-0.3,0.16 -0.51,0.97 -0.53,1.33 -0.04,0.6 -0.02,1.25 -0.01,1.86 0,1.03 0.05,10.66 -0.01,11.23l-1.42 0.03 0 -13.25c0.18,-0.44 0.13,-0.62 0.42,-1.07 0.2,-0.31 0.42,-0.54 0.73,-0.74 0.96,-0.63 1.4,-0.34 2.51,-0.46l-0.28 0.11c-0.52,0.16 -1.15,0.42 -1.4,0.96z"/>
   <path class="fil33" d="M457.07 300.76c-0.22,-0.05 -2.58,-1.43 -2.98,-1.67 -0.26,-0.16 -0.2,-0.09 -0.51,-0.18 0.24,-0.15 2.96,-0.06 3.48,-0.06l0.01 1.91z"/>
  </g>
 </g>
</svg>
