<?xml version="1.0" encoding="UTF-8"?>
<!DOCTYPE svg PUBLIC "-//W3C//DTD SVG 1.1//EN" "http://www.w3.org/Graphics/SVG/1.1/DTD/svg11.dtd">
<!-- Creator: CorelDRAW 2019 (64-Bit) -->
<svg xmlns="http://www.w3.org/2000/svg" xml:space="preserve" width="4.9668mm" height="1.1568mm" version="1.1" style="shape-rendering:geometricPrecision; text-rendering:geometricPrecision; image-rendering:optimizeQuality; fill-rule:evenodd; clip-rule:evenodd"
viewBox="0 0 20.53 4.78"
 xmlns:xlink="http://www.w3.org/1999/xlink"
 xmlns:xodm="http://www.corel.com/coreldraw/odm/2003">
 <defs>
  <style type="text/css">
   <![CDATA[
    .fil0 {fill:#F17193}
    .fil1 {fill:#397688;fill-rule:nonzero}
   ]]>
  </style>
 </defs>
 <g id="Layer_x0020_1">
  <metadata id="CorelCorpID_0Corel-Layer"/>
  <g id="_1799994783216">
   <polygon class="fil0" points="4.54,0.16 5.36,0.16 3.99,2.38 5.36,4.78 4.54,4.78 3.16,2.38 "/>
   <path class="fil1" d="M0 4.69m2.55 -4.48c-0.2,-0.1 -0.53,-0.21 -0.97,-0.21 -0.91,0 -1.5,0.55 -1.5,1.28 0,0.63 0.47,1.05 1.15,1.32 0.55,0.23 0.79,0.47 0.79,0.86 0,0.42 -0.31,0.7 -0.86,0.7 -0.38,0 -0.76,-0.12 -1,-0.27l-0.16 0.59c0.22,0.15 0.68,0.28 1.11,0.28 1.04,0 1.61,-0.58 1.61,-1.36 0,-0.63 -0.36,-1.04 -1.1,-1.36 -0.58,-0.26 -0.85,-0.45 -0.85,-0.84 0,-0.29 0.23,-0.62 0.78,-0.62 0.38,0 0.67,0.12 0.82,0.21l0.17 -0.58 0 -0z"/>
   <path class="fil1" d="M5.93 4.69m0 0l0.7 0 0 -4.62 -0.7 0 0 4.62z"/>
   <path class="fil1" d="M7.58 4.69m2.48 -0.59l-1.78 0 0 -4.03 -0.7 0 0 4.62 2.48 0 0 -0.59z"/>
   <path class="fil1" d="M10.69 4.69m2.48 -0.59l-1.78 0 0 -4.03 -0.7 0 0 4.62 2.48 0 0 -0.59z"/>
   <path class="fil1" d="M13.59 4.69m3.25 -4.62l-0.7 0 0 2.8c0,0.92 -0.36,1.32 -0.94,1.32 -0.53,0 -0.91,-0.39 -0.91,-1.32l0 -2.8 -0.7 0 0 2.76c0,1.38 0.64,1.93 1.59,1.93 0.98,0 1.67,-0.58 1.67,-1.95l0 -2.74 0 0z"/>
   <path class="fil1" d="M17.72 4.69m0 0l0.69 0 0 -1.81c0.11,0.02 0.25,0.03 0.39,0.03 0.83,0 1.73,-0.38 1.73,-1.51 0,-0.42 -0.16,-0.77 -0.42,-1 -0.28,-0.25 -0.71,-0.37 -1.27,-0.37 -0.48,0 -0.85,0.04 -1.12,0.09l0 4.56zm0.69 -4.06c0.09,-0.02 0.25,-0.04 0.47,-0.04 0.56,0 0.95,0.29 0.95,0.85 0,0.59 -0.39,0.92 -1.03,0.92 -0.16,0 -0.29,-0 -0.39,-0.04l0 -1.69z"/>
  </g>
 </g>
</svg>
