<?xml version="1.0" encoding="UTF-8"?>
<!DOCTYPE svg PUBLIC "-//W3C//DTD SVG 1.1//EN" "http://www.w3.org/Graphics/SVG/1.1/DTD/svg11.dtd">
<!-- Creator: CorelDRAW 2019 (64-Bit) -->
<svg xmlns="http://www.w3.org/2000/svg" xml:space="preserve" width="23.5273mm" height="19.8766mm" version="1.1" style="shape-rendering:geometricPrecision; text-rendering:geometricPrecision; image-rendering:optimizeQuality; fill-rule:evenodd; clip-rule:evenodd"
viewBox="0 0 19264.07 16274.89"
 xmlns:xlink="http://www.w3.org/1999/xlink"
 xmlns:xodm="http://www.corel.com/coreldraw/odm/2003">
 <defs>
  <style type="text/css">
   <![CDATA[
    .str0 {stroke:#F59D88;stroke-width:163.76;stroke-miterlimit:22.9256;stroke-opacity:0.101961}
    .fil7 {fill:#4B4B4D;fill-rule:nonzero}
    .fil39 {fill:#373435;fill-rule:nonzero}
    .fil25 {fill:#F7ADAF;fill-rule:nonzero}
    .fil48 {fill:#BB8A94;fill-rule:nonzero}
    .fil18 {fill:#3F2D3F;fill-rule:nonzero}
    .fil23 {fill:#0D2A3F;fill-rule:nonzero}
    .fil13 {fill:#192534;fill-rule:nonzero}
    .fil34 {fill:#1D384E;fill-rule:nonzero}
    .fil15 {fill:#2F2E41;fill-rule:nonzero}
    .fil32 {fill:#33648C;fill-rule:nonzero}
    .fil30 {fill:#3F3D56;fill-rule:nonzero}
    .fil42 {fill:#444053;fill-rule:nonzero}
    .fil0 {fill:#4D8494;fill-rule:nonzero}
    .fil8 {fill:#4E8B9F;fill-rule:nonzero}
    .fil4 {fill:#694B4B;fill-rule:nonzero}
    .fil12 {fill:#707487;fill-rule:nonzero}
    .fil31 {fill:#8C6539;fill-rule:nonzero}
    .fil14 {fill:#8F7866;fill-rule:nonzero}
    .fil17 {fill:#987D68;fill-rule:nonzero}
    .fil16 {fill:#A3896F;fill-rule:nonzero}
    .fil6 {fill:#A6896E;fill-rule:nonzero}
    .fil5 {fill:#A68D70;fill-rule:nonzero}
    .fil11 {fill:#A9C5CD;fill-rule:nonzero}
    .fil29 {fill:#BE6F72;fill-rule:nonzero}
    .fil36 {fill:#C3A57C;fill-rule:nonzero}
    .fil33 {fill:#E3E8F4;fill-rule:nonzero}
    .fil43 {fill:#E8E8F0;fill-rule:nonzero}
    .fil2 {fill:#ED1B24;fill-rule:nonzero}
    .fil10 {fill:#F2F2F2;fill-rule:nonzero}
    .fil41 {fill:#FBBEBE;fill-rule:nonzero}
    .fil49 {fill:#FDA57D;fill-rule:nonzero}
    .fil35 {fill:black;fill-rule:nonzero;fill-opacity:0.011765}
    .fil26 {fill:#F7ADAF;fill-rule:nonzero;fill-opacity:0.101961}
    .fil19 {fill:#3F2D3F;fill-rule:nonzero;fill-opacity:0.101961}
    .fil9 {fill:black;fill-rule:nonzero;fill-opacity:0.101961}
    .fil24 {fill:#0D2A3F;fill-rule:nonzero;fill-opacity:0.101961}
    .fil21 {fill:#33648C;fill-rule:nonzero;fill-opacity:0.101961}
    .fil1 {fill:#4D8494;fill-rule:nonzero;fill-opacity:0.101961}
    .fil22 {fill:#A3BDC8;fill-rule:nonzero;fill-opacity:0.101961}
    .fil37 {fill:#C3A57C;fill-rule:nonzero;fill-opacity:0.101961}
    .fil3 {fill:#ED1B24;fill-rule:nonzero;fill-opacity:0.101961}
    .fil27 {fill:#F59D88;fill-rule:nonzero;fill-opacity:0.101961}
    .fil38 {fill:white;fill-rule:nonzero;fill-opacity:0.101961}
    .fil44 {fill:#47E6B1;fill-rule:nonzero;fill-opacity:0.250980}
    .fil20 {fill:#45717F;fill-rule:nonzero;fill-opacity:0.301961}
    .fil45 {fill:#47E6B1;fill-rule:nonzero;fill-opacity:0.501961}
    .fil47 {fill:#4D8AF0;fill-rule:nonzero;fill-opacity:0.501961}
    .fil46 {fill:#F55F44;fill-rule:nonzero;fill-opacity:0.501961}
    .fil28 {fill:url(#id0);fill-rule:nonzero}
    .fil40 {fill:url(#id1);fill-rule:nonzero}
   ]]>
  </style>
  <linearGradient id="id0" gradientUnits="userSpaceOnUse" x1="8065.31" y1="2025.46" x2="8065.31" y2="426.02">
   <stop offset="0" style="stop-opacity:0.25098; stop-color:gray"/>
   <stop offset="0.541176" style="stop-opacity:0.121569; stop-color:gray"/>
   <stop offset="1" style="stop-opacity:0.101961; stop-color:gray"/>
  </linearGradient>
  <linearGradient id="id1" gradientUnits="userSpaceOnUse" xlink:href="#id0" x1="163451.93" y1="-994026.71" x2="360023.61" y2="-994026.71">
  </linearGradient>
 </defs>
 <g id="Layer_x0020_1">
  <metadata id="CorelCorpID_0Corel-Layer"/>
  <g id="_1800091731664">
   <path class="fil0" d="M9701.27 5852.1c-1.97,-82.53 -25.06,-151.72 -58.22,-189.8l-26.28 103.5 0 -124.38c-9.91,-6.06 -21.37,-9.25 -33,-9.25 -1.8,0 -3.68,0.08 -5.49,0.25 -64.52,5.9 -114.39,114.39 -111.44,242.2 3.03,127.73 57.81,226.64 122.33,220.75 64.6,-5.98 115.12,-114.96 112.09,-243.26z"/>
   <path class="fil1" d="M9685.63 5914.41c-27.1,5.9 -53.3,22.6 -80.41,25.87 -27.1,3.36 -56.82,-9.58 -73.77,-51.34 -9.25,-22.44 -13.92,-50.85 -21.7,-75.41 -5.98,-20.14 -16.05,-38.81 -29.48,-54.86 -8.43,33.82 -12.77,68.62 -12.77,103.41 0,4.01 0.08,8.19 0.16,12.2 2.95,127.81 57.81,226.48 122.33,220.58 54.2,-4.99 97.93,-82.53 108.82,-182.59 -4.42,0.41 -8.84,1.15 -13.18,2.13z"/>
   <path class="fil2" d="M15065.2 4998.75c-57.73,-57.97 -122.66,-92.69 -173.01,-97.44l51.67 92.44 -84.99 -90.64c-13.18,2.87 -25.22,9.74 -34.23,19.81 -42.74,49.54 -4.09,161.79 86.22,252.43 90.31,90.64 198.15,124.54 240.73,75.66 42.58,-48.88 3.44,-162.12 -86.38,-252.27z"/>
   <path class="fil3" d="M15095.91 5054.35c-15.48,22.76 -23.09,52.98 -40.45,73.94 -17.28,21.04 -47.65,32.26 -88.84,13.92 -22.27,-9.91 -45.2,-27.43 -67.63,-39.79 -18.18,-10.56 -38.4,-17.28 -59.28,-19.65 19.24,33.9 43.07,65.18 70.66,92.61 90.31,90.64 198.15,124.54 240.73,75.66 35.7,-40.94 14.17,-127 -46.92,-207.24 -3.03,3.28 -5.81,6.88 -8.27,10.56l0 0z"/>
   <path class="fil4" d="M10820.89 5336.51l-284.29 -165.07c0,0 -687.22,-94.82 -592.4,-426.51 94.73,-331.69 568.74,0 568.74,0l307.95 211.82 0 379.76z"/>
   <path class="fil5" d="M11863.38 3654.29c0,0 -687.05,497.58 -687.05,331.69 0,-99.07 -119.87,-404.98 -215.59,-632.68 -63.46,-150.9 -115.61,-267.66 -115.61,-267.66l709.98 -189.55c-9.66,50.93 -14.57,102.92 -14.57,154.83 0,64.6 7.53,129.21 22.44,191.93 41.92,171.37 150,319.41 300.42,411.45l0 0z"/>
   <path class="fil6" d="M10442.28 7878.13c0,0 -544.83,1208.38 -355.44,1658.47 0,0 -592.24,1800.78 -781.79,1871.77 -189.55,70.99 473.84,189.55 473.84,189.55 0,0 781.46,-1042.41 828.54,-1871.77 47,-829.28 900.59,-1681.89 900.59,-1681.89l-1065.75 -166.13z"/>
   <path class="fil6" d="M11697.08 8369.17c0,0 307.95,995.25 710.8,1279.53 0,0 829.28,1374.19 709.9,1800.7 0,0 473.92,71.15 497.66,0 0,0 -213.3,-1492.75 -734.54,-2084.98 -521.25,-592.24 -282.98,-1303.69 -282.98,-1303.69l-900.84 308.44z"/>
   <path class="fil7" d="M9612.51 11432.2c0,0 -284.37,-236.96 -497.5,-47.41 -213.13,189.55 -592.4,142.14 -876.69,47.41 -284.29,-94.82 -260.54,142.14 402.85,450.09 663.39,307.87 1042.49,379.68 1042.49,379.68 0,0 94.73,-379.68 94.73,-473.84 0,-94.08 58.95,-271.92 58.95,-271.92l-224.84 -84.01z"/>
   <path class="fil7" d="M13356.05 11401.99c0,0 -284.29,-165.15 -331.69,142.14 -47.41,307.29 -734.54,497.66 -734.54,497.66 0,0 -331.69,307.87 687.13,212.64 1018.91,-95.31 947.76,-284.37 947.76,-284.37l-322.61 -613.2 -246.05 45.12z"/>
   <path class="fil8" d="M10820.89 6781.85c0,0 -734.54,1042.49 -450.26,1160.89 284.29,118.32 260.7,-189.55 544.83,142.14 284.2,331.69 1018.91,165.07 1113.65,94.73 94.82,-70.33 331.69,-379.76 521.25,-355.28 189.55,24.4 -308.44,-1208.46 -308.44,-1208.46l-1421.02 165.97z"/>
   <path class="fil9" d="M11498.93 3140.66c-101.37,94.57 -173.01,255.06 -322.61,255.06 -0.25,0 -0.57,0 -0.82,0 -73.69,0 -146.73,-14.41 -214.77,-42.41 -63.46,-150.9 -115.61,-267.58 -115.61,-267.58l709.98 -189.55c-23.09,135.67 -80.41,148.04 -56.17,244.49z"/>
   <circle class="fil6" cx="11176.35" cy="2777.56" r="568.62"/>
   <path class="fil10" d="M11508.02 3583.3c0,0 -245.64,249.32 -359.78,266.76 -114.06,17.52 -540.82,751.9 -422.17,1344.3 118.73,592.4 -142.14,1824.44 -23.58,1895.43 118.56,70.99 2014.32,-260.54 2014.32,-260.54l-1208.79 -3245.96z"/>
   <path class="fil11" d="M11744.98 3464.74c0,0 -426.51,-142.14 -568.65,615.98 -142.14,758.21 -331.69,118.56 -331.69,1089.74 0,971.09 -71.15,1326.94 47.41,2156.06 118.56,829.2 213.13,829.36 70.99,1113.65 -142.14,284.29 1516.33,213.3 1919.18,-331.69 402.85,-544.99 -118.56,-2582.57 -331.69,-2890.68 -213.13,-308.03 -213.3,-1255.62 -379.76,-1492.5 -100.38,-141.24 -254.32,-235.4 -425.77,-260.54l0 0z"/>
   <path class="fil0" d="M11732.29 8102.32l-209.86 -262.51 -669.86 -3196.75 450.26 -840.33c77.21,-144.19 220.26,-241.46 382.71,-260.13 19.73,-2.37 39.71,-3.6 59.69,-3.6 141.82,0 276.75,61.66 369.6,168.75 651.68,741.99 978.71,3042.73 992.22,3140.33l1.39 9.25 -66.08 171.87 -346.68 777.12 -963.4 295.99zm-190.53 -4853.25l169 211.33 932.36 4286.65 332.84 -745.92 59.28 -153.03c-23.42,-161.47 -356.42,-2391.21 -974.12,-3094.23 -80.9,-91.62 -197.33,-144.03 -319.58,-144.03 -157.45,0 -302.14,86.71 -376.32,225.58l-437.89 817.73 614.42 -1404.07z"/>
   <path class="fil12" d="M10299.64 4910.08l0 0 -615.65 -547.69c-7.86,-7.04 -12.36,-17.11 -12.36,-27.59 0,-7.37 2.21,-14.49 6.22,-20.63l7.61 -11.55 0 0c6.06,-9.42 16.54,-15.15 27.76,-15.15 8.6,0 16.79,3.28 22.93,9.25l561.37 520.1c13.43,12.12 21.04,29.48 21.04,47.65 0,17.11 -6.8,33.49 -18.91,45.61z"/>
   <path class="fil13" d="M10299.64 4910.08l0 0 -615.65 -547.69c-7.86,-7.04 -12.36,-17.11 -12.36,-27.59 0,-7.37 2.21,-14.49 6.22,-20.63l7.61 -11.55 612.71 549.49c8.43,7.53 13.26,18.34 13.26,29.64 0,10.64 -4.26,20.8 -11.79,28.33l0 0z"/>
   <path class="fil14" d="M12124.08 5028.48c0,0 -876.77,-71.07 -1042.49,-379.76 -165.81,-308.77 -592.4,-142.14 -473.84,0 118.56,142.14 94.73,473.84 426.43,497.58 331.69,23.83 1160.89,190.21 1160.89,190.21l-70.99 -308.03z"/>
   <path class="fil7" d="M13071.76 6852.84c0,0 -592.4,47.41 -734.54,663.39 -142.14,615.98 -781.79,308.11 -781.79,308.11 0,0 -71.15,1611.06 971.34,1208.38 1042.41,-402.68 1279.53,-1160.97 1279.53,-1255.79 0,-94.73 -710.8,-663.39 -734.54,-924.09z"/>
   <path class="fil9" d="M11602.84 7942.74c0,0 639.07,308.03 781.71,-307.95 135.43,-586.75 678.78,-657.66 730.28,-663.06 -22.11,-36.27 -36.85,-76.8 -43.07,-118.89 -6.22,-42.09 -592.4,47.41 -734.54,663.39 -142.22,615.98 -781.79,308.03 -781.79,308.03 0,0 -23.17,525.91 151.4,901.66 -122.66,-358.71 -103.99,-783.18 -103.99,-783.18z"/>
   <path class="fil9" d="M13801.14 7813.12c2.87,-11.71 4.59,-23.66 5.16,-35.7 0,-81.06 -520.26,-509.21 -685.33,-794.31 34.96,220.26 518.38,640.46 680.17,830.01z"/>
   <g>
    <path class="fil15" d="M10442.28 2378.69c-33,103.66 73.86,208.55 181.61,219.44 107.84,10.89 212.31,-40.78 311.06,-87.04 98.75,-46.26 209.04,-89.49 314.58,-61.41 115.53,30.54 192.5,138.05 243.84,245.31 44.62,93.83 77.46,193.24 97.19,295.26 21.12,109.31 30.87,229.51 106.03,312.04 75.08,82.53 199.79,104.81 313.68,104.31 113.89,-0.49 229.18,-16.46 338.98,11.55 217.88,56.82 352.82,273.97 430.52,484.81 77.79,210.84 124.54,440.51 265.37,615.98 117.42,146.65 288.63,239.58 460.16,316.71 86.46,38.73 176.12,74.92 270.61,83.84 94.41,8.92 195.77,-13.02 264.14,-77.79 77.05,-72.3 101.86,-182.59 122.82,-285.92 30.54,-149.92 61.08,-304.02 35.86,-455.09 -33.08,-198.07 -160.32,-372.31 -189.55,-571.19 -28.41,-193.56 38.48,-388.85 31.69,-584.38 -11.38,-327.19 -252.27,-633.99 -568.16,-723.65 -115.53,-33 -236.88,-38.97 -347.82,-82.53 -144.68,-57.64 -256.12,-173.5 -374.35,-274.71 -282.08,-240.97 -620.32,-409.97 -982.47,-490.87 -243.35,-53.96 -531.32,-54.78 -703.35,125.03 -69.84,73.12 -115.61,172.03 -204.7,220.91 -45.77,25.22 -98.26,34.31 -147.47,51.34 -243.02,83.52 -382.71,386.31 -288.46,624.74l18.18 -16.7zm0 0l0 0 0 0z"/>
   </g>
   <path class="fil9" d="M13918.89 4682.53c-94.41,-8.92 -184.07,-45.03 -270.61,-83.84 -171.54,-77.13 -342.58,-170.06 -460.16,-316.71 -140.83,-175.47 -187.67,-404.98 -265.29,-615.98 -77.62,-211 -212.64,-427.98 -430.61,-484.73 -109.8,-28.74 -225.5,-12.12 -338.98,-11.63 -113.4,0.49 -236.88,-20.47 -313.68,-104.31 -76.72,-83.84 -84.83,-202.73 -105.95,-312.04 -19.65,-101.94 -52.48,-201.59 -97.19,-295.26 -51.34,-107.34 -128.63,-214.69 -243.84,-245.39 -105.54,-28 -215.83,15.23 -314.58,61.49 -98.75,46.18 -202.41,97.85 -311.06,86.96 -108.65,-10.89 -214.61,-115.53 -181.61,-219.44l-16.54 16.54c-19.73,-51.83 -29.89,-106.93 -29.89,-162.45 0,-43.72 6.3,-87.28 18.67,-129.21 -139.85,131.25 -202.41,348.4 -131.09,528.37l16.46 -16.54c-33,103.66 73.86,208.55 181.69,219.44 107.75,10.89 212.31,-40.78 311.06,-87.04 98.66,-46.26 208.96,-89.49 314.5,-61.41 115.53,30.54 192.5,138.05 243.84,245.31 44.62,93.83 77.46,193.24 97.19,295.26 21.12,109.31 30.87,229.51 106.03,312.04 75.08,82.53 199.79,104.81 313.68,104.31 113.89,-0.49 229.18,-16.46 338.98,11.55 217.88,56.82 352.82,273.97 430.52,484.81 77.79,210.84 124.54,440.51 265.37,615.98 117.42,146.65 288.63,239.58 460.16,316.63 86.46,38.81 176.12,75 270.61,83.93 94.41,8.92 195.77,-13.02 264.14,-77.79 58.13,-54.45 86.46,-130.76 105.95,-209.37 -56.5,34.47 -121.59,52.73 -187.83,52.73 -13.35,0 -26.69,-0.74 -39.96,-2.21l0 0z"/>
   <path class="fil16" d="M11508.02 3796.43c0,0 -71.15,521.25 189.55,639.81 260.7,118.48 450.09,520.51 450.09,520.51l-213.13 47.41c0,0 -71.15,331.69 118.32,426.51 189.55,94.73 710.8,0 710.8,0 0,0 237.12,-118.56 47.41,-497.66 -189.72,-379.1 -734.21,-1207.56 -734.21,-1207.56 0,0 -284.45,-308.11 -568.82,70.99z"/>
   <ellipse class="fil17" cx="11577.38" cy="2785.66" rx="114.08" ry="171.05"/>
   <circle class="fil10" cx="11577.38" cy="2804.64" r="56.96"/>
   <ellipse class="fil10" transform="matrix(0.0342433 -0.0680853 0.0680853 0.0342433 11529.8 2890.15)" rx="873" ry="374.76"/>
   <path class="fil0" d="M13927.97 1113.65c-1.97,-81.72 -25.06,-151.72 -58.3,-189.88l-26.2 103.5 0 -124.29c-9.99,-6.06 -21.37,-9.33 -33,-9.33 -1.88,0 -3.68,0.08 -5.49,0.25 -64.6,5.98 -114.47,114.39 -111.44,242.2 2.95,127.81 57.73,226.72 122.33,220.75 64.52,-5.9 115.04,-114.88 112.09,-243.18z"/>
   <path class="fil1" d="M13912.34 1175.87c-27.1,5.98 -53.39,22.6 -80.41,25.96 -27.1,3.28 -56.82,-9.58 -73.86,-51.34 -9.25,-22.52 -13.84,-50.93 -21.62,-75.49 -5.98,-20.06 -16.05,-38.73 -29.56,-54.78 -8.35,33.73 -12.69,68.62 -12.69,103.41 0,4.01 0,8.19 0.16,12.12 2.95,127.81 57.73,226.56 122.33,220.58 54.12,-4.91 97.93,-82.53 108.82,-182.59 -4.42,0.49 -8.84,1.15 -13.26,2.13l0.08 0z"/>
   <path class="fil18" d="M15124.97 7848.9c74.84,-33 130.43,-81.39 152.87,-126.75l-104.81 15.15 115.61 -46.92c0.49,-3.19 0.74,-6.55 0.74,-9.83 0,-10.07 -2.46,-20.06 -7.04,-29.15 -30.21,-57.23 -149.59,-61.74 -266.52,-9.91 -116.84,51.91 -187.18,140.18 -156.96,198.15 30.21,57.97 149.1,61.08 266.11,9.25z"/>
   <path class="fil19" d="M15061.93 7857.99c-16.54,-22.6 -41.27,-40.45 -54.61,-64.19 -13.43,-23.83 -13.1,-56.17 18.91,-87.86 16.54,-16.54 41.68,-33 61.33,-49.54 16.29,-13.1 29.8,-29.56 39.38,-48.23 -38.4,5.9 -76.15,17.11 -111.6,33 -116.84,51.83 -187.18,140.18 -156.96,198.15 25.38,48.06 113.57,58.95 210.35,30.54 -2.05,-4.09 -4.34,-8.11 -6.8,-11.87l0 0z"/>
   <path class="fil0" d="M8768.49 8608.42c74.76,-33 130.43,-81.39 152.87,-126.83l-104.89 15.23 115.61 -46.92c0.49,-3.28 0.74,-6.55 0.74,-9.83 0,-10.15 -2.37,-20.14 -7.04,-29.15 -30.21,-57.32 -149.59,-61.74 -266.44,-9.91 -116.92,51.83 -187.26,140.18 -157.05,198.15 30.21,57.97 149.1,61.08 266.19,9.25z"/>
   <path class="fil1" d="M8705.36 8617.51c-16.46,-22.68 -41.27,-40.45 -54.61,-64.28 -13.35,-23.75 -13.02,-56.09 19,-87.77 16.46,-16.54 41.59,-33.08 61.25,-49.54 16.29,-13.18 29.8,-29.64 39.47,-48.23 -38.48,5.9 -76.15,17.03 -111.6,33 -116.92,51.83 -187.26,140.18 -157.05,198.15 25.46,47.98 113.57,58.95 210.35,30.54 -1.97,-4.09 -4.26,-8.11 -6.8,-11.87l0 0z"/>
   <path class="fil9" d="M8452.27 2959.05l-3660.68 0 0 -2427.08 4821.07 0 0 2427.08 -734.71 0 -425.69 0zm-3644.22 -16.54l3653.8 0 399.57 0 734.71 0 0 -2394 -4788.08 0 0 2394z"/>
   <path class="fil20" d="M8844.89 2372.87c0,-54.7 -44.3,-99.07 -99.07,-99.07 -54.7,0 -99.07,44.38 -99.07,99.07 0,54.7 44.38,99.07 99.07,99.07 54.78,0 99.07,-44.38 99.07,-99.07z"/>
   <path class="fil20" d="M9092.57 2372.87c0,-54.7 -44.38,-99.07 -99.07,-99.07 -54.7,0 -99.07,44.38 -99.07,99.07 0,54.7 44.38,99.07 99.07,99.07 54.7,0 99.07,-44.38 99.07,-99.07z"/>
   <path class="fil20" d="M9340.26 2372.87c0,-54.7 -44.38,-99.07 -99.07,-99.07 -54.78,0 -99.07,44.38 -99.07,99.07 0,54.7 44.3,99.07 99.07,99.07 54.7,0 99.07,-44.38 99.07,-99.07z"/>
   <path class="fil21" d="M14839.87 11854.86c0,-439.12 -1820.59,-795.05 -4066.39,-795.05 -2245.8,0 -4066.39,355.93 -4066.39,795.05 0,439.04 1820.59,795.05 4066.39,795.05 2245.8,0 4066.39,-356.01 4066.39,-795.05z"/>
   <path class="fil22" d="M11863.54 6929.64c-826.66,522.8 -1898.87,488.82 -2838.28,217.06 -939.49,-271.76 -1802.66,-756.49 -2717.75,-1100.79 -767.46,-288.71 -1572.5,-477.36 -2388.02,-561.69 -1166.62,-120.69 -2469.41,26.2 -3282.31,871.36 -905.26,941.45 -835.83,2639.55 143.29,3503.3 497.99,439.53 1150.25,655.2 1718.98,998.28 568.74,343.16 1094.89,913.12 1046.59,1575.53 -44.79,613.11 -566.03,1083.76 -1105.46,1378.94 -417.01,228.2 -930.64,477.28 -980.92,949.89 -48.47,457.3 383.28,815.69 795.62,1019.4 1345.12,664.78 3002.36,658.31 4342.24,-16.79 478.01,-240.89 917.54,-561.2 1418.81,-748.87 1316.46,-492.92 2766.8,3.36 4160.63,184.8 389.83,49.54 785.23,75.33 1178.49,75.33 796.53,0 1590.76,-105.3 2360.43,-309.18 690.16,-184.15 1383.11,-465.73 1867.92,-990.33 349.63,-378.28 567.02,-856.95 772.13,-1329.48 218.21,-503.89 427.82,-1011.46 628.92,-1522.72 120.85,-306.97 239.74,-619.75 270.78,-948.25 56.5,-594.94 -181.45,-1183.08 -505.77,-1685.33 -770.32,-1192.5 -2066.81,-2030.86 -3470.63,-2243.75 -1403.83,-212.97 -2889.53,203.31 -3978.53,1113.07m562.84 -429.79l0 0 0 0z"/>
   <path class="fil1" d="M7797.4 4010.14c-15.48,22.76 -23.09,52.98 -40.45,73.94 -17.28,21.04 -47.65,32.26 -88.84,13.92 -22.27,-9.91 -45.2,-27.43 -67.63,-39.79 -18.18,-10.56 -38.4,-17.28 -59.28,-19.65 19.24,33.9 43.07,65.18 70.66,92.61 90.31,90.64 198.15,124.54 240.73,75.66 35.7,-40.94 14.17,-127 -46.92,-207.24 -3.03,3.28 -5.81,6.88 -8.27,10.56l0 0z"/>
   <path class="fil0" d="M15692.89 2778.59c-57.73,-57.97 -122.66,-92.69 -173.01,-97.44l51.67 92.44 -84.99 -90.64c-13.18,2.87 -25.22,9.74 -34.23,19.81 -42.74,49.54 -4.09,161.79 86.22,252.43 90.31,90.64 198.15,124.54 240.73,75.66 42.58,-48.88 3.44,-162.12 -86.38,-252.27z"/>
   <path class="fil1" d="M15723.6 2834.18c-15.48,22.76 -23.09,52.98 -40.45,73.94 -17.28,21.04 -47.65,32.26 -88.84,13.92 -22.27,-9.91 -45.2,-27.43 -67.63,-39.79 -18.18,-10.56 -38.4,-17.28 -59.28,-19.65 19.24,33.9 43.07,65.18 70.66,92.61 90.31,90.64 198.15,124.54 240.73,75.66 35.7,-40.94 14.17,-127 -46.92,-207.24 -3.03,3.28 -5.81,6.88 -8.27,10.56l0 0z"/>
   <path class="fil0" d="M7712.41 3855.55c-57.73,-57.97 -122.66,-92.69 -173.01,-97.44l51.67 92.44 -84.99 -90.64c-13.18,2.87 -25.22,9.74 -34.23,19.81 -42.74,49.54 -4.09,161.79 86.22,252.43 90.31,90.64 198.15,124.54 240.73,75.66 42.58,-48.88 3.44,-162.12 -86.38,-252.27z"/>
   <path class="fil1" d="M7743.11 3911.15c-15.48,22.76 -23.09,52.98 -40.45,73.94 -17.28,21.04 -47.65,32.26 -88.84,13.92 -22.27,-9.91 -45.2,-27.43 -67.63,-39.79 -18.18,-10.56 -38.4,-17.28 -59.28,-19.65 19.24,33.9 43.07,65.18 70.66,92.61 90.31,90.64 198.15,124.54 240.73,75.66 35.7,-40.94 14.17,-127 -46.92,-207.24 -3.03,3.28 -5.81,6.88 -8.27,10.56l0 0z"/>
   <path class="fil23" d="M16717.61 4164.97c-57.73,-57.97 -122.66,-92.69 -173.01,-97.44l51.67 92.44 -84.99 -90.64c-13.18,2.87 -25.22,9.74 -34.23,19.81 -42.74,49.54 -4.09,161.79 86.22,252.43 90.31,90.64 198.15,124.54 240.73,75.66 42.58,-48.88 3.44,-162.12 -86.38,-252.27z"/>
   <path class="fil24" d="M16748.32 4220.57c-15.48,22.76 -23.09,52.98 -40.45,73.94 -17.28,21.04 -47.65,32.26 -88.84,13.92 -22.27,-9.91 -45.2,-27.43 -67.63,-39.79 -18.18,-10.56 -38.4,-17.28 -59.28,-19.65 19.24,33.9 43.07,65.18 70.66,92.61 90.31,90.64 198.15,124.54 240.73,75.66 35.7,-40.94 14.17,-127 -46.92,-207.24 -3.03,3.28 -5.81,6.88 -8.27,10.56l0 0z"/>
   <path class="fil25" d="M15804 1030.05c-57.73,-57.97 -122.66,-92.69 -173.01,-97.44l51.67 92.44 -84.99 -90.64c-13.18,2.87 -25.22,9.74 -34.23,19.81 -42.74,49.54 -4.09,161.79 86.22,252.43 90.31,90.64 198.15,124.54 240.73,75.66 42.58,-48.88 3.44,-162.12 -86.38,-252.27z"/>
   <path class="fil26" d="M15834.71 1085.64c-15.48,22.76 -23.09,52.98 -40.45,73.94 -17.28,21.04 -47.65,32.26 -88.84,13.92 -22.27,-9.91 -45.2,-27.43 -67.63,-39.79 -18.18,-10.56 -38.4,-17.28 -59.28,-19.65 19.24,33.9 43.07,65.18 70.66,92.61 90.31,90.64 198.15,124.54 240.73,75.66 35.7,-40.94 14.17,-127 -46.92,-207.24 -3.03,3.28 -5.81,6.88 -8.27,10.56l0 0z"/>
   <path class="fil18" d="M11548.96 243.43c74.84,-33 130.43,-81.39 152.87,-126.75l-104.81 15.15 115.61 -46.92c0.49,-3.19 0.74,-6.55 0.74,-9.83 0,-10.07 -2.46,-20.06 -7.04,-29.15 -30.21,-57.23 -149.59,-61.74 -266.52,-9.91 -116.84,51.91 -187.18,140.18 -156.96,198.15 30.21,57.97 149.1,61.08 266.11,9.25z"/>
   <path class="fil19" d="M11485.91 252.52c-16.54,-22.6 -41.27,-40.45 -54.61,-64.19 -13.43,-23.83 -13.1,-56.17 18.91,-87.86 16.54,-16.54 41.68,-33 61.33,-49.54 16.29,-13.1 29.8,-29.56 39.38,-48.23 -38.4,5.9 -76.15,17.11 -111.6,33 -116.84,51.83 -187.18,140.18 -156.96,198.15 25.38,48.06 113.57,58.95 210.35,30.54 -2.05,-4.09 -4.34,-8.11 -6.8,-11.87l0 0z"/>
   <path class="fil18" d="M8337.97 4683.11c74.84,-33 130.43,-81.39 152.87,-126.75l-104.81 15.15 115.61 -46.92c0.49,-3.19 0.74,-6.55 0.74,-9.83 0,-10.07 -2.46,-20.06 -7.04,-29.15 -30.21,-57.23 -149.59,-61.74 -266.52,-9.91 -116.84,51.91 -187.18,140.18 -156.96,198.15 30.21,57.97 149.1,61.08 266.11,9.25z"/>
   <path class="fil27 str0" d="M8274.92 4692.2c-16.54,-22.6 -41.27,-40.45 -54.61,-64.19 -13.43,-23.83 -13.1,-56.17 18.91,-87.86 16.54,-16.54 41.68,-33 61.33,-49.54 16.29,-13.1 29.8,-29.56 39.38,-48.23 -38.4,5.9 -76.15,17.11 -111.6,33 -116.84,51.83 -187.18,140.18 -156.96,198.15 25.38,48.06 113.57,58.95 210.35,30.54 -2.05,-4.09 -4.34,-8.11 -6.8,-11.87l0 0z"/>
   <g id="_1800091701008">
    <path class="fil28" d="M8567.31 1291.9c-5.65,-4.42 -12.36,-7.29 -19.41,-8.52 -7.45,-1.72 -15.07,-2.78 -22.6,-4.01l-98.01 -14.17c-6.96,-1.23 -14,-1.88 -21.04,-1.88 -3.03,0 -5.98,0.08 -9.01,0.33 -10.15,0.82 -19.49,5.73 -26.04,13.51 -2.95,3.6 -4.59,8.11 -4.59,12.77 0.57,4.67 2.05,9.17 4.5,13.18 0.9,1.88 1.72,3.85 2.37,5.9 0.98,4.42 2.13,8.92 3.52,13.26 0.41,0.98 0.98,1.88 1.72,2.62 0,0.16 0,0.25 0,0.41 0,0.08 0,0.16 0,0.33 -1.15,5.49 2.37,11.22 0.82,16.46 -1.39,4.59 -5.81,7.29 -8.6,11.14 -1.88,2.78 -2.95,6.06 -2.95,9.42 0,3.19 0.9,6.22 2.54,8.92 3.03,4.59 8.43,7.78 9.99,13.02 2.05,6.96 -3.44,13.67 -8.35,19.08 -9.01,9.83 -17.36,20.47 -24.89,31.44 -2.13,2.7 -3.52,5.9 -4.01,9.33 -0.41,6.88 6.22,13.02 5.08,19.9 -0.98,5.4 -6.22,8.68 -10.81,11.95 -16.95,11.14 -30.46,28.99 -31.85,49.29 -4.34,-32.26 -17.69,-62.64 -38.48,-87.61 -5.73,-6.8 -11.95,-13.67 -14.33,-22.35 -0.9,-3.44 -1.06,-7.21 -2.21,-10.56 -4.01,-10.48 -16.62,-15.07 -22.19,-24.73 -4.01,-6.88 -4.01,-15.64 -8.92,-21.7 -4.91,-5.98 -12.69,-7.37 -16.95,-13.18 -2.13,-3.93 -3.93,-8.02 -5.4,-12.2 -1.8,-3.44 -4.34,-6.47 -7.37,-8.84 -0.57,-0.49 -1.23,-0.9 -1.8,-1.31 1.31,-1.23 2.05,-2.95 2.05,-4.75 0,-4.67 -4.59,-7.7 -8.6,-9.99 -5.16,-2.95 -10.23,-6.14 -15.15,-9.42 5.32,-2.54 10.07,-6.39 13.51,-11.14 3.6,-5.73 5.49,-12.45 5.49,-19.24 0,-1.56 -0.08,-3.11 -0.25,-4.67 -0.33,-6.71 -2.78,-13.1 -7.12,-18.26 -2.54,-2.62 -5.65,-4.59 -8.27,-7.04 -6.88,-6.63 -9.17,-16.54 -11.95,-25.55 -3.77,-11.95 -9.58,-24.48 -20.55,-30.87 -5.24,-3.03 -11.38,-4.5 -16.46,-7.7 -5.16,-3.19 -9.5,-9.33 -7.7,-15.15 1.23,-4.01 4.91,-6.71 7.45,-10.15 2.29,-3.28 3.52,-7.29 3.52,-11.38 0,-6.55 -3.19,-12.69 -8.6,-16.46 -2.95,-1.88 -6.55,-3.52 -7.12,-6.88 -4.75,-1.23 -8.35,-5.08 -9.25,-9.83 -0.49,-2.29 -0.66,-4.75 -0.66,-7.12 0,-2.37 0.16,-4.75 0.66,-7.04 0.98,-7.37 2.05,-14.82 3.03,-22.11 1.8,0.74 3.68,1.06 5.57,1.06 1.88,0 3.77,-0.33 5.49,-1.06 3.44,5.57 7.45,10.81 11.95,15.56 12.12,14.33 21.62,30.7 27.84,48.39 2.29,6.3 4.59,13.43 10.48,16.87 2.05,1.15 4.34,1.72 6.39,2.95 2.37,1.72 4.5,3.93 6.14,6.39 4.83,6.3 9.58,12.61 14.33,19l0.25 0.9c0.08,0.57 0.33,1.15 0.66,1.64 0.82,0.98 2.05,1.56 3.36,1.72 14.66,3.36 31.11,6.47 43.81,-1.47 11.46,-7.21 16.46,-21.37 26.2,-30.87 6.88,-6.71 16.62,-11.95 18.59,-21.37 -2.29,-0.74 -4.59,-1.56 -6.88,-2.54 2.05,-1.97 4.01,-4.26 6.71,-6.88 3.93,-3.85 7.53,-8.11 10.56,-12.69 3.36,-5.57 6.06,-11.55 7.94,-17.77 7.7,-21.86 15.39,-43.72 23.09,-65.67 3.68,-10.32 7.37,-20.8 11.95,-30.87 4.83,-10.89 10.48,-21.37 15.64,-32.01 13.43,-27.76 23.91,-57.15 31.03,-87.2 0.9,-3.03 1.39,-6.22 1.39,-9.33 0,-1.15 -0.08,-2.29 -0.16,-3.36 -1.15,-6.88 -6.39,-12.28 -11.3,-17.19 -4.99,-5.4 -10.73,-10.15 -17.03,-14.08 -4.34,-2.7 -9.5,-4.18 -14.66,-4.18 -2.21,0 -4.42,0.25 -6.55,0.82 -10.23,2.95 -16.62,13.35 -18.91,23.83 -2.37,10.48 -1.47,21.29 -2.54,31.85 -1.39,15.31 -6.63,30.13 -7.94,45.53 -0.66,8.84 0,17.85 -1.06,26.69 -1.97,11.63 -5.98,22.84 -11.95,33 -12.86,24.24 -30.38,45.85 -51.42,63.46 -2.46,2.05 -4.99,3.93 -7.37,6.14 0,-1.72 0.33,-3.44 0.57,-5.16 -1.8,0.41 -3.44,1.06 -5.08,1.8 0,-0.49 0.08,-0.98 0.08,-1.56 0,-1.47 -0.25,-2.95 -0.66,-4.42 -3.19,-9.5 -17.36,-11.95 -19.98,-21.62 -0.41,-2.37 -0.66,-4.83 -0.66,-7.29 -0.82,-8.43 -6.63,-15.64 -8.6,-23.83 -1.8,-7.61 -0.41,-15.97 -3.93,-23.01 -3.03,-4.34 -6.63,-8.43 -10.64,-11.95 -4.75,-5.4 -8.19,-11.95 -10.07,-18.91 -0.49,-1.97 -0.98,-4.01 -1.56,-5.98 0.16,-1.23 0.25,-2.46 0.25,-3.68 0,-3.19 -0.57,-6.39 -1.64,-9.42 -3.6,-9.01 -13.02,-14.74 -16.38,-23.83 -2.62,-7.12 -1.47,-15.97 -6.47,-21.45 -2.62,-2.62 -5.9,-4.59 -9.42,-5.65 -18.18,-7.12 -37.34,-11.63 -56.82,-13.43 -10.89,-0.98 -22.93,-1.56 -30.7,-9.25 -9.09,-8.92 -9.5,-24.97 -20.22,-31.85 -9.33,-6.06 -22.68,-1.56 -29.97,6.96 -1.06,1.31 -2.13,2.62 -3.03,4.01 -0.82,-3.36 -1.23,-6.88 -1.23,-10.32 0,-2.05 0.16,-4.01 0.41,-6.06 0,-1.31 0.25,-2.7 0.41,-3.93 17.93,-5.9 33.24,-17.93 43.15,-34.06 9.83,-16.13 0,0 0,0.25l0.49 1.23c1.15,2.87 2.95,5.65 5.65,5.98l0 0c1.8,0 3.52,-0.66 4.91,-1.8 2.46,-1.64 4.67,-3.6 6.63,-5.73 1.06,-1.06 1.97,-2.21 2.87,-3.44 1.88,-2.46 3.44,-5.16 4.75,-7.94 1.97,-4.26 3.28,-8.76 3.93,-13.35 0.74,-4.59 0.82,-9.33 1.64,-14 0.74,-3.52 1.72,-7.04 2.87,-10.48 0.41,-1.23 0.82,-2.37 1.15,-3.52 0.33,-1.15 0.9,-2.7 1.31,-3.93 2.46,-8.19 3.85,-16.7 3.93,-25.3 0,-1.39 0,-2.87 0,-4.26 -0.25,-11.3 -5.08,-21.94 -13.35,-29.64 -6.88,-5.65 -15.88,-7.94 -20.96,-15.56 -3.28,-5.16 -3.93,-11.71 -5.9,-17.69 -4.18,-14.57 -16.29,-25.46 -31.28,-28.08 -1.23,-0.16 -2.54,-0.25 -3.77,-0.25 -7.53,0 -14.9,2.46 -20.96,7.04l0 0 -0.57 0.41 0 0c-3.93,3.03 -7.29,6.8 -9.83,10.97 -5.32,-1.39 -10.15,-4.18 -14.08,-7.94 -3.93,-3.68 -7.04,-8.35 -11.05,-11.95 -5.24,-4.75 -12.12,-7.45 -19.16,-7.45 -3.11,0 -6.22,0.49 -9.17,1.47 -10.07,4.09 -17.6,12.69 -20.22,23.25 -2.21,8.19 -1.8,17.6 -6.39,24.48 -3.52,5.32 -9.33,7.94 -13.43,12.77 -2.54,3.11 -4.26,6.71 -4.99,10.64l0 0c-0.41,2.05 -0.66,4.09 -0.66,6.22 0,0.16 0,0.33 0,0.41l0 0c0,0.98 0,1.97 0.25,2.95 0,0 0,0.33 0,0.49 0.08,1.06 0.33,2.21 0.66,3.19l0 0c1.15,4.09 3.19,7.78 5.9,10.97 2.62,2.95 5.98,5.32 9.58,6.88 1.56,0.57 3.11,1.06 4.67,1.47l4.75 1.06 1.64 0.41c-6.06,11.46 -9.33,24.32 -9.33,37.34 0,11.3 2.46,22.44 7.12,32.75 0,1.15 -0.33,2.21 -0.41,3.36 -0.16,3.77 -0.25,7.61 -0.25,11.38 0,11.87 0.82,23.83 2.37,35.54 0.49,6.22 0.82,13.02 -2.95,17.85 -1.72,1.97 -3.68,3.68 -5.81,5.16 2.21,-2.78 4.34,-5.57 6.63,-8.27 -5.65,-5.65 -14.49,-6.39 -22.52,-5.81 -15.39,1.15 -30.38,5.73 -43.72,13.35 -8.92,5.16 -18.1,11.95 -28.25,10.81 -6.06,-0.74 -11.95,-4.01 -17.85,-2.46 -3.28,1.39 -6.3,3.19 -9.09,5.4 -2.13,1.56 -4.59,2.37 -7.21,2.37 -0.08,0 -0.16,0 -0.25,0 -6.3,-7.7 -15.97,-12.94 -23.42,-19.16 -8.52,-7.61 -16.38,-15.97 -23.25,-24.97 -12.94,-15.56 -25.79,-31.11 -38.48,-46.84 -10.64,-13.26 -21.62,-27.51 -23.42,-44.46 -0.25,-1.64 -0.33,-3.28 -0.33,-4.91 0,-0.08 0,-0.08 0,-0.16 0.25,-8.02 1.31,-16.05 3.03,-23.91 0.25,-0.9 0.33,-1.88 0.33,-2.87 0,-0.98 -0.08,-1.88 -0.33,-2.87 -1.23,-4.01 -5.73,-5.49 -9.74,-6.3l0 0c0.57,-3.11 0.9,-6.22 1.15,-9.17 2.21,-34.31 -0.25,-69.02 7.04,-102.6 2.7,-12.86 7.21,-25.96 16.46,-35.29 14.57,-14.66 38.89,-18.18 50.03,-35.62 9.33,-14.49 5.57,-34.96 -6.14,-47.74 -11.63,-12.77 -29.72,-18.01 -46.84,-17.36 -0.25,0 -0.57,0 -0.82,0 -4.59,0 -9.01,1.23 -12.86,3.68 -3.77,3.36 -6.63,7.7 -8.27,12.53l-17.03 41.51c-4.99,10.81 -9.17,22.03 -12.53,33.33 -4.83,17.44 -5.9,35.86 -9.66,53.47 0,13.51 -8.68,30.38 -13.51,42.82 -5.32,14 -11.05,27.92 -15.88,42.17 -1.23,3.6 -5.4,14.25 -7.94,23.91 -0.98,0.57 -1.88,1.23 -2.7,2.05 -2.13,2.62 -4.01,5.49 -5.65,8.35 -3.68,4.83 -9.5,7.37 -13.51,11.95 -4.01,4.59 -4.83,13.1 0.74,15.39 1.06,0.41 2.29,0.66 3.44,0.74 0.74,0.08 1.47,0.25 2.13,0.41 5.98,1.64 8.35,9.17 7.45,15.39 -0.9,6.22 -4.01,11.95 -4.5,18.18 -1.06,10.97 5.4,21.21 11.63,30.38 6.39,9.99 13.51,19.65 21.21,28.66 5.65,6.3 11.95,11.95 17.6,18.01 21.53,22.11 38.65,47.98 57.97,71.97 6.96,9.09 14.9,17.44 23.66,24.81 5.65,4.42 11.63,8.6 17.85,12.28l33.24 21.12c3.77,2.7 8.02,4.75 12.61,5.9 0.74,0.08 1.47,0.16 2.21,0.16 0.74,0 1.47,-0.08 2.21,-0.16 0.25,0.98 0.41,1.97 0.66,2.95 2.54,10.4 8.27,19.9 8.84,30.54 0.66,10.64 -0.25,21.45 0.49,32.26 0.74,9.91 2.87,19.9 3.44,29.64 1.15,18.75 -3.52,37.34 -7.94,55.68 -6.71,26.94 -10.81,54.37 -23.91,78.77 -3.68,6.71 -7.94,13.59 -7.94,21.29 0,0.9 0,1.88 0.25,2.78l0 0 -5.98 3.36c-1.72,0.98 -3.52,2.05 -5.08,3.03 -7.61,4.91 -15.64,10.4 -18.75,18.91 -2.54,6.88 -1.39,14.74 -4.42,21.45 -0.08,0.33 -0.25,0.57 -0.49,0.9 -3.11,6.22 -9.5,10.81 -10.89,17.6l0 0c-1.06,5.24 0.98,10.73 0,15.97 0,0 0,0 0,0.16 -0.9,2.62 -1.64,5.24 -2.13,7.94 -0.08,0.16 -0.08,0.33 -0.08,0.49 0,0.74 0.08,1.47 0.25,2.13 0.82,3.03 2.46,5.73 4.83,7.78 1.39,1.39 2.95,2.62 4.67,3.68 1.64,1.15 3.44,2.21 5.24,3.11l0.98 0.57c1.56,0.82 3.03,1.56 4.59,2.29l1.06 0.41c1.8,0.82 3.6,1.47 5.49,2.13l1.23 0.41c1.47,0.49 2.95,0.9 4.42,1.31l0.98 0.33 0.9 0.16 4.01 0.82 1.47 0.33c1.72,0.25 3.52,0.49 5.32,0.66l1.64 0c1.31,0 2.62,0.25 3.93,0.25l1.88 0c1.39,0 2.78,0 4.01,0l1.39 0c1.88,0 3.77,-0.25 5.65,-0.49l0.57 0c1.64,-0.25 3.36,-0.49 4.99,-0.9l1.31 -0.25c1.56,-0.33 3.11,-0.74 4.67,-1.23l0.82 -0.25c1.88,-0.49 3.77,-1.15 5.57,-1.8 6.3,-2.62 12.53,-5.73 18.42,-9.17 3.93,-2.13 7.94,-4.42 11.87,-6.39 2.95,-1.56 6.06,-2.87 9.09,-4.01 6.39,-2.7 13.18,-4.09 20.14,-4.09 1.23,0 2.54,0 3.77,0.08 4.01,0.57 8.02,1.39 11.95,2.46 0,0.41 0,0.9 0,1.31 3.19,19.08 6.39,38.24 9.58,57.32 5.16,-3.77 10.73,-7.12 16.46,-9.91 -1.06,2.87 -1.8,5.9 -2.13,8.92 -0.08,1.23 -0.16,2.37 -0.16,3.6 0,1.15 0.08,2.37 0.16,3.52 0.41,3.77 1.15,7.94 -1.06,10.97 -1.39,1.8 -4.01,2.87 -4.75,4.91 -0.41,1.39 -0.57,2.87 -0.57,4.26 0,0.74 0.08,1.47 0.16,2.21 -0.33,5.16 -4.34,9.25 -9.5,9.66 0.57,1.64 0.9,3.36 0.9,5.08 0,5.08 -2.62,9.91 -6.88,12.69 -1.64,0.82 -3.19,1.8 -4.59,3.03 -1.39,1.72 -2.29,3.77 -2.7,5.98 -5.24,19.73 -16.13,37.5 -31.2,51.26 -5.65,4.42 -10.81,9.5 -15.39,15.07 -2.78,4.26 -5.16,8.84 -6.96,13.67 -10.56,25.96 -21.37,51.91 -32.34,77.95 -5.98,14.49 -11.87,29.23 -13.84,44.87 -4.75,42.9 -42.99,79.34 -35.78,121.92 1.39,10.64 5.73,20.63 12.36,29.07 8.02,9.58 19.98,15.07 31.85,19.57 30.7,11.95 63.05,18.42 95.31,25.06l50.6 10.32c9.91,2.29 20.06,3.93 30.21,4.83 12.2,0.82 24.73,-0.33 36.68,2.78 7.37,1.88 14.41,5.4 21.94,5.81 6.55,0.33 14.57,-1.06 18.5,4.34 3.85,5.32 0.82,12.36 4.5,17.11 5.9,7.53 20.22,0 26.69,7.04 1.72,2.78 3.03,5.73 3.93,8.84 0.98,1.88 2.37,3.6 4.01,4.99 0.33,1.88 0.49,3.85 0.49,5.73 0,0.33 0,0.74 0,1.06 -0.82,9.25 -2.78,18.34 -5.73,27.18 -4.83,16.13 -9.58,32.34 -14.33,48.47 -1.8,5.73 -3.11,11.63 -4.01,17.52 -0.08,1.47 -0.16,2.87 -0.16,4.34 0,1.47 0.08,2.87 0.16,4.34 0.9,8.76 5.9,17.85 14.33,20.72 2.21,0.57 4.42,0.9 6.71,0.9 4.42,0 8.76,-1.15 12.61,-3.28 5.73,-2.95 11.05,-6.55 15.97,-10.73 8.76,-6.63 16.54,-14.66 22.93,-23.66 19.9,-29.8 13.43,-70.01 27.43,-102.92 9.25,-22.03 27.35,-39.88 33.33,-63.05 0.82,-2.46 1.23,-4.99 1.23,-7.61 0,-1.97 -0.25,-4.01 -0.74,-5.98 -2.46,-7.94 -10.97,-12.45 -18.91,-15.31l-0.33 0c-6.47,-2.37 -13.18,-4.26 -19.9,-5.73 -1.72,-0.33 -3.44,-0.66 -5.08,-0.9 -3.85,-3.11 -6.8,-7.04 -8.84,-11.46 -0.33,-2.37 -0.9,-4.67 -1.88,-6.88 -1.23,-1.97 -3.36,-3.11 -5.73,-3.19 -3.93,-0.41 -9.25,1.06 -13.59,0.74 -8.92,-0.66 -14.82,-9.33 -22.76,-13.43 -7.94,-4.01 -16.62,-3.03 -25.06,-2.37 -1.06,0.16 -2.13,0.16 -3.19,0.16 -1.97,0 -3.93,-0.25 -5.9,-0.74 -3.52,-1.64 -6.8,-3.85 -9.58,-6.55 -6.96,-5.49 -15.64,-8.43 -24.56,-8.43 -3.52,0 -7.04,0.41 -10.48,1.39 -3.77,1.47 -7.86,2.46 -11.95,2.7 -7.78,-0.49 -13.26,-7.37 -19,-12.61 -15.64,-14.41 -37.99,-18.18 -56.99,-27.59 -2.95,-1.06 -5.32,-3.19 -6.88,-5.9 -2.13,-5.4 2.78,-10.81 7.21,-14.57l32.75 -27.18c35.78,-29.72 80.57,-52.16 97.19,-95.8 1.8,-5.81 4.42,-11.38 8.02,-16.38 1.23,-1.47 2.7,-2.87 4.42,-3.93 5.4,-3.52 11.71,-5.4 18.18,-5.4 2.05,0 4.18,0.16 6.22,0.57 10.32,2.29 20.14,6.63 28.82,12.61 14.25,8.6 28.17,17.93 41.59,27.84 13.35,9.5 26.12,20.06 38.07,31.2 20.88,19.9 38.24,43.56 57.73,65.01 19.49,21.45 41.68,41.43 68.78,51.75 27.02,10.23 59.69,9.83 82.86,-7.45 26.77,-19.9 35.37,-55.43 42.17,-88.1 14.9,-14.41 19.41,-36.35 26.69,-55.76 4.59,-12.28 10.4,-23.83 15.39,-36.11 5.9,-14.41 10.48,-29.31 15.07,-44.13 5.24,-14.9 8.84,-30.46 10.56,-46.1 1.97,-24.81 -4.67,-51.17 2.29,-74.43 9.17,-2.05 17.52,-7.21 26.53,-10.23 13.51,-4.42 27.92,-3.68 42.17,-3.6l0.9 0c0.74,0.08 1.56,0.08 2.29,0.08 4.18,0 8.19,-1.15 11.71,-3.44 4.75,-3.93 5.57,-10.73 5.81,-16.95 0.49,-15.23 -0.41,-32.34 -11.87,-42.17zm-576.68 -678.95c-2.29,0.57 -4.67,0.82 -7.12,0.82 -0.98,0 -1.97,0 -2.95,-0.08l10.07 -0.74z"/>
    <path class="fil29" d="M8006.36 864.73c-4.83,4.09 -10.48,7.04 -16.62,8.76l-28.17 10.15c-15.31,5.49 -31.36,10.97 -47.49,9.01 -9.01,-1.15 -47.74,-6.8 -53.63,-13.84 -8.92,-10.89 22.35,-26.94 33,-36.19 2.46,-1.72 4.67,-3.68 6.71,-5.81 3.93,-4.91 3.44,-11.71 2.87,-17.85 -1.47,-11.71 -2.29,-23.58 -2.29,-35.45 0,-3.77 0.08,-7.61 0.25,-11.38 0.33,-3.68 0.82,-7.45 1.56,-11.05 4.01,-18.34 21.04,-11.63 34.47,-6.8 16.21,5.24 31.93,12.04 46.75,20.22 4.59,2.37 8.52,5.73 11.55,9.83 5.9,8.92 3.6,20.63 2.62,31.85 -0.82,8.68 -0.82,17.03 4.67,23.42 2.7,2.37 5.24,5.08 7.53,7.94 0.82,1.88 1.23,3.93 1.23,5.98 0,4.26 -1.8,8.35 -4.99,11.22l0 0z"/>
    <path class="fil29" d="M7616.53 577.82c3.93,-17.6 4.83,-35.78 9.58,-53.22 3.36,-11.38 7.61,-22.52 12.53,-33.24l17.6 -40.94c1.56,-4.91 4.42,-9.17 8.27,-12.61 3.85,-2.37 8.35,-3.6 12.86,-3.6 0.25,0 0.49,0 0.74,0 17.19,-0.66 35.21,4.67 46.92,17.28 11.71,12.61 15.39,33.08 6.06,47.49 -11.14,17.36 -35.45,20.88 -49.95,35.54 -9.33,9.33 -13.76,22.35 -16.54,35.21 -7.21,33.49 -4.83,68.12 -7.04,102.27 -0.74,10.64 -2.78,22.76 -11.95,28.25 -4.75,2.37 -9.99,3.6 -15.31,3.6 -0.82,0 -1.72,-0.08 -2.54,-0.08l-26.12 0.41c-4.34,0 -20.22,2.7 -23.09,-0.57 -5.16,-5.73 6.47,-34.47 8.6,-40.94 4.67,-14.17 10.48,-28 15.88,-42 4.75,-12.45 13.51,-29.31 13.51,-42.82z"/>
    <path class="fil30" d="M8155.62 1828.29c-5.98,23.01 -24.07,40.86 -33.33,62.8 -14,32.83 -7.7,73.04 -27.43,102.68 -6.39,9.01 -14.17,17.03 -23.01,23.75 -4.83,4.09 -10.23,7.7 -15.88,10.64 -3.85,2.13 -8.27,3.28 -12.69,3.28 -2.21,0 -4.5,-0.25 -6.63,-0.82 -8.43,-2.87 -13.51,-11.95 -14.33,-20.72 -0.16,-1.47 -0.25,-2.87 -0.25,-4.34 0,-1.47 0.08,-2.87 0.25,-4.34 0.82,-5.9 2.21,-11.79 4.01,-17.44 4.75,-16.13 9.5,-32.26 14.25,-48.39 2.95,-8.76 4.91,-17.85 5.73,-27.1 0.57,-9.99 -5.81,-23.09 -3.11,-32.42 1.23,-4.18 5.81,-7.94 7.94,-11.46 3.03,-5.16 5.32,-10.64 6.88,-16.29 3.19,-11.14 5.49,-23.01 12.28,-32.34 4.5,-5.57 9.74,-10.48 15.56,-14.49 4.26,-3.77 9.33,-6.63 14.82,-8.35 2.05,-0.33 4.18,-0.57 6.22,-0.57 3.28,0 6.55,0.49 9.66,1.31 6.71,1.47 13.43,3.36 19.9,5.65l0.41 0c7.94,2.87 16.38,7.29 18.91,15.31 0.57,2.21 0.82,4.42 0.82,6.63 0,2.37 -0.33,4.75 -0.98,7.04l0 0z"/>
    <path class="fil31" d="M8579.1 1338.98c-0.25,6.14 -0.98,13.02 -5.73,16.87 -3.52,2.21 -7.61,3.44 -11.71,3.44 -0.82,0 -1.56,0 -2.37,-0.08l-1.06 0c-14.17,0 -28.66,-0.82 -42.09,3.6 -10.23,3.36 -19.65,9.58 -30.3,10.81 -14.66,1.64 -28.49,-6.39 -41.51,-13.35 -12.2,-6.55 -24.89,-12.61 -37.66,-17.93 -8.43,-3.44 -25.71,-5.65 -29.72,-14.9 -1.39,-4.34 -2.62,-8.84 -3.52,-13.35 -0.66,-1.97 -1.47,-3.93 -2.46,-5.81 -2.37,-4.01 -3.85,-8.52 -4.42,-13.18 0,-4.67 1.64,-9.17 4.5,-12.77 6.55,-7.7 15.97,-12.53 26.12,-13.35 2.95,-0.25 5.98,-0.41 8.92,-0.41 7.04,0 14.08,0.66 21.04,1.97l98.01 14.08c7.53,1.06 15.15,2.13 22.6,4.01 7.04,1.23 13.76,4.09 19.41,8.52 11.63,9.66 12.53,26.77 11.95,41.84z"/>
    <path class="fil32" d="M8492.97 1364.44c-11.95,25.14 -3.36,55.02 -5.49,82.86 -1.8,15.64 -5.32,31.03 -10.56,45.93 -4.67,14.82 -9.25,29.64 -15.15,43.97 -4.91,11.95 -10.81,23.91 -15.31,36.11 -7.29,19.41 -11.95,41.27 -26.77,55.68 -6.71,32.59 -15.31,68.21 -42.09,87.94 -23.34,17.19 -55.76,17.77 -82.94,7.37 -27.18,-10.4 -49.29,-30.3 -68.7,-51.75 -19.49,-21.45 -36.93,-44.79 -57.81,-64.77 -11.87,-11.22 -24.73,-21.7 -38.07,-31.2 -13.51,-9.74 -27.35,-19 -41.59,-27.59 -8.76,-5.98 -18.5,-10.23 -28.82,-12.53 -2.05,-0.41 -4.18,-0.66 -6.3,-0.66 -6.47,0 -12.77,1.88 -18.18,5.4 -1.64,1.15 -3.11,2.46 -4.42,4.01 -3.52,4.91 -6.22,10.48 -7.94,16.29 -16.7,43.56 -61.57,65.91 -97.44,95.64l-32.67 27.1c-4.5,3.68 -9.42,9.09 -7.21,14.41 1.47,2.78 3.93,4.83 6.8,5.9 19.08,9.42 41.35,13.18 57.07,27.51 5.73,5.24 11.22,12.2 19,12.61 4.09,-0.25 8.11,-1.15 11.95,-2.7 3.36,-0.9 6.96,-1.39 10.48,-1.39 8.84,0 17.52,2.95 24.56,8.43 2.78,2.7 6.06,4.91 9.58,6.55 1.88,0.49 3.93,0.74 5.9,0.74 1.06,0 2.13,0 3.11,-0.16 8.52,-0.57 17.52,-1.39 25.14,2.46 7.61,3.77 13.84,12.69 22.68,13.26 4.34,0.33 9.5,-1.06 13.67,-0.66 2.29,0.08 4.42,1.23 5.73,3.19 0.9,2.13 1.56,4.42 1.88,6.8 1.64,5.65 7.12,9.01 10.73,13.67 5.49,7.04 6.22,16.7 5.73,25.63 -1.8,28 -14.33,54.29 -34.88,73.36 -5.9,5.98 -13.35,10.07 -21.45,11.95 -1.39,0.25 -2.7,0.41 -4.09,0.41 -7.04,0 -13.59,-3.77 -17.19,-9.91 -0.9,-3.03 -2.21,-6.06 -3.93,-8.76 -6.47,-7.04 -20.8,0.49 -26.69,-7.04 -3.68,-4.67 -1.06,-12.2 -4.5,-17.11 -3.52,-4.83 -11.95,-3.93 -18.5,-4.26 -7.53,-0.41 -14.57,-3.93 -21.94,-5.81 -11.95,-3.11 -24.48,-1.97 -36.68,-2.78 -10.15,-0.9 -20.22,-2.54 -30.21,-4.75l-50.6 -10.4c-32.26,-6.55 -64.6,-13.18 -95.31,-24.89 -11.71,-4.5 -23.5,-9.99 -31.77,-19.57 -6.71,-8.35 -10.97,-18.42 -12.45,-29.07 -7.21,-42.41 31.03,-78.77 35.78,-121.51 1.72,-15.64 8.02,-30.38 13.92,-44.87 10.73,-25.87 21.53,-51.75 32.26,-77.7 1.72,-4.83 4.01,-9.42 6.8,-13.76 4.59,-5.57 9.74,-10.56 15.39,-14.98 15.07,-13.67 25.87,-31.44 31.2,-51.17 0.33,-2.13 1.31,-4.18 2.62,-5.98 1.39,-1.15 2.95,-2.21 4.67,-2.95 4.26,-2.78 6.88,-7.61 6.88,-12.69 0,-1.72 -0.33,-3.44 -0.9,-5.08 5.08,-0.41 9.17,-4.5 9.5,-9.58 -0.16,-0.74 -0.16,-1.47 -0.16,-2.21 0,-1.47 0.16,-2.87 0.57,-4.26 0.9,-2.05 3.28,-3.11 4.67,-4.91 2.29,-3.03 1.47,-7.21 1.15,-10.89 -0.08,-1.23 -0.16,-2.37 -0.16,-3.6 0,-1.15 0.08,-2.37 0.16,-3.6 0.9,-8.35 4.67,-16.29 10.64,-22.19 9.5,-9.33 23.09,-6.96 36.19,-9.17 13.1,-2.78 25.96,-6.96 38.24,-12.2 34.47,-13.59 70.91,-22.03 107.92,-24.97 6.06,-0.49 12.28,-0.74 18.42,-0.74 31.11,0 61.82,6.22 90.56,18.1 4.99,2.05 9.66,4.67 14,7.94 3.11,2.37 5.57,5.4 7.37,8.84 1.47,4.18 3.28,8.27 5.4,12.2 4.26,5.81 12.28,7.7 16.95,13.18 4.67,5.49 5.08,14.74 8.92,21.53 5.57,9.74 18.34,14.25 22.19,24.73 1.15,3.36 1.31,7.04 2.21,10.48 2.13,8.68 8.6,15.56 14.33,22.44 20.8,24.89 34.23,55.27 38.48,87.53 1.31,-20.14 14.82,-38.07 31.85,-49.21 4.59,-2.95 9.91,-6.3 10.81,-11.71 1.15,-6.8 -5.49,-12.94 -5.08,-19.9 0.49,-3.36 1.88,-6.63 4.01,-9.33 7.53,-10.97 15.88,-21.45 24.89,-31.28 4.91,-5.4 10.4,-11.95 8.35,-19.08 -1.56,-5.24 -6.96,-8.35 -9.91,-13.02 -1.72,-2.62 -2.62,-5.65 -2.62,-8.84 0,-3.36 1.06,-6.63 2.95,-9.42 2.78,-3.77 7.21,-6.55 8.6,-11.05 1.56,-5.24 -1.88,-10.97 -0.82,-16.46 1.39,-4.34 4.34,-8.11 8.19,-10.64 5.24,-4.75 11.3,-8.76 17.77,-11.71 10.48,-3.93 22.19,-2.46 33.33,-0.9 18.67,2.54 39.55,6.55 50.03,22.11 6.8,9.83 10.15,24.56 5.16,35.04z"/>
    <path class="fil9" d="M8579.1 1338.98c-0.25,6.14 -0.98,13.02 -5.73,16.87 -3.52,2.21 -7.61,3.44 -11.71,3.44 -0.82,0 -1.56,0 -2.37,-0.08l-1.06 0c1.64,-8.35 11.71,-13.02 13.51,-21.45 0.08,-0.74 0.08,-1.47 0.08,-2.21 0,-4.5 -1.56,-8.84 -4.5,-12.2 -8.52,-11.55 -22.19,-17.93 -35.78,-22.6 -24.81,-8.43 -50.85,-12.77 -76.97,-12.77 -14.33,0 -28.66,1.31 -42.66,3.85 -10.89,1.8 -21.45,5.08 -31.44,9.66 -3.36,2.05 -6.55,4.34 -9.58,6.8 -2.37,-4.01 -3.93,-8.52 -4.5,-13.18 0.08,-4.67 1.64,-9.17 4.59,-12.77 6.55,-7.7 15.97,-12.53 26.04,-13.35 2.95,-0.25 5.98,-0.41 8.92,-0.41 7.12,0 14.17,0.66 21.12,1.97l97.93 14.08c7.61,1.06 15.23,2.13 22.68,4.01 7.04,1.23 13.67,4.09 19.41,8.52 11.71,9.66 12.61,26.77 12.04,41.84z"/>
    <path class="fil9" d="M8155.62 1828.29c-5.98,23.01 -24.07,40.86 -33.33,62.8 -14,32.83 -7.7,73.04 -27.43,102.68 -6.39,9.01 -14.17,17.03 -23.01,23.75 -4.83,4.09 -10.23,7.7 -15.88,10.64 -3.85,2.13 -8.27,3.28 -12.69,3.28 -2.21,0 -4.5,-0.25 -6.63,-0.82 -8.43,-2.87 -13.51,-11.95 -14.33,-20.72 -0.16,-1.47 -0.25,-2.87 -0.25,-4.34 0,-1.47 0.08,-2.87 0.25,-4.34l0.25 0.66c3.44,8.35 9.09,17.11 18.01,18.59 0.57,0.08 1.15,0.08 1.8,0.08 6.14,0 12.12,-2.37 16.62,-6.55 13.1,-10.56 20.72,-26.28 28,-41.43 5.73,-10.97 10.23,-22.44 13.51,-34.39 1.56,-6.71 2.29,-13.67 3.93,-20.39 7.61,-32.92 33.33,-59.77 39.06,-93.1 0.25,-1.47 0.41,-2.95 0.41,-4.5 0,-0.82 0,-1.64 -0.08,-2.46 -0.74,-3.03 -1.97,-5.9 -3.44,-8.68 -1.39,-3.03 -2.46,-6.3 -3.03,-9.58 7.94,2.87 16.38,7.29 18.91,15.31 0.41,1.8 0.66,3.68 0.66,5.57 0,2.7 -0.49,5.4 -1.31,7.94l0 0z"/>
    <path class="fil9" d="M8095.52 1771.22c-3.68,9.58 -9.91,18.1 -17.93,24.48 -11.38,8.6 -24.65,14.41 -38.65,16.7 -3.11,0.82 -6.3,1.23 -9.5,1.23 -3.52,0 -7.04,-0.49 -10.4,-1.47 -8.84,-3.03 -15.23,-11.3 -24.24,-13.67 -6.47,-1.8 -13.43,-0.25 -19.9,-1.15 -11.79,-1.64 -20.88,-10.64 -30.38,-17.77 -28.99,-21.86 -67.06,-28.9 -96.13,-50.68 -1.23,-0.82 -2.37,-1.88 -3.11,-3.19 -0.41,-1.15 -0.66,-2.29 -0.66,-3.52 0,-0.33 0.08,-0.66 0.08,-0.98 0.08,-13.26 3.11,-26.37 8.76,-38.32 4.59,-8.27 10.07,-16.13 16.38,-23.34 25.96,-31.85 52.08,-63.95 83.19,-90.8 13.1,-11.22 27.35,-21.78 43.81,-26.86 9.17,-2.78 27.18,-5.49 38.32,-0.74 -1.64,1.15 -3.11,2.54 -4.34,4.01 -3.6,4.99 -6.3,10.48 -8.02,16.29 -16.7,43.64 -61.57,66 -97.44,95.72l-32.67 27.1c-4.5,3.68 -9.42,9.09 -7.21,14.41 1.47,2.78 3.93,4.83 6.8,5.9 19.08,9.42 41.35,13.18 57.07,27.51 5.73,5.24 11.22,12.2 19,12.61 4.09,-0.25 8.11,-1.15 11.95,-2.7 3.36,-0.9 6.96,-1.39 10.48,-1.39 8.84,0 17.52,2.95 24.56,8.43 2.78,2.7 6.06,4.91 9.58,6.55 1.88,0.49 3.93,0.74 5.9,0.74 1.06,0 2.13,0 3.11,-0.16 8.52,-0.57 17.52,-1.39 25.14,2.46 7.61,3.77 13.84,12.69 22.68,13.26 4.42,0.33 9.58,-1.15 13.76,-0.66z"/>
    <path class="fil30" d="M7729.44 1230.98c-7.53,4.91 -15.56,10.4 -18.67,18.83 -2.54,6.88 -1.39,14.74 -4.42,21.45 -3.03,6.63 -9.99,11.3 -11.46,18.5 -1.06,5.16 1.06,10.73 0,15.88 -0.9,2.7 -1.64,5.49 -2.21,8.27 -0.41,5.98 4.75,10.81 9.66,14.08 13.1,8.52 28.41,13.1 44.05,13.1 9.66,0 19.24,-1.8 28.33,-5.16 10.56,-4.01 20.22,-10.48 30.38,-15.56 9.09,-5.24 19.49,-8.02 29.97,-8.02 0.98,0 1.88,0 2.78,0.08 6.55,0.74 12.86,3.11 19.41,4.01 1.31,0.25 2.62,0.33 3.93,0.33 5.32,0 10.48,-2.05 14.25,-5.81 2.05,-2.78 3.44,-5.98 4.01,-9.42 5.57,-21.86 3.03,-45.03 -2.21,-66.98 -5.24,-21.94 -13.26,-43.07 -18.83,-64.93 -4.01,-16.21 -7.04,-32.83 -13.67,-48.15 -6.71,-15.31 -17.85,-29.56 -33.49,-35.45 -0.9,-0.41 -1.8,-0.57 -2.78,-0.57 -0.41,0 -0.82,0 -1.23,0.08 -0.98,0.41 -1.88,1.06 -2.54,1.88 -12.36,13.1 -21.78,28.82 -27.35,45.93 -6.22,19.08 -7.94,39.3 -13.67,58.46 -2.46,7.94 -5.65,18.59 -11.95,24.73 -6.3,6.06 -15.15,9.83 -22.27,14.41z"/>
    <path class="fil9" d="M7879.52 1301.48c-0.66,3.36 -2.05,6.63 -4.18,9.42 -3.77,3.68 -8.84,5.81 -14.08,5.81 -1.39,0 -2.78,-0.16 -4.09,-0.41 -6.55,-0.82 -12.77,-3.28 -19.41,-4.01 -0.9,0 -1.8,-0.08 -2.7,-0.08 -10.56,0 -20.88,2.78 -30.05,8.02 -10.15,5.08 -19.9,11.46 -30.38,15.56 -9.17,3.44 -18.83,5.16 -28.49,5.16 -6.71,0 -13.35,-0.82 -19.81,-2.46 -8.52,-2.13 -16.62,-5.65 -23.91,-10.48 -4.99,-3.28 -10.07,-7.94 -9.66,-14.08 0.57,-2.78 1.31,-5.49 2.21,-8.19 1.06,-5.24 -1.06,-10.73 0,-15.97 1.47,-7.12 8.43,-11.87 11.46,-18.5 3.03,-6.63 1.88,-14.57 4.34,-21.45 3.11,-8.43 11.22,-13.92 18.75,-18.83 7.61,-4.83 16.62,-8.6 22.6,-14.57 0.82,-0.9 1.56,-1.88 2.13,-2.95 4.34,-6.71 7.61,-14.08 9.5,-21.86 5.81,-19.24 7.45,-39.38 13.67,-58.46 5.57,-17.11 14.98,-32.83 27.35,-45.93 0.66,-0.82 1.47,-1.47 2.54,-1.88 0.41,-0.08 0.82,-0.16 1.23,-0.16 0.98,0 1.88,0.25 2.7,0.66 15.64,5.9 26.77,20.14 33.49,35.45 6.71,15.31 9.5,31.85 13.67,48.06 5.57,21.86 13.59,43.07 18.83,65.01 5.24,21.94 7.86,45.2 2.29,67.14z"/>
    <path class="fil9" d="M7997.92 816.01c-7.78,2.46 -15.97,3.77 -24.07,3.77 -31.61,0 -60.18,-18.67 -72.87,-47.49 0.33,-3.77 0.82,-7.45 1.56,-11.14 4.01,-18.34 21.04,-11.63 34.47,-6.8 16.21,5.24 31.93,12.12 46.75,20.31 4.59,2.29 8.52,5.65 11.55,9.74 5.9,8.84 3.6,20.55 2.62,31.61z"/>
    <circle class="fil29" cx="7973.89" cy="736.19" r="79.6"/>
    <path class="fil9" d="M8189.93 1331.04c0,6.63 -9.01,8.76 -15.64,8.35 -23.91,-1.39 -47.24,-7.94 -70.91,-5.9 -29.89,2.7 -57.32,19.16 -87.28,20.72 -11.55,0.57 -23.34,-1.15 -34.72,0.98 -14.74,2.7 -27.84,11.71 -42.82,12.94 -13.02,1.15 -25.87,-3.77 -38.89,-3.19 -9.09,0.49 -18.01,3.03 -26.04,7.37 0.9,-8.43 4.67,-16.29 10.73,-22.27 9.5,-9.33 23.01,-6.88 36.19,-9.17 13.02,-2.78 25.87,-6.88 38.16,-12.2 34.55,-13.59 70.99,-22.03 107.92,-24.89 6.22,-0.49 12.45,-0.82 18.67,-0.82 30.95,0 61.74,6.14 90.23,18.01 5.08,2.05 9.74,4.67 14.08,7.94 0.16,0.57 0.33,1.23 0.33,1.88 0,0.08 0,0.16 0,0.25l0 0z"/>
    <path class="fil33" d="M7937.09 881.52l-32.26 -11.87 -13.59 -5.08c-5.57,-2.29 -11.38,-3.85 -17.36,-4.59 -15.64,-1.23 -30.3,9.17 -38.65,22.44 -8.27,13.26 -11.46,29.07 -14.08,44.46 -3.68,21.04 -6.8,42.25 -9.33,63.46 -2.7,19.16 -4.18,38.48 -4.18,57.81 0.9,49.29 11.38,97.93 22.84,145.91 5.57,21.21 9.83,42.9 12.61,64.68 0.98,9.01 1.39,18.01 2.37,27.02 1.06,10.15 2.7,20.22 4.42,30.3l9.58 57.15c11.87,-8.43 25.46,-15.88 40.2,-16.29 13.02,-0.49 25.87,4.34 38.89,3.19 14.9,-1.23 28.08,-10.15 42.82,-12.94 11.38,-2.05 23.09,-0.41 34.72,-0.98 29.89,-1.47 57.4,-18.01 87.28,-20.72 23.66,-2.13 47.16,4.5 70.91,5.9 6.63,0.41 15.56,-1.64 15.56,-8.35 0,-4.59 -4.59,-7.61 -8.6,-9.99 -18.91,-11.38 -37.01,-24.32 -53.88,-38.48 -15.72,-12.45 -31.61,-25.14 -42.41,-41.92 -26.04,-40.45 -17.11,-95.06 -39.22,-137.72 -18.1,-34.64 0,-80 0,-119.05 0,-19.41 0,-39.14 -4.59,-58.05 -2.87,-10.56 -6.47,-20.96 -10.73,-31.03l-15.48 -39.22c-0.33,-1.15 -0.98,-2.13 -1.8,-2.95 -1.06,-0.74 -2.21,-1.06 -3.44,-1.06 -0.08,0 -0.08,0 -0.16,0 -0.74,-0.08 -1.47,-0.08 -2.21,-0.08 -8.52,0 -16.79,2.95 -23.5,8.27 -7.21,5.98 -11.87,14.49 -19.08,20.63 -7.86,6.8 -17.93,12.77 -27.68,9.17z"/>
    <path class="fil23" d="M7989.08 858.92c2.54,-10.89 5.32,-22.19 12.61,-30.7 7.29,-8.52 20.55,-13.02 29.97,-6.96 10.64,6.96 11.05,22.93 20.22,31.85 7.94,7.61 19.9,8.19 30.7,9.25 19.41,1.72 38.57,6.22 56.82,13.35 3.52,1.06 6.8,3.03 9.42,5.65 4.99,5.65 3.93,14.33 6.47,21.37 3.36,9.09 12.69,14.82 16.29,23.91 4.01,9.99 0,21.21 -3.28,31.52 -6.06,18.5 -9.83,37.75 -15.64,56.33 -5.9,18.59 -14.25,36.93 -27.92,50.93 -6.06,6.14 -14.98,11.87 -23.01,8.19l-3.03 22.11c-0.49,2.29 -0.66,4.67 -0.66,7.04 0,2.37 0.16,4.75 0.66,7.12 0.9,4.75 4.5,8.52 9.25,9.74 0.57,3.44 4.18,5.08 7.12,6.96 5.4,3.68 8.68,9.83 8.68,16.38 0,4.09 -1.23,8.11 -3.6,11.46 -2.54,3.36 -6.22,6.06 -7.45,10.07 -1.72,5.81 2.54,11.95 7.7,15.15 5.16,3.19 11.22,4.67 16.54,7.7 10.89,6.3 16.7,18.67 20.47,30.7 2.78,9.09 5.08,18.91 11.95,25.46 2.62,2.54 5.73,4.42 8.27,7.04 4.34,5.16 6.8,11.63 7.12,18.34 0.16,1.56 0.33,3.11 0.33,4.67 0,6.8 -1.97,13.43 -5.49,19.16 -8.02,11.38 -22.84,14.82 -35.86,19.9 -21.12,8.68 -38.48,24.24 -57.15,37.42 -7.53,6.14 -16.54,10.32 -26.04,12.28 -12.94,1.72 -25.63,-4.01 -38.57,-4.5 -7.78,0.08 -15.56,1.06 -23.01,3.03l-23.91 5.16c1.31,-18.5 -8.92,-37.01 -14.57,-54.7 -10.81,-33.16 -12.77,-68.7 -10.23,-103.5 2.54,-34.72 9.66,-69.02 16.62,-103.25 4.91,-23.83 4.42,-48.8 11.95,-71.97 7.04,-22.35 17.11,-43.81 20.8,-67.06 6.06,-37.58 -19.08,-69.52 -10.56,-106.61z"/>
    <path class="fil34" d="M8170.12 932.53c2.21,4.01 3.77,8.43 4.59,12.94 1.88,7.04 5.32,13.51 10.07,18.91 4.01,3.6 7.61,7.61 10.64,11.95 3.6,6.96 2.21,15.39 3.93,22.93 1.97,8.27 7.78,15.39 8.6,23.91 0,2.46 0.25,4.83 0.66,7.21 2.62,9.66 16.79,11.95 19.98,21.62 2.05,6.22 -1.56,13.02 -0.9,19.65 0.33,1.31 0.49,2.7 0.49,4.01 0,0.74 0,1.47 -0.08,2.13 -0.9,2.37 -2.54,4.42 -4.59,5.81 -13.18,12.61 -22.27,28.82 -26.2,46.59 -3.77,17.69 -5.9,35.78 -5.98,53.88l-15.56 -20.55c-1.64,-2.54 -3.77,-4.67 -6.22,-6.39 -1.97,-1.15 -4.26,-1.8 -6.3,-2.95 -5.9,-3.36 -8.19,-10.48 -10.48,-16.79 -6.3,-17.6 -15.72,-34.06 -27.84,-48.31 -6.39,-7.45 -13.67,-14.9 -15.07,-24.56 -0.16,-1.39 -0.25,-2.87 -0.25,-4.26 0,-3.03 0.33,-6.06 0.9,-9.01 4.01,-26.12 8.27,-52.81 20.96,-75.9 5.9,-10.89 13.59,-20.63 19.32,-31.61 3.77,-7.29 9.17,-26.28 19.32,-11.22z"/>
    <path class="fil34" d="M7777.5 957.58c0,0.08 0,0.25 0,0.41 0,3.19 -0.82,6.39 -2.46,9.17 -2.37,2.7 -5.9,4.34 -9.5,4.34 -1.06,0 -2.13,-0.16 -3.11,-0.41 -4.5,-1.15 -8.76,-3.11 -12.53,-5.9 -11.14,-6.96 -22.19,-14 -33.33,-21.04 -6.14,-3.68 -12.2,-7.86 -17.85,-12.28 -8.68,-7.37 -16.7,-15.64 -23.58,-24.65 -19.32,-23.91 -36.44,-49.86 -57.97,-71.64 -5.9,-5.98 -11.95,-11.71 -17.6,-18.01 -7.7,-8.92 -14.9,-18.59 -21.29,-28.58 -6.22,-9.17 -12.69,-19.41 -11.55,-30.38 0.57,-6.22 3.6,-11.95 4.42,-18.1 0.9,-6.14 -1.47,-13.67 -7.37,-15.39 -0.74,-0.16 -1.47,-0.25 -2.21,-0.33 -1.15,-0.08 -2.29,-0.33 -3.44,-0.74 -5.49,-2.29 -4.67,-10.89 -0.74,-15.39 4.01,-4.5 9.91,-6.96 13.51,-11.95 1.72,-2.87 3.6,-5.73 5.65,-8.35 2.7,-2.29 5.9,-3.93 9.25,-4.67 13.18,-3.85 26.86,-5.81 40.61,-5.81 10.07,0 20.22,1.06 30.05,3.11 4.01,0.9 8.52,2.54 9.74,6.39 0.25,0.9 0.33,1.88 0.33,2.87 0,0.98 -0.08,1.88 -0.33,2.87 -1.72,7.78 -2.78,15.8 -3.03,23.83 0,0.08 0,0.16 0,0.16 0,1.64 0.08,3.28 0.25,4.91 1.88,16.87 12.86,31.11 23.5,44.3 12.69,15.72 25.55,31.28 38.4,46.75 6.96,9.01 14.82,17.36 23.34,24.89 7.94,6.63 18.26,11.95 24.48,20.47 4.99,6.8 3.44,16.13 3.93,24.4 0.9,13.26 1.47,26.86 1.47,40.28 0,11.46 -0.33,23.09 -1.06,34.47l0 0z"/>
    <path class="fil29" d="M8283.03 1123.63c3.85,-3.85 7.45,-8.02 10.56,-12.53 3.28,-5.57 5.98,-11.63 7.94,-17.85l23.09 -65.42c3.68,-10.4 7.29,-20.72 11.95,-30.79 4.75,-10.89 10.4,-21.37 15.64,-31.85 13.35,-27.59 23.75,-56.74 30.87,-86.55 0.98,-3.11 1.47,-6.22 1.47,-9.42 0,-1.15 -0.08,-2.21 -0.16,-3.36 -1.15,-6.88 -6.39,-12.2 -11.3,-17.11 -4.99,-5.4 -10.73,-10.15 -17.03,-14 -4.34,-2.78 -9.5,-4.26 -14.66,-4.26 -2.21,0 -4.42,0.33 -6.55,0.82 -10.23,2.95 -16.62,13.43 -18.91,23.91 -2.37,10.4 -1.47,21.12 -2.54,31.77 -1.39,15.31 -6.63,30.05 -7.94,45.44 -0.66,8.84 0,17.77 -1.06,26.61 -1.97,11.63 -6.06,22.76 -11.95,32.92 -12.94,24.15 -30.38,45.77 -51.42,63.29 -5.81,4.26 -10.97,9.25 -15.48,14.9 -3.77,5.57 -6.3,11.87 -7.45,18.5 -0.9,3.52 -1.39,7.21 -1.39,10.81 0,6.71 1.64,13.35 4.67,19.32 6.47,11.05 18.91,15.88 30.79,18.42 16.13,3.28 19.81,-2.21 30.87,-13.59z"/>
    <g>
     <path class="fil30" d="M7974.34 620.81c6.47,-12.04 19.08,-19.65 32.83,-19.65 1.06,0 2.13,0.08 3.28,0.16 14.9,2.62 27.02,13.51 31.28,28.08 1.88,5.9 2.62,12.53 5.9,17.6 4.91,7.7 14.08,9.91 20.88,15.48 8.27,7.7 13.1,18.34 13.43,29.64 0,0.98 0,1.97 0,2.95 0,10.4 -1.8,20.72 -5.32,30.46 -1.64,4.59 -2.95,9.33 -4.01,14.08 -0.74,4.59 -0.82,9.25 -1.56,13.92 -1.8,12.04 -8.35,22.93 -18.26,30.13 -1.39,1.06 -3.11,1.72 -4.91,1.72 -3.11,-0.33 -5.08,-3.93 -6.22,-7.21 -6.3,-18.26 -4.83,-40.61 -16.46,-55.19 -5.32,-5.81 -11.71,-10.64 -18.83,-14 -2.95,-1.88 -6.22,-3.11 -9.66,-3.68 -5.08,0.33 -9.91,2.05 -13.92,5.16 -8.43,5.57 -17.77,9.74 -27.51,12.12 -2.62,0.66 -5.24,0.98 -7.86,0.98 -7.45,0 -14.74,-2.54 -20.63,-7.04 -5.49,-4.59 -9.5,-11.38 -15.64,-14.9 -6.06,-3.52 -12.45,-3.36 -18.42,-5.81 -10.07,-4.26 -16.62,-14.17 -16.62,-25.14 0,-5.98 1.97,-11.79 5.57,-16.54 3.93,-4.83 9.83,-7.53 13.35,-12.77 4.59,-6.88 4.26,-16.29 6.39,-24.48 2.62,-10.48 10.23,-19.08 20.31,-23.09 2.95,-0.98 5.98,-1.56 9.09,-1.56 7.12,0 14,2.7 19.24,7.45 3.93,3.6 7.12,8.19 11.05,11.95 5.9,5.65 13.84,8.84 22.03,8.84 2.46,0 4.99,-0.25 7.45,-0.9l-16.21 1.23zm0 0l0 0 0 0z"/>
    </g>
    <path class="fil9" d="M8039.76 1206.66c-3.28,2.95 -5.16,7.12 -5.16,11.55 0,1.8 0.33,3.68 0.98,5.32 0.9,1.88 41.92,-5.98 46.26,-6.63 10.81,-1.56 29.8,-0.74 37.09,-10.73 13.02,-17.52 -27.18,-13.59 -34.55,-12.94 -14,1.15 -33.9,3.03 -44.62,13.43z"/>
    <path class="fil30" d="M7666.15 693.28c-1.72,7.78 -2.78,15.8 -3.03,23.83 -11.95,2.46 -24.4,-1.56 -35.86,-5.49l-32.92 -11.22c-1.47,-0.98 -3.19,-1.47 -4.99,-1.47 -2.95,0 -5.81,1.39 -7.53,3.77 -5.32,5.49 -12.61,15.97 -19.9,22.11 -1.23,-0.08 -2.37,-0.33 -3.44,-0.74 -5.57,-2.29 -4.75,-10.89 -0.74,-15.39 3.93,-4.5 9.83,-6.96 13.51,-11.95 1.64,-2.87 3.52,-5.73 5.65,-8.35 2.62,-2.29 5.81,-3.93 9.25,-4.67 13.18,-3.85 26.86,-5.81 40.53,-5.81 10.15,0 20.22,1.06 30.13,3.11 3.93,0.9 8.52,2.54 9.66,6.39 0.16,0.74 0.25,1.47 0.25,2.21 0,1.23 -0.16,2.46 -0.57,3.68l0 0z"/>
    <path class="fil9" d="M7666.15 693.28c-1.72,7.78 -2.78,15.8 -3.03,23.83 -11.95,2.46 -24.4,-1.56 -35.86,-5.49l-32.92 -11.22c-1.47,-0.98 -3.19,-1.47 -4.99,-1.47 -2.95,0 -5.81,1.39 -7.53,3.77 -5.32,5.49 -12.61,15.97 -19.9,22.11 -1.23,-0.08 -2.37,-0.33 -3.44,-0.74 -5.57,-2.29 -4.75,-10.89 -0.74,-15.39 3.93,-4.5 9.83,-6.96 13.51,-11.95 1.64,-2.87 3.52,-5.73 5.65,-8.35 2.62,-2.29 5.81,-3.93 9.25,-4.67 13.18,-3.85 26.86,-5.81 40.53,-5.81 10.15,0 20.22,1.06 30.13,3.11 3.93,0.9 8.52,2.54 9.66,6.39 0.16,0.74 0.25,1.47 0.25,2.21 0,1.23 -0.16,2.46 -0.57,3.68l0 0z"/>
    <path class="fil9" d="M7967.22 1448.86c5.73,1.97 11.95,4.75 13.92,10.48l-46.1 -11.71 -23.91 -6.14c-4.18,-1.06 -19.32,-2.29 -22.11,-5.57 -4.01,-4.91 10.15,-1.56 12.69,-1.15 7.7,1.15 15.48,2.29 23.17,3.68 14.49,2.62 28.41,6.88 42.33,10.4z"/>
    <path class="fil9" d="M7985.15 1489.64c-4.01,-2.62 -15.48,-2.29 -20.31,-3.44 -7.21,-1.72 -14.25,-4.01 -21.29,-6.22 -14.25,-4.67 -28.49,-9.91 -43.15,-13.35 -2.7,-0.57 -11.95,-0.74 -11.46,-4.18 0.41,-3.44 9.17,-4.59 11.38,-4.75 13.02,-0.98 29.23,5.08 41.35,9.42 15.39,5.57 30.05,13.1 43.48,22.52l0 0z"/>
    <path class="fil9" d="M7955.92 1412.51c-14.66,-4.01 -27.92,-13.02 -42.9,-14.82 -0.25,0 -0.49,0 -0.66,0 -3.68,0 -7.37,-1.15 -10.32,-3.36 -1.8,-1.72 -3.03,-3.93 -3.52,-6.39 10.07,-0.49 21.78,3.77 30.87,7.78 5.08,2.13 9.91,4.75 14.57,7.78 3.28,1.97 8.35,7.86 11.95,9.01z"/>
    <path class="fil30" d="M8234.31 1056.08c-0.49,3.44 -0.74,6.88 -0.74,10.32 0,30.7 20.14,57.81 49.54,66.65 -1.88,9.42 -11.71,14.66 -18.59,21.37 -9.66,9.42 -14.66,23.58 -26.12,30.7 -12.86,8.02 -29.23,4.91 -43.81,1.56 -1.31,-0.16 -2.54,-0.82 -3.44,-1.8 -0.33,-0.49 -0.49,-0.98 -0.66,-1.56 -4.83,-17.6 -7.94,-36.44 -3.03,-54.12 4.01,-15.07 13.59,-27.84 21.21,-41.19 7.61,-13.26 8.35,-27.51 25.63,-31.93z"/>
    <path class="fil23" d="M7878.46 827.89c-15.39,1.15 -30.38,5.73 -43.72,13.35 -8.92,5.08 -18.1,11.95 -28.33,10.73 -5.98,-0.74 -11.87,-4.01 -17.77,-2.37 -3.28,1.31 -6.39,3.11 -9.09,5.4 -1.8,1.39 -4.09,2.21 -6.47,2.21 -1.23,0 -2.46,-0.25 -3.6,-0.66l-3.93 55.11c-1.56,20.96 -3.03,42.33 2.05,62.72 2.54,10.4 8.27,19.9 8.84,30.46 0.66,10.64 -0.25,21.45 0.49,32.18 0.66,9.91 2.87,19.65 3.44,29.56 1.15,18.75 -3.52,37.26 -7.94,55.43 -6.71,26.86 -10.81,54.29 -23.91,78.52 -3.68,6.8 -7.94,13.59 -7.94,21.29 0,0.9 0,1.8 0.25,2.78 -4.01,2.13 -7.7,4.26 -11.05,6.39 -7.61,4.91 -15.64,10.32 -18.75,18.83 -2.54,6.88 -1.39,14.74 -4.42,21.37 -3.03,6.63 -9.91,11.38 -11.46,18.59 -1.06,5.16 0.98,10.73 0,15.88 -0.9,2.7 -1.64,5.49 -2.13,8.27 -0.41,5.98 4.59,10.81 9.66,14 7.29,4.83 15.39,8.43 23.83,10.56l23.83 -94.33 0 0c21.62,-40.04 39.71,-82.04 53.88,-125.28 4.01,-14.08 9.25,-28 15.48,-41.27 4.5,-7.45 8.52,-15.31 11.95,-23.42 3.6,-9.99 4.01,-20.88 5.73,-31.44 2.13,-12.28 5.24,-24.56 9.33,-36.35 4.34,-12.77 9.33,-25.46 10.15,-38.89 1.31,-19.24 -5.65,-39.47 1.8,-57.23 3.11,-6.63 7.21,-12.77 12.12,-18.26 10.23,-12.53 19.65,-25.71 29.89,-38.32 -5.32,-5.65 -14.17,-6.3 -22.19,-5.81z"/>
    <g id="_1799997179536">
     <path class="fil35" d="M7990.64 607.79l-4.99 0.33 -0.49 0.41c1.8,-0.08 3.68,-0.33 5.49,-0.74l0 0z"/>
     <path class="fil35" d="M8081.69 690.41c-0.82,7.86 -2.54,15.72 -5.08,23.25 -1.64,4.5 -2.95,9.25 -4.01,14 -0.74,4.59 -0.82,9.25 -1.56,13.92 -1.8,12.04 -8.35,22.93 -18.26,30.13 -1.39,1.15 -3.11,1.72 -4.91,1.8 -3.11,-0.41 -5.08,-4.01 -6.22,-7.29 -6.3,-18.26 -4.83,-40.61 -16.46,-55.19 -5.32,-5.81 -11.71,-10.64 -18.83,-14 -2.95,-1.88 -6.22,-3.11 -9.66,-3.6 -5.08,0.25 -9.91,2.05 -13.92,5.08 -8.43,5.65 -17.77,9.74 -27.51,12.2 -2.62,0.57 -5.24,0.9 -7.86,0.9 -7.45,0 -14.74,-2.54 -20.63,-7.04 -5.49,-4.59 -9.5,-11.38 -15.64,-14.9 -6.06,-3.52 -12.45,-3.36 -18.42,-5.81 -7.61,-3.19 -13.35,-9.74 -15.56,-17.69 -0.08,-0.49 -0.25,-1.06 -0.33,-1.56 -0.41,2.05 -0.66,4.09 -0.66,6.06 0,2.54 0.33,4.99 0.98,7.37 2.21,8.02 7.94,14.57 15.56,17.77 5.98,2.46 12.77,2.46 18.42,5.81 5.73,3.28 10.15,10.32 15.64,14.9 5.9,4.5 13.18,7.04 20.63,7.04 2.62,0 5.24,-0.33 7.78,-0.98 9.83,-2.37 19.16,-6.55 27.59,-12.12 4.01,-3.11 8.84,-4.83 13.92,-5.16 3.44,0.57 6.71,1.8 9.66,3.68 7.04,3.44 13.35,8.27 18.59,14.17 11.63,14.57 10.15,36.85 16.46,55.11 1.15,3.36 3.03,6.96 6.14,7.29 0,0 0.08,0 0.08,0 1.88,0 3.68,-0.66 5.16,-1.88 9.91,-7.21 16.54,-18.18 18.34,-30.3 0.66,-4.59 0.74,-9.33 1.56,-13.92 0.98,-4.75 2.37,-9.42 3.93,-14 3.6,-9.74 5.4,-20.06 5.4,-30.46 0,-0.98 0,-2.05 -0.08,-3.03 -0.08,-0.49 -0.16,-1.06 -0.25,-1.56z"/>
    </g>
    <path class="fil36" d="M7829.91 1009.74l-2.7 36.35c-0.41,4.91 -9.83,122.41 -79.42,259.72 -59.69,117.82 -175.88,271.19 -395.23,357.4 -17.11,6.8 -34.88,13.1 -53.3,18.91l-20.55 -64.44c51.5,-16.21 101.29,-38.07 148.12,-64.85 111.85,-64.52 198.72,-156.72 259.39,-275.28 32.01,-62.97 55.11,-130.68 68.04,-200.2l-249.57 0 0 -67.63 325.23 0z"/>
    <path class="fil37" d="M7325.69 1663.22c219.27,-86.22 335.54,-239.5 395.15,-357.32 69.6,-137.31 79.1,-254.73 79.42,-259.72l2.7 -36.35 27.84 0 -2.7 36.35c-0.33,4.91 -9.83,122.41 -79.34,259.72 -59.77,117.82 -175.88,271.1 -395.23,357.32 -17.11,6.8 -34.88,13.1 -53.3,19l-2.7 -8.43c9.58,-3.44 19,-6.96 28.17,-10.56z"/>
    <path class="fil36" d="M6886.57 1617.7l-20.55 64.44c-18.42,-5.9 -36.19,-12.2 -53.3,-19 -219.27,-86.14 -335.54,-239.5 -395.15,-357.32 -69.6,-137.31 -79.1,-254.73 -79.42,-259.72l-2.7 -36.35 324.98 0 0 67.63 -249.57 0c13.02,69.6 36.11,137.15 68.29,200.2 60.59,118.56 147.47,210.68 259.31,275.2 46.84,26.94 96.7,48.8 148.12,64.93l0 0z"/>
    <path class="fil38" d="M6839.57 1663.22c-219.36,-86.22 -335.54,-239.5 -395.23,-357.32 -69.52,-137.31 -79.01,-254.73 -79.42,-259.72l-2.7 -36.35 -27.84 0 2.7 36.35c0.41,4.91 9.83,122.41 79.42,259.72 59.69,117.82 175.88,271.1 395.15,357.32 17.11,6.8 34.96,13.1 53.39,19l2.7 -8.43c-9.58,-3.44 -19,-6.96 -28.17,-10.56z"/>
    <path class="fil36" d="M7458.09 2240.96l0 364.86 -750.92 0 0 -364.86 23.91 -31.85c243.35,-86.38 292.64,-311.55 302.46,-400.72 1.47,-12.28 2.29,-24.73 2.54,-37.09l92.85 0c0.16,12.36 1.06,24.81 2.46,37.09 9.99,89.09 59.28,314.42 302.46,400.72l24.24 31.85z"/>
    <polygon class="fil37" points="6707.17,2286.73 7458.09,2286.73 7458.09,2240.96 6707.17,2240.96 "/>
    <path class="fil38" d="M6770.87 2209.11c243.35,-86.38 292.64,-311.55 302.46,-400.72 1.47,-12.28 2.37,-24.73 2.54,-37.09l-39.79 0c-0.25,12.36 -1.06,24.81 -2.54,37.09 -9.99,89.09 -59.28,314.42 -302.46,400.72l-23.91 31.85 0 364.86 39.79 0 0 -364.86 23.91 -31.85z"/>
    <path class="fil9" d="M6593.11 1009.74l67.31 0 0 67.63 -61.33 0c-2.46,-22.27 -4.42,-44.79 -5.98,-67.63z"/>
    <path class="fil9" d="M6886.57 1617.7l-20.55 64.44c-18.42,-5.9 -36.19,-12.2 -53.3,-19 -28.08,-34.31 -53.06,-71.4 -74.35,-110.29 46.92,26.86 96.78,48.72 148.2,64.85l0 0z"/>
    <path class="fil9" d="M7278.69 1617.7c51.42,-16.21 101.29,-38.07 148.12,-64.85 -21.29,38.89 -46.26,76.07 -74.26,110.37 -17.19,6.8 -34.88,13.1 -53.3,19l-20.55 -64.52z"/>
    <path class="fil9" d="M7572.15 1009.74c-1.56,22.84 -3.6,45.36 -5.98,67.63l-61.33 0 0 -67.63 67.31 0z"/>
    <path class="fil9" d="M7131.55 1808.39c-16.05,3.11 -32.51,4.67 -48.88,4.67 -16.46,0 -32.92,-1.56 -48.96,-4.67 1.39,-12.28 2.29,-24.73 2.54,-37.09l92.85 0c0.16,12.36 1.06,24.81 2.46,37.09l0 0z"/>
    <path class="fil36" d="M6601.06 897.65c1.72,501.76 216.65,907.47 481.62,907.47 264.96,0 479.81,-405.71 481.62,-907.47l-963.23 0z"/>
    <path class="fil38" d="M6686.62 897.65l-85.56 0c1.72,501.76 216.65,907.47 481.62,907.47 14.33,0 28.66,-1.23 42.74,-3.6 -244.9,-40.94 -437.16,-429.38 -438.79,-903.87z"/>
    <rect class="fil39" x="6827.25" y="2380.63" width="510.77" height="131.35"/>
    <polygon class="fil38" points="6851.12,2398.58 7338.05,2398.58 7338.05,2380.65 6827.21,2380.65 6827.21,2511.99 6851.12,2511.99 "/>
    <path class="fil40" d="M6328.64 1382.13c-9.17,-3.11 -63.29,-45.93 -67.39,-65.34 -4.09,-19.32 28.58,-199.95 28.58,-199.95 0,0 -3.03,0 -7.94,-0.57l0 -2.95 6.71 -237.21c0,0 27.59,-159.17 -24.48,-149.92 -52.16,9.25 -19.49,149.92 -19.49,149.92 0,0 -5.9,71.4 -10.07,92.85 -4.01,20.63 -22.19,104.81 -9.83,130.93 0.49,0.9 0.98,1.88 1.56,2.7l0 0c0,0 2.05,89.74 -20.39,102.02 -21.45,11.63 -30.38,70.33 -31.2,75.66l-1.15 -0.49 0 0c-6.39,-4.01 -12.04,-9.17 -16.54,-15.15 -0.49,-0.66 -0.9,-1.23 -1.31,-1.88 14.25,-16.05 22.11,-36.76 22.11,-58.22 0,-22.6 -8.76,-44.38 -24.48,-60.67 -7.04,-7.37 -15.39,-13.51 -24.56,-18.01 -0.33,-7.61 -2.13,-15.07 -5.32,-21.94 -10.4,-22.19 -67.63,-51.09 -108.41,-51.75 -18.75,-0.57 -34.14,4.75 -39.79,19.41 -2.87,7.45 -1.97,15.97 -3.19,23.66 -2.37,15.97 -12.61,28.41 -25.71,38.32 -5.32,-5.9 -11.05,-11.46 -17.19,-16.54 -13.26,-10.15 -39.79,-43.72 -39.79,-43.72 0,0 -82.7,-85.73 -88.84,-109.23 -6.14,-23.5 -88.84,-164.5 -107.18,-139.93 -18.42,24.56 63.29,131.58 63.29,131.58 0,0 15.56,38.89 27.43,51.99 11.95,13.18 103.5,146.07 103.5,146.07l4.42 9.09c-19.41,10.23 -37.01,23.17 -43.31,43.4 -9.17,29.8 10.89,59.69 24.73,87.53 27.02,54.37 30.87,123.72 -3.93,173.42 -31.28,43.89 -85.4,64.68 -136,82.94 23.5,18.5 52.65,28.58 82.62,28.58 1.15,0 2.21,0 3.28,-0.08 -11.63,33.98 -53.14,45.2 -88.51,51.5 18.59,17.77 45.12,24.32 70.58,28.25 11.71,1.97 23.66,2.95 35.54,2.95 0.74,0 1.47,0 2.29,0l3.11 0 3.03 -0.25c4.34,-0.25 8.68,-0.82 12.94,-1.64 18.34,-3.77 36.19,-13.76 45.61,-29.97 7.94,-13.92 10.73,-32.83 25.22,-39.88 3.77,-1.64 7.78,-2.62 11.95,-2.78l-0.49 0c2.7,0 5.49,0 8.19,0l60.26 0.57c2.46,0 5.08,0 7.7,0 16.95,-0.41 35.13,-3.36 43.72,-17.36 3.6,-6.8 5.49,-14.41 5.49,-22.11 1.23,-19.08 0,-38.65 0.49,-57.89 5.16,34.96 10.56,89.49 -2.21,109.64 -10.4,15.23 -23.01,28.9 -37.34,40.45 -3.6,3.03 -6.96,6.47 -9.91,10.15 -1.97,1.39 -3.11,2.13 -3.11,2.13l-1.23 3.68c-4.5,6.88 -7.86,14.57 -9.74,22.52 -0.49,1.64 -0.82,3.36 -0.82,4.99 0,0.49 0.08,0.98 0.08,1.47 1.39,2.78 -9.91,14.49 -6.63,19.32 -28.33,33.24 -33.73,83.6 -33.73,83.6l-51.75 78.6c-26.53,69.84 -66.32,76.97 -66.32,76.97 0,0 -93.51,-62.72 -96.04,-65.75 -2.62,-3.11 -38.32,-18.42 -38.32,-18.42 -4.18,-7.37 -10.64,-13.26 -18.42,-16.79 -12.2,-5.08 -13.26,-23.83 -13.26,-23.83 -1.47,-44.38 -27.59,-47.82 -27.59,-47.82 -21.04,-1.8 -37.01,1.97 -49.37,8.84l-3.77 0.25c-18.01,1.47 -39.79,3.11 -63.7,4.67 -66.4,4.42 -82.21,47.41 -82.21,47.41 0,0 -8.11,9.25 2.54,19.16 10.73,9.99 79.26,0 82.21,-0.25 -1.64,0.16 -3.19,0.25 -4.83,0.25 -3.6,0 -7.29,-0.41 -10.81,-1.31 10.81,-0.41 25.63,-0.82 38.32,-0.82l3.03 0c-0.74,6.47 -1.15,13.02 -1.15,19.57 0,0.25 0,0.49 0,0.66 0,12.77 35.21,20.96 35.21,20.96l107.26 95.47c0,0 67.47,30.13 110.37,73.53 42.9,43.31 80.82,5.9 80.82,5.9 45.44,-11.22 176.04,-169.16 176.21,-169.33l0 0c0,4.59 2.7,158.19 7.94,189.06l0 0c0.25,1.56 0.57,3.11 1.15,4.59 6.14,13.26 -2.05,49.46 -5.57,64.77 -1.8,10.32 -2.78,20.8 -2.78,31.28 0,2.46 0.08,4.99 0.16,7.45 0.08,2.46 -48.96,187.1 -44.95,203.55 4.09,16.38 -26.53,92.77 -26.53,92.77l0 63.7 5.32 -0.25c-0.66,0.98 -1.31,2.05 -1.88,3.19l-0.41 0.66c0,0 32.75,7.12 54.7,5.08 21.94,-2.05 59.69,16.95 59.69,16.95 0,0 12.77,5.98 52.08,8.6 39.38,2.54 39.38,-17.36 39.38,-17.36 -4.5,-27.1 -66.65,-36.19 -68.53,-36.52 -5.08,-3.11 -9.74,-6.55 -13.59,-9.5l-0.82 -0.66c0.25,-0.57 0.49,-1.15 0.66,-1.8 6.71,-27.02 -30.13,-38.81 -30.13,-38.81l0 -6.63c23.91,-12.2 28.66,-96.37 28.66,-96.37 0,0 35.78,-104.07 40.86,-121.43 4.99,-17.28 0,-43.31 0,-43.31l3.52 -22.44c0,0 7.7,-15.31 7.7,-18.34 0.98,-7.78 4.01,-15.15 8.68,-21.45 5.65,-6.63 -6.14,-22.44 -6.14,-22.44l10.23 -26.53 0 -29.07 23.91 -105.54c0,0 25.06,-122.98 16.38,-163.19 -8.68,-40.2 10.23,-60.67 10.23,-60.67 -1.72,0.9 -3.52,1.64 -5.32,2.37 2.46,-5.57 4.5,-11.22 6.22,-16.95l53.71 6.63 0 0.82 19.41 0c0,0 -6.14,-75.66 -6.14,-106.12 0,-30.54 20.63,-139.93 20.63,-139.93 0,0 9.17,-106.93 0,-109.96zm-332.35 277.24c0,2.95 -0.25,6.06 -0.49,9.25l-1.06 1.64 -1.97 -1.64 -2.46 3.77 -0.66 0.33c-5.32,-2.7 -8.02,-18.18 -11.79,-14.82l-0.49 0.41c-0.82,-0.98 -1.72,-1.23 -2.54,-0.41l-0.82 0.66c0,-1.15 0,-2.37 0,-3.52 7.29,1.88 14.74,2.78 22.27,2.78 93.83,-365.02 93.83,-364.45 93.83,-364.04l-93.83 365.59zm156.47 347.82l1.15 0 -1.97 4.99c116.35,-362.89 116.6,-364.53 116.92,-366.25l-116.11 361.25zm-80.08 541.39l-7.37 -1.88 4.01 -0.66 3.68 2.46 0.41 0.33 -0.74 -0.25zm74.76 -10.73c-2.37,-1.31 -4.83,-2.78 -7.29,-4.26 0.82,0.41 4.01,2.05 7.29,4.26z"/>
    <polygon class="fil12" points="6295.24,1570.78 6247.09,1696.38 6258.8,1696.38 6213.44,1732.57 6295.24,1742.73 "/>
    <polygon class="fil12" points="6219.66,1651.19 6295.24,1651.19 6322.99,1422.9 6219.66,1422.9 "/>
    <path class="fil41" d="M6072.03 1476.95l16.38 -2.78 37.42 -6.3c0,0 112.67,-25.46 135.92,-27.51 14,-1.8 27.76,-5.73 40.69,-11.63 6.14,-2.62 9.99,-4.59 9.99,-4.59l-40.53 -74.1 -62.97 -46.59c0,0 -39.79,-8.52 -56.66,-31.69 -4.83,-6.47 -7.53,-14.33 -7.53,-22.44 0,-4.42 0.82,-8.76 2.37,-12.94 10.23,-31.77 -61.41,30.46 -61.41,30.46 0,0 0.74,14.98 0,33.98 0,3.77 -0.33,7.61 -0.57,11.63 0,2.62 -0.41,5.24 -0.66,7.94 -1.72,18.91 -5.32,38.4 -12.45,50.03 -17.28,28.41 0,106.53 0,106.53z"/>
    <path class="fil9" d="M6085.71 1302.38l1.64 0c2.87,0 5.16,-6.06 7.94,-6.3 22.44,-2.21 42.9,-6.88 57.07,-22.76 -4.83,-6.47 -7.45,-14.33 -7.45,-22.44 0,-4.42 0.74,-8.76 2.29,-12.86 10.23,-31.85 -61.41,30.38 -61.41,30.38 0,0 0.82,14.98 -0.08,33.98z"/>
    <path class="fil41" d="M5998.59 1212.15c0,0 0,0 0,0 0,48.23 39.06,87.2 87.2,87.2 0,0 0,0 0.08,0 2.87,0 5.65,0 8.52,-0.33 44.62,-4.42 78.69,-42 78.69,-86.87 0,-48.15 -39.06,-87.2 -87.28,-87.2 -48.15,0 -87.2,39.06 -87.2,87.2l0 0z"/>
    <path class="fil30" d="M5971.81 1079.75c-2.87,7.37 -2.05,15.64 -3.19,23.5 -4.26,28.33 -33,45.28 -59.04,57.15 -26.04,11.79 -55.43,25.87 -63.7,53.22 -9.09,29.56 10.81,59.2 24.56,86.96 26.77,54.04 30.62,122.98 -4.01,172.44 -30.79,43.81 -84.34,64.52 -134.86,82.78 23.42,18.42 52.4,28.41 82.21,28.41 1.06,0 2.13,0 3.19,0 -11.63,33.73 -52.81,44.87 -87.86,51.09 18.42,17.77 44.79,24.24 70.09,28.08 18.42,2.87 37.34,4.75 55.68,1.06 18.42,-3.68 35.86,-13.67 45.28,-29.89 8.02,-13.76 10.73,-32.59 25.06,-39.55 5.24,-2.13 10.89,-3.19 16.62,-3.19 1.23,0 2.54,0.08 3.77,0.16l59.77 0.66c18.59,0 40.53,-1.47 50.19,-17.28 3.52,-6.8 5.32,-14.33 5.4,-22.03 2.54,-39.14 -4.99,-80.57 11.14,-116.27 4.91,-10.81 -26.28,-27.84 -23.01,-39.3 11.22,-39.3 14,-70.17 13.92,-111.11 0,-31.61 20.55,-58.87 37.58,-85.56 16.95,-26.69 31.2,-60.43 17.77,-89.09 -15.15,-31.93 -128.71,-78.44 -146.56,-32.26z"/>
    <path class="fil41" d="M6051.32 2537.12l15.15 10.07 2.37 1.56 0.41 0.25 18.01 11.95 42.17 7.04 37.01 -2.54c0,0 10.64,-22.27 -6.14,-21.78 -5.32,-0.25 -10.56,-1.8 -15.23,-4.42l-2.29 -1.15 0 0c-2.46,-1.23 -4.91,-2.7 -7.29,-4.18l0 0c-4.99,-3.19 -9.66,-6.55 -13.43,-9.5 -5.57,-4.26 -9.25,-7.53 -9.25,-7.53l-61.49 20.22z"/>
    <path class="fil9" d="M6066.71 2547.19l2.29 1.56 0.49 0.25 18.01 11.95 42.09 7.04 37.01 -2.54c0,0 10.64,-22.27 -6.06,-21.78 -5.4,-0.25 -10.64,-1.8 -15.31,-4.42 2.95,2.37 5.4,4.83 5.65,6.96 0.66,5.65 -27.35,15.88 -27.35,15.88l-39.55 -10.4c0,0 -6.8,-1.97 -15.97,-4.34l-0.9 -0.25 -0.41 0.08z"/>
    <path class="fil30" d="M5998.99 2556.86c0,0 32.42,7.12 54.29,5.08 21.78,-2.05 59.36,16.79 59.36,16.79 0,0 12.69,5.98 51.75,8.52 39.06,2.54 39.06,-17.28 39.06,-17.28 -4.5,-26.94 -66.16,-35.86 -68.04,-36.27l0 0 0 0 0 0c0.74,0.41 3.93,2.05 7.21,4.26l0 0c4.42,2.87 9.09,6.63 9.5,9.58 0.66,5.73 -27.43,15.97 -27.43,15.97l-39.55 -10.4c0,0 -6.71,-1.97 -15.88,-4.34l-0.9 0c-13.59,-3.68 -27.51,-6.63 -41.51,-8.6 -17.03,-1.8 -25.71,12.61 -27.51,15.88 -0.08,0.33 -0.25,0.57 -0.33,0.82l0 0z"/>
    <path class="fil41" d="M5487.74 1841.15l17.19 13.18c0,0 5.08,-0.25 12.53,-0.49l2.37 0c10.73,-0.41 25.46,-0.74 37.99,-0.74 1.8,-0.08 3.68,-0.16 5.49,-0.16 6.22,0 12.61,0.49 18.75,1.47 8.6,3.03 23.91,-49.21 23.91,-49.21l-17.28 -3.93 -5.73 -1.39 -3.93 -0.98 -14.08 -3.28 -42.58 4.83 -29.97 19.32 -4.67 21.37z"/>
    <path class="fil9" d="M5487.74 1841.15l17.19 13.18c0,0 5.08,-0.25 12.53,-0.49 -3.44,-1.31 -6.3,-3.85 -7.94,-7.12 -11.14,-30.87 44.13,-44.13 44.13,-44.13l25.71 -1.06 5.08 -0.25 3.93 0 -5.73 -1.39 -3.93 -0.98 -14.08 -3.28 -42.58 4.83 -29.97 19.32 -4.34 21.37z"/>
    <path class="fil30" d="M5453.76 1855.07c10.4,9.66 78.69,0 81.55,-0.25 -1.56,0.25 -3.19,0.33 -4.83,0.33 -3.52,0 -7.12,-0.49 -10.64,-1.39 -5.08,-0.9 -9.42,-4.01 -11.95,-8.52 -11.14,-30.95 44.13,-44.13 44.13,-44.13l25.79 -1.15 4.99 -0.25 62.56 -2.7 3.03 -17.19c0,0 -20.31,1.88 -52.24,4.42 -17.93,1.47 -39.79,3.11 -63.37,4.67 -66,4.34 -81.63,47.16 -81.63,47.16 0,0 -8.02,9.17 2.62,19z"/>
    <path class="fil41" d="M6219.74 1108c0.41,0.98 0.9,1.88 1.47,2.7l15.23 22.35 39.55 3.93 0.41 -15.64 6.71 -235.98c0,0 27.35,-158.27 -24.4,-149.1 -51.75,9.09 -19.24,149.1 -19.24,149.1 0,0 -5.9,70.99 -10.07,92.36 -4.01,20.63 -22.03,104.4 -9.66,130.27z"/>
    <path class="fil41" d="M6130.9 1694.09l11.3 19.24 25.14 43.07c0,0 45.69,16.79 57.4,4.01 6.47,-6.96 13.35,-31.28 18.26,-51.75 3.93,-16.54 6.63,-30.54 6.63,-30.54l-118.73 15.97z"/>
    <path class="fil9" d="M6130.9 1694.09l11.3 19.24c0.66,-0.66 1.31,-1.31 1.88,-2.05 12.77,-16.21 68.86,-3.44 98.91,-2.46 3.93,-16.54 6.63,-30.46 6.63,-30.46l-118.73 15.72z"/>
    <path class="fil9" d="M5557.83 1853.02c1.8,-0.08 3.68,-0.16 5.49,-0.16 6.22,0 12.61,0.49 18.75,1.47 8.6,3.03 23.91,-49.21 23.91,-49.21l-23.01 -5.4 62.64 -2.7 3.03 -17.19c0,0 -20.39,1.88 -52.32,4.42 -6.55,3.77 -12.45,8.76 -17.36,14.57l-0.98 1.15c-13.35,16.38 -18.26,37.5 -20.14,53.06z"/>
    <path class="fil9" d="M6051.32 2537.12l17.52 11.63c26.2,-4.75 50.11,-12.2 52.89,-23.91 0.08,-0.08 0.08,-0.16 0.08,-0.33 0,-0.08 0,-0.16 -0.08,-0.25 -5.57,-4.26 -9.25,-7.53 -9.25,-7.53l-61.16 20.39z"/>
    <path class="fil9" d="M5999.4 2556.2c23.01,-1.15 46.18,-3.68 68.94,-7.45 -13.51,-3.68 -27.51,-6.63 -41.51,-8.6 -16.95,-1.8 -25.63,12.69 -27.43,16.05z"/>
    <path class="fil30" d="M5559.79 1873.08c0,12.69 34.96,20.8 34.96,20.8l106.53 94.9c0,0 66.98,29.89 109.55,73.04 42.58,43.07 80.16,6.06 80.16,6.06 45.12,-11.14 175.14,-168.43 175.14,-168.43 0,0 3.03,179.64 9.09,192.83 6.14,13.1 -2.05,49.13 -5.57,64.44 -1.8,10.15 -2.7,20.55 -2.7,30.95 0,2.54 0.08,5.08 0.16,7.53 0.08,2.46 -48.72,186.19 -44.62,202.41 4.09,16.21 -26.37,92.36 -26.37,92.36l0 63.37c0,0 119.22,-4.59 125.77,-31.44 6.55,-26.86 -29.89,-38.57 -29.89,-38.57l0 -6.63c23.83,-12.12 28.33,-95.8 28.33,-95.8 0,0 35.54,-103.5 40.61,-120.77 5.08,-17.19 0,-43.15 0,-43.15l3.52 -22.27c0,0 7.61,-15.23 7.61,-18.26 0.98,-7.7 4.01,-15.07 8.68,-21.29 5.57,-6.63 -6.14,-22.35 -6.14,-22.35l10.15 -26.37 0 -28.9 23.91 -104.97c0,0 24.89,-122.25 16.21,-162.37 -8.6,-40.04 10.15,-60.35 10.15,-60.35 -40.69,21.37 -61.25,-26.12 -67.96,-46.59 -1.72,-5.24 -2.54,-8.76 -2.54,-8.76 0,0 -55.92,-20.55 -108,-15.64 -10.56,0.82 -20.96,3.11 -30.95,6.55 -57.89,20.8 -66.98,107.02 -66.98,107.02l-51.26 78.2c-26.37,69.43 -65.91,76.56 -65.91,76.56 0,0 -92.85,-62.39 -95.55,-65.42 -2.7,-3.11 -37.99,-18.34 -37.99,-18.34 -4.26,-7.29 -10.64,-13.18 -18.34,-16.7 -12.12,-5.08 -13.18,-23.83 -13.18,-23.83 -1.47,-44.13 -27.35,-47.82 -27.35,-47.82 -89.82,-7.45 -89.25,85.32 -89.25,98.01z"/>
    <rect class="fil12" x="6076.15" y="1455.17" width="54.77" height="169.91"/>
    <path class="fil9" d="M6219.66 1107.67c0,0.08 0,0.08 0,0.16 0,0.08 0,0.16 0,0.16 0.41,0.98 0.98,1.88 1.56,2.7l15.15 22.35 39.63 3.93 0.41 -15.64c-12.36,-0.98 -40.45,-4.34 -56.74,-13.67z"/>
    <path class="fil0" d="M6221.22 1110.7c0,0 2.05,89.25 -20.31,101.45 -22.27,12.2 -30.95,75.66 -30.95,75.66 0,0 67.63,44.46 82.7,64.03 15.07,19.57 49.7,66.24 42.58,77.38 -7.12,11.14 17.28,61.9 17.28,61.9 0,0 -44.62,91.3 -34.47,125.85 10.15,34.47 11.14,125.77 11.14,125.77l19.32 0c0,0 -6.14,-75.08 -6.14,-105.54 0,-30.46 20.31,-139.03 20.31,-139.03 0,0 9.17,-106.44 0,-109.47 -9.17,-3.03 -62.88,-45.69 -66.98,-65.01 -4.01,-19.24 28.41,-198.97 28.41,-198.97 0,0 -41.59,-1.8 -62.88,-14z"/>
    <path class="fil9" d="M6075.14 1439.44c1.8,12.36 6.39,24.24 13.26,34.72l37.5 -6.3c0,0 112.58,-25.46 135.84,-27.51 14,-1.8 27.76,-5.73 40.69,-11.63 -8.92,-31.52 -26.37,-60.18 -50.36,-82.53l-14.25 -13.26c-21.04,-19.57 -45.53,-35.21 -72.05,-46.1 1.64,1.39 119.79,102.27 93.92,122.08 -25.87,19.73 -95.55,-28.41 -95.55,-28.41l-79.18 -68.04 -2.87 -2.46 -4.59 7.12c2.37,0.9 4.67,2.05 6.88,3.28 26.94,14.82 47,39.71 55.68,69.19 16.29,54.78 -64.93,49.86 -64.93,49.86z"/>
    <path class="fil42" d="M6050.74 1693.03c0,0 75.08,41.59 93.34,18.26 3.93,-5.16 12.36,-7.37 22.84,-7.94 -1.72,-5.24 -2.54,-8.76 -2.54,-8.76 0,0 -55.92,-20.63 -108,-15.72 -3.44,8.6 -5.65,14.17 -5.65,14.17z"/>
    <path class="fil43" d="M6085.3 1310.07l82.04 70.58c0,0 69.43,48.31 95.55,28.41 26.12,-19.98 -94,-122.08 -94,-122.08l0 0c26.53,10.89 50.93,26.53 72.05,45.93l14.25 13.26c37.58,34.8 46.1,34.8 47.33,85.97 0.33,12.61 -3.93,30.7 -7.29,33.98 -12.12,11.95 -20.63,98.66 -18.83,108.82 1.88,10.15 -22.68,97.76 -14.66,122.16 7.94,24.32 -99.57,-12.2 -117.74,11.14 -18.18,23.34 -93.26,-18.26 -93.26,-18.26 0,0 41.59,-106.53 51.75,-113.65 10.15,-7.04 22.35,-61.9 0,-87.2 -22.35,-25.38 -24.32,-49.7 -24.32,-49.7 0,0 81.22,4.99 64.93,-49.78 -9.25,-32.01 -32.1,-58.54 -62.39,-72.46l4.59 -7.12z"/>
    <path class="fil9" d="M6194.85 1489.64c0,0 -31.52,59.36 -72.22,74.76 -1.31,0.49 -2.62,0.9 -4.01,1.31 -42.5,12.94 79.42,-57.64 76.23,-76.07z"/>
    <path class="fil41" d="M5754.58 964.62c0,0 15.15,38.57 27.35,51.75 12.2,13.18 102.43,145.09 102.43,145.09l7.7 15.88 6.55 13.59 57.81 -6.14 4.01 -23.25 -2.21 -2.7c-5.81,-7.04 -21.7,-25.71 -32.34,-33.9 -13.18,-10.07 -39.55,-43.56 -39.55,-43.56 0,0 -82.13,-85.24 -88.27,-108.57 -6.06,-23.34 -88.27,-163.19 -106.44,-138.95 -18.26,24.15 62.97,130.76 62.97,130.76z"/>
    <g id="_1800091706672">
     <path class="fil35" d="M5922.36 1591.99c-1.31,-0.08 -2.62,-0.16 -3.93,-0.16 -5.65,0 -11.22,1.06 -16.46,3.11 -14.33,6.96 -17.03,25.79 -25.06,39.63 -9.25,16.13 -27.02,26.12 -45.28,29.8 -3.6,0.74 -7.37,1.23 -10.97,1.56 3.93,0.33 8.02,0.57 12.04,0.57 7.61,0 15.31,-0.74 22.76,-2.13 18.26,-3.68 36.03,-13.67 45.36,-29.8 7.94,-13.84 10.64,-32.67 24.97,-39.63 3.77,-1.64 7.86,-2.62 11.95,-2.78l-15.39 -0.16z"/>
     <path class="fil9" d="M6063.76 1286.66c0,-31.61 20.55,-58.87 37.5,-85.56 16.95,-26.69 31.2,-60.43 17.77,-89.09 -11.46,-24.48 -80.57,-57.32 -120.44,-50.85 39.06,5.08 87.2,30.79 96.62,50.85 13.35,28.66 -0.9,62.39 -17.85,89.09 -16.95,26.69 -37.58,53.96 -37.5,85.56 0,40.86 -2.78,71.64 -14,111.11 -3.19,11.38 27.92,28.49 23.09,39.22 -16.13,35.86 -8.6,77.13 -11.14,116.35 -0.08,7.61 -1.97,15.15 -5.49,21.94 -7.94,13.1 -24.24,16.46 -40.12,17.19l13.84 0c18.59,0 40.61,-1.39 50.19,-17.28 3.52,-6.8 5.4,-14.33 5.4,-22.03 2.62,-39.14 -4.91,-80.49 11.22,-116.27 4.83,-10.73 -26.28,-27.84 -23.09,-39.22 11.22,-39.22 14.08,-70.17 14,-111.03z"/>
    </g>
    <path class="fil9" d="M5892.06 1177.27l6.55 13.59 57.81 -6.14 4.01 -23.25 -2.21 -2.7c-6.22,3.03 -52.4,25.22 -66.16,18.5z"/>
    <path class="fil9" d="M6105.6 1329.81c0,0 -14.25,-22.27 -22.35,-16.21 -8.11,6.06 -11.3,-18.26 -15.97,-14.25 -4.59,4.09 -18.18,15.39 -23.83,-0.41 -4.42,-12.61 -52.48,-92.11 -72.05,-124.13 -4.99,-8.27 -8.11,-13.35 -8.11,-13.35 0,0 -54.78,27.35 -67.96,18.26l0 19.24 11.14 1.06 59.69 111.44c0,0 18.83,29.89 17.52,40.28 -1.23,10.4 24.07,56.09 28.17,59.12 4.01,3.03 47.74,53.79 47.74,53.79 0,0 22.35,109.55 3.03,140.01 -19.32,30.46 -52.73,52.73 -52.73,52.73 0,0 -10.07,29.39 -8.6,32.51 1.47,3.03 -11.71,16.21 -5.65,20.22 6.14,4.09 14.25,32.51 14.25,32.51 0,0 28.41,-45.69 43.81,-52.73 15.31,-7.12 34.96,-100.47 34.96,-100.47 0,0 5.65,-55.02 6.06,-90.56 0.49,-35.45 -1.31,-169.08 10.89,-169.08z"/>
    <path class="fil0" d="M6102.49 1329.81c0,0 -14.17,-22.27 -22.27,-16.21 -8.11,6.06 -11.3,-18.26 -15.97,-14.25 -4.59,4.09 -18.18,15.39 -23.83,-0.41 -4.5,-12.61 -52.57,-92.11 -72.05,-124.13l-8.11 -13.35c0,0 -54.78,27.35 -67.96,18.26l0 19.24 11.14 1.06 59.69 111.44c0,0 18.83,29.89 17.52,40.28 -1.31,10.4 23.91,56.09 28.17,59.12 4.26,3.03 47.74,53.79 47.74,53.79 0,0 22.35,109.55 3.11,140.01 -10.23,15.23 -22.6,28.99 -36.76,40.69 -11.87,9.74 -20.31,23.25 -23.91,38.24 -0.49,1.56 -0.74,3.19 -0.74,4.83 0,0.57 0,1.06 0.08,1.56 1.47,3.03 -11.71,16.21 -5.65,20.31 6.06,4.01 14.25,32.59 14.25,32.59 0,0 28.49,-45.69 43.81,-52.81 15.39,-7.04 35.04,-100.38 35.04,-100.38 0,0 5.57,-55.02 6.06,-90.56 0.49,-35.45 -1.31,-169.33 10.64,-169.33z"/>
    <path class="fil9" d="M5963.54 1791.44c0,0 42.58,7.94 59.69,20.31 17.03,12.28 -64.93,-19.32 -64.93,-19.32l5.24 -0.98z"/>
    <path class="fil9" d="M6065.97 1899.44c0,0 44.46,37.09 36.52,70.58 -7.94,33.49 -28.49,117.66 -28.49,117.66l-8.02 -188.24z"/>
    <path class="fil9" d="M5677.21 1828.21c0,0 -62.64,6.88 -58.63,14.98 4.09,8.11 58.63,-7.45 58.63,-7.45l0 -7.53z"/>
    <path class="fil9" d="M6158.25 2136.4c0,0 3.93,4.99 -19.32,0 -23.25,-5.08 -6.06,-20.72 -6.06,-20.72l25.38 20.72z"/>
    <path class="fil9" d="M6150.23 2206.41c0,0 -31.77,4.99 -48.88,0 -17.03,-5.08 48.88,0 48.88,0z"/>
    <path class="fil9" d="M6084.72 2480.3c0,0 -5.57,-6.06 -33.41,5.08 -27.92,11.14 -39.06,11.63 -47.24,7.94 -8.11,-3.68 80.65,-13.02 80.65,-13.02z"/>
    <path class="fil9" d="M6115.76 1819.61l-39.63 55.02c0,0 21.29,-48.23 39.63,-55.02z"/>
    <path class="fil9" d="M6038.79 1313.6c0,0 -1.72,18.26 -27.18,25.38 -25.55,7.12 -30.38,12.94 -30.38,12.94m57.56 -38.32l0 0 0 0z"/>
    <path class="fil9" d="M5972.55 1181.2c0,0 -33.73,23.83 -68.86,18.83m68.86 -18.83l0 0 0 0z"/>
    <path class="fil9" d="M5998.18 1692.53c0,0 9.83,6.14 33.41,-20.88m-33.41 20.88l0 0 0 0z"/>
    <path class="fil9" d="M6243.24 1406.36c0.98,-4.91 -2.46,-9.5 -5.65,-13.35l-6.63 -7.94c-1.23,-1.64 -2.7,-3.19 -4.34,-4.5 -3.93,-3.03 -9.09,-4.01 -13.18,-6.71m29.8 32.51l0 0 0 0z"/>
   </g>
   <g>
    <polygon class="fil44" points="3095.05,4155.8 3117.81,4155.8 3117.81,4026.76 3095.05,4026.76 "/>
    <polygon class="fil44" points="3041.91,4079.9 3041.91,4102.66 3170.95,4102.66 3170.95,4079.9 "/>
   </g>
   <g>
    <polygon class="fil44" points="8153.25,4206.98 8176.01,4206.98 8176.01,4077.93 8153.25,4077.93 "/>
    <polygon class="fil44" points="8100.11,4131.07 8100.11,4153.84 8229.15,4153.84 8229.15,4131.07 "/>
   </g>
   <g>
    <polygon class="fil44" points="4187.73,4144.99 4210.5,4144.99 4210.5,4015.95 4187.73,4015.95 "/>
    <polygon class="fil45" points="4134.51,4069.09 4134.51,4091.85 4263.56,4091.85 4263.56,4069.09 "/>
   </g>
   <path class="fil46" d="M5413.39 4080.31c0,-25.14 -20.39,-45.53 -45.53,-45.53 -25.14,0 -45.53,20.39 -45.53,45.53 0,25.14 20.39,45.53 45.53,45.53 25.14,0 45.53,-20.39 45.53,-45.53z"/>
   <g>
    <g id="_1800091694672">
     <polygon class="fil45" points="7911.7,9159.22 7934.47,9159.22 7934.47,9030.18 7911.7,9030.18 "/>
     <polygon class="fil44" points="7858.56,9083.32 7858.56,9106.08 7987.61,9106.08 7987.61,9083.32 "/>
    </g>
    <g id="_1800091694960">
     <polygon class="fil44" points="7920.71,5369.5 7943.47,5369.5 7943.47,5240.46 7920.71,5240.46 "/>
     <polygon class="fil44" points="7867.57,5293.6 7867.57,5316.36 7996.61,5316.36 7996.61,5293.6 "/>
    </g>
    <path class="fil47" d="M2779.9 5943.89c-10.15,-4.5 -16.7,-14.49 -16.7,-25.63 0,-2.7 0.41,-5.49 1.23,-8.11 0.25,-0.98 0.49,-2.05 0.57,-3.11l0 0c0.08,-0.66 0.16,-1.31 0.16,-1.97 0,-7.53 -6.14,-13.67 -13.67,-13.67 -4.75,0 -9.09,2.37 -11.55,6.39l0 0c-0.66,0.82 -1.23,1.72 -1.64,2.7 -4.42,10.15 -14.41,16.79 -25.55,16.79 -2.78,0 -5.49,-0.41 -8.11,-1.23 -1.06,-0.33 -2.05,-0.57 -3.11,-0.66l0 0c-0.66,-0.08 -1.31,-0.16 -1.97,-0.16 -7.61,0 -13.67,6.14 -13.67,13.67 0,4.75 2.37,9.09 6.3,11.63l0 0c0.9,0.57 1.8,1.15 2.78,1.56 10.15,4.42 16.7,14.49 16.7,25.55 0,2.78 -0.41,5.49 -1.23,8.19 -0.25,0.98 -0.49,1.97 -0.57,3.03l0 0c-0.08,0.66 -0.16,1.39 -0.16,2.05 0,7.53 6.14,13.67 13.67,13.67 4.75,0 9.09,-2.46 11.55,-6.39l0 0c0.66,-0.9 1.23,-1.8 1.64,-2.78 4.42,-10.15 14.41,-16.7 25.55,-16.7 2.78,0 5.49,0.41 8.11,1.23 1.06,0.33 2.05,0.49 3.11,0.57l0 0c0.66,0.16 1.31,0.16 1.97,0.16 7.61,0 13.67,-6.14 13.67,-13.67 0,-4.67 -2.37,-9.09 -6.3,-11.55l0 0c-0.9,-0.66 -1.8,-1.15 -2.78,-1.56l0 0z"/>
    <path class="fil47" d="M3200.35 8531.04c-10.15,-4.42 -16.79,-14.49 -16.79,-25.55 0,-2.78 0.41,-5.57 1.23,-8.19 0.33,-0.98 0.57,-2.05 0.66,-3.03l0 0c0.08,-0.66 0.08,-1.39 0.08,-2.05 0,-7.53 -6.06,-13.67 -13.67,-13.67 -4.67,0 -9.01,2.46 -11.55,6.39l0 0c-0.66,0.82 -1.15,1.8 -1.56,2.78 -4.42,10.15 -14.49,16.7 -25.55,16.7 -2.78,0 -5.57,-0.41 -8.19,-1.23 -0.98,-0.33 -2.05,-0.49 -3.03,-0.57l0 0c-0.66,-0.16 -1.39,-0.16 -2.05,-0.16 -7.53,0 -13.67,6.14 -13.67,13.67 0,4.67 2.46,9.09 6.39,11.55l0 0c0.82,0.66 1.8,1.15 2.7,1.56 10.23,4.42 16.79,14.49 16.79,25.63 0,2.7 -0.41,5.49 -1.23,8.11 -0.33,0.98 -0.49,2.05 -0.66,3.11l0 0c-0.08,0.66 -0.08,1.31 -0.08,1.97 0,7.53 6.14,13.67 13.67,13.67 4.67,0 9.01,-2.37 11.55,-6.39l0 0c0.66,-0.82 1.15,-1.72 1.56,-2.7 4.42,-10.15 14.49,-16.79 25.55,-16.79 2.78,0 5.57,0.41 8.19,1.23 0.98,0.33 2.05,0.57 3.11,0.66l-0.08 0c0.74,0.08 1.39,0.16 2.05,0.16 7.53,0 13.67,-6.14 13.67,-13.67 0,-4.75 -2.37,-9.09 -6.39,-11.63l0 0c-0.82,-0.57 -1.72,-1.15 -2.7,-1.56l0 0z"/>
    <path class="fil47" d="M7022.9 5105.03c-10.15,-4.42 -16.7,-14.41 -16.7,-25.55 0,-2.7 0.41,-5.49 1.23,-8.11 0.33,-0.98 0.49,-2.05 0.57,-3.11l0 0c0.08,-0.66 0.16,-1.31 0.16,-1.97 0,-7.61 -6.14,-13.67 -13.67,-13.67 -4.67,0 -9.09,2.37 -11.55,6.39l0 0c-0.66,0.82 -1.23,1.72 -1.64,2.7 -4.42,10.15 -14.41,16.7 -25.55,16.7 -2.78,0 -5.49,-0.41 -8.11,-1.15 -1.06,-0.33 -2.05,-0.57 -3.11,-0.66l0 0c-0.66,-0.08 -1.31,-0.16 -1.97,-0.16 -7.61,0 -13.67,6.14 -13.67,13.67 0,4.75 2.37,9.09 6.3,11.63l0 0c0.9,0.57 1.8,1.15 2.78,1.56 10.15,4.42 16.7,14.49 16.7,25.55 0,2.78 -0.41,5.49 -1.23,8.19 -0.25,0.98 -0.49,1.97 -0.57,3.03l0 0c-0.08,0.66 -0.16,1.31 -0.16,2.05 0,7.53 6.14,13.67 13.67,13.67 4.75,0 9.09,-2.46 11.55,-6.39l0 0c0.66,-0.9 1.23,-1.8 1.64,-2.78 4.42,-10.15 14.41,-16.7 25.55,-16.7 2.78,0 5.49,0.41 8.11,1.23 1.06,0.33 2.05,0.49 3.11,0.57l0 0c0.66,0.08 1.31,0.16 1.97,0.16 7.61,0 13.67,-6.14 13.67,-13.67 0,-4.67 -2.37,-9.09 -6.3,-11.55l0 0c-0.9,-0.66 -1.8,-1.15 -2.78,-1.56l0 -0.08z"/>
    <path class="fil47" d="M6971.97 5723.22c-10.15,-4.5 -16.7,-14.49 -16.7,-25.63 0,-2.7 0.41,-5.49 1.15,-8.11 0.33,-0.98 0.57,-2.05 0.66,-3.11l0 0c0.08,-0.66 0.16,-1.31 0.16,-1.97 0,-7.53 -6.14,-13.67 -13.67,-13.67 -4.75,0 -9.09,2.37 -11.63,6.39l0 0c-0.57,0.82 -1.15,1.72 -1.56,2.7 -4.42,10.15 -14.49,16.7 -25.55,16.7 -2.78,0 -5.49,-0.41 -8.19,-1.15 -0.98,-0.33 -1.97,-0.57 -3.03,-0.66l0 0c-0.66,-0.08 -1.31,-0.16 -2.05,-0.16 -7.53,0 -13.67,6.14 -13.67,13.67 0,4.75 2.46,9.09 6.39,11.63l0 0c0.9,0.57 1.8,1.15 2.78,1.56 10.15,4.42 16.7,14.49 16.7,25.55 0,2.78 -0.41,5.49 -1.23,8.19 -0.33,0.98 -0.49,1.97 -0.57,3.03l0 0c-0.08,0.66 -0.16,1.31 -0.16,2.05 0,7.53 6.14,13.67 13.67,13.67 4.67,0 9.09,-2.46 11.55,-6.39l0 0c0.66,-0.9 1.15,-1.8 1.56,-2.78 4.5,-10.15 14.49,-16.7 25.63,-16.7 2.7,0 5.49,0.41 8.11,1.23 0.98,0.33 2.05,0.49 3.11,0.57l0 0c0.66,0.08 1.31,0.16 1.97,0.16 7.53,0 13.67,-6.14 13.67,-13.67 0,-4.67 -2.37,-9.09 -6.39,-11.55l0 0c-0.82,-0.66 -1.72,-1.15 -2.7,-1.56l0 0z"/>
    <path class="fil47" d="M8125.49 6944.95c-10.15,-4.42 -16.7,-14.49 -16.7,-25.55 0,-2.78 0.41,-5.49 1.23,-8.11 0.33,-1.06 0.49,-2.05 0.57,-3.11l0 0c0.08,-0.66 0.16,-1.31 0.16,-1.97 0,-7.61 -6.14,-13.76 -13.67,-13.76 -4.67,0 -9.09,2.46 -11.55,6.39l0 0c-0.66,0.9 -1.15,1.8 -1.56,2.78 -4.5,10.15 -14.49,16.7 -25.63,16.7 -2.7,0 -5.49,-0.41 -8.11,-1.23 -0.98,-0.33 -2.05,-0.49 -3.11,-0.57l0 0c-0.66,-0.08 -1.31,-0.16 -1.97,-0.16 -7.61,0 -13.67,6.14 -13.67,13.67 0,4.67 2.37,9.09 6.39,11.55l0 0c0.82,0.66 1.72,1.23 2.7,1.64 10.15,4.42 16.79,14.41 16.79,25.55 0,2.87 -0.49,5.73 -1.31,8.52 -0.33,0.98 -0.57,1.97 -0.66,3.03l0 0c-0.08,0.66 -0.16,1.31 -0.16,2.05 0,7.53 6.14,13.67 13.67,13.67 4.75,0 9.09,-2.46 11.63,-6.39l0 0c0.57,-0.9 1.15,-1.8 1.56,-2.78 4.42,-10.15 14.49,-16.7 25.55,-16.7 2.78,0 5.57,0.41 8.19,1.23 0.98,0.33 2.05,0.49 3.03,0.57l0 0c0.66,0.08 1.39,0.16 2.05,0.16 7.53,0 13.67,-6.14 13.67,-13.67 0,-4.67 -2.46,-9.09 -6.39,-11.55l0 0c-0.82,-0.74 -1.72,-1.39 -2.7,-1.97l0 0z"/>
    <path class="fil46" d="M2829.27 4903.85c0,-25.14 -20.39,-45.53 -45.53,-45.53 -25.14,0 -45.53,20.39 -45.53,45.53 0,25.22 20.39,45.61 45.53,45.61 25.14,0 45.53,-20.39 45.53,-45.61z"/>
    <path class="fil46" d="M2495.36 8174.7c0,-25.14 -20.39,-45.53 -45.53,-45.53 -25.14,0 -45.53,20.39 -45.53,45.53 0,25.14 20.39,45.53 45.53,45.53 25.14,0 45.53,-20.39 45.53,-45.53z"/>
    <path class="fil46" d="M5871.59 4948.72c0,-25.14 -20.39,-45.53 -45.61,-45.53 -25.14,0 -45.53,20.39 -45.53,45.53 0,25.22 20.39,45.61 45.53,45.61 25.22,0 45.61,-20.39 45.61,-45.61z"/>
    <path class="fil46" d="M2452.38 7041.24c0,-25.14 -20.39,-45.53 -45.53,-45.53 -25.14,0 -45.53,20.39 -45.53,45.53 0,25.14 20.39,45.53 45.53,45.53 25.14,0 45.53,-20.39 45.53,-45.53z"/>
    <path class="fil45" d="M4236.13 4830.16c0,-25.14 -20.39,-45.53 -45.53,-45.53 -25.22,0 -45.61,20.39 -45.61,45.53 0,25.14 20.39,45.53 45.61,45.53 25.14,0 45.53,-20.39 45.53,-45.53z"/>
    <path class="fil46" d="M7368.76 7855.53c0,-25.22 -20.39,-45.61 -45.61,-45.61 -25.14,0 -45.53,20.39 -45.53,45.61 0,25.14 20.39,45.53 45.53,45.53 25.22,0 45.61,-20.39 45.61,-45.53z"/>
    <path class="fil0" d="M5285.9 6072.2l-43.64 9.25c-18.5,3.93 -456.97,92.36 -676.98,-134.28 -104.48,-107.75 -173.09,-238.92 -193.24,-369.2 -21.53,-139.36 13.67,-262.01 99.73,-345.2 85.97,-83.27 209.53,-114.8 348.15,-88.92 129.86,24.24 258.74,96.95 363.14,204.7l0 0c219.68,226.72 117.5,662.16 112.99,680.58l-10.15 43.07zm-644.23 -782.2c-26.69,9.25 -51.09,24.24 -71.4,43.72 -52.16,50.52 -72.95,129.45 -58.54,222.39 15.72,101.86 70.83,205.85 155.16,292.8 131.09,135.27 395.15,116.27 501.1,101.69 17.52,-105.38 45.2,-368.87 -85.89,-504.05l0 -0.08c-84.34,-86.96 -186.6,-145.25 -287.89,-164.09 -56.74,-10.81 -108.74,-7.86 -152.54,7.61z"/>
    <path class="fil0" d="M5221.22 6074.16l-9.91 -43.56c-4.18,-18.5 -98.83,-455.66 124.7,-678.45l0 0c106.28,-106.03 236.55,-176.45 366.74,-198.31 138.95,-23.5 262.1,10.15 346.51,94.82 84.5,84.66 117.66,207.89 93.75,346.84 -22.44,129.94 -93.34,259.89 -199.62,366.08 -223.37,222.47 -660.2,126.67 -678.78,122.49l-43.4 -9.91zm657.66 -771.06c-43.48,-16.29 -95.72,-20.06 -152.46,-10.4 -101.61,17.19 -205.11,73.69 -290.59,159.26l0 0c-133.38,133.05 -110.37,396.63 -94.57,502.58 105.62,16.05 369.28,40.04 502.82,-93.02 85.81,-85.56 142.72,-188.57 160.24,-290.1 15.97,-92.61 -3.44,-171.95 -54.78,-223.29 -19.98,-19.98 -44.22,-35.37 -70.74,-45.03l0.08 0z"/>
    <g id="_1800091682704">
     <g>
      <image x="3104.96" y="5710.94" width="4502.15" height="3632.43" xlink:href="win exciting gift prizes_Images\win exciting gift prizes_ImgID1.png"/>
     </g>
    </g>
    <rect class="fil25" x="3377.23" y="6214.79" width="3712.91" height="3013.42"/>
    <rect class="fil0" x="4883.9" y="6752.89" width="699.56" height="2475.32"/>
    <polygon class="fil9" points="3377.21,6806.74 7090.12,6806.74 7090.12,6053.36 3377.21,6053.36 "/>
    <rect class="fil48" x="3161.96" y="5999.52" width="4143.38" height="753.37"/>
    <rect class="fil0" x="4883.9" y="5999.52" width="699.56" height="753.37"/>
    <path class="fil49" d="M6107.65 4847.19c0,0 71.97,-92.77 126.59,-30.38 54.7,62.47 -86.06,70.25 -86.06,70.25l-40.53 -39.88z"/>
    <ellipse class="fil49" cx="6171.82" cy="5070.54" rx="15.59" ry="27.35"/>
    <polygon class="fil9" points="6085.95,5417.98 6093.73,5394.56 6117.15,5410.2 "/>
    <path class="fil9" d="M6592.62 5533.35c0,0 -84.99,41.02 -108.41,79.83m108.41 -79.83l0 0 0 0z"/>
    <polygon class="fil9" points="6554.38,5277.47 6546.52,5300.89 6530.89,5277.47 "/>
   </g>
   <path class="fil2" d="M2586.74 5228.34c-57.73,-57.97 -122.66,-92.69 -173.01,-97.44l51.67 92.44 -84.99 -90.64c-13.18,2.87 -25.22,9.74 -34.23,19.81 -42.74,49.54 -4.09,161.79 86.22,252.43 90.31,90.64 198.15,124.54 240.73,75.66 42.58,-48.88 3.44,-162.12 -86.38,-252.27z"/>
   <path class="fil3" d="M2617.45 5283.94c-15.48,22.76 -23.09,52.98 -40.45,73.94 -17.28,21.04 -47.65,32.26 -88.84,13.92 -22.27,-9.91 -45.2,-27.43 -67.63,-39.79 -18.18,-10.56 -38.4,-17.28 -59.28,-19.65 19.24,33.9 43.07,65.18 70.66,92.61 90.31,90.64 198.15,124.54 240.73,75.66 35.7,-40.94 14.17,-127 -46.92,-207.24 -3.03,3.28 -5.81,6.88 -8.27,10.56l0 0z"/>
   <path class="fil1" d="M2487.26 3719.87c-15.48,22.76 -23.09,52.98 -40.45,73.94 -17.28,21.04 -47.65,32.26 -88.84,13.92 -22.27,-9.91 -45.2,-27.43 -67.63,-39.79 -18.18,-10.56 -38.4,-17.28 -59.28,-19.65 19.24,33.9 43.07,65.18 70.66,92.61 90.31,90.64 198.15,124.54 240.73,75.66 35.7,-40.94 14.17,-127 -46.92,-207.24 -3.03,3.28 -5.81,6.88 -8.27,10.56l0 0z"/>
   <path class="fil1" d="M3245.14 3063.77c-15.48,22.76 -23.09,52.98 -40.45,73.94 -17.28,21.04 -47.65,32.26 -88.84,13.92 -22.27,-9.91 -45.2,-27.43 -67.63,-39.79 -18.18,-10.56 -38.4,-17.28 -59.28,-19.65 19.24,33.9 43.07,65.18 70.66,92.61 90.31,90.64 198.15,124.54 240.73,75.66 35.7,-40.94 14.17,-127 -46.92,-207.24 -3.03,3.28 -5.81,6.88 -8.27,10.56l0 0z"/>
   <path class="fil23" d="M4239.16 4394.56c-57.73,-57.97 -122.66,-92.69 -173.01,-97.44l51.67 92.44 -84.99 -90.64c-13.18,2.87 -25.22,9.74 -34.23,19.81 -42.74,49.54 -4.09,161.79 86.22,252.43 90.31,90.64 198.15,124.54 240.73,75.66 42.58,-48.88 3.44,-162.12 -86.38,-252.27z"/>
   <path class="fil24" d="M4269.86 4450.16c-15.48,22.76 -23.09,52.98 -40.45,73.94 -17.28,21.04 -47.65,32.26 -88.84,13.92 -22.27,-9.91 -45.2,-27.43 -67.63,-39.79 -18.18,-10.56 -38.4,-17.28 -59.28,-19.65 19.24,33.9 43.07,65.18 70.66,92.61 90.31,90.64 198.15,124.54 240.73,75.66 35.7,-40.94 14.17,-127 -46.92,-207.24 -3.03,3.28 -5.81,6.88 -8.27,10.56l0 0z"/>
   <path class="fil23" d="M2546.46 3031.35c-57.73,-57.97 -122.66,-92.69 -173.01,-97.44l51.67 92.44 -84.99 -90.64c-13.18,2.87 -25.22,9.74 -34.23,19.81 -42.74,49.54 -4.09,161.79 86.22,252.43 90.31,90.64 198.15,124.54 240.73,75.66 42.58,-48.88 3.44,-162.12 -86.38,-252.27z"/>
   <path class="fil24" d="M2577.16 3086.94c-15.48,22.76 -23.09,52.98 -40.45,73.94 -17.28,21.04 -47.65,32.26 -88.84,13.92 -22.27,-9.91 -45.2,-27.43 -67.63,-39.79 -18.18,-10.56 -38.4,-17.28 -59.28,-19.65 19.24,33.9 43.07,65.18 70.66,92.61 90.31,90.64 198.15,124.54 240.73,75.66 35.7,-40.94 14.17,-127 -46.92,-207.24 -3.03,3.28 -5.81,6.88 -8.27,10.56l0 0z"/>
   <path class="fil23" d="M4198.87 2197.57c-57.73,-57.97 -122.66,-92.69 -173.01,-97.44l51.67 92.44 -84.99 -90.64c-13.18,2.87 -25.22,9.74 -34.23,19.81 -42.74,49.54 -4.09,161.79 86.22,252.43 90.31,90.64 198.15,124.54 240.73,75.66 42.58,-48.88 3.44,-162.12 -86.38,-252.27z"/>
   <path class="fil24" d="M4229.58 2253.16c-15.48,22.76 -23.09,52.98 -40.45,73.94 -17.28,21.04 -47.65,32.26 -88.84,13.92 -22.27,-9.91 -45.2,-27.43 -67.63,-39.79 -18.18,-10.56 -38.4,-17.28 -59.28,-19.65 19.24,33.9 43.07,65.18 70.66,92.61 90.31,90.64 198.15,124.54 240.73,75.66 35.7,-40.94 14.17,-127 -46.92,-207.24 -3.03,3.28 -5.81,6.88 -8.27,10.56l0 0z"/>
  </g>
 </g>
</svg>
